<svg xmlns="http://www.w3.org/2000/svg" xmlns:xlink="http://www.w3.org/1999/xlink" width="319.006" height="203.827" viewBox="0 0 319.006 203.827"><defs><clipPath id="a"><path d="M0-16.848H319.006V-220.675H0Z" transform="translate(0 220.675)" fill="none"/></clipPath></defs><g transform="translate(0 220.675)"><g transform="translate(0 -220.675)" clip-path="url(#a)"><g transform="translate(0 0.001)"><path d="M-16.848-8.424A101.913,101.913,0,0,0-118.761-110.337,101.913,101.913,0,0,0-220.675-8.424,101.913,101.913,0,0,0-118.761,93.489c.839,0,1.666-.042,2.5-.063v.063h99.412V-5.923h-.064c.02-.834.064-1.663.064-2.5" transform="translate(220.675 110.337)" fill="#0b2661"/></g><g transform="translate(43.918 82.355)"><path d="M-7.576-3.93a7.443,7.443,0,0,0-.868-.718c-.344-.344-.689-.687-1.036-1.035.347-.347,30.392-33.987,32.719-37.343,3.414-4.923,4.671-7,3-8.234s-6.68,3.308-9.2,5.095C12.609-43.026,2.044-33.881-20.217-16.317c-1.6-1.6-3.08-3.091-4.309-4.316-2.9-2.9-8.3-3.468-11.175-.566-4.271,4.315-1.276,9.488-.441,10.622a31.616,31.616,0,0,0,3.31,3.588c.268.266.89.878,1.748,1.72C-36.42.142-40.61,4.359-41.752,5.428c-4.045,3.783-7.985,7.811-13.558,9.509a20.982,20.982,0,0,1-20.336-3.9,21.285,21.285,0,0,1-8.1-16.718,21.285,21.285,0,0,1,8.1-16.717A20.984,20.984,0,0,1-55.31-26.3a19.779,19.779,0,0,1,3.518,1.481l.042-.042c.333.239.683.494,1,.709,3.558,2.439,8.931,2.519,11.562-.719,3.912-4.811.25-9.647-.734-10.687a7.71,7.71,0,0,0-.59-.538l.038-.038c-.113-.082-.231-.153-.344-.235a15.527,15.527,0,0,0-1.379-.938c-.19-.123-.382-.241-.575-.359-.4-.247-.832-.515-1.314-.832a11.733,11.733,0,0,0-1.458-.7,36.218,36.218,0,0,0-12.465-3.6,36.6,36.6,0,0,0-26.7,7.548A35.142,35.142,0,0,0-97.674-16.531a36,36,0,0,0-1.55,10.848,36,36,0,0,0,1.55,10.849A35.142,35.142,0,0,0-84.708,23.888a36.6,36.6,0,0,0,26.7,7.548,35.618,35.618,0,0,0,21.4-9.866c5.081-4.845,9.953-9.91,14.926-14.87.428-.428.908-.8,1.448-1.276l.26.24C-15.939,9.73-1.746,23.813.983,26.566c2.175,2.195,4.264,4.455,7.48,5.1h1.722c2.063-.733,4.135-1.27,5.438-3.419,2.119-3.491,1.9-7.081-1-9.984Q3.542,7.15-7.576-3.93" transform="translate(99.225 51.469)" fill="#d8dc40"/></g><g transform="translate(43.919 56.074)"><path d="M-1.863-1.643c0,5.944-5.329,9.428-11.272,9.428S-24.406,4.3-24.406-1.643h7.685c0,2.357,1.9,2.972,3.586,2.972S-9.548.458-9.548-1.336c0-1.281-1.691-2.46-4-2.766C-18.925-4.768-24.1-8.048-24.1-12.4c0-5.636,5.021-9.12,10.964-9.12S-2.171-18.038-2.171-12.1H-9.857c0-2.356-1.588-2.97-3.279-2.97s-3.279.614-3.279,2.458c0,1.639,3.381,2.921,6.354,3.279,4.047.463,8.2,3.023,8.2,7.686" transform="translate(24.406 21.522)" fill="#fff"/></g></g><g transform="translate(69.178 -173.004)"><path d="M0-3.049v-36.89H7.685v19.828L16.6-30.716h9.223l-10.2,11.785L28.23-3.049H18.906L7.685-17.65v14.6Z" transform="translate(0 39.939)" fill="#fff"/></g><g transform="translate(0 -220.675)" clip-path="url(#a)"><g transform="translate(95.362 56.074)"><path d="M-2.516-1.211V12.621H-9.69V9.188a9.734,9.734,0,0,1-8.043,4.254c-8.4,0-15.216-6.559-15.216-14.654s6.814-14.654,15.216-14.654S-2.516-9.306-2.516-1.211m-7.378,0A7.674,7.674,0,0,0-17.579-8.9a7.674,7.674,0,0,0-7.685,7.685,7.675,7.675,0,0,0,7.685,7.685A7.675,7.675,0,0,0-9.894-1.211" transform="translate(32.949 15.865)" fill="#fff"/></g></g><path d="M140.079-169.063h7.685v36.89h-7.685Z" transform="translate(-10.695 -3.941)" fill="#fff"/><g transform="translate(0 -220.675)" clip-path="url(#a)"><g transform="translate(139.375 56.074)"><path d="M-2.541-1.211A15.2,15.2,0,0,1-2.8,1.453H-25.135a7.742,7.742,0,0,0,7.224,5.021A7.645,7.645,0,0,0-11.866,3.5H-3.36a15.3,15.3,0,0,1-14.551,9.941c-8.506,0-15.37-6.559-15.37-14.654s6.864-14.654,15.37-14.654S-2.541-9.306-2.541-1.211m-8.146-2.665A7.8,7.8,0,0,0-17.911-8.9a7.74,7.74,0,0,0-7.224,5.02Z" transform="translate(33.281 15.865)" fill="#fff"/></g></g><g transform="translate(219.833 -116.256)"><text transform="translate(0 9)" fill="#0b2661" font-size="12" font-family="SegoeUI, Segoe UI" letter-spacing="-0.037em"><tspan x="0" y="0">S</tspan></text><text transform="translate(8.323 9)" fill="#0b2661" font-size="12" font-family="SegoeUI, Segoe UI" letter-spacing="-0.037em"><tspan x="0" y="0">CA</tspan></text><text transform="translate(29.537 9)" fill="#0b2661" font-size="12" font-family="SegoeUI, Segoe UI" letter-spacing="-0.037em"><tspan x="0" y="0">L</tspan></text><text transform="translate(37.167 9)" fill="#0b2661" font-size="12" font-family="SegoeUI, Segoe UI" letter-spacing="-0.037em"><tspan x="0" y="0">E</tspan></text><text transform="translate(45.189 8)" fill="#0b2661" font-size="10" font-family="SegoeUI, Segoe UI" letter-spacing="-0.037em"><tspan x="0" y="0"> </tspan></text><text transform="translate(0 25.626)" fill="#0b2661" font-size="12" font-family="SegoeUI, Segoe UI" letter-spacing="-0.067em"><tspan x="0" y="0">YO</tspan></text><text transform="translate(19.733 25.626)" fill="#0b2661" font-size="12" font-family="SegoeUI, Segoe UI" letter-spacing="-0.067em"><tspan x="0" y="0">U</tspan></text><text transform="translate(29.735 25.626)" fill="#0b2661" font-size="12" font-family="SegoeUI, Segoe UI" letter-spacing="-0.067em"><tspan x="0" y="0">R</tspan></text><text transform="translate(39.267 24.626)" fill="#0b2661" font-size="10" font-family="SegoeUI, Segoe UI" letter-spacing="-0.067em"><tspan x="0" y="0"> </tspan></text><text transform="translate(0 41.251)" fill="#0b2661" font-size="11" font-family="SegoeUI, Segoe UI" letter-spacing="-0.026em"><tspan x="0" y="0">C</tspan></text><text transform="translate(11.056 42.251)" fill="#0b2661" font-size="12" font-family="SegoeUI, Segoe UI" letter-spacing="-0.026em"><tspan x="0" y="0">U</tspan></text><text transform="translate(20.908 42.251)" fill="#0b2661" font-size="12" font-family="SegoeUI, Segoe UI" letter-spacing="-0.026em"><tspan x="0" y="0">S</tspan></text><text transform="translate(29.189 42.251)" fill="#0b2661" font-size="12" font-family="SegoeUI, Segoe UI" letter-spacing="-0.026em"><tspan x="0" y="0">TO</tspan></text><text transform="translate(48.41 42.251)" fill="#0b2661" font-size="12" font-family="SegoeUI, Segoe UI" letter-spacing="-0.026em"><tspan x="0" y="0">M</tspan></text><text transform="translate(62.054 42.251)" fill="#0b2661" font-size="12" font-family="SegoeUI, Segoe UI" letter-spacing="-0.026em"><tspan x="0" y="0">E</tspan></text><text transform="translate(70.228 42.251)" fill="#0b2661" font-size="12" font-family="SegoeUI, Segoe UI" letter-spacing="-0.026em"><tspan x="0" y="0">R</tspan></text><text transform="translate(0 58.877)" fill="#0b2661" font-size="12" font-family="SegoeUI, Segoe UI" letter-spacing="0.005em"><tspan x="0" y="0">EXPERIENCE</tspan></text></g></g></svg>