<?xml version="1.0" encoding="utf-8"?>
<!-- Generator: Adobe Illustrator 25.4.1, SVG Export Plug-In . SVG Version: 6.00 Build 0)  -->
<svg version="1.1" id="Layer_1" xmlns="http://www.w3.org/2000/svg" xmlns:xlink="http://www.w3.org/1999/xlink" x="0px" y="0px"
	 viewBox="0 0 595.28 841.89" style="enable-background:new 0 0 595.28 841.89;" xml:space="preserve">
<style type="text/css">
	.st0{fill:#132665;}
	.st1{fill:#D7DF23;}
	.st2{fill:#FFFFFF;}
</style>
<g>
	<path class="st0" d="M345.47,421.01c0-60.94-49.4-110.34-110.34-110.34c-60.94,0-110.34,49.4-110.34,110.34
		s49.4,110.34,110.34,110.34c0.91,0,1.8-0.05,2.71-0.07v0.07h107.63V423.72h-0.07C345.42,422.82,345.47,421.92,345.47,421.01"/>
	<path class="st1" d="M271.57,451.31c-0.28-0.28-0.6-0.52-0.94-0.78c-0.37-0.37-0.75-0.74-1.12-1.12
		c0.38-0.38,32.9-36.8,35.42-40.43c3.7-5.33,5.06-7.58,3.25-8.91c-1.81-1.33-7.23,3.58-9.96,5.52c-4.79,3.4-16.23,13.3-40.33,32.32
		c-1.73-1.74-3.34-3.35-4.67-4.67c-3.14-3.14-8.99-3.76-12.1-0.61c-4.62,4.67-1.38,10.27-0.48,11.5c1.03,1.4,2.32,2.63,3.58,3.89
		c0.29,0.29,0.96,0.95,1.89,1.86c-5.78,5.86-10.31,10.42-11.55,11.58c-4.38,4.1-8.65,8.46-14.68,10.29
		c-8.11,2.47-15.38,1.05-22.02-4.22c-5.84-4.65-8.76-11.36-8.77-18.1c0.01-6.74,2.93-13.45,8.77-18.1c6.63-5.28,13.9-6.7,22.02-4.22
		c1.35,0.41,2.61,0.97,3.81,1.6l0.05-0.05c0.36,0.26,0.74,0.54,1.08,0.77c3.85,2.64,9.67,2.73,12.52-0.78
		c4.24-5.21,0.27-10.44-0.79-11.57c-0.21-0.22-0.42-0.4-0.64-0.58l0.04-0.04c-0.12-0.09-0.25-0.17-0.37-0.25
		c-0.45-0.35-0.95-0.68-1.49-1.01c-0.21-0.13-0.41-0.26-0.62-0.39c-0.43-0.27-0.9-0.56-1.42-0.9c-0.25-0.17-0.83-0.44-1.58-0.76
		c-4.13-2.06-8.62-3.38-13.5-3.9c-10.79-1.15-20.43,1.78-28.9,8.17c-6.96,5.24-11.7,12.08-14.04,20.27
		c-1.15,3.77-1.71,7.69-1.68,11.75c-0.03,4.05,0.52,7.98,1.68,11.75c2.34,8.19,7.08,15.02,14.04,20.27
		c8.47,6.39,18.12,9.32,28.9,8.17c8.99-0.96,16.7-4.51,23.17-10.68c5.5-5.25,10.78-10.73,16.16-16.1c0.46-0.46,0.98-0.87,1.57-1.38
		c0.09,0.09,0.19,0.18,0.28,0.26c4.37,4.4,19.74,19.65,22.69,22.63c2.35,2.38,4.62,4.82,8.1,5.52h1.86c2.23-0.79,4.48-1.38,5.89-3.7
		c2.29-3.78,2.06-7.67-1.08-10.81C287.6,467.31,279.59,459.3,271.57,451.31"/>
	<path class="st2" d="M196.75,392.91c0,6.43-5.77,10.21-12.2,10.21c-6.43,0-12.2-3.77-12.2-10.21h8.32c0,2.55,2.05,3.22,3.88,3.22
		c1.83,0,3.88-0.94,3.88-2.88c0-1.39-1.83-2.66-4.33-2.99c-5.82-0.72-11.43-4.27-11.43-8.99c0-6.1,5.44-9.87,11.87-9.87
		c6.43,0,11.87,3.77,11.87,10.21h-8.32c0-2.55-1.72-3.22-3.55-3.22c-1.83,0-3.55,0.67-3.55,2.66c0,1.77,3.66,3.16,6.88,3.55
		C192.25,385.09,196.75,387.86,196.75,392.91"/>
</g>
<polygon class="st2" points="199.69,402.23 199.69,362.29 208.01,362.29 208.01,383.75 217.66,372.27 227.64,372.27 216.61,385.03 
	230.25,402.23 220.16,402.23 208.01,386.42 208.01,402.23 "/>
<g>
	<path class="st2" d="M253,387.25c0-4.6-3.72-8.32-8.32-8.32c-4.6,0-8.32,3.71-8.32,8.32c0,4.6,3.72,8.32,8.32,8.32
		C249.28,395.57,253,391.85,253,387.25 M260.99,387.25v14.98h-7.77v-3.72c-1.88,2.78-5.1,4.61-8.71,4.61
		c-9.1,0-16.47-7.1-16.47-15.87c0-8.76,7.38-15.86,16.47-15.86C253.61,371.39,260.99,378.49,260.99,387.25"/>
</g>
<rect x="264.87" y="362.29" class="st2" width="8.32" height="39.94"/>
<g>
	<path class="st2" d="M300.15,384.37c-1.22-3.16-4.27-5.43-7.82-5.43c-3.61,0-6.6,2.27-7.82,5.43H300.15z M308.97,387.25
		c0,1-0.11,1.94-0.28,2.88h-24.18c1.22,3.16,4.21,5.44,7.82,5.44c2.66,0,5.05-1.28,6.54-3.22h9.21
		c-2.22,6.27-8.43,10.76-15.75,10.76c-9.21,0-16.64-7.1-16.64-15.87c0-8.76,7.43-15.86,16.64-15.86
		C301.54,371.39,308.97,378.49,308.97,387.25"/>
</g>
<g>
	<path class="st0" d="M371.46,431.37c0,2.07-1.62,3.6-4.17,3.6c-2.33,0-4.08-1.77-4.08-3.81h2.34c0.1,0.93,0.78,1.65,1.74,1.65
		c1.11,0,1.84-0.53,1.84-1.44c0-0.9-0.96-1.12-2.55-1.5c-1.75-0.41-3.23-1.26-3.23-2.81c0-1.98,1.53-3.37,3.93-3.37
		c2.16,0,3.97,1.44,3.97,3.34h-2.38c-0.2-0.68-0.86-1.19-1.59-1.19c-0.9,0-1.61,0.5-1.61,1.12c0,0.77,1.46,1.17,2.88,1.42
		C370.04,428.67,371.46,429.66,371.46,431.37z"/>
	<path class="st0" d="M378.82,434.97c-3.25,0-5.88-2.52-5.88-5.64c0-3.12,2.62-5.64,5.88-5.64c2.56,0,4.75,1.57,5.55,3.78h-2.61
		c-0.61-0.97-1.69-1.62-2.94-1.62c-1.92,0-3.48,1.56-3.48,3.48s1.56,3.48,3.48,3.48c1.23,0,2.29-0.63,2.91-1.59h2.61
		C383.53,433.41,381.37,434.97,378.82,434.97z"/>
	<path class="st0" d="M390.16,423.93h2.04l4.8,10.8h-2.7l-0.81-1.98h-4.62l-0.81,1.98h-2.7L390.16,423.93z M389.63,430.89h3.09
		l-1.54-3.78L389.63,430.89z"/>
	<path class="st0" d="M398.5,434.73v-10.8h2.4v8.64h5.1v2.16H398.5z"/>
	<path class="st0" d="M407.72,434.73v-10.8h7.41v2.16h-5.01v2.13h4.11v2.16h-4.11v2.19h5.01v2.16H407.72z"/>
</g>
<g>
	<path class="st0" d="M362.8,441.93h2.61l2.38,3.72l2.39-3.72h2.61l-3.79,5.73v5.07h-2.4v-5.07L362.8,441.93z"/>
	<path class="st0" d="M373.83,447.33c0-3.12,2.61-5.64,5.85-5.64c3.22,0,5.85,2.52,5.85,5.64c0,3.12-2.62,5.64-5.85,5.64
		C376.45,452.97,373.83,450.45,373.83,447.33z M379.69,443.85c-1.91,0-3.45,1.56-3.45,3.48s1.54,3.48,3.45,3.48
		c1.9,0,3.45-1.56,3.45-3.48S381.59,443.85,379.69,443.85z"/>
	<path class="st0" d="M389.66,441.93v6.48c0,1.32,0.93,2.4,2.23,2.4c1.31,0,2.24-1.08,2.24-2.4v-6.48h2.4v6.63
		c0,2.52-2.01,4.41-4.64,4.41c-2.62,0-4.63-1.89-4.63-4.41v-6.63H389.66z"/>
	<path class="st0" d="M398.71,452.73v-10.8h5.37c2,0,3.63,1.61,3.63,3.6c0,1.54-0.99,2.86-2.37,3.37l2.94,3.83h-2.82l-2.7-3.6h-1.65
		v3.6H398.71z M401.11,446.97h2.85c0.66,0,1.35-0.64,1.35-1.44c0-0.8-0.69-1.44-1.35-1.44h-2.85V446.97z"/>
</g>
<g>
	<path class="st0" d="M368.98,470.97c-3.25,0-5.88-2.52-5.88-5.64c0-3.12,2.62-5.64,5.88-5.64c2.56,0,4.75,1.57,5.55,3.78h-2.61
		c-0.61-0.97-1.69-1.62-2.94-1.62c-1.92,0-3.48,1.56-3.48,3.48s1.56,3.48,3.48,3.48c1.23,0,2.29-0.63,2.91-1.59h2.61
		C373.69,469.41,371.53,470.97,368.98,470.97z"/>
	<path class="st0" d="M378.59,459.93v6.48c0,1.32,0.93,2.4,2.24,2.4s2.24-1.08,2.24-2.4v-6.48h2.4v6.63c0,2.52-2.01,4.41-4.63,4.41
		s-4.63-1.89-4.63-4.41v-6.63H378.59z"/>
	<path class="st0" d="M395.55,467.37c0,2.07-1.62,3.6-4.17,3.6c-2.33,0-4.08-1.77-4.08-3.81h2.34c0.1,0.93,0.78,1.65,1.74,1.65
		c1.11,0,1.84-0.53,1.84-1.44c0-0.9-0.96-1.12-2.55-1.5c-1.75-0.41-3.23-1.26-3.23-2.81c0-1.98,1.53-3.37,3.93-3.37
		c2.16,0,3.97,1.44,3.97,3.34h-2.38c-0.2-0.68-0.86-1.19-1.59-1.19c-0.9,0-1.61,0.5-1.61,1.12c0,0.77,1.46,1.17,2.88,1.42
		C394.13,464.67,395.55,465.66,395.55,467.37z"/>
	<path class="st0" d="M405.44,459.93v2.16h-3.12v8.64h-2.4v-8.64h-3.12v-2.16H405.44z"/>
	<path class="st0" d="M406.57,465.33c0-3.12,2.61-5.64,5.85-5.64c3.22,0,5.85,2.52,5.85,5.64c0,3.12-2.62,5.64-5.85,5.64
		C409.17,470.97,406.57,468.45,406.57,465.33z M412.42,461.85c-1.91,0-3.45,1.56-3.45,3.48s1.54,3.48,3.45,3.48s3.45-1.56,3.45-3.48
		S414.32,461.85,412.42,461.85z"/>
	<path class="st0" d="M420.07,470.73v-10.8h2.34l4.18,7.88l4.18-7.88h2.34v10.8h-2.4v-6.21l-3.15,6.21h-1.95l-3.15-6.21v6.21H420.07
		z"/>
	<path class="st0" d="M435.36,470.73v-10.8h7.41v2.16h-5.01v2.13h4.11v2.16h-4.11v2.19h5.01v2.16H435.36z"/>
	<path class="st0" d="M444.8,470.73v-10.8h5.37c1.99,0,3.63,1.61,3.63,3.6c0,1.54-0.99,2.86-2.37,3.37l2.94,3.83h-2.82l-2.7-3.6
		h-1.65v3.6H444.8z M447.2,464.97h2.85c0.66,0,1.35-0.64,1.35-1.44c0-0.8-0.69-1.44-1.35-1.44h-2.85V464.97z"/>
</g>
<g>
	<path class="st0" d="M363.55,488.73v-10.8h7.41v2.16h-5.01v2.13h4.11v2.16h-4.11v2.19h5.01v2.16H363.55z"/>
	<path class="st0" d="M372.23,488.73l4.09-5.65l-3.54-5.15h2.67l2.2,3.36l2.21-3.36h2.67l-3.54,5.15l4.09,5.65h-2.88l-2.55-3.76
		l-2.55,3.76H372.23z"/>
	<path class="st0" d="M384.59,488.73v-10.8h5.37c2,0,3.63,1.61,3.63,3.6c0,1.99-1.63,3.6-3.63,3.6h-2.97v3.6H384.59z M386.99,480.09
		v2.88h2.85c0.66,0,1.35-0.64,1.35-1.44c0-0.8-0.69-1.44-1.35-1.44H386.99z"/>
	<path class="st0" d="M395.24,488.73v-10.8h7.41v2.16h-5.01v2.13h4.11v2.16h-4.11v2.19h5.01v2.16H395.24z"/>
	<path class="st0" d="M404.68,488.73v-10.8h5.37c2,0,3.63,1.61,3.63,3.6c0,1.54-0.99,2.86-2.37,3.37l2.94,3.83h-2.82l-2.7-3.6h-1.65
		v3.6H404.68z M407.08,482.97h2.85c0.66,0,1.35-0.64,1.35-1.44c0-0.8-0.69-1.44-1.35-1.44h-2.85V482.97z"/>
	<path class="st0" d="M418.15,488.73h-2.4v-10.8h2.4V488.73z"/>
	<path class="st0" d="M420.4,488.73v-10.8h7.41v2.16h-5.01v2.13h4.11v2.16h-4.11v2.19h5.01v2.16H420.4z"/>
	<path class="st0" d="M429.83,488.73v-10.8h2.22l5.46,7.12v-7.12h2.4v10.8h-2.25l-5.43-7.06v7.06H429.83z"/>
	<path class="st0" d="M447.59,488.97c-3.25,0-5.88-2.52-5.88-5.64c0-3.12,2.62-5.64,5.88-5.64c2.57,0,4.75,1.57,5.55,3.78h-2.61
		c-0.62-0.97-1.7-1.62-2.94-1.62c-1.92,0-3.48,1.56-3.48,3.48s1.56,3.48,3.48,3.48c1.23,0,2.29-0.63,2.91-1.59h2.61
		C452.3,487.41,450.14,488.97,447.59,488.97z"/>
	<path class="st0" d="M454.88,488.73v-10.8h7.41v2.16h-5.01v2.13h4.11v2.16h-4.11v2.19h5.01v2.16H454.88z"/>
</g>
</svg>
