<svg xmlns="http://www.w3.org/2000/svg" width="337.5" height="220.67" viewBox="0 0 337.5 220.67">
  <defs>
    <style>
      .cls-1 {
        fill: #132665;
      }

      .cls-2 {
        fill: #d7df23;
      }

      .cls-3 {
        fill: #fff;
      }
    </style>
  </defs>
  <g id="Layer_2" data-name="Layer 2">
    <g id="Layer_1-2" data-name="Layer 1">
      <g>
        <g>
          <path class="cls-1" d="M220.68,110.34A110.34,110.34,0,1,0,110.34,220.67c.91,0,1.8,0,2.71-.06v.06H220.68V113h-.07c0-.9.07-1.8.07-2.7"/>
          <path class="cls-2" d="M146.77,140.63a8.28,8.28,0,0,0-.94-.78l-1.12-1.12c.38-.37,32.91-36.79,35.43-40.43,3.69-5.33,5.05-7.58,3.24-8.91s-7.23,3.58-10,5.51c-4.79,3.4-16.23,13.3-40.33,32.32-1.73-1.74-3.34-3.35-4.67-4.67-3.14-3.14-9-3.76-12.1-.62-4.62,4.68-1.38,10.28-.47,11.5a34.37,34.37,0,0,0,3.58,3.89l1.89,1.86C115.55,145,111,149.6,109.77,150.76c-4.38,4.1-8.64,8.46-14.68,10.3-8.11,2.47-15.38,1.05-22-4.23a23,23,0,0,1,0-36.2c6.63-5.27,13.9-6.69,22-4.22A21.23,21.23,0,0,1,98.9,118l0,0,1.08.77c3.85,2.64,9.67,2.72,12.52-.78,4.23-5.21.27-10.45-.8-11.57-.21-.22-.42-.4-.64-.59l0,0-.37-.25a16.14,16.14,0,0,0-1.49-1l-.62-.38c-.44-.27-.91-.56-1.43-.91a13.44,13.44,0,0,0-1.58-.76,39.18,39.18,0,0,0-13.49-3.89,39.6,39.6,0,0,0-28.9,8.17,38,38,0,0,0-14,20.27,41.9,41.9,0,0,0,0,23.49,38,38,0,0,0,14,20.27,39.6,39.6,0,0,0,28.9,8.17,38.58,38.58,0,0,0,23.17-10.68c5.5-5.25,10.78-10.73,16.16-16.1.46-.46,1-.87,1.57-1.38l.28.26c4.37,4.4,19.74,19.65,22.69,22.63,2.36,2.37,4.62,4.82,8.1,5.51H166c2.24-.79,4.48-1.37,5.89-3.7,2.29-3.78,2.06-7.66-1.08-10.81q-12-12-24-24"/>
          <path class="cls-3" d="M72,82.23c0,6.44-5.77,10.21-12.21,10.21s-12.2-3.77-12.2-10.21h8.32c0,2.55,2.05,3.22,3.88,3.22s3.89-.94,3.89-2.89c0-1.38-1.84-2.66-4.33-3-5.83-.72-11.43-4.27-11.43-9,0-6.1,5.44-9.87,11.87-9.87s11.87,3.77,11.87,10.2H63.3c0-2.55-1.72-3.21-3.55-3.21s-3.55.66-3.55,2.66c0,1.77,3.66,3.16,6.88,3.55,4.38.5,8.88,3.27,8.88,8.32"/>
        </g>
        <polygon class="cls-3" points="74.9 91.55 74.9 51.61 83.22 51.61 83.22 73.08 92.87 61.6 102.85 61.6 91.81 74.36 105.46 91.55 95.36 91.55 83.22 75.74 83.22 91.55 74.9 91.55"/>
        <path class="cls-3" d="M128.21,76.57a8.33,8.33,0,1,0-8.33,8.32,8.32,8.32,0,0,0,8.33-8.32m8,0v15h-7.76V87.83a10.55,10.55,0,0,1-8.71,4.61c-9.1,0-16.48-7.1-16.48-15.87s7.38-15.86,16.48-15.86,16.47,7.1,16.47,15.86"/>
        <rect class="cls-3" x="140.08" y="51.61" width="8.32" height="39.94"/>
        <path class="cls-3" d="M175.36,73.69a8.34,8.34,0,0,0-15.64,0Zm8.82,2.88a16.18,16.18,0,0,1-.28,2.89H159.72a8.37,8.37,0,0,0,7.82,5.43,8.27,8.27,0,0,0,6.54-3.21h9.21a16.57,16.57,0,0,1-15.75,10.76c-9.21,0-16.64-7.1-16.64-15.87s7.43-15.86,16.64-15.86,16.64,7.1,16.64,15.86"/>
        <g>
          <path class="cls-1" d="M246.67,120.69c0,2.07-1.62,3.6-4.17,3.6a4,4,0,0,1-4.08-3.81h2.34a1.76,1.76,0,0,0,1.74,1.65c1.11,0,1.85-.53,1.85-1.44s-1-1.13-2.55-1.5c-1.76-.41-3.23-1.26-3.23-2.81,0-2,1.53-3.37,3.93-3.37,2.16,0,4,1.44,4,3.35h-2.39a1.67,1.67,0,0,0-1.59-1.19c-.9,0-1.6.49-1.6,1.12s1.45,1.17,2.88,1.43A3.17,3.17,0,0,1,246.67,120.69Z"/>
          <path class="cls-1" d="M254,124.29A5.64,5.64,0,1,1,254,113a5.84,5.84,0,0,1,5.55,3.78H257a3.44,3.44,0,0,0-2.94-1.62,3.48,3.48,0,0,0,0,7,3.43,3.43,0,0,0,2.91-1.59h2.61A5.84,5.84,0,0,1,254,124.29Z"/>
          <path class="cls-1" d="M265.36,113.25h2l4.8,10.8h-2.7l-.81-2h-4.62l-.81,2h-2.7Zm-.52,7h3.09l-1.55-3.78Z"/>
          <path class="cls-1" d="M273.7,124.05v-10.8h2.4v8.64h5.1v2.16Z"/>
          <path class="cls-1" d="M282.93,124.05v-10.8h7.41v2.16h-5v2.13h4.11v2.16h-4.11v2.19h5v2.16Z"/>
        </g>
        <g>
          <path class="cls-1" d="M238,131.25h2.61L243,135l2.38-3.72H248L244.2,137v5.07h-2.4V137Z"/>
          <path class="cls-1" d="M249,136.65a5.85,5.85,0,1,1,5.85,5.64A5.74,5.74,0,0,1,249,136.65Zm5.85-3.48a3.48,3.48,0,1,0,3.45,3.48A3.47,3.47,0,0,0,254.89,133.17Z"/>
          <path class="cls-1" d="M264.87,131.25v6.48a2.24,2.24,0,1,0,4.47,0v-6.48h2.4v6.63a4.64,4.64,0,0,1-9.27,0v-6.63Z"/>
          <path class="cls-1" d="M273.91,142.05v-10.8h5.37a3.59,3.59,0,0,1,1.26,7l2.94,3.83h-2.82l-2.7-3.6h-1.65v3.6Zm2.4-5.76h2.85a1.44,1.44,0,0,0,0-2.88h-2.85Z"/>
        </g>
        <g>
          <path class="cls-1" d="M244.18,160.29a5.64,5.64,0,1,1,0-11.28,5.84,5.84,0,0,1,5.55,3.78h-2.61a3.44,3.44,0,0,0-2.94-1.62,3.48,3.48,0,0,0,0,7,3.43,3.43,0,0,0,2.91-1.59h2.61A5.84,5.84,0,0,1,244.18,160.29Z"/>
          <path class="cls-1" d="M253.8,149.25v6.48a2.24,2.24,0,1,0,4.47,0v-6.48h2.4v6.63a4.64,4.64,0,0,1-9.27,0v-6.63Z"/>
          <path class="cls-1" d="M270.76,156.69c0,2.07-1.62,3.6-4.17,3.6a4,4,0,0,1-4.08-3.81h2.34a1.76,1.76,0,0,0,1.74,1.65c1.11,0,1.85-.53,1.85-1.44s-1-1.13-2.55-1.5c-1.76-.41-3.23-1.26-3.23-2.81,0-2,1.53-3.37,3.93-3.37,2.16,0,4,1.44,4,3.35h-2.39a1.67,1.67,0,0,0-1.59-1.19c-.9,0-1.6.49-1.6,1.12s1.45,1.17,2.88,1.43A3.17,3.17,0,0,1,270.76,156.69Z"/>
          <path class="cls-1" d="M280.65,149.25v2.16h-3.12v8.64h-2.4v-8.64H272v-2.16Z"/>
          <path class="cls-1" d="M281.77,154.65a5.85,5.85,0,1,1,5.85,5.64A5.74,5.74,0,0,1,281.77,154.65Zm5.85-3.48a3.48,3.48,0,1,0,3.45,3.48A3.47,3.47,0,0,0,287.62,151.17Z"/>
          <path class="cls-1" d="M295.27,160.05v-10.8h2.34l4.19,7.87,4.18-7.87h2.34v10.8h-2.4v-6.21l-3.15,6.21h-1.95l-3.15-6.21v6.21Z"/>
          <path class="cls-1" d="M310.57,160.05v-10.8H318v2.16h-5v2.13h4.11v2.16H313v2.19h5v2.16Z"/>
          <path class="cls-1" d="M320,160.05v-10.8h5.37a3.59,3.59,0,0,1,1.26,7l2.94,3.83h-2.82l-2.7-3.6h-1.65v3.6Zm2.4-5.76h2.85a1.44,1.44,0,0,0,0-2.88h-2.85Z"/>
        </g>
        <g>
          <path class="cls-1" d="M238.75,178.05v-10.8h7.41v2.16h-5v2.13h4.11v2.16h-4.11v2.19h5v2.16Z"/>
          <path class="cls-1" d="M247.44,178.05l4.09-5.65L248,167.25h2.67l2.21,3.36,2.2-3.36h2.67l-3.54,5.15,4.1,5.65h-2.88l-2.55-3.77-2.55,3.77Z"/>
          <path class="cls-1" d="M259.8,178.05v-10.8h5.37a3.6,3.6,0,1,1,0,7.2h-3v3.6Zm2.4-8.64v2.88h2.85a1.44,1.44,0,0,0,0-2.88Z"/>
          <path class="cls-1" d="M270.45,178.05v-10.8h7.41v2.16h-5v2.13H277v2.16h-4.11v2.19h5v2.16Z"/>
          <path class="cls-1" d="M279.88,178.05v-10.8h5.37a3.59,3.59,0,0,1,1.26,7l2.94,3.83h-2.82l-2.7-3.6h-1.65v3.6Zm2.4-5.76h2.85a1.44,1.44,0,0,0,0-2.88h-2.85Z"/>
          <path class="cls-1" d="M293.35,178.05H291v-10.8h2.4Z"/>
          <path class="cls-1" d="M295.6,178.05v-10.8H303v2.16h-5v2.13h4.11v2.16H298v2.19h5v2.16Z"/>
          <path class="cls-1" d="M305,178.05v-10.8h2.22l5.46,7.12v-7.12h2.4v10.8h-2.25L307.44,171v7.07Z"/>
          <path class="cls-1" d="M322.8,178.29a5.64,5.64,0,1,1,0-11.28,5.86,5.86,0,0,1,5.55,3.78h-2.61a3.49,3.49,0,1,0,0,3.75h2.61A5.84,5.84,0,0,1,322.8,178.29Z"/>
          <path class="cls-1" d="M330.09,178.05v-10.8h7.41v2.16h-5v2.13h4.11v2.16h-4.11v2.19h5v2.16Z"/>
        </g>
      </g>
    </g>
  </g>
</svg>
