<svg xmlns="http://www.w3.org/2000/svg" xmlns:xlink="http://www.w3.org/1999/xlink" width="868.238" height="799.354" viewBox="0 0 868.238 799.354"><defs><clipPath id="a"><path d="M2410.573,3369.754c6.061-25.667,9.2-51.926-4.532-69.409-6.2-7.9-17.256-13.394-26.3-17.3-17.642-7.625-35.678-17.876-54.563-21.2-19.911-3.5-42.055-5.664-61.9-.652-12.6,3.183-24.4,9.074-35.667,15.429-9.78,5.514-21.778,10.262-26.525,20.524A697.929,697.929,0,0,0,2170.9,3374c-7.087,21.8-14.865,44.645-3.7,66.735,3.618,7.158,8.874,13.285,13.012,20.124,4.61,7.618,6.329,14.774,6.933,23.562,1.379,20.049.843,40.16.786,60.239-.017,5.786.059,11.8,2.593,17,5,10.257,18.569,10.4,28.348,10.383l96.687-.167c13.409-.024,23.655,1.618,36.243,4.206,10.594,2.177,19.689-3.169,24.772-13.027,4.812-9.332,5.178-20.23,5.694-30.717a663.368,663.368,0,0,1,17.266-121.15C2402.216,3399.94,2406.919,3385.226,2410.573,3369.754Z" transform="translate(-2161.591 -3258.239)" fill="#c7cb2d"/></clipPath></defs><g transform="translate(-908.347 -201.004)"><g transform="translate(854.379 -148.067)"><path d="M699.227,1175.712c-26.5-9.495-55.532-6.768-83.675-7.168s-72.066-4.983-82.664-36.227c-11.217-33.069,5.041-67.363,5.182-100.778.039-9.148-.932-18.4-4.083-26.991-14.751-40.2-64.16-49.936-81.469-90-12.93-29.923-6.252-65.659,10.746-93.473,14.766-24.161,36.405-43.157,59.3-59.4C543.408,746.9,559.347,723,567.52,698.721c15.268-45.362,5.893-94.952,23-139.185,15.327-39.622,44.678-73.18,81.329-90.914C735.812,437.675,811.4,465.209,857,518.146c24.459,28.4,59.608,44.877,95.387,47.806,69.5,5.689,141.889-32.084,206.273,10.557,32.814,21.733,56.007,60.257,63.234,100.911,4.07,22.9,3.6,48.375-5.236,69.993-8.7,21.274-23.7,38.631-36.591,57.012-21.418,30.542-33.14,71.366-13.108,105.765,8.758,15.04,21.413,27.341,33.412,39.948,30.716,32.273,42.091,79.781,31.516,122.81-12,48.838-50.059,80.9-99.627,87.04-36.682,4.541-77.283-1.392-110.531,17.993" transform="translate(-345.206 -88.953)" fill="none" stroke="#dff3fd" stroke-miterlimit="10" stroke-width="10"/><path d="M547.532,902.923c-20.262,28.81-35.9,68.006-25.047,104.185,10.816,36.069,45.4,58.31,60.519,92.568,8.543,19.364,8.772,40.655,9.1,61.44.424,27.208-4.892,56.1,13.5,79.1,10.877,13.6,27.291,21.637,43.887,26.917,33.333,10.6,68.253,15.58,97.86,35.605,48.641,32.9,108.375,44.4,166.34,40.848a376.544,376.544,0,0,0,86.706-15.93c32.715-9.985,61.794-27.66,94.735-37.128,57.089-16.41,135.152-16.634,168.561-74.4,22.493-38.889,30.284-86.954,12.787-129.325-8.32-20.147-24.2-35.534-33.244-55.314-12.5-27.327-15.866-58.486-7.517-87.517q.52-1.79,1.086-3.567c8.723-27.142,26.282-50.479,33.543-78.108,14.992-57.042-18.137-117.352-61.685-154.016-18.1-15.235-38.314-27.916-60.335-35.144-60.737-19.937-128.223,3.137-189.144-16.148-46.736-14.795-85.106-53.25-132.725-64.37-36.594-8.546-76.141.576-107.227,22.911s-53.644,57.291-63.927,95.787c-9.528,35.671-9.229,74.851-26.128,107.254-14.457,27.722-41.251,42.681-63.006,62.793A135.613,135.613,0,0,0,547.532,902.923Z" transform="translate(-406.296 -200.635)" fill="#dff3fd"/><path d="M3574.023,415.251c.539-3.265-3.782-9.85-8.5-9.744-1.875.042-3.709.529-5.581.437-4.989-.244-7.576-4.128-9.5-7.344s-5.752-6.884-10.615-6.068c-7,1.175-10.529,10.412-18.486,3.477-5.208-4.54-5.6-10.887-11.5-15.29-4.048-3.022-10.632-4.812-16.06-3.142-7.084,2.179-9.719,9.2-17.261,10.424-8.354,1.354-14.362-5-17.029-9.587-3.236-5.562-4.438-11.575-7.21-17.235-2.566-5.239-7.726-12.258-16.97-12.106-7.817.129-11.261,5.077-15.1,9.006-4.991,5.109-15.362,23.455-26.991,21.243-4.535-.863-6.8-4.465-10.892-6.077-6.579-2.593-14.964.971-18.927,5.455s-5.534,9.895-10.013,14.136a10.354,10.354,0,0,1-4.385,2.631c-6.256,1.712-12.08-3.554-18.778-3.946a15.606,15.606,0,0,0-11.569,4.551c-2.657,2.65-4.106,5.779-6.139,8.684a6.5,6.5,0,0,1-2.232,2.176c-2.938,1.575-7.072.247-10.672-.372-8.894-1.53-19,2.552-21.505,8.69Z" transform="translate(-2709.251)" fill="#dff3fd"/><path d="M316.215,1414.679c.277-1.678-1.944-5.063-4.368-5.009-.964.021-1.907.272-2.869.225-2.565-.125-3.894-2.122-4.883-3.776s-2.957-3.539-5.456-3.119c-3.6.6-5.413,5.353-9.5,1.787-2.678-2.334-2.879-5.6-5.911-7.86a9.89,9.89,0,0,0-8.256-1.615c-3.642,1.12-5,4.73-8.873,5.359-4.3.7-7.383-2.572-8.754-4.928-1.664-2.859-2.282-5.95-3.706-8.86-1.319-2.693-3.972-6.3-8.724-6.223-4.019.066-5.789,2.61-7.762,4.63-2.566,2.626-7.9,12.058-13.875,10.921-2.331-.443-3.5-2.3-5.6-3.124-3.382-1.333-7.693.5-9.73,2.8s-2.845,5.087-5.148,7.267a5.323,5.323,0,0,1-2.254,1.353c-3.216.88-6.21-1.827-9.653-2.029a8.023,8.023,0,0,0-5.947,2.34,29.6,29.6,0,0,0-3.156,4.464,3.338,3.338,0,0,1-1.148,1.119c-1.51.81-3.636.127-5.486-.191-4.572-.787-9.766,1.312-11.055,4.467Z" transform="translate(-110.129 -861.016)" fill="#dff3fd"/><g transform="translate(-225.647 496.441)"><g transform="translate(0 155.517)" style="mix-blend-mode:multiply;isolation:isolate"><g transform="translate(653.516)"><g transform="translate(303.574 102.601)"><rect width="68.393" height="307.86" transform="translate(171.601 353.004) rotate(180)" fill="#dff3fd"/><rect width="103.207" height="213.378" transform="translate(0 139.626)" fill="#dff3fd"/><rect width="55.541" height="15.048" transform="translate(158.748 45.144) rotate(180)" fill="#dff3fd"/><rect width="45.443" height="15.048" transform="translate(148.65 30.096) rotate(180)" fill="#dff3fd"/><rect width="35.803" height="15.048" transform="translate(139.011 15.048) rotate(180)" fill="#dff3fd"/></g><g transform="translate(0)"><rect width="68.393" height="307.86" transform="translate(205.18 455.605) rotate(180)" fill="#dff3fd"/><rect width="68.393" height="407.533" transform="translate(392.268 455.605) rotate(180)" fill="#dff3fd"/><rect width="136.786" height="119.131" transform="translate(136.786 455.605) rotate(180)" fill="#dff3fd"/><rect width="137.404" height="455.605" transform="translate(308.387 455.605) rotate(180)" fill="#dff3fd"/><rect width="55.541" height="15.048" transform="translate(192.327 147.746) rotate(180)" fill="#dff3fd"/><rect width="45.443" height="15.048" transform="translate(182.229 132.697) rotate(180)" fill="#dff3fd"/><rect width="35.803" height="15.048" transform="translate(172.59 117.649) rotate(180)" fill="#dff3fd"/></g></g><g transform="translate(0 78.706)"><g transform="translate(556.056)"><rect width="68.393" height="307.86" transform="translate(171.601 376.899) rotate(180)" fill="#dff3fd"/><rect width="68.393" height="255.818" transform="translate(171.601 121.081)" fill="#dff3fd"/><rect width="103.207" height="376.899" fill="#dff3fd"/><rect width="55.541" height="15.048" transform="translate(158.748 69.04) rotate(180)" fill="#dff3fd"/><rect width="45.443" height="15.048" transform="translate(148.65 53.991) rotate(180)" fill="#dff3fd"/><rect width="35.803" height="15.048" transform="translate(139.011 38.943) rotate(180)" fill="#dff3fd"/></g><g transform="translate(0 23.895)"><rect width="68.393" height="307.86" transform="translate(457.661 353.004) rotate(180)" fill="#dff3fd"/><rect width="68.393" height="255.818" transform="translate(389.268 353.004) rotate(180)" fill="#dff3fd"/><rect width="68.393" height="298.51" transform="translate(542.156 353.004) rotate(180)" fill="#dff3fd"/><rect width="137.404" height="224.782" transform="translate(560.869 353.004) rotate(180)" fill="#dff3fd"/><rect width="55.541" height="15.048" transform="translate(444.809 45.144) rotate(180)" fill="#dff3fd"/><rect width="55.541" height="15.048" transform="translate(370.907 302.844) rotate(180)" fill="#dff3fd"/><rect width="45.443" height="15.048" transform="translate(434.711 30.096) rotate(180)" fill="#dff3fd"/><rect width="35.803" height="15.048" transform="translate(425.071 15.048) rotate(180)" fill="#dff3fd"/></g><rect width="89.915" height="15.048" transform="translate(774.462 164.971) rotate(180)" fill="#dff3fd"/><rect width="89.915" height="15.048" transform="translate(774.462 218.894) rotate(180)" fill="#dff3fd"/><rect width="89.915" height="15.048" transform="translate(774.462 272.816) rotate(180)" fill="#dff3fd"/><rect width="89.915" height="15.048" transform="translate(429.843 272.816) rotate(180)" fill="#dff3fd"/><rect width="89.915" height="15.048" transform="translate(429.843 326.739) rotate(180)" fill="#dff3fd"/></g></g><path d="M2404.888,2211.61c-25.817,9.135-56.951,8.2-80.441-6.867-23.09-14.812-44.126-25.507-72.536-24.989-25.385.463-46.378,14.185-70.965,17.105-19.5,2.316-39.31-6.186-53.443-19.819-13.8-13.309-22.958-33.6-16.959-51.807,3.141-9.532,10.005-17.4,13.923-26.638,9.035-21.312-14.754-34.169-8.839-56.6,5.031-19.079,25.967-32.688,25.655-52.417-.229-14.442-11.409-25.635-15.346-39-3.972-13.48-3.094-28.579,3.913-40.894a48.867,48.867,0,0,1,23-20.54c8.608-3.667,18.224-3.737,24.88-11.259,11.862-13.4,16.213-27.933,32.489-37.734,13.779-8.3,31.975-8.825,47.783-7.376,35.126,3.22,69.218,21.76,89,51.288,7.011,10.465,12.072,21.173,12.248,33.61.192,13.6.188,27.273,8.518,38.832,6.994,9.705,18.221,15.383,29.353,19.762s22.8,7.923,32.573,14.822,17.534,18.155,16.394,30.064c-.954,9.967-7.853,18.627-8.772,28.6-1.67,18.129,15.8,31.3,26.563,45.978,15.075,20.555,17.574,49.62,6.228,72.446-13.063,26.281-36.8,32.207-61.666,42.1Q2406.686,2210.974,2404.888,2211.61Z" transform="translate(-1507.527 -1734.296)" fill="#0b2d4e"/><g transform="translate(709.664 130.627)"><path d="M2764.974,2038.091c8.538-4.988,18.46-7.274,28.317-7.667a105.4,105.4,0,0,1,29.413,3.285,90.6,90.6,0,0,1,49.045,32.086,81.069,81.069,0,0,1,13.5,26.576c2.789,9.653,3.36,19.747,3.245,29.624-.1,9.9-.8,19.74-.477,29.478a52.932,52.932,0,0,0,2.274,14.169,22.246,22.246,0,0,0,7.668,11.345c3.663,2.779,8.368,3.954,13.124,4.523s9.752.594,14.724,1.259c9.839,1.323,19.843,3.664,28.416,9.307,4.212,2.814,8,6.735,9.844,11.686,1.909,4.95,1.525,10.356.248,15.289-1.487,4.989-4.315,9.173-6.283,13.535a43.075,43.075,0,0,0-3.666,13.85c-.91,9.631,1.562,19.285,4.987,28.421,3.364,9.209,7.4,18.286,9.762,27.959a59.625,59.625,0,0,1,1.778,14.782,46.523,46.523,0,0,1-2.59,14.624,50.048,50.048,0,0,1-17.232,23.6A49.71,49.71,0,0,0,2967.653,2332c3.116-9.336,2.7-19.462.129-28.853-2.465-9.47-6.572-18.439-10.092-27.671-3.572-9.172-6.3-19.1-5.479-29.228a45.352,45.352,0,0,1,3.671-14.633c2.056-4.613,4.8-8.735,6.1-13.252,1.144-4.556,1.447-9.406-.247-13.717a22.485,22.485,0,0,0-8.934-10.444c-7.99-5.235-17.745-7.536-27.315-8.765-4.8-.626-9.7-.628-14.721-1.194-4.953-.576-10.206-1.789-14.479-5a25.022,25.022,0,0,1-8.6-12.747,55.57,55.57,0,0,1-2.345-14.924c-.289-9.967.466-19.809.6-29.61.156-9.781-.37-19.593-3.026-28.933a81.715,81.715,0,0,0-12.882-25.933,89.012,89.012,0,0,0-47.673-32.065,104.379,104.379,0,0,0-29.046-3.926C2783.532,2031.273,2773.627,2033.3,2764.974,2038.091Z" transform="translate(-2764.974 -2030.358)" fill="#73b8d4"/></g><path d="M2532.611,2469.9c.916,22.279-4.248,39.01-24.622,50.03-16.227,8.776-35.657,11.654-53.565,12.1-30.034.74-63.5-7.006-85.966-28.1-4.077-3.829-7.99-8.522-8.285-14.108-.269-5.077,2.525-9.861,2.771-14.939.415-8.565-6.244-15.659-9.221-23.7-3.931-10.621-1.259-22.478,2.273-33.239s7.953-21.624,7.422-32.937c-.688-14.674-9.506-27.486-16.566-40.369s-12.616-28.555-6.584-41.95c3.975-8.827,13.456-15.614,23.144-16.688,10.234-1.135,19.43,10.559,25.986,17a160.619,160.619,0,0,0,29.225,22.73c14.624,8.874,30.68,15.42,44.435,25.588,8.324,6.154,17.253,14.6,21.227,24.4,4.478,11.046-3.364,21.739,6.118,31.9,6.117,6.555,15.51,8.784,22.907,13.852C2529.144,2432.311,2531.887,2452.308,2532.611,2469.9Z" transform="translate(-1698.682 -2113.03)" fill="#061f33"/><path d="M1828.453,3550.575c21.088-32.5,34.21-72.38,15.886-109.07-1.857-3.719-4.091-7.777-8.035-9.088-8.483-2.821-19.99.212-27.366,4.54-25.587,15.013-41.244,43.262-55.619,68.4-14.934,26.113-27.9,53.3-42.911,79.367-6.078,10.56-12.217,21.261-15.477,33-2.856,10.283-3.169,22.058.727,32.12,16.847,43.5,63.17-9.785,77.27-25.884A643.617,643.617,0,0,0,1828.453,3550.575Z" transform="translate(-1160.385 -3069.049)" fill="#c7cb2d"/><g transform="translate(609.896 333.655)"><path d="M2410.573,3369.754c6.061-25.667,9.2-51.926-4.532-69.409-6.2-7.9-17.256-13.394-26.3-17.3-17.642-7.625-35.678-17.876-54.563-21.2-19.911-3.5-42.055-5.664-61.9-.652-12.6,3.183-24.4,9.074-35.667,15.429-9.78,5.514-21.778,10.262-26.525,20.524A697.929,697.929,0,0,0,2170.9,3374c-7.087,21.8-14.865,44.645-3.7,66.735,3.618,7.158,8.874,13.285,13.012,20.124,4.61,7.618,6.329,14.774,6.933,23.562,1.379,20.049.843,40.16.786,60.239-.017,5.786.059,11.8,2.593,17,5,10.257,18.569,10.4,28.348,10.383l96.687-.167c13.409-.024,23.655,1.618,36.243,4.206,10.594,2.177,19.689-3.169,24.772-13.027,4.812-9.332,5.178-20.23,5.694-30.717a663.368,663.368,0,0,1,17.266-121.15C2402.216,3399.94,2406.919,3385.226,2410.573,3369.754Z" transform="translate(-2161.591 -3258.239)" fill="#d8dc40"/><g transform="translate(0 0)" clip-path="url(#a)"><path d="M2744.135,3241.791c7.586-12.762,9.31-28.708-.628-41-4.544-5.623-12.581-6.252-19.453-6.381a163.54,163.54,0,0,0-40.259,4.266c-12.556,2.937-25.36,7.912-30.8,20.59-4.041,9.42-2.63,20.317,2.694,28.933a35.638,35.638,0,0,0,21.805,15.751c14.451,3.44,31.366,2.977,45.154-2.811C2731.287,3257.509,2739.035,3250.369,2744.135,3241.791Z" transform="translate(-2569.798 -3204.937)" fill="#efb126"/><path d="M2492.249,4103.566q-.149-29.521-.3-59.043c-.035-6.851,4.414-48.557-6.245-48.083a6.035,6.035,0,0,0-3.139,1.313c-5.3,3.793-8.027,10.145-10.5,16.174-7.768,18.906-14.291,49.17-30.461,62.4-16.437,13.453-41.711,19.125-62.136,22.354-23.853,3.771-48.1,4.051-72.2,5.518-15.592.948-32.793,3.193-43.036,14.987-7.315,8.421-11.039,21.046-14.945,31.337-3.413,8.992-6.132,19.675.8,27.818,2.956,3.476,7.058,5.756,11.185,7.7,15.043,7.092,31.486,10.667,47.888,13.412,45.9,7.683,92.693,9.279,139.184,7.064,9.94-.474,20.718-1.464,28.05-8.193,5.455-5.006,8.026-12.375,9.855-19.55C2492.467,4154.338,2492.377,4128.79,2492.249,4103.566Z" transform="translate(-2231.851 -3874.378)" fill="#c7cb2d"/></g></g><path d="M2369.917,2576.967c-17.586,18.094-1.634,62.306,26.411,55.907,30.136-6.875,25.6-53.839-1.648-61.549C2384.053,2568.318,2375.578,2571.143,2369.917,2576.967Z" transform="translate(-1719.43 -2350.235)" fill="#57b8e8"/><path d="M2372.516,2174.346c17.626,2.247,36.193.7,51.936-7.538,20.044-10.489,30.072-29.722,30.488-51.848.3-16.028-2.8-32.736-12.478-45.519-10.521-13.9-28.153-22.443-34.7-38.6-4.237-10.463-3.221-24.708,5.158-32.8,5.334-5.154,9.505-10.965,8.821-18.691-1.007-11.365-9.322-22.286-18.61-28.425-13.619-9-30.559-12.295-46.5-14.319-10.792-1.371-21.547-4.4-24.886-16.028-1.8-6.271-1.445-12.887-1.781-19.332-.718-13.743-1.725-27.488-3.778-41.1-2.366-15.7-12.56-30.88-23.928-41.7q-2.448-2.329-5.078-4.458c-29.308-23.742-83.56-32.153-115.887-10.149a50.081,50.081,0,0,0-21.2,32.11c-1.641,8.772-4.019,10.66-12.589,13.32-15.569,4.832-33.239,8.261-45.6,19.681-9.672,8.934-14.12,22.461-12.832,35.44,1.644,16.568,13.228,24.5,21.523,37.627,8.468,13.4,1.81,30.272-8.025,41.335-7.575,8.52-18.323,14.743-22.6,25.308-3.938,9.721-1.33,20.958,3.425,30.307,1.927,3.787,4.193,7.4,5.9,11.3a43.782,43.782,0,0,1-1.412,37.474" transform="translate(-1481.97 -1700.003)" fill="none" stroke="#0b2d4e" stroke-miterlimit="10" stroke-width="15"/><path d="M3444.624,3563.08q8.086,14.587,16.009,29.266c10.677,19.894,30.5,64.094-1.236,75.014-15.99,5.5-25.137.122-35.707-11.528a673.446,673.446,0,0,1-101.1-146.477c-10.056-19.729-36.76-71.14-4.325-82.887a39.391,39.391,0,0,1,31.638,2.313,63.71,63.71,0,0,1,11.993,8.852c23.407,20.875,40.075,47.809,54.9,75.126C3425.96,3529.642,3435.343,3546.338,3444.624,3563.08Z" transform="translate(-2504.113 -3063.098)" fill="#c7cb2d"/><path d="M2760.917,3007.037c9.657-3.1,17.612-9.1,20.592-18.645,2.705-8.661-1.56-18.4-2.319-27.143a165.661,165.661,0,0,1-.271-25.186c.509-7.753,1.25-15.83.057-23.558-.677-4.417-3.1-3.661-7.571-5.417s-9.479-1.771-14.336-1.759c-9.942.024-35.856-.7-42,8.027-2.82,4-3.042,9.045-3.177,13.812-.161,5.757-1.181,13.211-2.124,21.242-.42,3.576-.161,7.139-.708,10.689-.613,3.977-2.123,7.787-3.446,11.6-5,14.4-.318,28.1,15.259,34.7C2732.048,3010.127,2748,3011.179,2760.917,3007.037Z" transform="translate(-2004.165 -2630.022)" fill="#f8a17a"/><path d="M2793.212,2912.505c-.677-4.417-3.1-3.661-7.57-5.417s-9.479-1.771-14.336-1.759c-9.942.024-35.857-.7-42,8.027-2.821,4-3.043,9.045-3.177,13.812-.162,5.757-1.181,13.211-2.125,21.242-.42,3.576-.161,7.139-.708,10.689a49.484,49.484,0,0,1-2.482,8.867,52.688,52.688,0,0,0,30.574,1.9c18.11-4.458,31.826-15.73,41.608-30.386.051-1.14.084-2.28.158-3.419C2793.664,2928.31,2794.405,2920.233,2793.212,2912.505Z" transform="translate(-2018.452 -2630.022)" fill="#e5785c"/><path d="M2578.488,2207.764c-.079-13.275-1.911-25.867-5.326-36.324-14.737-45.116-71.017-56.262-104.909-23.877-37.793,36.115-23.33,122.466,16.478,152.8a44.663,44.663,0,0,0,38.034,7.493C2561.877,2297.366,2578.735,2249.234,2578.488,2207.764Z" transform="translate(-1789.295 -1982.036)" fill="#f8a17a"/><path d="M3136.725,2601.34c17.315-9.467,22.645,14.507,19.666,26.437a38.067,38.067,0,0,1-6.234,13.787c-4.118,5.46-15.9,14.518-22.688,8.544-3.08-2.71-3.4-7.316-3.492-11.417C3123.722,2627.694,3124.988,2607.758,3136.725,2601.34Z" transform="translate(-2354.928 -2374.497)" fill="#f8a17a"/><g transform="translate(712.601 273.997)"><path d="M2795.531,2929.256a87.677,87.677,0,0,1-12.8-.944l.765-5.193a78.89,78.89,0,0,0,44.818-6.26,57.769,57.769,0,0,0,9.7-5.572,45.794,45.794,0,0,0,12.561-13.848l4.531,2.651a51.077,51.077,0,0,1-14.012,15.448,63.006,63.006,0,0,1-10.57,6.084A83.078,83.078,0,0,1,2795.531,2929.256Z" transform="translate(-2782.734 -2897.44)" fill="#2f95d2"/></g><g transform="translate(694.452 291.711)"><path d="M2675.946,3008.4c6.331-5.433,20.411-4.968,25.054.672,3.44,4.182,2.39,9.489-1.4,13.023-4.481,4.182-10.024,3.938-15.614,2.678C2676.99,3023.193,2668.316,3014.946,2675.946,3008.4Z" transform="translate(-2672.976 -3004.57)" fill="#2f95d2"/></g><path d="M2601.331,2171.357c-15.516-47.5-74.77-59.234-110.451-25.139-7.882,7.532-13.573,17.16-17.358,27.974a33.024,33.024,0,0,0,2.752,3.7c4.895,5.67,11.652,9.375,18.452,12.518,19.863,9.183,41.272,14.571,62.78,18.6,1.585.3,3.179.59,4.77.9,5.922,1.168,11.8,2.627,16.969,5.675,14.618,8.616,8.332,27.567,19.04,35.872a10.241,10.241,0,0,0,2.927,1.582,159.854,159.854,0,0,0,5.726-43.444C2606.855,2195.623,2604.926,2182.366,2601.331,2171.357Z" transform="translate(-1812.049 -1980.094)" fill="#e5785c"/><path d="M2595.051,2126.464c5.66,2.1,11.229,4.476,15.846,8.308,13.057,10.838,3.828,28.543,13.075,38.45,8.193,8.778,20.636-2.821,23.895-10.927,6-14.935,5.651-31.557,5.209-47.647-.247-8.973-.514-18.075-3.145-26.657-2.87-9.362-8.459-17.717-15.115-24.9-19.216-20.736-48.218-31.515-76.3-29.746-21.958,1.383-60.477,19.835-43.263,47.789,3.928,6.378,10.008,11.113,16.219,15.3,18.144,12.233,38.42,20.967,59.01,28.376C2592,2125.357,2593.531,2125.9,2595.051,2126.464Z" transform="translate(-1843.29 -1902.068)" fill="#0b2d4e"/><path d="M3128.306,2567.335c-24.441,6.267-33.886,52.31-6.62,61.477,29.3,9.849,49.922-32.587,30.691-53.377C3144.878,2567.327,3136.174,2565.318,3128.306,2567.335Z" transform="translate(-2339.237 -2347.312)" fill="#57b8e8"/><path d="M3198.514,2605.89c-16.872,2.711-27.265,38.555-9.877,48.42,18.684,10.6,36.218-21.32,25.227-39.7C3209.577,2607.435,3203.944,2605.017,3198.514,2605.89Z" transform="translate(-2401.432 -2379.957)" fill="#2f95d2"/><g transform="translate(675.628 107.283)"><path d="M2683.987,2005.136l-6.519-.754c4.422-38.213,2.538-87.038-31.546-102.633-16.141-7.385-62.367-15.578-82.71,11.875-2.447,2.748-4.085,5.052-4.085,5.052,12.616-38.93,72.1-30.866,89.525-22.894C2686.321,1913.017,2688.658,1964.762,2683.987,2005.136Z" transform="translate(-2559.127 -1889.174)" fill="#57b8e8"/></g><g transform="translate(279.996 406.228)"><rect width="133.414" height="26.12" transform="translate(263.975 176.675)" fill="#2f95d2"/><g transform="translate(0 0)"><path d="M462.2,3876.359l-33.67-171.417a9.654,9.654,0,0,0-9.473-7.793H195.225a9.572,9.572,0,0,0-7.758,3.98l-.029-.029-10.336,12.22,9.17-2.011,33.151,168.771a9.654,9.654,0,0,0,9.473,7.793H452.73A9.654,9.654,0,0,0,462.2,3876.359Z" transform="translate(-175.334 -3697.15)" fill="#2f95d2"/><path d="M209.734,3960.877H433.568a9.654,9.654,0,0,0,9.473-11.515l-33.67-171.416a9.654,9.654,0,0,0-9.473-7.793H176.064a9.655,9.655,0,0,0-9.473,11.515l33.671,171.416A9.654,9.654,0,0,0,209.734,3960.877Z" transform="translate(-166.406 -3758.082)" fill="#0b2d4e"/><path d="M852.543,4215.525c2.065,11.563,13.112,20.936,24.675,20.936s19.129-9.374,16.9-20.936-13.277-20.936-24.675-20.936S850.478,4203.962,852.543,4215.525Z" transform="translate(-738.808 -4112.338)" fill="#2f95d2"/></g><path d="M166.407,3818.382" transform="translate(-166.407 -3798.337)" fill="#3f91ac"/></g><g transform="translate(1005.561 383.798)"><g transform="translate(15.484 0)"><path d="M4663.641,3684.381c2.466-5.1,2.025-10.46.47-15.322-1.495-4.97-4.165-9.251-7.055-13.931a63.29,63.29,0,0,1-7.726-15.7c-1.852-6.124-1.322-12.99.379-18.8,3.677-11.846,11.208-20.576,16.395-29.507a42.4,42.4,0,0,0,5.566-14.188,24.414,24.414,0,0,0-1.85-15.441c4.284,3.749,6.36,9.826,6.641,15.71a39.983,39.983,0,0,1-3.512,17.281c-4.5,10.756-11.252,19.489-13.878,28.932a25.37,25.37,0,0,0-.8,13.735c.883,4.646,3.314,9.337,5.5,14.423,2.319,4.966,4.539,10.706,5.031,16.608C4669.3,3674,4667.973,3680.572,4663.641,3684.381Z" transform="translate(-4648.166 -3561.495)" fill="#fff"/></g><g transform="translate(0 129.398)"><path d="M0,0H66.519a0,0,0,0,1,0,0V62.021A33.259,33.259,0,0,1,33.259,95.281h0A33.259,33.259,0,0,1,0,62.021V0A0,0,0,0,1,0,0Z" fill="#57b8e8"/><path d="M4839.114,4474.406A29.309,29.309,0,1,0,4868,4503.712,29.1,29.1,0,0,0,4839.114,4474.406Zm0,48.161a18.857,18.857,0,1,1,18.582-18.854A18.72,18.72,0,0,1,4839.114,4522.566Z" transform="translate(-4767.951 -4452.855)" fill="#57b8e8"/><path d="M4596.518,4431.221h0a3.607,3.607,0,0,1-3.6-3.6v-46.37a3.607,3.607,0,0,1,3.6-3.6h0a3.606,3.606,0,0,1,3.6,3.6v46.37A3.606,3.606,0,0,1,4596.518,4431.221Z" transform="translate(-4586.571 -4372.106)" fill="#fff" opacity="0.2"/><path d="M4778.87,4344.074v78.435a16.845,16.845,0,0,1-16.846,16.845h15.361a16.845,16.845,0,0,0,16.846-16.845v-78.435Z" transform="translate(-4727.713 -4344.074)" fill="#2f95d2"/></g></g><g transform="translate(875.323)"><rect width="272.529" height="165.487" rx="82.743" transform="translate(272.529 165.487) rotate(180)" fill="#0098d7"/><path d="M3983.8,2120.755v-76.048l59.559,32.487Z" transform="translate(-3947.928 -1911.707)" fill="#0098d7"/><rect width="134.911" height="14.439" rx="7.219" transform="translate(41.511 75.757)" fill="#e1f4fd"/><path d="M7.219,0H37a7.219,7.219,0,0,1,7.219,7.219v0A7.219,7.219,0,0,1,37,14.439H7.219A7.219,7.219,0,0,1,0,7.219v0A7.219,7.219,0,0,1,7.219,0Z" transform="translate(186.799 75.757)" fill="#e1f4fd"/><path d="M7.219,0H127.691a7.219,7.219,0,0,1,7.219,7.219v0a7.219,7.219,0,0,1-7.219,7.219H7.219A7.219,7.219,0,0,1,0,7.219v0A7.219,7.219,0,0,1,7.219,0Z" transform="translate(231.018 57.408) rotate(180)" fill="#e1f4fd"/><path d="M7.219,0H37a7.219,7.219,0,0,1,7.219,7.219v0A7.219,7.219,0,0,1,37,14.439H7.219A7.219,7.219,0,0,1,0,7.219v0A7.219,7.219,0,0,1,7.219,0Z" transform="translate(85.729 57.408) rotate(180)" fill="#e1f4fd"/><path d="M7.219,0H87.534a7.219,7.219,0,0,1,7.219,7.219v0a7.219,7.219,0,0,1-7.219,7.219H7.219A7.219,7.219,0,0,1,0,7.219v0A7.219,7.219,0,0,1,7.219,0Z" transform="translate(41.511 105.732)" fill="#e1f4fd"/></g><path d="M3009.569,4567.721q4.095-.7,8.2-1.345,19.974-3.135,39.767-7.437c26.117-5.679,52.388-10.557,78.975-13.074q4.226-.4,8.46-.721c11.92-.9,24.409-1.193,35.32,4.505s19.589,19.183,16.924,32.182c-1.872,9.133-8.855,16.006-16.615,19.471s-16.3,4.068-24.681,4.632l-81.437,5.482q-20.161,1.344-40.317,2.759c-12.834.892-25.862,2.706-38.731,2.692-5.444-.007-11.521-1.027-16.094-4.659-6.359-5.049-10.186-15.8-10.8-24.2-.319-4.362.532-9.658,3.873-12.357,1.789-1.445,4.063-1.887,6.252-2.29C2988.981,4571.464,2999.247,4569.484,3009.569,4567.721Z" transform="translate(-2225.166 -3998.283)" fill="#d8dc40"/><path d="M2458.752,4753.267c-6.564,1.355-11.694,7.12-18.227,9.05-4.662,1.378-9.652.642-14.132-1.039-4.119-1.544-8.308-2.371-12.537-3.725-3.3-1.056-7.746-3.278-11.286-2.541-9.279,1.931-18.533,8.535-26.944,12.822-1.891.964-3.963,1.957-6.049,1.562s-3.824-2.924-2.638-4.685c-2.42,2.261-5.624,6.782-9.528,5.029a3.263,3.263,0,0,1-1.675-4.342,13.205,13.205,0,0,1-4.6,3.723c-1.852.731-4.282.413-5.373-1.252a5.334,5.334,0,0,1-.715-2.686,20.278,20.278,0,0,1,2.155-9.333c6.625-14.458,21.606-25.183,34.353-33.8a27.456,27.456,0,0,1,7.155-3.863,25.072,25.072,0,0,1,7.235-.8,144.224,144.224,0,0,1,46.6,7.53c3.241,1.092,6.81.162,10.042-.443,2.393-.448,4.893-.893,7.229-.209,2.614.764,4.641,2.835,6.234,5.045,2.929,4.063,5.168,9.444,4.818,14.548-.265,3.877-.56,8.059-5.12,8.872-1.849.33-3.752.126-5.62.321C2459.664,4753.1,2459.205,4753.173,2458.752,4753.267Z" transform="translate(-1704.802 -4142.465)" fill="#f8a17a"/></g></g></g></svg>