<svg xmlns="http://www.w3.org/2000/svg" xmlns:xlink="http://www.w3.org/1999/xlink" width="43" height="43" viewBox="0 0 43 43">
  <defs>
    <filter id="Ellipse_1" x="0" y="0" width="43" height="43" filterUnits="userSpaceOnUse">
      <feOffset dy="3" input="SourceAlpha"/>
      <feGaussianBlur stdDeviation="3" result="blur"/>
      <feFlood flood-opacity="0.161"/>
      <feComposite operator="in" in2="blur"/>
      <feComposite in="SourceGraphic"/>
    </filter>
  </defs>
  <g id="Group_153" data-name="Group 153" transform="translate(-578 -3749)">
    <g transform="matrix(1, 0, 0, 1, 578, 3749)" filter="url(#Ellipse_1)">
      <circle id="Ellipse_1-2" data-name="Ellipse 1" cx="12.5" cy="12.5" r="12.5" transform="translate(9 6)" fill="#fff"/>
    </g>
    <path id="Arrow_1" data-name="Arrow 1" d="M1732.207,994.422a.581.581,0,0,0,.4-.161l5.838-5.572a.589.589,0,0,0,0-.85l-5.838-5.573a.582.582,0,0,0-.826.021.589.589,0,0,0,.021.829l5.393,5.147-5.393,5.147a.589.589,0,0,0-.021.829A.582.582,0,0,0,1732.207,994.422Z" transform="translate(-1135.725 2779.57)"/>
  </g>
</svg>
