<svg xmlns="http://www.w3.org/2000/svg" xmlns:xlink="http://www.w3.org/1999/xlink" width="71.156" height="71.156" viewBox="0 0 71.156 71.156"><defs><filter id="a" x="0" y="0" width="71.156" height="71.156" filterUnits="userSpaceOnUse"><feOffset dy="3" input="SourceAlpha"/><feGaussianBlur stdDeviation="3" result="b"/><feFlood flood-opacity="0.161"/><feComposite operator="in" in2="b"/><feComposite in="SourceGraphic"/></filter></defs><g transform="translate(9 6)"><g transform="matrix(1, 0, 0, 1, -9, -6)" filter="url(#a)"><path d="M16,0H37.156a16,16,0,0,1,16,16V37.156a16,16,0,0,1-16,16H16a16,16,0,0,1-16-16V16A16,16,0,0,1,16,0Z" transform="translate(9 6)" fill="#feac2d"/></g><g transform="translate(9.967 9.967)"><path d="M0,0H33.222V33.222H0Z" fill="none"/><path d="M24.584,27.906H.664a.664.664,0,0,1-.644-.825L.938,23.41a3.327,3.327,0,0,1,2.589-2.455l3.185-.645a5.771,5.771,0,0,0,2,3.518,6.11,6.11,0,0,0,7.835,0,5.77,5.77,0,0,0,1.995-3.519l3.187.643a3.333,3.333,0,0,1,2.586,2.455l.919,3.675a.664.664,0,0,1-.645.825Zm-11.96-4.318A4.219,4.219,0,0,1,8.353,19.44l.63-1.728a7.842,7.842,0,0,1-4.221-6.97V9.128a17.188,17.188,0,0,0,2.39.174c4.753,0,8.558-2.215,11.307-6.582a.681.681,0,0,0,.044-.078,7.852,7.852,0,0,1,1.984,5.221v2.879a7.865,7.865,0,0,1-4.069,6.889,1.993,1.993,0,1,0,.288,3.034,4.192,4.192,0,0,1-1.523,2.1A4.316,4.316,0,0,1,12.624,23.588ZM7.159,7.546a15.95,15.95,0,0,1-2.3-.175.681.681,0,0,0-.077-.007A7.872,7.872,0,0,1,12.624,0a7.793,7.793,0,0,1,4.694,1.555.834.834,0,0,0-.11.141,12.918,12.918,0,0,1-4.348,4.39A11.164,11.164,0,0,1,7.159,7.546Z" transform="translate(3.987 2.658)" fill="#fff"/><path d="M1.507,3.015A1.507,1.507,0,1,0,0,1.507,1.507,1.507,0,0,0,1.507,3.015Z" transform="translate(17.761 20.419)" fill="#928f85"/><path d="M.279,0H.47A1.993,1.993,0,0,1,2.463,1.993V4.651A1.993,1.993,0,0,1,.47,6.644H0A9.192,9.192,0,0,0,.359,4.1V1.218A9.277,9.277,0,0,0,.279,0Z" transform="translate(25.444 9.302)" fill="#928f85"/><path d="M2.464,6.644h-.47A1.993,1.993,0,0,1,0,4.651V1.993A1.993,1.993,0,0,1,1.993,0h.191A9.277,9.277,0,0,0,2.1,1.218V4.1a9.192,9.192,0,0,0,.359,2.547Z" transform="translate(5.316 9.302)" fill="#928f85"/></g></g></svg>