<svg xmlns="http://www.w3.org/2000/svg" width="88.191" height="88.94" viewBox="0 0 88.191 88.94"><path d="M-5524.067-4508.616h-16.025a12.237,12.237,0,0,0-12.233,12.232l0,28.863,28.263.012a12.231,12.231,0,0,0,12.228-12.232v-16.643A12.233,12.233,0,0,0-5524.067-4508.616Zm3.043,25.1a6.683,6.683,0,0,1-6.684,6.68l-15.436,0,0-15.767a6.679,6.679,0,0,1,6.68-6.678h8.751a6.681,6.681,0,0,1,6.684,6.678Zm-50.752-25.1H-5587.8a12.235,12.235,0,0,0-12.229,12.232v16.643a12.232,12.232,0,0,0,12.229,12.232l28.267-.012-.008-28.863A12.237,12.237,0,0,0-5571.776-4508.616Zm-12.385,31.779a6.681,6.681,0,0,1-6.68-6.68v-9.089a6.678,6.678,0,0,1,6.68-6.678h8.751a6.68,6.68,0,0,1,6.683,6.678l0,15.767Zm-15.87,28.289v16.64a12.23,12.23,0,0,0,12.229,12.232h16.025a12.233,12.233,0,0,0,12.233-12.232l.008-28.859-28.267-.008A12.228,12.228,0,0,0-5600.031-4448.548Zm31.306-2.9,0,15.765a6.678,6.678,0,0,1-6.683,6.677h-8.751a6.676,6.676,0,0,1-6.68-6.677v-9.092a6.677,6.677,0,0,1,6.68-6.675Zm44.658-9.33-28.263.008,0,28.859a12.233,12.233,0,0,0,12.233,12.232h16.025a12.229,12.229,0,0,0,12.228-12.232v-16.64A12.227,12.227,0,0,0-5524.067-4460.775Zm3.043,25.094a6.679,6.679,0,0,1-6.684,6.677h-8.751a6.677,6.677,0,0,1-6.68-6.677l0-15.765,15.436,0a6.68,6.68,0,0,1,6.684,6.675Z" transform="translate(5600.031 4508.616)" fill="#c7cb2d"/></svg>