<svg xmlns="http://www.w3.org/2000/svg" width="30" height="25.479" viewBox="0 0 30 25.479">
  <path id="Path_961" data-name="Path 961" d="M-7570.762-4427.221h-6.185a.439.439,0,0,0-.438.438.438.438,0,0,0,.438.438h6.185a.438.438,0,0,0,.438-.438A.439.439,0,0,0-7570.762-4427.221Zm0-2.135h-6.185a.438.438,0,0,0-.438.438.437.437,0,0,0,.438.437h6.185a.437.437,0,0,0,.438-.437A.438.438,0,0,0-7570.762-4429.356Zm11.8-2.41c-2.4,1.835-11.19,8.554-12.024,9.3a4.8,4.8,0,0,1-2.865,1.433h-.011a4.8,4.8,0,0,1-2.865-1.433c-.833-.747-9.62-7.466-12.023-9.3a2.641,2.641,0,0,0-.106.737v12.329a2.646,2.646,0,0,0,.392,1.386l7.049-6.871a.388.388,0,0,1,.548.007.388.388,0,0,1-.008.548l-7.093,6.914a2.654,2.654,0,0,0,1.778.682h24.668a2.651,2.651,0,0,0,1.777-.682l-7.093-6.914a.389.389,0,0,1-.006-.548.386.386,0,0,1,.546-.007l7.05,6.871a2.646,2.646,0,0,0,.392-1.386v-12.329A2.641,2.641,0,0,0-7558.961-4431.766Zm-11.8.24h-6.185a.438.438,0,0,0-.438.438.438.438,0,0,0,.438.437h6.185a.438.438,0,0,0,.438-.437A.438.438,0,0,0-7570.762-4431.526Zm-13.269-.456a1.846,1.846,0,0,1,1.962-1.683h16.427a1.848,1.848,0,0,1,1.964,1.683v2.173l3.925-2.944s-11.707-7.782-12.268-8.062a4.27,4.27,0,0,0-1.831-.7h-.006a4.27,4.27,0,0,0-1.831.7c-.561.28-12.268,8.062-12.268,8.062l3.926,2.944Z" transform="translate(7588.855 4441.513)" fill="#3a393a"/>
</svg>
