<svg width="24" height="24" viewBox="0 0 24 24" fill="none" xmlns="http://www.w3.org/2000/svg">
<path d="M12 0C5.37258 0 0 5.37258 0 12C0 18.6274 5.37258 24 12 24C18.6274 24 24 18.6274 24 12C24 5.37258 18.6274 0 12 0ZM5.85938 7.35792H18.1406V9.08498L12 12.5859L5.85938 9.08496V7.35792V7.35792ZM5.85938 10.1895L8.98682 11.9722L5.85938 15.2505V10.1895ZM18.1406 10.1895V15.2505L15.0132 11.9722L18.1406 10.1895V10.1895ZM9.84668 12.4629L12 13.6904L14.1533 12.4629L18.1406 16.6421H5.85938L9.84668 12.4629Z" fill="black"/>
</svg>
