<svg xmlns="http://www.w3.org/2000/svg" xmlns:xlink="http://www.w3.org/1999/xlink" width="25" height="25" viewBox="0 0 25 25"><defs><clipPath id="a"><rect width="25" height="25" fill="none"/></clipPath></defs><g clip-path="url(#a)"><path d="M23.074,0H1.927A1.926,1.926,0,0,0,0,1.927V23.154A1.859,1.859,0,0,0,1.927,25H23.074A1.86,1.86,0,0,0,25,23.154V1.927A1.927,1.927,0,0,0,23.074,0M13.131,8.282a3.361,3.361,0,0,0-1.7-.637,2.047,2.047,0,0,0-1.367.4,2.014,2.014,0,0,0-.387,1.442v1.051h3.184l-.69,2.928H9.677v9.722h-4V13.463H3.809V10.536h1.87V9.42A5.471,5.471,0,0,1,6.1,6.959,3.5,3.5,0,0,1,7.658,5.37a7.227,7.227,0,0,1,2.993-.546,11.283,11.283,0,0,1,3.208.7Z" fill="#3a393a"/></g></svg>