<svg xmlns="http://www.w3.org/2000/svg" width="30" height="30" viewBox="0 0 30 30">
  <path id="Path_975" data-name="Path 975" d="M-7538.633-4109.767h-25.377a2.312,2.312,0,0,0-2.312,2.312v25.473a2.231,2.231,0,0,0,2.312,2.215h25.377a2.231,2.231,0,0,0,2.311-2.215v-25.473A2.312,2.312,0,0,0-7538.633-4109.767Zm-11.932,9.938a4.035,4.035,0,0,0-2.04-.765,2.453,2.453,0,0,0-1.639.479,2.415,2.415,0,0,0-.465,1.731v1.26h3.82l-.828,3.513h-2.992v11.666h-4.8v-11.666h-2.244v-3.513h2.244v-1.34a6.572,6.572,0,0,1,.5-2.953,4.189,4.189,0,0,1,1.874-1.9,8.672,8.672,0,0,1,3.593-.656,13.587,13.587,0,0,1,3.849.845Z" transform="translate(7566.322 4109.767)" fill="#e6e6e6"/>
</svg>