<svg xmlns="http://www.w3.org/2000/svg" width="99.415" height="119.35" viewBox="0 0 99.415 119.35"><g transform="translate(7671.953 3710.499)"><g transform="translate(-7671.953 -3710.499)"><path d="M-7588.062-3633.722v31.878h-73.458v-31.83h-10.433v42.524h94.332v-42.572Zm-7.5-5.354c1.483-3.252,2.923-6.41,4.409-9.669l-47.636-22.578c-1.472,3.271-2.907,6.459-4.381,9.732Zm-3.021,13.309a3.725,3.725,0,0,0,.178-.463c.647-3.092,1.284-6.185,1.94-9.275.146-.687-.294-.72-.768-.821q-17.045-3.632-34.088-7.282c-5.159-1.1-10.32-2.2-15.47-3.353-.833-.187-1.042.012-1.189.818-.478,2.627-1.055,5.235-1.6,7.85-.343,1.652-.339,1.629,1.335,1.983q18.3,3.866,36.591,7.75C-7607.323-3627.64-7603-3626.709-7598.583-3625.766Zm15.635-33.56-40.335-34.194c-2.262,2.776-4.455,5.467-6.689,8.211l40.331,34.19C-7587.388-3653.881-7585.192-3656.573-7582.948-3659.326Zm10.41-8.449q-15.737-21.446-31.35-42.724l-8.406,6.4,31.345,42.718Zm-26.01,44.818h-52.461v10.384h52.461Z" transform="translate(7671.953 3710.499)" fill="#c7cb2d"/></g></g></svg>