<svg xmlns="http://www.w3.org/2000/svg" xmlns:xlink="http://www.w3.org/1999/xlink" width="22.978" height="22.969" viewBox="0 0 22.978 22.969"><defs><clipPath id="a"><rect width="22.978" height="22.968" fill="#feac2d"/></clipPath></defs><g clip-path="url(#a)"><path d="M11.489,0A11.489,11.489,0,0,0,8,22.433L5.44,3.562a.715.715,0,1,1,1.417-.192L9.489,22.8a11.577,11.577,0,0,0,1.151.144l1.234.024A11.487,11.487,0,0,0,11.489,0m.648,12.719A9.043,9.043,0,0,0,8.96,12.3C7.9,4.673,7.972,4.249,7.972,4.249s7.482,1.906,10.374-.423c-1.763,4.164-2.823,4.941-2.187,5.5s3.176,2.541,3.176,2.541a9.13,9.13,0,0,1-7.2.847" fill="#feac2d"/></g></svg>