<svg xmlns="http://www.w3.org/2000/svg" xmlns:xlink="http://www.w3.org/1999/xlink" width="23" height="23" viewBox="0 0 23 23"><defs><clipPath id="a"><rect width="23" height="23" transform="translate(0 -0.276)" fill="#feac2d"/></clipPath></defs><g transform="translate(0 0.276)"><g clip-path="url(#a)"><path d="M11.484,0A11.484,11.484,0,1,0,22.968,11.484,11.484,11.484,0,0,0,11.484,0m.4,4.094c.194.388.064,1.165-1.035,1.553L9.426,2.865a1.916,1.916,0,0,1,2.459,1.229M8.714,20.981c-.776.064-1.746.259-2.005-2.718A2.429,2.429,0,0,0,4.9,17.292c-.711-.129-.841-1.616,0-2.781-.711-.776-3.752-3.428-3.105-6.082a9.383,9.383,0,0,1,5.3-6.4c1.424,1.358,2.394,2.135.453,3.17-.776.453-.97,1.553,0,1.682,0,0,.194-.971.776-.711s1.941,1.618.906,1.682a2.372,2.372,0,0,0-1.942,1.1C6.838,9.529,6,11.016,5.414,11.082s-.518-.906-1.035-.906-1.035,0-.776,1.618c.324.9,3.106,2.976,9.317,4.917a4.829,4.829,0,0,1-4.206,4.271M19.842,13.8a2.187,2.187,0,0,1-.518.324c-.388.194-3.817,1.23-3.687-1.746.259-.712,2.07-4.464-1.424-5.953.388-.711,1.618-.9,1.618-.9l-2.2-3.559s6.923.841,7.634,7.958a18.6,18.6,0,0,1-.711,5.629,11.119,11.119,0,0,1-.712-1.747" fill="#feac2d"/></g></g></svg>