<svg xmlns="http://www.w3.org/2000/svg" width="119.6" height="119.729" viewBox="0 0 119.6 119.729"><g transform="translate(7559.874 3803.027)"><g transform="translate(-7559.874 -3803.026)"><path d="M-7492.209-3690.782a5.521,5.521,0,0,1-.233-.841c-.223-2.687-.205-2.715,2.511-2.719,3.6,0,7.2.013,10.8.015a10.935,10.935,0,0,0,1.517-.053c1.132-.161,1.908-.737,1.866-1.981a1.844,1.844,0,0,0-2.059-1.953c-4.106-.019-8.211-.013-12.321-.015h-2.114c-.085-.544-.147-.968-.215-1.389-.243-1.527.226-2.164,1.946-2.12,4.667.121,9.339.041,14.009.041.561,0,1.125.01,1.688,0,1.838-.039,2.979-.863,2.922-2.1-.053-1.173-1.162-1.943-2.879-1.947-5.289-.008-10.576-.042-15.865.026-1.357.016-1.859-.324-1.863-1.771,0-1.512.644-1.741,1.929-1.72,3.712.062,7.426.021,11.14.019.451,0,.9,0,1.351,0,1.366-.017,2.353-.566,2.326-2.054s-1.083-1.976-2.408-2c-1.125-.019-2.251,0-3.375,0-5.347,0-10.692.009-16.038-.011-1.149,0-2.445.466-2.463-1.671-.017-2.221,1.328-1.747,2.55-1.764,1.576-.021,3.152.017,4.725-.029a1.945,1.945,0,0,0,2.1-1.971,1.856,1.856,0,0,0-1.921-1.966,81.638,81.638,0,0,0-10.437.225,11.333,11.333,0,0,0-5.049,2.416,73.15,73.15,0,0,0-7.911,6.813c-2.154,2.175-4.491,2.077-6.752.9a29.77,29.77,0,0,1-5.441-4.137,2.79,2.79,0,0,0-2.675-.849c-2.629.54-2.643.468-4.687,2.407a5.433,5.433,0,0,1-8.45-1.071,2.024,2.024,0,0,0-2.362-1.241,5.37,5.37,0,0,1-6-5.03c-.038-.447.006-.9-.022-1.349-.051-.89.16-1.981-.283-2.595-.318-.443-1.521-.246-2.328-.339a5.329,5.329,0,0,1-4.8-5.428c.026-8.251-.6-16.542,1.067-24.721a58.77,58.77,0,0,1,15.761-30,5.809,5.809,0,0,1,.556-.417l2.349,2.181c-.329.434-.561.8-.853,1.118-10.471,11.349-15.675,24.7-15.367,40.174.071,3.653.024,7.308,0,10.964-.013,1.406.389,2.493,1.943,2.647,1.143.115,1.914-1,1.941-2.622.014-.9,0-1.8.006-2.7.008-2.008.93-2.74,2.8-2.033.4.15.729,1.031.737,1.58.058,3.823.02,7.648.012,11.47,0,.506-.016,1.016.028,1.518.105,1.192.621,2.112,1.953,2.089,1.384-.026,1.97-.924,1.974-2.233.01-4.273.061-8.549-.021-12.821-.026-1.372.457-1.726,1.746-1.732,1.265-.009,1.807.279,1.787,1.677-.071,5-.023,10.009-.021,15.013,0,.506-.02,1.014.021,1.518.107,1.3.623,2.429,2.087,2.347,1.4-.078,1.941-1.123,1.938-2.495-.014-5.4.031-10.8-.028-16.193-.014-1.332.284-1.883,1.76-1.878s1.768.6,1.748,1.91c-.069,4.047-.041,8.1-.034,12.146.005,1.794.722,2.755,2,2.766s2.053-.983,2.058-2.74c.017-6.58.039-13.158-.021-19.736-.01-1.344.3-1.874,1.763-1.874,1.479,0,1.8.557,1.74,1.889a29.725,29.725,0,0,0,.081,5.553,2.618,2.618,0,0,0,1.728,1.825c.641.057,1.964-.943,1.977-1.5.1-4.564,1.233-9.327-1.011-13.594-1.284-2.436-3.408-4.433-5.179-6.606a27.565,27.565,0,0,0-3.09-3.56c-2.474-2.147-2.062-4.655-.812-7.012a27.183,27.183,0,0,1,3.966-5.152,3.483,3.483,0,0,0,.93-2.66,5.7,5.7,0,0,0-2.446-4.915c-2.671-2.229-1.92-6.474,1.17-8.325a1.99,1.99,0,0,0,1.141-2.272,5.427,5.427,0,0,1,5.176-6.063c.167-.013.337-.008.5-.017,1.066-.049,2.357.243,3.115-.262.55-.366.366-1.8.545-2.745a5.345,5.345,0,0,1,5.444-4.4c8.26-.009,16.562-.566,24.739,1.1a59.211,59.211,0,0,1,29.386,15.219c.84.792.989,1.406.039,2.16-.475.377-.9.819-1.269,1.162-3-2.327-5.76-4.72-8.766-6.762-6.689-4.543-14.032-7.783-22.1-8.543-7.255-.684-14.584-.579-21.882-.8a1.857,1.857,0,0,0-2.131,1.9,1.864,1.864,0,0,0,2.094,1.934c1.349.013,2.7.048,4.05,0,1.6-.062,1.2,1.091,1.283,1.979.083.942,0,1.636-1.271,1.622-3.994-.047-7.989-.015-11.981-.012-.452,0-.9-.028-1.353.014-1.174.113-2.109.564-2.115,1.923,0,1.415.867,2,2.177,2.008,2.646.024,5.29.019,7.933.021,1.519,0,3.047.1,4.556-.034,1.627-.148,2.17.4,2.1,2.05-.05,1.235-.485,1.5-1.605,1.486-4.782-.045-9.564-.017-14.346-.017-.676,0-1.351-.012-2.024.013-1.6.064-2.668.891-2.649,2.024s1.1,1.99,2.654,1.995c5.345.015,10.69.036,16.035-.017,1.279-.012,1.949.178,1.924,1.709-.024,1.415-.478,1.826-1.856,1.8-3.937-.074-7.876-.028-11.814-.015-.559,0-1.268-.117-1.641.169-.6.46-1.343,1.207-1.348,1.838s.716,1.411,1.321,1.844c.429.307,1.192.185,1.807.185,6.413.008,12.828.023,19.242-.013,1.212-.006,1.84.2,1.82,1.656-.021,1.385-.407,1.908-1.824,1.832-1.793-.1-3.6-.036-5.4-.007a1.944,1.944,0,0,0-2.128,1.938,1.822,1.822,0,0,0,1.86,2.01,77.514,77.514,0,0,0,10.6-.252,11.668,11.668,0,0,0,5.151-2.575c2.982-2.287,5.779-4.822,8.594-7.321a3.841,3.841,0,0,1,3.413-.926,11.746,11.746,0,0,1,7.283,4.21c1.017,1.179,2.05,2.046,3.747,1.4.386-.149.921.106,1.325-.023.658-.212,1.523-.417,1.848-.917,2.542-3.92,7.245-3.891,9.787.07a2.233,2.233,0,0,0,1.7.845c3.87-.214,6.348,2.016,6.39,5.885a10.113,10.113,0,0,1,0,1.18c-.157,1.563.066,2.442,2.11,2.314a4.973,4.973,0,0,1,5.265,5.046c.215,11.632.627,23.293-3.706,34.462a61.3,61.3,0,0,1-12.713,20.276c-.263.278-.579.5-1.134.981l-2.194-2.48c.671-.762,1.293-1.472,1.917-2.179a55.437,55.437,0,0,0,14.34-37.372c.027-3.935.012-7.873.012-11.809,0-.5-.012-1.013-.042-1.517a1.832,1.832,0,0,0-1.91-1.94,1.835,1.835,0,0,0-1.9,1.957c-.027,1.125-.074,2.251-.014,3.373.068,1.347-.083,2.175-1.852,2.16-1.715-.015-1.748-.847-1.732-2.1.054-3.767.06-7.535.053-11.3-.006-2.45-.626-3.449-2.041-3.437-1.384.012-1.956,1.023-1.954,3.458,0,3.88-.056,7.762.028,11.639.028,1.385-.5,1.7-1.771,1.712-1.3.013-1.787-.335-1.769-1.7.067-5.06.028-10.12.03-15.18q0-.591-.008-1.181c-.02-1.334-.556-2.334-1.959-2.527-1.146-.156-2.068.991-2.075,2.548-.021,5.344-.037,10.685.015,16.025.012,1.318-.131,2.031-1.783,2.036-1.731,0-1.716-.886-1.706-2.109.037-3.653.017-7.308.017-10.964,0-.561.023-1.127-.028-1.686-.112-1.208-.7-2.054-2-2.047s-1.863.893-2,2.073a14.481,14.481,0,0,0-.029,1.686c0,6.241-.019,12.482.02,18.724.007,1.209-.186,1.857-1.648,1.815-1.334-.036-1.945-.311-1.846-1.788.121-1.789.028-3.6.018-5.4a1.96,1.96,0,0,0-1.911-2.164,1.879,1.879,0,0,0-2.041,2.018,78.218,78.218,0,0,0,.215,10.263,11.377,11.377,0,0,0,2.382,5.063,66.69,66.69,0,0,0,6.8,7.927c2.267,2.2,2.163,4.532.949,6.862a27.206,27.206,0,0,1-4.014,5.32,2.987,2.987,0,0,0-.9,2.982,7.28,7.28,0,0,0,2.362,4.509,5.423,5.423,0,0,1-1.067,8.448,2.052,2.052,0,0,0-1.244,2.368,5.45,5.45,0,0,1-5.225,6.023c-.337.021-.676.006-1.012.009-2.7.007-2.7.007-3.049,2.7a5.408,5.408,0,0,1-5.529,4.716c-8.089-.01-16.21.517-24.234-1.04a59.481,59.481,0,0,1-30.913-16.318l2.363-2.48c.828.722,1.54,1.335,2.242,1.959a54.882,54.882,0,0,0,36.357,14.319q6.921.136,13.839-.041a3.447,3.447,0,0,0,2.211-1.364c.249-.324-.136-1.4-.536-1.885a2.516,2.516,0,0,0-1.68-.535C-7488.964-3690.83-7490.539-3690.782-7492.209-3690.782Zm-26.688-49.769c0,1.573.022,3.149,0,4.723a5.4,5.4,0,0,1-5.808,5.609c-1.436-.051-1.684.474-1.694,1.738-.027,3.25-.2,6.5-.286,9.745a1.35,1.35,0,0,0,.263.934,56.2,56.2,0,0,0,4.845,4.112c1.143.807,2.368.53,3.507-.5,2.621-2.377,5.246-4.775,8.082-6.883a13.4,13.4,0,0,1,5.642-2.763,85.813,85.813,0,0,1,11.254-.488c3.727-.042,6.03,2.29,5.939,5.991-.028,1.224.378,1.535,1.528,1.551,3.306.042,6.612.2,9.918.29a1.337,1.337,0,0,0,.935-.245,63.934,63.934,0,0,0,4.257-5.151,2.387,2.387,0,0,0-.485-3.072c-2.423-2.73-4.872-5.451-7.077-8.355a11.887,11.887,0,0,1-2.6-5.174,101.828,101.828,0,0,1-.529-11.914,5.386,5.386,0,0,1,5.876-5.709c1.172.033,1.592-.273,1.606-1.474.033-3.363.188-6.726.266-10.089a1.333,1.333,0,0,0-.324-.922,59.774,59.774,0,0,0-4.575-3.922,2.658,2.658,0,0,0-3.653.364c-2.538,2.3-5.07,4.638-7.818,6.669a14.481,14.481,0,0,1-5.9,2.984,82.231,82.231,0,0,1-11.416.513,5.419,5.419,0,0,1-5.832-5.926c.039-1.151-.213-1.613-1.443-1.626-3.364-.033-6.726-.19-10.092-.271a1.355,1.355,0,0,0-.925.305,35.52,35.52,0,0,0-3.7,4.121c-1.328,1.933-1.134,2.659.418,4.462,1.284,1.489,2.458,3.085,3.852,4.464C-7520.417-3752.056-7517.844-3747-7518.9-3740.551Z" transform="translate(7559.874 3803.027)" fill="#c7cb2d"/></g><path d="M-7534.655-3756.35c1.053-6.445-1.519-11.506-5.968-15.913-1.395-1.379-2.568-2.976-3.852-4.464-1.552-1.8-1.746-2.529-.418-4.462a35.545,35.545,0,0,1,3.7-4.121,1.352,1.352,0,0,1,.924-.305c3.366.081,6.729.237,10.094.271,1.229.013,1.479.475,1.441,1.626a5.419,5.419,0,0,0,5.833,5.926,82.289,82.289,0,0,0,11.415-.512,14.479,14.479,0,0,0,5.9-2.984c2.748-2.031,5.28-4.367,7.818-6.669a2.66,2.66,0,0,1,3.653-.364,60.083,60.083,0,0,1,4.575,3.923,1.334,1.334,0,0,1,.323.921c-.078,3.363-.233,6.726-.266,10.089-.014,1.2-.435,1.507-1.606,1.474a5.386,5.386,0,0,0-5.876,5.709,101.523,101.523,0,0,0,.528,11.915,11.9,11.9,0,0,0,2.6,5.173c2.205,2.9,4.655,5.625,7.077,8.355a2.387,2.387,0,0,1,.485,3.072,64.337,64.337,0,0,1-4.256,5.151,1.345,1.345,0,0,1-.937.246c-3.306-.089-6.61-.248-9.918-.29-1.149-.015-1.556-.326-1.527-1.551.092-3.7-2.213-6.034-5.939-5.991a85.863,85.863,0,0,0-11.254.488,13.425,13.425,0,0,0-5.643,2.763c-2.836,2.108-5.461,4.505-8.082,6.883-1.138,1.034-2.364,1.311-3.506.5a56.146,56.146,0,0,1-4.846-4.112,1.349,1.349,0,0,1-.263-.935c.087-3.249.26-6.495.286-9.745.01-1.263.258-1.788,1.694-1.738a5.4,5.4,0,0,0,5.808-5.609C-7534.632-3753.2-7534.655-3754.777-7534.655-3756.35Z" transform="translate(15.758 15.799)" fill="#c7cb2d"/></g></svg>