<svg id="Group_1494" data-name="Group 1494" xmlns="http://www.w3.org/2000/svg" xmlns:xlink="http://www.w3.org/1999/xlink" width="29.053" height="39.04" viewBox="0 0 29.053 39.04">
  <defs>
    <clipPath id="clip-path">
      <rect id="Rectangle_803" data-name="Rectangle 803" width="29.052" height="39.04"/>
    </clipPath>
  </defs>
  <g id="Group_242" data-name="Group 242" clip-path="url(#clip-path)">
    <path id="Path_161" data-name="Path 161" d="M17.413,11.949c-1.174-.514-.458-9.441-.622-11.949H3.486A3.486,3.486,0,0,0,0,3.486V35.552A3.487,3.487,0,0,0,3.486,39.04H25.565a3.487,3.487,0,0,0,3.488-3.488v-23c-.164-.508-10.441.116-11.639-.6M6.2,16.2H22.659a1.473,1.473,0,0,1,1.472,1.472c0,.813-.66,1.18-1.472,1.18H6.2c-.812,0-1.472-.367-1.472-1.18A1.473,1.473,0,0,1,6.2,16.2m9.046,13.841h-9.1a1.58,1.58,0,0,1-1.58-1.58c0-.874.708-1.291,1.58-1.291h9.1c.872,0,1.58.416,1.58,1.291a1.58,1.58,0,0,1-1.58,1.58m7.466-5.394H6.2a1.581,1.581,0,0,1-1.58-1.581c0-.873.708-1.288,1.58-1.288H22.713c.873,0,1.58.415,1.58,1.288a1.58,1.58,0,0,1-1.58,1.581M28.984,10.94,18.541.026V10.267l1.01.742Z" fill-rule="evenodd"/>
  </g>
</svg>
