<svg xmlns="http://www.w3.org/2000/svg" xmlns:xlink="http://www.w3.org/1999/xlink" width="44.302" height="39.04" viewBox="0 0 44.302 39.04">
  <defs>
    <clipPath id="clip-path">
      <rect id="Rectangle_804" data-name="Rectangle 804" width="44.302" height="39.04"/>
    </clipPath>
  </defs>
  <g id="Group_244" data-name="Group 244" clip-path="url(#clip-path)">
    <path id="Path_162" data-name="Path 162" d="M43.976,35.351c-1.209-2.177-18.6-32.261-19.689-34.1a2.444,2.444,0,0,0-4.264,0C18.541,3.808,1.236,33.776.377,35.274A2.452,2.452,0,0,0,2.5,39.039H41.867a2.439,2.439,0,0,0,2.108-3.688M24.048,8.593l-.554,18.968H20.808L20.255,8.593Zm-1.9,27.068h-.039a2.454,2.454,0,0,1,.039-4.9,2.274,2.274,0,0,1,2.332,2.45,2.294,2.294,0,0,1-2.332,2.449" transform="translate(0 0)" fill-rule="evenodd"/>
  </g>
</svg>
