<svg xmlns="http://www.w3.org/2000/svg" width="41.007" height="41.223" viewBox="0 0 41.007 41.223"><path d="M-7282.638-4774.687l-7.154-6.42a2.011,2.011,0,0,0-3.474,0c-1.894,2.318-1.786,2.947-3.681.844-1.753-1.946-6.348-6.519-8.116-8.109-2.1-1.9-1.473-1.788.843-3.684a2.009,2.009,0,0,0,0-3.472l-6.419-7.156c-1.894-2.1-5.577,5.155-5.683,6.735-.755,7.532,15.788,23.8,24.806,26.541a12.369,12.369,0,0,1-1.021,3.442c-.749,1.439-1.7,2.364-3.31,2.378a7.425,7.425,0,0,1-3.541-1.145c-1.758-.851-5.047-4.674-8.374-8.229-3.415-3.541-6.824-7-10.217-7.1a3.909,3.909,0,0,0-.892.1c-2.977.624-4.45,2.765-4.395,4.955a8.74,8.74,0,0,0,2.828,5.988l1.205-1.265a7.058,7.058,0,0,1-2.286-4.724c.054-1.5.66-2.647,3.045-3.256a2.134,2.134,0,0,1,.494-.055c2.059-.1,5.671,3.007,8.946,6.551,3.36,3.531,6.429,7.314,8.819,8.573a9.05,9.05,0,0,0,4.366,1.351h.032a4.925,4.925,0,0,0,3.743-1.7,11.248,11.248,0,0,0,2.269-5.5c.144.014.292.039.431.043C-7287.793-4769.11-7280.536-4772.793-7282.638-4774.687Z" transform="translate(7323.267 4803.063)" fill="#3a393a"/></svg>