<svg id="Group_1493" data-name="Group 1493" xmlns="http://www.w3.org/2000/svg" xmlns:xlink="http://www.w3.org/1999/xlink" width="60.268" height="38.154" viewBox="0 0 60.268 38.154">
  <defs>
    <clipPath id="clip-path">
      <rect id="Rectangle_802" data-name="Rectangle 802" width="60.268" height="38.154" fill="none"/>
    </clipPath>
  </defs>
  <g id="Group_240" data-name="Group 240" clip-path="url(#clip-path)">
    <path id="Path_160" data-name="Path 160" d="M54.27,14.061a10.368,10.368,0,0,1,3.864,6.7,9.141,9.141,0,0,1,.1,1.2q.01,6.871,0,13.742c0,1.709-.731,2.441-2.431,2.446-1.772,0-3.544.009-5.316,0a2.05,2.05,0,0,1-2.278-2.3c-.006-.627,0-1.254,0-1.931H12.071c0,.652.006,1.306,0,1.959a2.041,2.041,0,0,1-2.206,2.266q-2.808.023-5.617,0a2.011,2.011,0,0,1-2.2-2.17c-.012-4.781-.059-9.564.019-14.344a9.317,9.317,0,0,1,2.645-6.323c.356-.381.778-.7,1.395-1.246-1.179,0-2.027,0-2.876,0-2.815-.012-3.706-2.6-3-4.783A1.822,1.822,0,0,1,2.115,8.05c1.27-.007,2.541-.018,3.812,0a2.011,2.011,0,0,1,2.127,2.142c.014.591,0,1.182,0,2.121a5.324,5.324,0,0,0,.8-.929c.826-1.745,1.573-3.528,2.426-5.259a8.989,8.989,0,0,1,7.055-5.114A65.57,65.57,0,0,1,34.41.177c2.95.235,5.876.772,8.81,1.192a6.707,6.707,0,0,1,5.029,3.6c1.164,2.088,2.11,4.3,3.171,6.444a4.538,4.538,0,0,0,.6.761l.2-.158c0-.619-.014-1.237,0-1.856A2.005,2.005,0,0,1,54.28,8.055q1.955-.043,3.912,0a2.037,2.037,0,0,1,2.054,2.019c.249,2.971-1.59,4.225-3.833,4-.622-.063-1.255-.01-2.143-.01M47.3,11.921A19.593,19.593,0,0,0,44.2,6.2a2.284,2.284,0,0,0-1.251-.742c-2.923-.48-5.844-1.073-8.79-1.283a50.606,50.606,0,0,0-16.8,1.275,2.466,2.466,0,0,0-1.383.881c-1.124,1.8-2.135,3.663-3.149,5.436,11.6,3.357,23,3.727,34.468.152M12.186,26.1a4.157,4.157,0,0,0,3.895-4.061,4.076,4.076,0,0,0-4.009-3.929,3.838,3.838,0,0,0-3.947,4.035c.063,2.519,1.815,3.779,4.061,3.955M52.2,22.067a4,4,0,0,0-8.007.046,4,4,0,0,0,8.007-.046M30.035,28.118c2.239,0,4.479-.008,6.718,0,.757,0,1.407-.2,1.378-1.058-.027-.791-.66-.967-1.372-.966q-6.618.016-13.236,0c-.756,0-1.407.2-1.378,1.058.026.791.66.971,1.372.966,2.172-.015,4.345-.005,6.517-.005" transform="translate(0 0.001)" fill="#1a1818"/>
  </g>
</svg>
