<svg xmlns="http://www.w3.org/2000/svg" xmlns:xlink="http://www.w3.org/1999/xlink" width="53" height="39.04" viewBox="0 0 53 39.04">
  <defs>
    <clipPath id="clip-path">
      <rect id="Rectangle_800" data-name="Rectangle 800" width="53" height="39.04"/>
    </clipPath>
  </defs>
  <g id="Group_1491" data-name="Group 1491" transform="translate(0 0)">
    <g id="Group_236" data-name="Group 236" transform="translate(0 0)" clip-path="url(#clip-path)">
      <path id="Path_158" data-name="Path 158" d="M25.836,14.927h8.475a1.052,1.052,0,0,0,0-2.1H25.836a1.052,1.052,0,0,0,0,2.1m0-4.558h8.475a1.052,1.052,0,0,0,0-2.1H25.836a1.052,1.052,0,0,0,0,2.1m0,8.764h8.475a1.051,1.051,0,1,0,0-2.1H25.836a1.051,1.051,0,0,0,0,2.1M46.32.025a.953.953,0,0,0-.189-.019c-19.211,0,2.307,0-26.161,0C19.863,0,19.769,0,19.69,0a7.56,7.56,0,0,0-5.883,2.835.933.933,0,0,0,.207,1.3.914.914,0,0,0,.548.178.933.933,0,0,0,.754-.385l.048-.06A5.753,5.753,0,0,1,19.69,1.864c.072,0,.132,0,.182,0l.018,0H40.572A6.969,6.969,0,0,0,38.317,7V8.082h.007V33.031a4.352,4.352,0,0,1-1.076,2.178,6.423,6.423,0,0,1-4.369,1.9c-4.918-.18-4.977-6.282-4.977-6.282s-.039-.041-13.379-.058v-7a.932.932,0,0,0-1.864,0v7c-3.406,0-7.565-.005-12.66-.005-.058,8.037,5.569,8.194,5.569,8.194l24.9,0c.486.035,1.177.083,1.2.083,3.79,0,6.088-1.353,7.256-2.827a5.979,5.979,0,0,0,1.27-3.085V8.082H53V7A6.984,6.984,0,0,0,46.32.025M18.359,13.564l-4.828,4.828,8.526,3.586ZM2.958,7.819l9.655,9.655,4.828-4.828L7.784,2.991ZM1.8,6.666,6.632,1.839l-.553-.553A3.414,3.414,0,0,0,1.251,6.114Z" transform="translate(0 0.001)"/>
    </g>
  </g>
</svg>
