<svg xmlns="http://www.w3.org/2000/svg" width="41.223" height="35.011" viewBox="0 0 41.223 35.011"><path d="M-7009.355-4787.654h-8.5a.6.6,0,0,0-.6.6.6.6,0,0,0,.6.6h8.5a.6.6,0,0,0,.6-.6A.6.6,0,0,0-7009.355-4787.654Zm0-2.932h-8.5a.6.6,0,0,0-.6.6.6.6,0,0,0,.6.6h8.5a.6.6,0,0,0,.6-.6A.6.6,0,0,0-7009.355-4790.586Zm16.218-3.313c-3.3,2.522-15.377,11.754-16.522,12.78a6.576,6.576,0,0,1-3.937,1.969h-.016a6.576,6.576,0,0,1-3.937-1.969c-1.145-1.026-13.219-10.258-16.521-12.78a3.611,3.611,0,0,0-.146,1.013v16.941a3.654,3.654,0,0,0,.538,1.906l9.687-9.442a.533.533,0,0,1,.751.009.532.532,0,0,1-.009.753l-9.747,9.5a3.648,3.648,0,0,0,2.443.938h33.9a3.638,3.638,0,0,0,2.439-.937l-9.744-9.5a.532.532,0,0,1-.009-.753.531.531,0,0,1,.75-.009l9.688,9.442a3.646,3.646,0,0,0,.539-1.906v-16.941A3.647,3.647,0,0,0-6993.137-4793.9Zm-16.218.329h-8.5a.6.6,0,0,0-.6.6.6.6,0,0,0,.6.6h8.5a.6.6,0,0,0,.6-.6A.6.6,0,0,0-7009.355-4793.57Zm-18.232-.626a2.537,2.537,0,0,1,2.7-2.312h22.572a2.536,2.536,0,0,1,2.7,2.312v2.986l5.395-4.046s-16.086-10.693-16.857-11.078a5.872,5.872,0,0,0-2.516-.957v0h-.008v0a5.861,5.861,0,0,0-2.517.957c-.771.385-16.857,11.078-16.857,11.078l5.394,4.046Z" transform="translate(7034.214 4807.293)" fill="#3a393a"/></svg>