<svg xmlns="http://www.w3.org/2000/svg" width="30" height="29.637" viewBox="0 0 30 29.637">
  <path id="Path_974" data-name="Path 974" d="M-7497.186-4109.4h-27.581a1.209,1.209,0,0,0-1.209,1.209v27.218a1.209,1.209,0,0,0,1.209,1.21h27.581a1.21,1.21,0,0,0,1.21-1.21v-27.218A1.209,1.209,0,0,0-7497.186-4109.4Zm-19.675,24.646h-4.5v-13.094h4.5Zm-2.182-14.839a2.482,2.482,0,0,1-2.551-2.409,2.483,2.483,0,0,1,2.551-2.407,2.482,2.482,0,0,1,2.55,2.407A2.482,2.482,0,0,1-7519.043-4099.6Zm18.671,8v6.836h-4.5v-7.363h.01c-.054-2.045-1.464-2.733-2.038-2.733-1.973,0-2.586.981-2.778,1.634v8.462h-4.5v-13.094h4.5v1.473c1.392-2.03,3.252-1.914,4.453-1.914C-7499.88-4097.736-7500.368-4091.654-7500.372-4091.594Z" transform="translate(7525.976 4109.404)" fill="#e6e6e6"/>
</svg>
