<svg xmlns="http://www.w3.org/2000/svg" xmlns:xlink="http://www.w3.org/1999/xlink" width="71.156" height="71.156" viewBox="0 0 71.156 71.156"><defs><filter id="a" x="0" y="0" width="71.156" height="71.156" filterUnits="userSpaceOnUse"><feOffset dy="3" input="SourceAlpha"/><feGaussianBlur stdDeviation="3" result="b"/><feFlood flood-opacity="0.161"/><feComposite operator="in" in2="b"/><feComposite in="SourceGraphic"/></filter></defs><g transform="translate(-113.922 -37.08)"><g transform="translate(122.922 43.08)"><g transform="matrix(1, 0, 0, 1, -9, -6)" filter="url(#a)"><rect width="53.156" height="53.156" rx="16" transform="translate(9 6)" fill="#feac2d"/></g></g><g transform="translate(132.889 53.047)"><rect width="33.222" height="33.222" fill="none"/><path d="M0,0H33.222V33.222H0Z" fill="none"/><path d="M27.907,4.111v12.5a4.651,4.651,0,0,1-4.651,4.651H4.651A4.651,4.651,0,0,1,0,16.611V4.111A1.983,1.983,0,0,1,.852,2.483L4.248.119A.664.664,0,0,1,5.008,1.21l-3.4,2.364a.655.655,0,0,0-.282.527A2,2,0,0,1,3,4.262L13.953,10.7,24.9,4.262A1.989,1.989,0,0,1,26.578,4.1a.655.655,0,0,0-.282-.527L23,1.278A.664.664,0,1,1,23.755.187l3.3,2.3A1.983,1.983,0,0,1,27.907,4.111Z" transform="translate(2.769 8.998)" fill="#928f85"/><path d="M9.966,15.946h0L0,9.966V3.322A3.326,3.326,0,0,1,3.322,0H16.611a3.326,3.326,0,0,1,3.323,3.322V9.966l-9.967,5.98ZM5.98,9.3a.665.665,0,0,0,0,1.329h7.974a.665.665,0,0,0,0-1.329Zm0-3.986a.665.665,0,1,0,0,1.329h7.974a.665.665,0,0,0,0-1.329Z" transform="translate(6.921 2.769)" fill="#fff"/></g></g></svg>