<svg xmlns="http://www.w3.org/2000/svg" xmlns:xlink="http://www.w3.org/1999/xlink" width="25" height="24.697" viewBox="0 0 25 24.697"><defs><clipPath id="a"><rect width="25" height="24.697" fill="none"/></clipPath></defs><g transform="translate(0 0)" clip-path="url(#a)"><path d="M23.992,0H1.007A1.008,1.008,0,0,0,0,1.007V23.689A1.008,1.008,0,0,0,1.007,24.7H23.992A1.008,1.008,0,0,0,25,23.689V1.007A1.008,1.008,0,0,0,23.992,0M7.6,20.538H3.849V9.627H7.6ZM5.778,8.173A2.069,2.069,0,0,1,3.652,6.166,2.069,2.069,0,0,1,5.778,4.159,2.068,2.068,0,0,1,7.9,6.166,2.069,2.069,0,0,1,5.778,8.173m15.559,6.668v5.7H17.589V14.4H17.6a2.1,2.1,0,0,0-1.7-2.278c-1.644,0-2.154.818-2.314,1.362v7.052H9.837V9.627h3.748v1.228A3.851,3.851,0,0,1,17.3,9.26c4.452.464,4.045,5.532,4.042,5.582" transform="translate(0 0)" fill="#3a393a"/></g></svg>