<svg xmlns="http://www.w3.org/2000/svg" width="24.283" height="24.5" viewBox="0 0 24.283 24.5"><path d="M136.472,370.09l-6.006-6.055a1.206,1.206,0,0,0-1.692-.022,9.588,9.588,0,0,0-6.728-16.332,9.477,9.477,0,0,0-7.131,3.248,9.594,9.594,0,0,0,7.131,15.907,9.431,9.431,0,0,0,6.686-2.782,1.23,1.23,0,0,0,.016,1.713l6.006,6.055a1.208,1.208,0,0,0,1.719,0A1.232,1.232,0,0,0,136.472,370.09Zm-14.426-5.7a7.128,7.128,0,1,1,7.071-7.128A7.107,7.107,0,0,1,122.047,364.386Z" transform="translate(-112.545 -347.681)" fill="#fff"/></svg>