<svg xmlns="http://www.w3.org/2000/svg" width="103" height="99.949" viewBox="0 0 103 99.949"><path d="M-5507.254-6461.753a16.3,16.3,0,0,0-12.166,5.49l-28.943-22.361a23.589,23.589,0,0,0,1.811-9.068,23.507,23.507,0,0,0-.654-5.33l28.26-13.432a13.647,13.647,0,0,0,10.547,5.029,13.73,13.73,0,0,0,13.734-13.73,13.733,13.733,0,0,0-13.734-13.736,13.732,13.732,0,0,0-13.732,13.736,13.816,13.816,0,0,0,.3,2.836l-27.773,13.205a23.565,23.565,0,0,0-20.59-12.229,23.659,23.659,0,0,0-23.66,23.65,23.66,23.66,0,0,0,23.66,23.656,23.52,23.52,0,0,0,18.412-8.982l29.049,22.447a16.234,16.234,0,0,0-.928,5.223,16.406,16.406,0,0,0,16.408,16.406,16.406,16.406,0,0,0,16.4-16.406A16.4,16.4,0,0,0-5507.254-6461.753Z" transform="translate(5593.855 6528.892)" fill="#d8dc40"/></svg>