<svg xmlns="http://www.w3.org/2000/svg" width="64" height="64" viewBox="0 0 64 64"><g opacity="0.152"><rect width="64" height="64" rx="16" fill="#e49a2f"/></g><g transform="translate(12 12)"><rect width="40" height="40" fill="none"/><path d="M30.953,33.333H11.905a2.384,2.384,0,0,1-2.381-2.381v-.794H26.191a3.973,3.973,0,0,0,3.968-3.968V9.524h.794a2.384,2.384,0,0,1,2.381,2.381V30.953A2.383,2.383,0,0,1,30.953,33.333ZM21.429,23.81H2.381A2.384,2.384,0,0,1,0,21.429V2.381A2.384,2.384,0,0,1,2.381,0H21.429A2.384,2.384,0,0,1,23.81,2.381V21.429A2.383,2.383,0,0,1,21.429,23.81Z" transform="translate(3.333 3.333)" fill="#feac2d"/><path d="M20.635,0h.794A2.381,2.381,0,0,1,23.81,2.381V21.429a2.381,2.381,0,0,1-2.381,2.381H2.381A2.381,2.381,0,0,1,0,21.429v-.794H16.667a3.968,3.968,0,0,0,3.968-3.968Z" transform="translate(8.095 8.095)" fill="#928f85"/></g></svg>