<svg xmlns="http://www.w3.org/2000/svg" width="118.807" height="115.076" viewBox="0 0 118.807 115.076"><g transform="translate(7709.404 3513.807)"><path d="M-7669.825-3417.054a60.207,60.207,0,0,1,7.063-.95c9.746-.093,19.5.167,29.234-.174a13.917,13.917,0,0,0,8.083-2.88c10.918-9.42,21.549-19.175,32.185-28.917a8.725,8.725,0,0,0,2.475-4.226,6.063,6.063,0,0,0-3.113-6.958c-2.927-1.691-5.718-1.2-8.257.973-8.684,7.436-17.354,14.89-26.082,22.273-1.032.874-2.388,1.9-3.612,1.926q-13.25.243-26.505-.019c-.865-.016-1.7-1.416-2.556-2.174.863-.788,1.609-1.958,2.618-2.267a15.052,15.052,0,0,1,4.259-.125c7.638,0,15.276,0,22.867,0,.582-5.765-1.769-8.7-6.935-8.735-10.655-.082-21.312-.043-31.967-.006a5.913,5.913,0,0,0-2.974.6c-4.039,2.519-7.985,5.189-12.131,7.916Zm7.321-37.8h42.7c0-4.773.009-9.291-.006-13.809a20.694,20.694,0,0,0-.148-3.105c-.866-5.568-4.8-9.367-10.173-9.462-7.526-.133-15.06-.148-22.585.024a10.045,10.045,0,0,0-9.732,9.374C-7662.7-3466.283-7662.5-3460.71-7662.5-3454.857Zm-7.408,44.687a16.377,16.377,0,0,0-1.086-2.808q-9.356-14.578-18.792-29.1c-1.467-2.26-3.43-2.593-5.679-1.156q-5.9,3.768-11.783,7.573c-2.438,1.574-2.749,3.62-1.22,5.989q9.285,14.392,18.6,28.765c1.563,2.416,3.523,2.82,5.943,1.24,3.91-2.552,7.89-5,11.736-7.64A12.542,12.542,0,0,0-7669.911-3410.171Zm42.02-90.049a13.532,13.532,0,0,0-13.2-13.585,13.583,13.583,0,0,0-13.579,13.629,13.634,13.634,0,0,0,13.428,13.394A13.537,13.537,0,0,0-7627.892-3500.22Z" fill="#c7cb2d"/></g></svg>