<svg xmlns="http://www.w3.org/2000/svg" xmlns:xlink="http://www.w3.org/1999/xlink" width="71.156" height="71.156" viewBox="0 0 71.156 71.156"><defs><filter id="a" x="0" y="0" width="71.156" height="71.156" filterUnits="userSpaceOnUse"><feOffset dy="3" input="SourceAlpha"/><feGaussianBlur stdDeviation="3" result="b"/><feFlood flood-opacity="0.161"/><feComposite operator="in" in2="b"/><feComposite in="SourceGraphic"/></filter></defs><g transform="translate(9 6)"><g transform="matrix(1, 0, 0, 1, -9, -6)" filter="url(#a)"><rect width="53.156" height="53.156" rx="16" transform="translate(9 6)" fill="#feac2d"/></g><g transform="translate(9.967 9.967)"><rect width="33.222" height="33.222" fill="none"/><path d="M9.763,12.626l4.588,4.841a2.016,2.016,0,0,0,2.4.105c2.554-1.059,3.4-1.317,3.889-.805l5.273,5.565a1.836,1.836,0,0,1-.24,2.489,8.946,8.946,0,0,1-13.122,0L2.7,14.426A10.1,10.1,0,0,1,2.7.677,1.689,1.689,0,0,1,5.153.423l5.273,5.565c.457.482.212,1.381-.786,4.057A2.381,2.381,0,0,0,9.763,12.626Z" transform="translate(2.769 2.769)" fill="#fff"/></g></g></svg>