<svg xmlns="http://www.w3.org/2000/svg" xmlns:xlink="http://www.w3.org/1999/xlink" width="24.373" height="24.5" viewBox="0 0 24.373 24.5"><defs><clipPath id="a"><rect width="24.373" height="24.501" fill="#fff"/></clipPath></defs><g transform="translate(0 0)"><g transform="translate(0 0.001)" clip-path="url(#a)"><path d="M24.148,16.865,19.9,13.051a1.2,1.2,0,0,0-2.065,0c-1.125,1.377-1.062,1.752-2.188.5C14.6,12.395,11.87,9.677,10.82,8.731c-1.251-1.125-.876-1.063.5-2.189a1.194,1.194,0,0,0,0-2.064L7.505.225c-1.125-1.25-3.315,3.064-3.378,4C3.679,8.705,13.511,18.373,18.871,20a7.337,7.337,0,0,1-.608,2.046A2.162,2.162,0,0,1,16.3,23.463a4.408,4.408,0,0,1-2.105-.679c-1.045-.506-3-2.779-4.978-4.892-2.029-2.1-4.056-4.159-6.071-4.22a2.3,2.3,0,0,0-.531.06A2.978,2.978,0,0,0,0,16.678a5.193,5.193,0,0,0,1.682,3.558l.715-.751A4.192,4.192,0,0,1,1.04,16.678c.032-.892.392-1.575,1.809-1.936a1.249,1.249,0,0,1,.295-.033C4.366,14.65,6.514,16.5,8.46,18.6c2,2.1,3.821,4.347,5.241,5.1a5.379,5.379,0,0,0,2.6.8h.018a2.929,2.929,0,0,0,2.225-1.014,6.673,6.673,0,0,0,1.348-3.27c.087.008.174.023.256.025.938-.062,5.253-2.252,4-3.378" transform="translate(0 0)" fill="#fff"/></g></g></svg>