<svg xmlns="http://www.w3.org/2000/svg" width="17.586" height="30" viewBox="0 0 17.586 30">
  <path id="Path_960" data-name="Path 960" d="M-7521.839-4443.773h-11.38a3.1,3.1,0,0,0-3.1,3.1v23.793a3.1,3.1,0,0,0,3.1,3.1h11.38a3.1,3.1,0,0,0,3.1-3.1v-23.793A3.1,3.1,0,0,0-7521.839-4443.773Zm-9.311,27.931h-3.1v-2.069h3.1Zm0-3.1h-3.1v-2.068h3.1Zm0-3.1h-3.1v-2.068h3.1Zm0-3.1h-3.1v-2.069h3.1Zm5.174,9.31h-3.1v-2.069h3.1Zm0-3.1h-3.1v-2.068h3.1Zm0-3.1h-3.1v-2.068h3.1Zm0-3.1h-3.1v-2.069h3.1Zm5.172,9.31h-3.1v-2.069h3.1Zm0-3.1h-3.1v-2.068h3.1Zm0-3.1h-3.1v-2.068h3.1Zm0-3.1h-3.1v-2.069h3.1Zm0-5.173a1.035,1.035,0,0,1-1.035,1.036h-11.38a1.036,1.036,0,0,1-1.035-1.036v-10.344a1.036,1.036,0,0,1,1.035-1.035h11.38a1.034,1.034,0,0,1,1.035,1.035Z" transform="translate(7536.322 4443.773)" fill="#3a393a" fill-rule="evenodd"/>
</svg>
