<svg xmlns="http://www.w3.org/2000/svg" width="120.808" height="120.809" viewBox="0 0 120.808 120.809"><path d="M-6732.756-3819.328l17.672-17.674a7.34,7.34,0,0,0,0-10.39,7.344,7.344,0,0,0-10.384,0l-17.679,17.674a7.349,7.349,0,0,0,0,10.39A7.35,7.35,0,0,0-6732.756-3819.328Zm-50.081,29.3-17.669,17.67a7.334,7.334,0,0,0,0,10.385,7.335,7.335,0,0,0,10.384,0l17.677-17.67a7.348,7.348,0,0,0,0-10.385A7.344,7.344,0,0,0-6782.837-3790.024Zm4.32-14.654a7.344,7.344,0,0,0-7.344-7.342h-25a7.343,7.343,0,0,0-7.345,7.342,7.346,7.346,0,0,0,7.345,7.346h25A7.342,7.342,0,0,0-6778.517-3804.678Zm73.781-7.342h-25a7.342,7.342,0,0,0-7.342,7.346,7.342,7.342,0,0,0,7.342,7.342h25a7.338,7.338,0,0,0,7.342-7.346A7.34,7.34,0,0,0-6704.735-3812.02Zm-78.1-7.309a7.345,7.345,0,0,0,10.392,0,7.354,7.354,0,0,0,0-10.39l-17.677-17.674a7.344,7.344,0,0,0-10.384,0,7.34,7.34,0,0,0,0,10.39Zm50.081,29.3a7.35,7.35,0,0,0-10.394,0,7.348,7.348,0,0,0,0,10.385l17.682,17.67a7.335,7.335,0,0,0,10.384,0,7.334,7.334,0,0,0,0-10.385Zm-25.042-75.054a7.336,7.336,0,0,0-7.344,7.341v24.995a7.338,7.338,0,0,0,7.344,7.344,7.347,7.347,0,0,0,7.348-7.344v-24.995A7.338,7.338,0,0,0-6757.8-3865.078Zm0,81.119a7.342,7.342,0,0,0-7.339,7.35v24.995a7.344,7.344,0,0,0,7.344,7.346,7.338,7.338,0,0,0,7.343-7.346l0-24.995A7.35,7.35,0,0,0-6757.8-3783.959Z" transform="translate(6818.201 3865.078)" fill="#c7cb2d"/></svg>