<svg xmlns="http://www.w3.org/2000/svg" width="25.28" height="25.28" viewBox="0 0 25.28 25.28"><circle cx="12.64" cy="12.64" r="12.64" transform="translate(0 0)" fill="#feac2d" opacity="0.15"/><path d="M3.58,7.694.144,4.279a.548.548,0,0,1,0-.741L.905,2.8a.459.459,0,0,1,.36-.165.523.523,0,0,1,.381.165l2.3,2.3L8.887.165A.523.523,0,0,1,9.268,0a.459.459,0,0,1,.36.165l.761.741a.5.5,0,0,1,.144.37.5.5,0,0,1-.144.37L4.32,7.694a.5.5,0,0,1-.741,0Z" transform="translate(7.373 8.974)" fill="#feac2d"/></svg>