<svg xmlns="http://www.w3.org/2000/svg" xmlns:xlink="http://www.w3.org/1999/xlink" width="30" height="20.596" viewBox="0 0 30 20.596"><defs><clipPath id="a"><rect width="30" height="20.596" transform="translate(0 0)" fill="none"/></clipPath></defs><g transform="translate(0 0)" clip-path="url(#a)"><path d="M0,15.692s6.693,1.153,9.981-1.9c.058-.289-.115-.346-1.038-.346s-1.327-.808-.289-2.02c.577-.75-.173-.808-.75-.75s-2.826-.75-2.826-2.308c.981-.115,1.961-.461.865-1.153s-2.25-1.674-2.192-3a.9.9,0,0,0,.923-.4S2.6,1.73,3.058,0c9.866,4.673,10.27,5.019,10.27,5.019l1.038.173S15.289.231,21.231.345C22.5.4,25.154.519,27.462,6.173l1.211.4,1.1.288-1.557.866L30,8.769l-2.826.462s-3.232,11.422-16.04,11.364A18.581,18.581,0,0,1,0,15.692" fill="#3a393a"/></g></svg>