<svg xmlns="http://www.w3.org/2000/svg" width="886.523" height="704.313" viewBox="0 0 886.523 704.313"><g transform="translate(-200.666 -7204)"><g transform="translate(134.845 7133.391)"><path d="M892.887,464.548c-5.85-9.15-11.56-18.382-15.836-28.344-11.638-27.106-11.879-57.626-10.344-87.085s4.635-59.279-.939-88.247-21.553-57.724-48.258-70.257c-32.893-15.437-65.5-7.088-99.995-10.078-48.212-4.178-86.853-39.457-126.562-67.117-24.329-16.947-54.371-32.065-82.587-22.951-29.369,9.486-45.278,41.519-71.914,57.109-55.536,32.5-128.817-2.272-188.644,1.273-23.505,1.393-49.2,9.227-60.836,29.7-21.468,37.751,5.863,78.665-25.1,114.883-26.1,30.529-68.913,46.782-68.406,92.454a62.173,62.173,0,0,0,2.346,16.777c2.157,7.368,5.913,14.146,9.4,20.985,11.6,22.729,20.662,47.847,18.353,73.26-2.073,22.814-13.054,43.681-21.992,64.774s-16.054,44.564-10.02,66.664c7.973,29.2,36.224,47.61,63.163,61.407,19.709,10.094,42.993,16.581,61.683,28.117,16.491,10.18,30.857,21.033,49.4,28.394,39.06,15.505,81.24,21.514,122.887,24.959a1151.1,1151.1,0,0,0,160.878,2.019c68.337-3.93,137.375-14.99,201.122-40.728,44.957-18.152,94.138-24.239,132.1-57.292,39.555-34.441,57.167-92.133,43.595-142.793-5.423-20.24-15.291-39.024-26.413-56.783C897.639,471.931,895.251,468.246,892.887,464.548Z" transform="translate(-0.292 -0.213)" fill="#f5f5fe"/><g transform="translate(110.523 414.79)"><g transform="translate(0 57.956)"><rect width="46.687" height="173.899" transform="translate(42.034 25.5)" fill="#dbcdfe"/><rect width="114.338" height="84.647" transform="translate(203.059 199.399) rotate(180)" fill="#dbcdfe"/><rect width="70.452" height="84.647" transform="translate(70.452 199.399) rotate(180)" fill="#dbcdfe"/><rect width="37.914" height="8.5" transform="translate(50.807 17)" fill="#dbcdfe"/><rect width="31.02" height="8.5" transform="translate(57.701 8.5)" fill="#dbcdfe"/><rect width="24.44" height="8.5" transform="translate(64.281)" fill="#dbcdfe"/></g><g transform="translate(98.628)"><rect width="46.687" height="173.899" transform="translate(127.712 83.456)" fill="#dbcdfe"/><rect width="46.687" height="230.2" transform="translate(0 27.155)" fill="#dbcdfe"/><rect width="108.885" height="99.432" transform="translate(158.889 157.923)" fill="#dbcdfe"/><rect width="93.796" height="257.355" transform="translate(80.962)" fill="#dbcdfe"/><rect width="37.914" height="8.5" transform="translate(136.485 74.956)" fill="#dbcdfe"/><rect width="31.02" height="8.5" transform="translate(143.379 66.456)" fill="#dbcdfe"/><rect width="24.44" height="8.5" transform="translate(149.959 57.956)" fill="#dbcdfe"/></g><g transform="translate(190.361 143.791)"><rect width="9.214" height="7.254" fill="#dbcdfe"/><rect width="9.214" height="7.254" transform="translate(0 25.992)" fill="#dbcdfe"/><rect width="9.214" height="7.254" transform="translate(0 51.984)" fill="#dbcdfe"/><rect width="9.214" height="7.254" transform="translate(0 77.976)" fill="#dbcdfe"/></g><g transform="translate(212.317 143.791)"><rect width="9.214" height="7.254" fill="#dbcdfe"/><rect width="9.214" height="7.254" transform="translate(0 25.992)" fill="#dbcdfe"/><rect width="9.214" height="7.254" transform="translate(0 51.984)" fill="#dbcdfe"/><rect width="9.214" height="7.254" transform="translate(0 77.976)" fill="#dbcdfe"/></g><g transform="translate(398.259 57.956)"><rect width="46.687" height="173.899" transform="translate(50.447 38.998)" fill="#dbcdfe"/><rect width="46.687" height="144.502" transform="translate(50.447 212.896) rotate(180)" fill="#dbcdfe"/><rect width="70.452" height="212.896" transform="translate(167.587 212.896) rotate(180)" fill="#dbcdfe"/><rect width="37.914" height="8.5" transform="translate(59.221 30.498)" fill="#dbcdfe"/><rect width="37.914" height="8.5" transform="translate(37.914 93.186) rotate(180)" fill="#dbcdfe"/><rect width="37.914" height="8.5" transform="translate(37.914 123.645) rotate(180)" fill="#dbcdfe"/><rect width="37.914" height="8.5" transform="translate(37.914 154.104) rotate(180)" fill="#dbcdfe"/><rect width="37.914" height="8.5" transform="translate(37.914 184.563) rotate(180)" fill="#dbcdfe"/><rect width="31.02" height="8.5" transform="translate(66.114 21.998)" fill="#dbcdfe"/><rect width="24.44" height="8.5" transform="translate(72.694 13.498)" fill="#dbcdfe"/><g transform="translate(164.302 13.498)"><rect width="46.687" height="173.899" transform="translate(70.452 25.5)" fill="#dbcdfe"/><rect width="46.687" height="144.502" transform="translate(117.14 54.897)" fill="#dbcdfe"/><rect width="46.687" height="168.617" transform="translate(12.774 30.781)" fill="#dbcdfe"/><rect width="46.687" height="83.945" transform="translate(163.827 115.454)" fill="#dbcdfe"/><rect width="93.796" height="126.971" transform="translate(0 72.428)" fill="#dbcdfe"/><rect width="37.914" height="8.5" transform="translate(79.226 17)" fill="#dbcdfe"/><rect width="37.914" height="8.5" transform="translate(129.673 162.565)" fill="#dbcdfe"/><rect width="31.02" height="8.5" transform="translate(86.119 8.5)" fill="#dbcdfe"/><rect width="24.44" height="8.5" transform="translate(92.699)" fill="#dbcdfe"/></g><rect width="61.379" height="8.5" transform="translate(18.496 84.686)" fill="#dbcdfe"/><rect width="61.379" height="8.5" transform="translate(18.496 115.145)" fill="#dbcdfe"/><rect width="61.379" height="8.5" transform="translate(18.496 145.604)" fill="#dbcdfe"/><rect width="61.378" height="8.5" transform="translate(253.743 145.604)" fill="#dbcdfe"/><rect width="61.378" height="8.5" transform="translate(253.743 176.062)" fill="#dbcdfe"/><g transform="translate(176.932 99.333)"><rect width="9.214" height="7.254" fill="#dbcdfe"/><rect width="9.214" height="7.254" transform="translate(0 25.992)" fill="#dbcdfe"/><rect width="9.214" height="7.254" transform="translate(0 51.984)" fill="#dbcdfe"/><rect width="9.214" height="7.254" transform="translate(0 77.976)" fill="#dbcdfe"/></g><g transform="translate(198.775 99.333)"><rect width="9.214" height="7.254" fill="#dbcdfe"/><rect width="9.214" height="7.254" transform="translate(0 25.992)" fill="#dbcdfe"/><rect width="9.214" height="7.254" transform="translate(0 51.984)" fill="#dbcdfe"/><rect width="9.214" height="7.254" transform="translate(0 77.976)" fill="#dbcdfe"/></g><g transform="translate(220.73 99.333)"><rect width="9.214" height="7.254" fill="#dbcdfe"/><rect width="9.214" height="7.254" transform="translate(0 25.992)" fill="#dbcdfe"/><rect width="9.214" height="7.254" transform="translate(0 51.984)" fill="#dbcdfe"/><rect width="9.214" height="7.254" transform="translate(0 77.976)" fill="#dbcdfe"/></g></g></g><path d="M734.721,453a611.01,611.01,0,0,0,68.541-25.485c20.471-9.04,42.027-20.839,50.593-41.512,8.829-21.306.565-46.978-15.662-63.367-11.173-11.284-27.146-22.082-25.9-37.912.667-8.464,6.383-15.515,10.521-22.927,16.55-29.637-9.088-54.325-37.73-58.337-26.248-3.677-69.07,22.156-91.673,4.21-7.436-5.9-9.872-16.191-9.875-25.687-.009-27.627,2.653-67.562-38.642-58.271-27.714,6.236-48.985,26.669-74.615,37.678-29.178,12.534-61.269,17.192-92.589,20.707-23.285,2.613-60.205,6.7-74.938-16.7-7.095-11.263-.342-30.352,12.958-29.787,12.014.511,18.194,16.5,13.53,27.579s-15.858,17.786-26.582,23.227c-15.053,7.638-31.911,15.742-36.692,33.431-1.167,4.321-1.524,9.057.232,13.174s6.043,7.363,10.487,6.834c6.75-.8,9.891-9.821,7.1-16.018s-9.288-9.815-15.635-12.254c-69.432-26.689-185.507,17.518-189.2,101.187-.4,9.133.493,18.585,4.712,26.7s12.267,14.65,21.4,15.129c3.815.2,8.465-1.432,9.033-5.21.6-3.963-3.662-6.846-7.453-8.149-46.894-16.118-74.815,45.007-37.649,74.212,7.609,5.98,16.152,10.735,23.474,17.064,17.633,15.242,27.821,39.144,22.082,62.309-2.5,10.109-7.823,19.95-6.6,30.292,1.023,8.631,6.689,16.271,13.934,21.072,11.117,7.369,24.788,8.36,37.735,8.679" transform="translate(-1.067 -0.642)" fill="none" stroke="#9b87ff" stroke-miterlimit="10" stroke-width="2" stroke-dasharray="5 5 5"/><path d="M193.265,632.228c4.2,2.069,8.476,3.711,12.861,3.979,17.537,1.072,30.477-19.942,48.039-19.448,13.2.371,28.78,18.946,41.039,11.673,5.752-3.412,10.423-15.922,15.5-21.068,6.01-6.1,12.973-11.143,21.379-13.191,31.925-7.777,60.263,29.92,92.91,26.313,15.978-1.765,29.228-13.282,39.393-25.842,5.8-7.171,11.025-14.906,17.852-21.091s15.711-10.784,24.856-10.018c17.615,1.477,27.623,20.623,42.274,30.589a45.183,45.183,0,0,0,41.32,4.6c8-3.161,14.914-8.56,22.466-12.7,17.768-9.743,41.127-11.74,57.493.231,15.633,11.435,25.162,44.4,46.59,44.889,19.8.451,32.541-27,52.261-25.191,18.257,1.67,26.826,27.293,45,29.726,21.13,2.83,41.138-27.555,59.06-15.919,9.748,6.328,11.625,22.641,22.914,25.308,11.416,2.7,20.278-11.4,31.921-12.815,9.326-1.135,17.9,6.6,21.052,15.518,24.072,68.009-108.28,71.851-144.119,71.115s-68.523-6.1-93.447-14.366c-39.415,25.531-117.461,41.9-206.962,40.061-89.91-1.847-167.52-21.577-205.669-48.9-25.393,7.444-58.707,11.6-95.109,10.854-29.626-.609-59.726-4.039-88.169-12.693C99.6,688.867,64.72,680.125,65.848,657.3c.646-13.063,12.237-23.538,24.805-26.768a43.734,43.734,0,0,1,20.207-.353c13.3,2.929,27.817,11.827,39.217,4.321,4.428-2.916,7.3-7.907,11.961-10.432C172.077,618.624,182.383,626.862,193.265,632.228Z" transform="translate(0 -6.119)" fill="#fceaf4"/><g transform="translate(233.383 247.187)"><path d="M10.941,0H510.495a10.941,10.941,0,0,1,10.941,10.941V52.683a0,0,0,0,1,0,0H0a0,0,0,0,1,0,0V10.941A10.941,10.941,0,0,1,10.941,0Z" transform="translate(521.436 356.543) rotate(180)" fill="#fff"/><rect width="107.013" height="46.098" transform="translate(313.187 402.641) rotate(180)" fill="#6dc9f0"/><path d="M0,0H521.436a0,0,0,0,1,0,0V294.6a10.113,10.113,0,0,1-10.113,10.113H10.113A10.113,10.113,0,0,1,0,294.6V0A0,0,0,0,1,0,0Z" transform="translate(521.436 304.714) rotate(180)" fill="#381f7a"/><path d="M0,0H505.248a0,0,0,0,1,0,0V285.849a10.113,10.113,0,0,1-10.113,10.113H10.113A10.113,10.113,0,0,1,0,285.849V0A0,0,0,0,1,0,0Z" transform="translate(513.342 305.116) rotate(180)" fill="#381f7a"/><rect width="482.328" height="263.977" transform="translate(502.088 285.9) rotate(180)" fill="#b6e4f8"/><rect width="448.242" height="250.213" transform="translate(485.026 285.9) rotate(180)" fill="#fff"/><path d="M487.559,581.222a11.778,11.778,0,1,0,11.778-11.778A11.777,11.777,0,0,0,487.559,581.222Z" transform="translate(-238.619 -253.38)" fill="#b6e4f8"/><path d="M397.9,672.541H598.42a15.43,15.43,0,0,0-15.43-15.431H413.332A15.431,15.431,0,0,0,397.9,672.541Z" transform="translate(-237.506 -254.469)" fill="#fff"/><path d="M448.8,339.081c22.6,3.513,43.163-1.276,64.6-9.041,19.777-7.165,40.188-15.043,60.944-12.75,16.942,1.871,23.746,12.159,36.179,22.427,11.144,9.2,26.837,10.065,39.356,16.593a88.908,88.908,0,0,1,32.35,29.083,39.013,39.013,0,0,1,6.1,12.794c2.276,9.81-2.833,19.073-9.564,25.307-16.64,15.411-38.268,14.373-58.21,20.74-25.727,8.213-45.112,22.432-64.623,41.665-31.621,31.169-84.874,39.361-123.158,18.658a102.958,102.958,0,0,1-33.266-29.111c-9.379-12.581-12.6-28.082-21.081-40.738-17.956-26.806-59.019-24.379-67.386-60.526-5.69-24.587,8.615-48.489,31.168-54.032,17.332-4.258,40.7-4.587,57.867.6,10.346,3.127,19.717,9.164,29.792,13.192A86.782,86.782,0,0,0,448.8,339.081Z" transform="translate(-236.412 -250.244)" fill="#dbcdfe"/><path d="M467.819,309.4c23.082-1.4,44.25-1.855,66.242,7.451,23.135,9.791,41.9,27.073,63.77,39.1,20.608,11.339,45.037,17.331,56.146,40.488,8.56,17.842,4.9,41.112-7.527,56.084-20.9,25.183-48.818,18.608-75.615,13.083a43.155,43.155,0,0,0-29.218,4.421c-6.417,3.5-12.614,8.78-19.8,8.4-7.249-.387-12.957-6.405-18.909-10.882a51.818,51.818,0,0,0-47.373-7.809c-14.678,4.993-26.682,16.412-40.63,23.426-24.307,12.226-56.146,8.79-74.323-12.473-16.741-19.585-18.869-50.333-9.5-74.976s28.5-43.707,49.658-57.451A180.461,180.461,0,0,1,467.819,309.4Z" transform="translate(-236.607 -250.142)" fill="#ffc73c"/><path d="M494.947,313.38a173.508,173.508,0,0,1,17.567,3.493c16.6,4.2,31.66,9.773,44.7,21.761,12.706,11.682,23.794,25.35,37.389,35.912,12.347,9.592,26.382,16.362,39.074,25.416s24.453,21.176,28.755,36.912c5.268,19.268-2.421,41.368-17.25,53.53-24.946,20.458-51.205,8.3-76.545-2.6a42.992,42.992,0,0,0-29.467-1.628c-6.915,2.121-13.928,6.043-20.912,4.2-7.049-1.861-11.6-8.936-16.655-14.547-11.529-12.792-28.705-19.392-45.141-17.345-15.291,1.9-29.082,10.663-44.012,14.7-26.017,7.038-56.674-2.839-70.783-27.431-12.995-22.649-9.679-53.276,3.849-75.559s35.665-37.093,58.857-46.265A177.3,177.3,0,0,1,494.947,313.38Z" transform="translate(-236.706 -250.178)" fill="#9b87ff"/><path d="M636.7,361.216c9.634-2.352,21.035-14.953,15.849-29.621-6.722-19.014-22.946-6.244-26.806,14.185C623.244,358.984,629.475,362.98,636.7,361.216Z" transform="translate(-240.328 -250.311)" fill="#9b87ff"/><path d="M655.9,380.928c7.5,1.246,20.684-4.549,23.646-17.018,3.841-16.165-12.656-11.741-24.221,2.189C647.848,375.1,650.274,379.994,655.9,380.928Z" transform="translate(-240.644 -250.7)" fill="#9b87ff"/><path d="M469.817,472.87c5.073.781,10.334,3.081,12.983,7.811s1.278,12.14-3.568,13.936a12.874,12.874,0,0,1-4.593.528l-37.994-.241c-6.6-.041,4.006-12.707,5.959-14.293C450.186,474.453,460.432,471.426,469.817,472.87Z" transform="translate(-237.96 -252.177)" fill="#9b87ff"/><rect width="482.328" height="13.764" transform="translate(502.088 35.687) rotate(180)" fill="#9b87ff"/><g transform="translate(467.891 25.438)"><path d="M731.57,278.224a3.06,3.06,0,1,0,3.06-3.06A3.059,3.059,0,0,0,731.57,278.224Z" transform="translate(-709.54 -275.164)" fill="#fff"/><path d="M720.416,278.224a3.06,3.06,0,1,0,3.061-3.06A3.06,3.06,0,0,0,720.416,278.224Z" transform="translate(-709.401 -275.164)" fill="#fff"/><path d="M709.263,278.224a3.06,3.06,0,1,0,3.06-3.06A3.06,3.06,0,0,0,709.263,278.224Z" transform="translate(-709.263 -275.164)" fill="#fff"/></g></g><path d="M897.869,118.62c.374-2.267-2.627-6.841-5.9-6.768-1.3.029-2.577.367-3.876.3-3.465-.169-5.261-2.867-6.6-5.1s-3.995-4.781-7.372-4.214c-4.862.816-7.313,7.232-12.84,2.415-3.618-3.153-3.889-7.562-7.986-10.619a13.364,13.364,0,0,0-11.155-2.183c-4.92,1.514-6.75,6.392-11.988,7.241-5.8.94-9.975-3.474-11.827-6.658-2.248-3.863-3.082-8.04-5.008-11.971-1.782-3.638-5.366-8.513-11.787-8.407-5.43.089-7.822,3.526-10.487,6.254C787.579,82.46,780.375,95.2,772.3,93.666c-3.15-.6-4.723-3.1-7.565-4.221-4.57-1.8-10.393.675-13.146,3.788s-3.845,6.873-6.956,9.819a7.185,7.185,0,0,1-3.046,1.827c-4.345,1.189-8.389-2.468-13.042-2.741a10.84,10.84,0,0,0-8.035,3.161c-1.846,1.841-2.852,4.015-4.264,6.032a4.507,4.507,0,0,1-1.55,1.511c-2.041,1.094-4.912.172-7.412-.259-6.177-1.063-13.2,1.773-14.937,6.036Z" transform="translate(-7.779 -0.025)" fill="#f5f5fe"/><path d="M166.38,110.165c-.246-1.486,1.721-4.486,3.868-4.437.854.019,1.69.241,2.542.2,2.271-.112,3.45-1.88,4.325-3.345s2.62-3.135,4.834-2.763c3.188.535,4.794,4.741,8.417,1.584,2.372-2.068,2.551-4.959,5.236-6.962a8.759,8.759,0,0,1,7.313-1.431c3.226.992,4.425,4.19,7.86,4.746,3.805.617,6.54-2.277,7.755-4.365,1.473-2.532,2.022-5.271,3.284-7.848,1.168-2.386,3.518-5.582,7.728-5.513,3.559.058,5.128,2.312,6.876,4.1,2.272,2.326,7,10.681,12.29,9.673,2.065-.393,3.1-2.033,4.96-2.768,3-1.18,6.814.442,8.62,2.485s2.52,4.505,4.56,6.437a4.717,4.717,0,0,0,2,1.2c2.848.779,5.5-1.619,8.551-1.8a7.108,7.108,0,0,1,5.269,2.072,26.271,26.271,0,0,1,2.8,3.954,2.957,2.957,0,0,0,1.016.992c1.338.717,3.221.113,4.86-.17,4.05-.7,8.65,1.162,9.793,3.957Z" transform="translate(-1.248 -0.117)" fill="#f5f5fe"/><g transform="translate(265.007 144.198)"><path d="M344.212,293.529c-.524-1.471-3.064-9.086-2.684-9.234l-5.839,2.274a20.368,20.368,0,0,0,1.553,4.774c.667,1.508,1.437,2.937,2.045,4.489a51.128,51.128,0,0,1,4.986-2.129C344.259,293.661,344.238,293.6,344.212,293.529Z" transform="translate(-268.358 -146.851)" fill="#f4a49b"/><path d="M334.962,251.831a90.556,90.556,0,0,0-4.482-12.187,4.951,4.951,0,0,0-1.393-2.019,5.1,5.1,0,0,0-1.842-.725l-15.532-3.878a92.031,92.031,0,0,0-15.506-2.94c-3.276-.239-12.868-1.262-14.082,2.723a5.393,5.393,0,0,0,.729,4.062c2.467,4.5,7.482,6.934,12.324,8.643a86.537,86.537,0,0,0,25.3,4.854c4.569,12.717,8.01,25.82,11.95,38.778l10.171-2.754s-2.94-15.614-3.32-17.246C337.914,263.286,336.638,257.5,334.962,251.831Z" transform="translate(-267.691 -146.174)" fill="#00a3d5"/><path d="M354.611,300.462c.284.062.339-2.457.342-2.663a4.954,4.954,0,0,0-1.918-4.16,10.371,10.371,0,0,0-3.944-1.569,73.2,73.2,0,0,0-11.674-1.212,1.4,1.4,0,0,0-1.468.705,13.611,13.611,0,0,0-1.283,4.24C334.636,295.961,350.616,299.583,354.611,300.462Z" transform="translate(-268.345 -146.933)"/><path d="M304.8,175.546c-1.077,1.713-1.411,3.087-3.708,2.77a12.545,12.545,0,0,1-5.678-2.435c-3.315-2.432-6.23-6.322-6.8-10.48-.839-6.122,4.453-11.125,10.162-12.038a13.038,13.038,0,0,1,2.028-.163c4.838-.006,11.09,2.186,9.753,8.181A45.17,45.17,0,0,1,304.8,175.546Z" transform="translate(-267.772 -145.223)" fill="#f4a49b"/><path d="M313.19,292.793c.462-1.492,2.99-9.11,3.384-9l-6.038-1.677a20.389,20.389,0,0,0-1.616,4.752c-.37,1.607-.609,3.213-1.052,4.82a51.109,51.109,0,0,1,5.269,1.282C313.149,292.927,313.167,292.868,313.19,292.793Z" transform="translate(-268.012 -146.824)" fill="#f4a49b"/><path d="M316.558,252.117a62.915,62.915,0,0,0-2.9,8.982c-2.193,8.169-6.562,24.512-6.562,24.512l9.119,2.723c2.274-6.316,4.941-12.48,7.62-18.631.938-2.152,1.852-4.317,2.773-6.479,1.647-3.865,3.317-7.721,5.187-11.481,2.357-4.741,3.758-8.759,3.4-14.169-.225-3.4-1.476-5.928-4.934-6.6a89.276,89.276,0,0,0-11.217-1.438c-2.481-.165-4.968-.229-7.452-.294l-17.644-.46-9.027-.235c-1.942-.05-4.522-.738-6.4-.369-.85,3.184-1.432,7.089-.4,10.295,2.806,8.7,10.711,12.858,19.535,12.55a42.965,42.965,0,0,0,15.107-3.823,18.084,18.084,0,0,1,5.661-1.765C318.81,247.6,317.4,250.192,316.558,252.117Z" transform="translate(-267.636 -146.153)" fill="#6dc9f0"/><path d="M320.807,305.647c.242.162,1.215-2.163,1.293-2.352a4.954,4.954,0,0,0-.262-4.573,10.374,10.374,0,0,0-3.1-2.905,73.324,73.324,0,0,0-10.421-5.4,1.4,1.4,0,0,0-1.624.12,13.629,13.629,0,0,0-2.746,3.475C303.868,294.145,317.412,303.368,320.807,305.647Z" transform="translate(-267.963 -146.925)"/><path d="M298.567,182.427a.62.62,0,0,1-.122.291.6.6,0,0,1-.354.144,22.428,22.428,0,0,1-8.3-.619q1.108-4.786,2.47-9.509a.471.471,0,0,1,.141-.259.454.454,0,0,1,.347-.032q2.109.379,4.209.8c1.183.24,2.37.375,3.553.644a44.255,44.255,0,0,0-1.034,4.367Q299.046,180.348,298.567,182.427Z" transform="translate(-267.788 -145.462)" fill="#f4a49b"/><path d="M305,228.463c-4.63-.148-26.941.17-26.926.021.752-7.048.2-14.369.309-21.483a52.393,52.393,0,0,1,2.76-17.431c1.808-4.89,4.855-10.134,10.776-10.038a10.252,10.252,0,0,1,3.125.562c5,1.7,7.526,6.743,8.923,11.476,1.813,6.144,1.85,12.63,1.7,18.98-.078,3.362.19,6.722.078,10.084C305.659,223.245,305.27,225.864,305,228.463Z" transform="translate(-267.642 -145.55)" fill="#9b87ff"/><path d="M295.917,169.547a4.61,4.61,0,0,1-1.7,3.5c-4.451,3.6-6.794-9.187-7.1-11.6-.45-3.534.089-7.517,2.791-10.082,4.543-4.314,12.467-3.775,17.639-1.045a11.213,11.213,0,0,1,4.538,3.981,6.052,6.052,0,0,1,.358,5.835c-.4.732-1.192,1.418-1.979,1.152a5.447,5.447,0,0,1-1.023-.685,2.474,2.474,0,0,0-2.6.222c-1.162.782-1.522,2.167-2.7,2.87a6.247,6.247,0,0,1-2.313.876,8.351,8.351,0,0,1-2.1-.281,1.6,1.6,0,0,0-.929-1.914,2.407,2.407,0,0,0-2.247.338C293.932,164.527,295.964,167.091,295.917,169.547Z" transform="translate(-267.753 -145.161)"/><path d="M289.242,205.379c-.437,1.292-.873,2.588-1.4,3.882l-3.359,8.316c-.415,1.027-.944,2.167-1.992,2.525a2.563,2.563,0,0,1-1.912-.191,4.766,4.766,0,0,1-2.367-3.115c-.807-3.014.346-6.107,1.237-8.963a119,119,0,0,1,5.977-15.138,30.009,30.009,0,0,1,1.942-3.808,7.134,7.134,0,0,1,3.15-2.8,4.1,4.1,0,0,1,4.055.439c1.294,1.047,1.084,2.661.6,4.066a97.977,97.977,0,0,1-3.976,9.674A47.6,47.6,0,0,0,289.242,205.379Z" transform="translate(-267.641 -145.628)" fill="#f4a49b"/><path d="M290.064,214.333c6.691.629,13.278,2.325,19.8,4.011a3.77,3.77,0,0,1,1.493.628c1.053.87.932,3.058-.435,3.581a3.365,3.365,0,0,1-1.084.162,73.766,73.766,0,0,1-9.71.042c-3.376-.327-6.749-.685-10.112-1.125q-2.035-.265-4.064-.573c-1.715-.262-3.579-.264-5.116-1.171a1.222,1.222,0,0,1-.416-.347,1.3,1.3,0,0,1-.165-.456,4.276,4.276,0,0,1-.006-2.226c.767-2.329,3.2-2.808,5.347-2.775C287.092,214.107,288.58,214.194,290.064,214.333Z" transform="translate(-267.667 -145.979)" fill="#f4a49b"/><path d="M280.2,163.568a14.318,14.318,0,0,1,5.474-5.466c2.892-1.788,7.239-5.023,5.559-9.036a5.349,5.349,0,0,0-2.837-2.672c-4.537-2.021-11.521-1.681-15.523,1.386-3.146,2.412-4.309,6.387-4.089,10.221a38.412,38.412,0,0,0,1.375,6.725,14.59,14.59,0,0,1,.371,6.8c-.375,1.555-1.429,3.163-3.02,3.333a7.252,7.252,0,0,0,5.265-.412,10.92,10.92,0,0,0,4.515-4.825C278.355,167.65,279.114,165.525,280.2,163.568Z" transform="translate(-267.511 -145.123)"/><rect width="27.913" height="3.293" transform="translate(42.426 79.797) rotate(5.507)" fill="#381f7a"/><rect width="27.913" height="3.293" transform="matrix(-0.387, 0.922, -0.922, -0.387, 80.839, 59.996)" fill="#381f7a"/><path d="M321.3,219.039a8.014,8.014,0,0,0-1.444-.418l-3.512-.734a5.229,5.229,0,0,0-5.113.7l-2.519,1.609a2.6,2.6,0,0,0,.913,2.206,7.677,7.677,0,0,0,2.135,1.249,11.252,11.252,0,0,0,1.647.635c2.667.717,5.429-.606,7.794-2.032q.284,1.375.568,2.751c.124.607.773,1.991,1.584,1.127a1.519,1.519,0,0,0,.2-1.261l-.385-2.857a5.706,5.706,0,0,0-.429-1.749A2.652,2.652,0,0,0,321.3,219.039Z" transform="translate(-268.022 -146.023)" fill="#f4a49b"/></g><g transform="translate(573.889 70.609)"><path d="M616.491,246.194c.045-1.561.44-9.579.848-9.579l-6.265,0a20.366,20.366,0,0,0-.285,5.012c.074,1.647.274,3.258.279,4.925a51.1,51.1,0,0,1,5.419-.176C616.487,246.334,616.488,246.272,616.491,246.194Z" transform="translate(-580.655 -72.67)" fill="#f4a49b"/><path d="M630.243,249.89c.29,0-.229-2.47-.273-2.67a4.956,4.956,0,0,0-2.814-3.615,10.385,10.385,0,0,0-4.2-.632,73.344,73.344,0,0,0-11.645,1.475,1.4,1.4,0,0,0-1.269,1.021,13.637,13.637,0,0,0-.284,4.42C609.767,250.049,626.152,249.943,630.243,249.89Z" transform="translate(-580.642 -72.749)"/><path d="M620.216,211.609q.13-1.258.269-2.514c.218-1.988.452-3.975.588-5.97.178-2.641.183-5.29.189-7.937.011-5.955.023-11.912-.173-17.865-.176-5.327-.025-11.231-1.351-16.4-.59-2.3-2.25-5.429-4.675-6.241a7.194,7.194,0,0,0-2.418-.231l-6.88.127a5.988,5.988,0,0,0-3.935,1.011c-2.4,2.107.25,8.839.813,11.425.8,3.7.457,7.716,1.413,11.282,1.034,3.861,2.842,7.421,3.6,11.389,1.674,8.775,1.357,17.749,1.171,26.631-.039,1.894.624,23.124.624,23.124l8.9-.43s.09-2.767.121-3.763c.054-1.774.168-3.549.27-5.321Q619.27,220.751,620.216,211.609Z" transform="translate(-580.532 -71.65)" fill="#8070f2"/><path d="M592.035,245.231c.044-1.547.436-9.485.839-9.485h-6.2a20.171,20.171,0,0,0-.282,4.964c.073,1.632.272,3.226.276,4.878a50.648,50.648,0,0,1,5.367-.175C592.031,245.37,592.032,245.309,592.035,245.231Z" transform="translate(-580.352 -72.659)" fill="#f4a49b"/><path d="M597.034,212.8c.38-4.971.807-9.938,1.582-14.86a160.744,160.744,0,0,1,4.622-19.276,49.225,49.225,0,0,0,1.649-6.858,47.647,47.647,0,0,0,.343-4.763l.246-6.375a23.672,23.672,0,0,0-.569-7.817c-1.366-4.491-4.742-6.035-9.182-5.553-7.775.844-7.748,9.687-8.429,15.528a182.723,182.723,0,0,0-1.186,20.192q-.027,5.06.186,10.118c.168,4.115-.744,7.77-1.322,11.834a62.318,62.318,0,0,0-.386,9.34c.074,8.376.24,25.127.24,25.127l9.423.179c.4-5.366,1.4-10.679,1.914-16.038C596.507,219.992,596.759,216.4,597.034,212.8Z" transform="translate(-580.33 -71.56)" fill="#9b87ff"/><path d="M605.727,249.89c.291,0-.229-2.47-.274-2.67a4.951,4.951,0,0,0-2.814-3.615,10.385,10.385,0,0,0-4.2-.632,73.358,73.358,0,0,0-11.645,1.475,1.4,1.4,0,0,0-1.268,1.021,13.637,13.637,0,0,0-.285,4.42C585.252,250.049,601.637,249.943,605.727,249.89Z" transform="translate(-580.338 -72.749)"/><path d="M605.249,109.386a.628.628,0,0,1-.123.29.589.589,0,0,1-.353.145,22.455,22.455,0,0,1-8.3-.619q1.108-4.786,2.471-9.51a.461.461,0,0,1,.14-.258.446.446,0,0,1,.347-.032q2.11.379,4.209.8c1.183.24,2.371.376,3.553.644a44.076,44.076,0,0,0-1.033,4.368Q605.726,107.307,605.249,109.386Z" transform="translate(-580.478 -70.966)" fill="#f4a49b"/><path d="M619.309,158.893q-8.156.52-16.338.651c-1.169.018-15.19.033-15.19-.118,0-5.21.256-10.4.158-15.616-.1-5.621-.4-11.238-.717-16.85a45.977,45.977,0,0,1,.56-12.309,8.8,8.8,0,0,1,3.174-5.435c2.032-1.4,4.737-1.293,7.093-1.394a34,34,0,0,1,9.142.619c5.585,1.289,8.342,6.833,9.731,11.908,1.784,6.518,2.127,13.525,2.276,20.24.049,2.232.062,4.466.073,6.7q.006,1.339.009,2.68Q619.295,154.43,619.309,158.893Z" transform="translate(-580.361 -71.07)" fill="#381f7a"/><path d="M626.53,153.968l-21.331.806,3.285-38.422H633.5Z" transform="translate(-580.586 -71.177)" fill="#6dc9f0"/><path d="M631.5,141.488a18.322,18.322,0,0,1-.145,2.945,2.912,2.912,0,0,1-1.717,2.34,5.69,5.69,0,0,1-1.46.315,3.573,3.573,0,0,1-2.032-.186c-1.728-.877-2.214-2.368-2.021-4.23a3.121,3.121,0,0,1,.624-1.805c1.174-1.311,2.965-1.4,4.581-1.381a.7.7,0,0,0,.143-.026l.332-1.47a4.129,4.129,0,0,1,1.363,1.221,4.547,4.547,0,0,1,.33,1.892C631.5,141.232,631.5,141.36,631.5,141.488Z" transform="translate(-580.82 -71.446)" fill="#f4a49b"/><path d="M592.505,120.282c-.99,3.8-2.161,7.558-3.234,11.334-.1.352-.8,3.8-.911,3.814q.545-.089,1.089-.182a45.513,45.513,0,0,0,4.743-1.018c2.138-.6,4.262-1.269,6.443-1.707a3.592,3.592,0,0,1,1.817-.04,1.88,1.88,0,0,1,1.257,1.72,2.478,2.478,0,0,1-1.027,1.885,7.347,7.347,0,0,1-1.978.993l-11.226,4.271a25.274,25.274,0,0,1-6.334,1.8c-3.617.368-2.891-5.114-2.63-7.33a91.484,91.484,0,0,1,4.465-20.6,12.389,12.389,0,0,1,2.582-4.32c1.116-1.15,3.162-2.116,4.677-1.151,1.981,1.264,1.719,4.19,1.3,6.167C593.232,117.38,592.882,118.834,592.505,120.282Z" transform="translate(-580.276 -71.09)" fill="#f4a49b"/><path d="M610.964,130.8a5.907,5.907,0,0,0,1.244-.389,6.929,6.929,0,0,1,1.631-.647,1.35,1.35,0,0,1,1.487.667,1.882,1.882,0,0,1,.1.6,10.334,10.334,0,0,1-.113,2.817,3.474,3.474,0,0,1-1.529,2.284,4.153,4.153,0,0,1-.9.361,10.993,10.993,0,0,1-3.733.43c-1.271-.072-2.382-.568-3.617-.746a13.26,13.26,0,0,0-3.064.471,22.487,22.487,0,0,0-.629-3.063c-.086-.188-.43-.917-.43-.917a6.882,6.882,0,0,0,1.566-.885,17.2,17.2,0,0,1,2.015-1.919,10.068,10.068,0,0,1,2.4-1.073,11.3,11.3,0,0,0-.077,1.609A5.938,5.938,0,0,0,610.964,130.8Z" transform="translate(-580.539 -71.331)" fill="#f4a49b"/><path d="M612.257,106.806a7.067,7.067,0,0,1-3.517.861,7.821,7.821,0,0,1-5.119-2.429,18.951,18.951,0,0,1-4.164-7.835c-1-3.356-1.082-7.274,1.038-10.22a11.5,11.5,0,0,1,7.092-4.287,14.624,14.624,0,0,1,7.517.4c.206.069.41.142.612.221a9.2,9.2,0,0,1,4.639,3.717c1.252,2.181.706,5.138.13,7.453a22.5,22.5,0,0,1-3.326,7.061A13.953,13.953,0,0,1,612.257,106.806Z" transform="translate(-580.506 -70.758)" fill="#f4a49b"/><path d="M603.866,78.03a17.605,17.605,0,0,1,2.708-.782,14.175,14.175,0,0,1,6.87.381,16.041,16.041,0,0,1,8.584,5.645,9.447,9.447,0,0,1,1.115,7.692,2.5,2.5,0,0,1-1.087,1.62c-.32.209-1.344.553-1.443.959a5.44,5.44,0,0,0-.372-3.585,28.233,28.233,0,0,0-1.7-2.626,3.727,3.727,0,0,1-.622-2.357A5.208,5.208,0,0,1,614.77,88.4c-1.291.39-2.681.135-4.006.274a13.114,13.114,0,0,0-7.109,3.28.784.784,0,0,1-.46.222.566.566,0,0,1-.484-.408,3.24,3.24,0,0,1-.1-.665,1.454,1.454,0,0,0-.535-1c-1.169-.842-1.818.794-1.972,1.643a7.56,7.56,0,0,0,.123,3.867,13.676,13.676,0,0,1,.628,2.2c.065.426.241,1.55-.081,1.881-.271.278-.74.142-1.079-.047a6.968,6.968,0,0,1-2.976-3.763,14.735,14.735,0,0,1,1.229-11.9C599.279,81.532,601.18,79.076,603.866,78.03Z" transform="translate(-580.471 -70.688)" fill="#cb7c29"/><path d="M597.307,82.9c4.275,2.815,12.618-1.342,12-6.634-.484-4.148-5.99-6.38-9.6-5.445a6.852,6.852,0,0,0-3.048,11.563A4.843,4.843,0,0,0,597.307,82.9Z" transform="translate(-580.454 -70.609)" fill="#cb7c29"/></g><g transform="translate(752.313 474.116)"><g transform="translate(48.06 0.006)"><g transform="translate(49.114 0.01)"><rect width="3.95" height="195.637" transform="matrix(0.969, -0.246, 0.246, 0.969, 0, 0.97)" fill="#8070f2"/></g><rect width="3.951" height="195.898" transform="translate(0 0.991) rotate(-14.52)" fill="#8070f2"/><g transform="translate(9.176 26.568)"><rect width="48.961" height="3.95" fill="#8070f2"/></g><g transform="translate(15.906 52.553)"><rect width="48.816" height="3.95" fill="#8070f2"/></g><g transform="translate(22.636 78.537)"><rect width="48.672" height="3.95" fill="#8070f2"/></g><g transform="translate(29.366 104.522)"><rect width="48.527" height="3.95" fill="#8070f2"/></g><g transform="translate(36.097 130.507)"><rect width="48.382" height="3.95" fill="#8070f2"/></g><g transform="translate(42.827 156.492)"><rect width="48.238" height="3.95" fill="#8070f2"/></g></g><g transform="translate(0 0.015)"><rect width="195.637" height="3.95" transform="matrix(0.246, -0.969, 0.969, 0.246, 0, 189.643)" fill="#9b87ff"/></g><g transform="translate(48.085)"><rect width="195.898" height="3.951" transform="translate(0 189.654) rotate(-75.495)" fill="#9b87ff"/></g><g transform="translate(42.864 26.574)"><rect width="48.96" height="3.95" fill="#9b87ff"/></g><g transform="translate(36.278 52.559)"><rect width="48.816" height="3.95" fill="#9b87ff"/></g><g transform="translate(29.693 78.543)"><rect width="48.671" height="3.95" fill="#9b87ff"/></g><g transform="translate(23.108 104.528)"><rect width="48.527" height="3.95" fill="#9b87ff"/></g><g transform="translate(16.522 130.513)"><rect width="48.383" height="3.95" fill="#9b87ff"/></g><g transform="translate(9.937 156.498)"><rect width="48.238" height="3.95" fill="#9b87ff"/></g></g><g transform="translate(643.095 536.694)"><g transform="translate(0 172.536)"><path d="M761.456,722.939a274.557,274.557,0,0,1-111.1,0,274.56,274.56,0,0,1,111.1,0Z" transform="translate(-650.353 -717.26)" fill="#303672" opacity="0.2"/></g><g transform="translate(18.669)"><path d="M683.028,602.215c1.116-2.682,1.928-5.481,3.065-8.156,1.458-3.428,2.8-7.081,5.647-9.661,1.467-1.33,4.584-2.268,6.055-.442a4.807,4.807,0,0,1,.591,3.651,36.746,36.746,0,0,1-1.02,4.789A72.238,72.238,0,0,1,691.5,606.77c-.2.381-.391.784-.589,1.2-1.379,2.927-2.7,7.317-6.233,8.139a3.552,3.552,0,0,1-2.854-.451C677.821,612.793,681.644,605.538,683.028,602.215Z" transform="translate(-669.39 -543.056)" fill="#dd9892"/><path d="M696.985,718.987c-.045-1.562-.44-9.579-.848-9.579H702.4a20.375,20.375,0,0,1,.284,5.012c-.073,1.647-.273,3.259-.278,4.925a51.39,51.39,0,0,0-5.42-.176C696.989,719.127,696.987,719.065,696.985,718.987Z" transform="translate(-669.59 -544.626)" fill="#f4a49b"/><path d="M683.057,722.682c-.29,0,.229-2.469.274-2.669a4.952,4.952,0,0,1,2.814-3.615,10.368,10.368,0,0,1,4.2-.632,73.349,73.349,0,0,1,11.645,1.475,1.4,1.4,0,0,1,1.269,1.021,13.629,13.629,0,0,1,.284,4.419C703.532,722.842,687.147,722.735,683.057,722.682Z" transform="translate(-669.427 -544.705)"/><path d="M695.15,546.83a7.963,7.963,0,0,0-3.742,7.19c.15,2.445.345,5.025,1.729,7.045a12.959,12.959,0,0,0,2.549,2.56,2.02,2.02,0,0,0,1.267.608,1.709,1.709,0,0,0,1.192-.757,12.12,12.12,0,0,0,1.805-4.607,8.085,8.085,0,0,1,2.9-4.624c1.458-1.232,2.917-2.75,3.065-4.762a4.155,4.155,0,0,0-1.362-3.28,5.752,5.752,0,0,0-5.625-1.024A15.607,15.607,0,0,0,695.15,546.83Z" transform="translate(-669.531 -542.583)" fill="#cb7c29"/><path d="M694.384,602.372l-10.825-4.659a95.433,95.433,0,0,1,3.929-9.5c1.14-2.119,2.554-4.47,4.561-5.873a5.866,5.866,0,0,1,5.886-.5,6.622,6.622,0,0,1,3.859,5.037c.467,3.418-1.5,7.035-3.3,9.8C698.139,597.224,694.62,602.474,694.384,602.372Z" transform="translate(-669.434 -543.035)" fill="#00599a"/><path d="M693.086,684.4q-.13-1.258-.269-2.514c-.219-1.988-.452-3.975-.588-5.97-.178-2.642-.184-5.291-.189-7.938-.011-5.955-.023-11.912.173-17.864.176-5.327.025-11.231,1.351-16.4.59-2.3,2.25-5.428,4.675-6.24a7.167,7.167,0,0,1,2.418-.231l6.88.126a5.993,5.993,0,0,1,3.935,1.011c2.4,2.107-.25,8.84-.813,11.425-.8,3.7-.457,7.716-1.413,11.283-1.035,3.861-2.842,7.421-3.6,11.389-1.674,8.775-1.357,17.749-1.171,26.631.039,1.894-.624,23.123-.624,23.123l-8.9-.429s-.091-2.767-.121-3.763c-.054-1.775-.168-3.549-.27-5.321Q694.032,693.544,693.086,684.4Z" transform="translate(-669.539 -543.606)" fill="#e6af3a"/><path d="M721.442,718.024c-.044-1.547-.437-9.486-.84-9.486l6.205,0a20.166,20.166,0,0,1,.282,4.963c-.074,1.631-.272,3.227-.276,4.878a50.355,50.355,0,0,0-5.367-.174C721.446,718.163,721.445,718.1,721.442,718.024Z" transform="translate(-669.894 -544.615)" fill="#f4a49b"/><path d="M716.261,685.592c-.38-4.971-.807-9.938-1.582-14.86a160.746,160.746,0,0,0-4.622-19.276,49.238,49.238,0,0,1-1.649-6.859,47.626,47.626,0,0,1-.343-4.762q-.123-3.188-.246-6.375a23.644,23.644,0,0,1,.569-7.817c1.366-4.491,4.742-6.035,9.182-5.553,7.775.843,7.748,9.686,8.429,15.528a182.708,182.708,0,0,1,1.186,20.192q.027,5.06-.186,10.118c-.168,4.114.744,7.769,1.322,11.834a62.312,62.312,0,0,1,.386,9.34c-.074,8.376-.24,25.127-.24,25.127l-9.423.179c-.4-5.366-1.4-10.68-1.914-16.038C716.788,692.785,716.537,689.187,716.261,685.592Z" transform="translate(-669.734 -543.516)" fill="#febe52"/><path d="M707.573,722.682c-.291,0,.229-2.469.273-2.669a4.951,4.951,0,0,1,2.815-3.615,10.368,10.368,0,0,1,4.2-.632,73.353,73.353,0,0,1,11.644,1.475,1.4,1.4,0,0,1,1.269,1.021,13.631,13.631,0,0,1,.285,4.419C728.048,722.842,711.663,722.735,707.573,722.682Z" transform="translate(-669.731 -544.705)"/><path d="M696.1,631.1c2.089-.07,4.18-.274,6.271-.334q4.471-.129,8.938-.4c1.086-.066,14.1-1.078,14.086-1.236-.292-3.747-.8-7.446-1.1-11.217-.449-5.689-.609-11.394-.871-17.092-.251-5.457-.1-11.343-2.007-16.533-1.478-4.013-4.487-7.319-8.915-8.2-4.323-.864-10.519-.471-14.5,1.511a13.878,13.878,0,0,0-6.868,9.019c-1.057,4.028-.4,8.817-.281,12.947.141,4.975.436,9.944.829,14.906.454,5.29,1.1,10.561,1.6,15.848a.912.912,0,0,0,.259.669.977.977,0,0,0,.579.137C694.781,631.135,695.441,631.127,696.1,631.1Z" transform="translate(-669.521 -542.965)" fill="#00599a"/><path d="M716.991,579.967a4.8,4.8,0,0,1,3.4,1.453,36.627,36.627,0,0,1,3.5,3.422,51.121,51.121,0,0,1,7.9,10.916c1.73,3.351,4.927,6.138,5.474,10.021.4,2.854-1.071,6.064-2.138,8.656a83.46,83.46,0,0,1-4.4,8.77c-1.112,2-2.3,3.969-3.315,6.019-.8,1.63-1.223,3.666-2.847,4.722a2.384,2.384,0,0,1-3.408-.491,2.749,2.749,0,0,1-.366-2.2,15.284,15.284,0,0,1,.928-2.442,96.566,96.566,0,0,0,5.362-17.091,25.446,25.446,0,0,0,.773-3.279,4.485,4.485,0,0,0-1.2-3.141c-.743-1.011-1.415-2.068-2.135-3.094-1.67-2.377-3.6-4.56-5.254-6.951-2.118-3.065-4.487-6.155-5.147-9.937C713.788,583.37,714.662,580.232,716.991,579.967Z" transform="translate(-669.813 -543.019)" fill="#f4a49b"/><path d="M699.305,576.816a3.861,3.861,0,0,0,1.229,2.307,4.462,4.462,0,0,0,2.842.6,10.272,10.272,0,0,0,2.209-.207c3.142-.755,3.041-3.121,2.552-5.743-.385-2.07-.551-4.186-.869-6.269a.48.48,0,0,0-.113-.289.474.474,0,0,0-.359-.081q-2.265.11-4.527.269c-1.274.09-2.539.07-3.816.19a46.585,46.585,0,0,1,.487,4.724A31.134,31.134,0,0,0,699.305,576.816Z" transform="translate(-669.619 -542.859)" fill="#dd9892"/><path d="M691.831,570.437a7.478,7.478,0,0,0,2.478,2.921,8.277,8.277,0,0,0,5.894,1.1c3.005-.478,6.048-2.3,8.432-4.128,2.94-2.256,5.444-5.561,5.454-9.4a12.166,12.166,0,0,0-3.415-8.076,15.473,15.473,0,0,0-6.691-4.321q-.329-.1-.662-.19a9.73,9.73,0,0,0-6.283.3c-2.427,1.091-3.794,3.965-4.738,6.306a23.8,23.8,0,0,0-1.534,8.117C690.661,565.581,690.679,568.121,691.831,570.437Z" transform="translate(-669.523 -542.621)" fill="#f4a49b"/><path d="M686.738,609.362c-1.109-4.224-3.491-8.126-5.339-12.055-1.68-3.572-3.4-7.128-4.9-10.783-.867-2.115-3.1-1.914-3.462.36-.541,3.354.846,6.689,1.717,9.853,1.034,3.755,1.925,7.548,2.814,11.341.606,2.587,3.013,7.84,6.062,8.264C687.167,616.833,687.325,611.6,686.738,609.362Z" transform="translate(-669.302 -543.082)" fill="#dd9892"/><path d="M719.167,563.548a12.113,12.113,0,0,0,1.024-5.193,13.558,13.558,0,0,0-3.027-7.928c-4.651-5.653-12.089-7.434-19.061-7.811a19.763,19.763,0,0,0-3.106,0c-2.175.224-4.49,1.31-4.916,3.637a3.348,3.348,0,0,0,.545,2.5c.954,1.357,2.848,1.721,4.4,1.981,1.883.316,3.747.668,5.621,1a8.55,8.55,0,0,1,4.56,1.924c2.432,2.306,1.7,6.41.679,9.223-.7,1.936-2.06,4.019-4.083,4.721a6.935,6.935,0,0,1-3.031.249,20.212,20.212,0,0,1-4.459-1.006,19.065,19.065,0,0,1-2.14-.9c-.187-.092-1.491-.641-1.447-.76-.481,2.506-.856,4.016-.351,6.489a7.476,7.476,0,0,0,4.138,5.461,6.612,6.612,0,0,0,6.091-.861,14.057,14.057,0,0,0,4.13-4.827,32.484,32.484,0,0,0,2.668-5.923,9.673,9.673,0,0,1,1.31-2.951,2.336,2.336,0,0,1,1.4-.945,1.939,1.939,0,0,1,1.807.815,3.1,3.1,0,0,1,.522,1.978,4.641,4.641,0,0,1-2.245,3.691,9.018,9.018,0,0,1-1.69.719,2.184,2.184,0,0,0-.678.324,2.235,2.235,0,0,0-.6,1.093,31.633,31.633,0,0,1-1.171,3.005,19.761,19.761,0,0,1,2.091.08,9.7,9.7,0,0,0,2.149-.228c2.835-.668,5.217-3.38,6.787-5.692A21.358,21.358,0,0,0,719.167,563.548Z" transform="translate(-669.514 -542.554)" fill="#cb7c29"/><path d="M671.164,579.931a5.04,5.04,0,0,0-.8.779,3.854,3.854,0,0,0-.616,4.521c.765,1.272,2.425,1.949,2.95,3.34a.521.521,0,0,0,.17.274.481.481,0,0,0,.268.047q1.664-.034,3.327-.112a.65.65,0,0,0,.77-.782c.032-1.622.38-3.23.252-4.856-.114-1.449-1.034-2.657-1.3-4.121-.431-2.371.08-4.89-.692-7.173-.071-.21-.187-.446-.4-.486a.555.555,0,0,0-.323.063,2.2,2.2,0,0,0-1.121,1.541,6.48,6.48,0,0,0-.041,1.964l.317,3.929A5.18,5.18,0,0,0,671.164,579.931Z" transform="translate(-669.256 -542.912)" fill="#dd9892"/><path d="M718.888,634.828a5.818,5.818,0,0,0,5.985,2.608.3.3,0,0,0,.171-.073.313.313,0,0,0,.04-.244c-.223-2.069.783-4.034.891-6.073a1.321,1.321,0,0,0-1.148-1.555c-.546-.153-1.24-.414-1.778-.536-1.277-.293-1.31,1.057-1.722,1.865a5.809,5.809,0,0,1-2.9,2.3.346.346,0,0,0-.181.138.338.338,0,0,0,.012.248A5.784,5.784,0,0,0,718.888,634.828Z" transform="translate(-669.865 -543.627)" fill="#f4a49b"/><path d="M721.507,598.929l9.665-6.744a95.389,95.389,0,0,0-5.762-8.516c-1.544-1.846-3.4-3.863-5.649-4.835a5.868,5.868,0,0,0-5.866.7,6.624,6.624,0,0,0-2.766,5.71c.231,3.443,2.882,6.59,5.2,8.933C716.794,594.642,721.3,599.075,721.507,598.929Z" transform="translate(-669.776 -542.999)" fill="#00599a"/></g></g><g transform="translate(123.927 486.836)"><path d="M128.591,550.832c-2.043,3.184-5.086,7.431-3.483,11.078,1.071,2.436,3.041,4.38,4.8,6.323a41.409,41.409,0,0,0,8.409,7.109c1.209.77,7.444,4.244,7.242.4a2.819,2.819,0,0,0-.691-1.458q-5.6-7.524-11.831-14.545a56.822,56.822,0,0,1,4.053-5.434,56.744,56.744,0,0,1,4.605-5.808,15.8,15.8,0,0,0,3.764-8.252,6.441,6.441,0,0,0-.606-4.28c-2.385-3.84-6.3.682-7.962,2.826a119.5,119.5,0,0,0-7.761,11.185C128.961,550.251,128.78,550.537,128.591,550.832Z" transform="translate(-124.658 -492.596)" fill="#f4a49b"/><path d="M133.267,666.867c.045-1.562.44-9.579.848-9.579H127.85a20.37,20.37,0,0,0-.285,5.012c.074,1.647.274,3.259.278,4.925a51.4,51.4,0,0,1,5.42-.176C133.263,667.007,133.265,666.945,133.267,666.867Z" transform="translate(-124.693 -494.121)" fill="#f4a49b"/><path d="M148.36,634.069c1.561-3.227,3.063-6.482,4.369-9.82.022-.057.044-.115.066-.171,4.615-11.912,7.5-24.4,10.128-36.871.754-3.573,1.451-6.327.289-9.872a11.941,11.941,0,0,0-4.852-6.559,17.7,17.7,0,0,0-12.753-2.523c-7.748,1.534-6.941,10.427-7.112,16.363a184.393,184.393,0,0,0,.588,20.417q.418,5.093,1.077,10.161a9.7,9.7,0,0,1-.047,4.168,15.737,15.737,0,0,1-1.813,3.82,93.415,93.415,0,0,0-7.932,16.979c-2.044,5.712-4.127,11.828-4.921,17.861-.033.245-.279,2.948-.233,2.948l9.838-.108a.844.844,0,0,0,.459-.092.862.862,0,0,0,.277-.393c2.765-6.184,5.708-12.287,8.674-18.377C145.751,639.355,147.075,636.721,148.36,634.069Z" transform="translate(-124.665 -493.012)" fill="#4ab4d8"/><path d="M147.019,670.562c.29,0-.229-2.469-.274-2.669a4.952,4.952,0,0,0-2.814-3.615,10.367,10.367,0,0,0-4.2-.632,73.343,73.343,0,0,0-11.645,1.475,1.4,1.4,0,0,0-1.269,1.021,13.63,13.63,0,0,0-.284,4.419C126.543,670.722,142.929,670.615,147.019,670.562Z" transform="translate(-124.68 -494.2)"/><path d="M165.156,666.867c.045-1.562.44-9.579.848-9.579h-6.265a20.37,20.37,0,0,0-.285,5.012c.074,1.647.274,3.259.279,4.925a51.389,51.389,0,0,1,5.419-.176C165.152,667.007,165.153,666.945,165.156,666.867Z" transform="translate(-125.089 -494.121)" fill="#f4a49b"/><path d="M172.683,632.6c1.587-6.406,4.2-13.061,3.924-19.707-.233-5.585-2.3-10.589-4.154-15.772-1.8-5.022-3.631-10.043-5.657-15-2.255-5.522-4.455-11.852-10.835-13.561a17.7,17.7,0,0,0-12.923,1.409c-5.542,3.024-4.753,9.9-2.73,14.894A51.977,51.977,0,0,0,151.771,601.5c3.646,3.7,10.15,7.107,11.014,12.685.5,3.219-.974,7.151-1.588,10.315-1.316,6.776-2.714,13.645-2.888,20.567-.034,1.341-1.089,14.936-.326,14.956l8.424.227c1.394-.043,5.483-24.31,6.114-26.978Q172.6,632.935,172.683,632.6Z" transform="translate(-124.833 -493.011)" fill="#6dc9f0"/><path d="M138.728,553.433c.072.059,4.334-5.558,4.71-6.077a14.619,14.619,0,0,0,2.921-6.2,11.092,11.092,0,0,0,0-4.009A4.868,4.868,0,0,0,138.307,534a13.685,13.685,0,0,0-3.273,3.753q-1.6,2.437-2.972,5.015a36.923,36.923,0,0,0-2.387,4.882C133.087,548.806,135.948,551.143,138.728,553.433Z" transform="translate(-124.72 -492.575)" fill="#8b018d"/><path d="M178.908,670.562c.29,0-.229-2.469-.274-2.669a4.952,4.952,0,0,0-2.814-3.615,10.369,10.369,0,0,0-4.2-.632,73.343,73.343,0,0,0-11.645,1.475,1.4,1.4,0,0,0-1.269,1.021,13.63,13.63,0,0,0-.284,4.419C158.432,670.722,174.817,670.615,178.908,670.562Z" transform="translate(-125.076 -494.2)"/><path d="M156.8,519.259c.11,2.022.632,3.335-1.426,4.406a12.55,12.55,0,0,1-6.04,1.294c-4.112-.068-8.738-1.556-11.608-4.621-4.224-4.51-2.8-11.653,1.334-15.7a13.141,13.141,0,0,1,1.561-1.306c3.944-2.8,10.312-4.628,12.688,1.038A45.176,45.176,0,0,1,156.8,519.259Z" transform="translate(-124.788 -492.176)" fill="#f4a49b"/><path d="M153.4,529.547a.624.624,0,0,1-.054.311.6.6,0,0,1-.312.22,22.457,22.457,0,0,1-8.228,1.251q.01-4.914.282-9.823a.463.463,0,0,1,.08-.282.45.45,0,0,1,.331-.109q2.141-.1,4.282-.156c1.207-.031,2.395-.164,3.607-.167a44.466,44.466,0,0,0-.031,4.489Q153.4,527.413,153.4,529.547Z" transform="translate(-124.908 -492.426)" fill="#f4a49b"/><path d="M166.338,579.793q-7.333.52-14.686.65c-1.051.019-13.654.034-13.654-.117,0-3.551.2-7.075.2-10.65,0-6.073-.359-12.135-.526-18.2-.151-5.472-.809-11.654,1.856-16.675,2.608-4.917,9.373-7.529,14.667-6.212,5.176,1.288,8.242,6.311,9.523,11.177,2.569,9.762,2.565,21.086,2.593,31.106Q166.326,575.33,166.338,579.793Z" transform="translate(-124.817 -492.519)" fill="#8b018d"/><path d="M174.249,517.955q1.865,2.529,3.7,5.076a2.9,2.9,0,0,0,.936.948c.827.43,2.549-.846,3.327-1.2a.88.88,0,0,0,.356-.243c.315-.426-.628-1.965-.82-2.394-.409-.911-.85-1.809-1.286-2.709a35.564,35.564,0,0,1-2.237-5.387c-.257-.871-.495-1.739-1.515-1.813a6.5,6.5,0,0,0-4.856,2.223c-1.11,1.531.674,3.179,1.529,4.336Q173.817,517.371,174.249,517.955Z" transform="translate(-125.239 -492.295)" fill="#e6af3a"/><path d="M179.777,538.542a45.383,45.383,0,0,0-.578-4.817c-.4-2.185-.873-4.361-1.108-6.572a3.588,3.588,0,0,1,.126-1.812,1.878,1.878,0,0,1,1.829-1.094,2.479,2.479,0,0,1,1.783,1.2,7.372,7.372,0,0,1,.807,2.062l3.221,11.571a25.238,25.238,0,0,1,1.207,6.472c.035,3.635-5.358,2.409-7.54,1.947a91.517,91.517,0,0,1-20.1-6.338,5.837,5.837,0,0,1-2.484-1.693,5.223,5.223,0,0,1-.64-3.818,3.074,3.074,0,0,1,.694-1.5,2.723,2.723,0,0,1,2.5-.512,72.821,72.821,0,0,1,14.09,3.774c2.061.74,4.16,1.7,6.278,2.238Q179.82,539.092,179.777,538.542Z" transform="translate(-125.049 -492.469)" fill="#f4a49b"/><path d="M134.356,501.993a13.682,13.682,0,0,1,6.914-3.825c2.967-.571,5.749.8,8.663.353a3.778,3.778,0,0,0,2.909-1.953c.122-.264.229-.574.494-.7a.739.739,0,0,1,.4-.043c3.1.411,2.807,5.885.907,7.4a12.2,12.2,0,0,1-5.816,2.253,2.8,2.8,0,0,0-1.284.355,1.742,1.742,0,0,0-.616,1.615,6.039,6.039,0,0,0,.564,1.716,19.461,19.461,0,0,1,1.523,5.8,2.134,2.134,0,0,1-.09,1.057.8.8,0,0,1-.849.5,3.819,3.819,0,0,0-4.2-2.99c-2.766.44-1.651,3.5-.146,4.781.384.325.821.589,1.174.947,1.127,1.14,1.155,4.068,1.478,5.581-.071-.331-6.633-1.217-7.373-1.466-4.982-1.678-7.705-5.89-8.584-10.927C129.773,508.685,131.54,504.805,134.356,501.993Z" transform="translate(-124.728 -492.116)"/><path d="M178.159,512.164a16.041,16.041,0,0,1,10.669.007c.867.341,2,.723,2.606.017a1.969,1.969,0,0,0,.363-.875,17.2,17.2,0,0,0-6.165-17.008c-1.225-.938-2.991-1.7-4.229-.778a4.023,4.023,0,0,0-1.046,1.421A53.9,53.9,0,0,1,176.15,502a27.337,27.337,0,0,1-6.033,5.911c-1.756,1.255-5.156,2.321-5.638,4.756a2.975,2.975,0,0,0,.486,2.037,4.06,4.06,0,0,0,1.056,1.228c1.9,1.4,4.227-.506,5.993-1.172C174.091,513.974,176.027,512.849,178.159,512.164Z" transform="translate(-125.152 -492.082)" fill="#febe52"/><path d="M181.955,500.131l.043.131a28.441,28.441,0,0,0,3.662,7.307c1.274,1.824,3.29,4.795,5.726,4.946,1.645.1,2.131-1.552,2.189-2.92a21.911,21.911,0,0,0-5.329-15.223c-1.462-1.616-3.572-2.876-5.765-2.033C179.7,493.407,181.271,498.076,181.955,500.131Z" transform="translate(-125.356 -492.069)" fill="#e6af3a"/><path d="M180.415,515.671c.039.014.077.031.115.048a2.435,2.435,0,0,1,.874.892q.837,1.235,1.585,2.528a3.644,3.644,0,0,1,.5,1.178c.265,1.548-1.829,3.495-1.069,5.689.035.1-2.522-.2-3.511.148a2.2,2.2,0,0,1-.6.05,2.229,2.229,0,0,1-.349-.46,41.808,41.808,0,0,0-2.142-4.473,2.5,2.5,0,0,1-.389-1.885c.221-.766.951-1.118,1.471-1.65a14.709,14.709,0,0,1,1.684-1.633A2.045,2.045,0,0,1,180.415,515.671Z" transform="translate(-125.287 -492.361)" fill="#f4a49b"/><path d="M171.559,535.563l-3.12,10.693a89.95,89.95,0,0,1-9.366-2.587,15.7,15.7,0,0,1-6.036-3.6,5.545,5.545,0,0,1-1.147-5.464,6.258,6.258,0,0,1,4.277-4.2c3.25-.859,6.53,1.3,9.348,2.609C165.955,533.216,171.583,535.48,171.559,535.563Z" transform="translate(-124.992 -492.543)" fill="#8b018d"/></g><g transform="translate(770.935 325.906)"><path d="M875.417,467.518c-1.491-.466-9.2-2.7-9.333-2.318q1.021-2.961,2.042-5.924a20.374,20.374,0,0,1,4.831,1.364c1.534.606,2.991,1.319,4.566,1.867a51.318,51.318,0,0,0-1.931,5.067C875.55,467.561,875.492,467.541,875.417,467.518Z" transform="translate(-780.872 -330.732)" fill="#f4a49b"/><path d="M833.335,459.951c-3.546-.935-6.974-2.552-8.974-5.824-2.522-4.12-4.108-8.908-6.3-13.219-2.5-4.918-5.165-9.753-7.245-14.872a83.919,83.919,0,0,1-3.4-9.993c-.826-3.1-.293-4.7,1.976-7.071a17.689,17.689,0,0,1,11.776-5.506c6.409-.3,7.807,5.525,10.087,10.139a42.679,42.679,0,0,1,3.866,15.778c.429,5.626,1.485,11.24,2.292,16.826.249,1.727,1.487,2,2.922,2.133,2.2.2,30.2,7.52,30.2,7.52l-2.35,10.272s-15.718-2.321-17.364-2.636q-7.86-1.508-15.7-3.129C834.529,460.246,833.93,460.108,833.335,459.951Z" transform="translate(-780.139 -330.038)" fill="#381f7a"/><path d="M832.251,389.655a56.474,56.474,0,0,0-4-6.245,15.8,15.8,0,0,1-2.865-8.6,6.442,6.442,0,0,1,1.059-4.192c2.779-3.564,6.187,1.349,7.616,3.658,1.858,3,3.6,6.078,5.179,9.237s2.723,6.47,4.121,9.7c1.474,3.408,3.671,5.9,5.808,8.833a66.3,66.3,0,0,1,6.124,10.58c1.331,2.8,2.6,5.755,4.076,8.471a9.923,9.923,0,0,1-1.926,1.28,12.2,12.2,0,0,1-2.9.785c.082-2.036-2.159-4.171-2.239-4.269-3.915-4.824-6.964-7.933-10.406-13.1-2.5-3.749-4.78-7.632-7.044-11.524C833.976,392.744,833.127,391.192,832.251,389.655Z" transform="translate(-780.366 -329.615)" fill="#f4a49b"/><path d="M813.767,351.965c-.449,1.974-1.185,3.181.665,4.581a12.543,12.543,0,0,0,5.736,2.291c4.066.624,8.875-.066,12.219-2.6,4.922-3.736,4.717-11.017,1.323-15.7a12.917,12.917,0,0,0-1.319-1.549c-3.418-3.426-9.388-6.3-12.682-1.11A45.152,45.152,0,0,0,813.767,351.965Z" transform="translate(-780.216 -329.189)" fill="#f4a49b"/><path d="M879.319,479.918c0,.29-2.472-.2-2.672-.245A4.952,4.952,0,0,1,873,476.9a10.352,10.352,0,0,1-.677-4.19,73.321,73.321,0,0,1,1.351-11.659,1.4,1.4,0,0,1,1.007-1.28,13.636,13.636,0,0,1,4.416-.332C879.261,459.443,879.329,475.828,879.319,479.918Z" transform="translate(-780.949 -330.733)"/><path d="M825.416,502.667c-.045-1.561-.441-9.579-.849-9.579l6.266,0a20.369,20.369,0,0,1,.284,5.012c-.074,1.647-.274,3.258-.278,4.925a51.1,51.1,0,0,0-5.419-.176C825.419,502.807,825.418,502.745,825.416,502.667Z" transform="translate(-780.356 -331.151)" fill="#f4a49b"/><path d="M819.637,470.02c-.552-4.165-1.129-8.326-1.923-12.449a76.479,76.479,0,0,0-3.44-12.6,166.177,166.177,0,0,1-6.548-20.494c-.808-3.426-1.791-4.873-1.72-8.393.07-3.461.338-6.692,2.946-8.686a17.694,17.694,0,0,1,12.483-3.627c7.852.852,7.824,9.782,8.512,15.68a184.383,184.383,0,0,1,1.2,20.392q.027,5.109-.188,10.217c-.17,4.155.752,7.846,1.335,11.951a62.881,62.881,0,0,1,.39,9.431c-.075,8.458-.242,25.373-.242,25.373l-9.515.181c-.5-6.694-1.418-13.346-2.352-19.991C820.246,474.68,819.945,472.35,819.637,470.02Z" transform="translate(-780.126 -330.041)" fill="#381f7a"/><path d="M811.488,506.363c-.291,0,.229-2.47.273-2.67a4.955,4.955,0,0,1,2.815-3.615,10.385,10.385,0,0,1,4.2-.632,73.339,73.339,0,0,1,11.644,1.475,1.4,1.4,0,0,1,1.269,1.021,13.638,13.638,0,0,1,.285,4.42C831.963,506.522,815.578,506.416,811.488,506.363Z" transform="translate(-780.193 -331.23)"/><path d="M817.587,365.348a.616.616,0,0,0,.054.311.6.6,0,0,0,.312.219,22.428,22.428,0,0,0,8.228,1.251q-.01-4.914-.282-9.822a.465.465,0,0,0-.08-.283.45.45,0,0,0-.331-.108q-2.141-.1-4.282-.157c-1.207-.031-2.395-.163-3.608-.166a44.188,44.188,0,0,1,.032,4.488Q817.585,363.215,817.587,365.348Z" transform="translate(-780.27 -329.457)" fill="#f4a49b"/><path d="M806.006,415.593q6.928.521,13.876.651c.992.019,12.9.033,12.9-.117,0-3.551-.191-7.075-.191-10.649,0-6.073.34-12.136.5-18.205.142-5.472.763-11.653-1.753-16.675a12.69,12.69,0,0,0-13.857-6.212c-4.889,1.288-7.786,6.312-9,11.178-2.427,9.761-2.423,21.085-2.451,31.1Q806.019,411.13,806.006,415.593Z" transform="translate(-780.126 -329.549)" fill="#6dc9f0"/><path d="M838.821,338.7a16.656,16.656,0,0,0-9.144-6.525,11.2,11.2,0,0,0-6.023-.393,6.052,6.052,0,0,0-4.379,3.873c-.238.8-.16,1.846.585,2.213a5.506,5.506,0,0,0,1.209.239,2.472,2.472,0,0,1,1.684,2c.27,1.376-.455,2.608-.121,3.938a6.27,6.27,0,0,0,1.016,2.256c.494.65,1.106.8,1.683,1.284a1.6,1.6,0,0,1,2.011-.7,2.407,2.407,0,0,1,1.35,1.827c.57,3.13-2.679,3.507-4.382,5.277a4.686,4.686,0,0,0-.754,5.456,6.984,6.984,0,0,0,2.009,10.987,6.127,6.127,0,0,0-.676,6.751,9.491,9.491,0,0,0,5.466,4.435,15.07,15.07,0,0,0,10.5-.448,9.816,9.816,0,0,0,4.375-3.159A7.777,7.777,0,0,0,845,369.15a1.29,1.29,0,0,1-.31-.637,1.232,1.232,0,0,1,.12-.515,12.308,12.308,0,0,0-3.777-13.672A19.281,19.281,0,0,0,838.821,338.7Z" transform="translate(-780.289 -329.145)"/><path d="M859.559,430.625q.249.29.514.564c.892.92,2.018,2.025,3.368,2.093a1.691,1.691,0,0,0,1.628-.775,1.767,1.767,0,0,0,.156-.75,6.43,6.43,0,0,0-.761-2.811,27.215,27.215,0,0,0-2.713-4.569c-.758-1.038-1.678-2.709-2.883-3.262a3.807,3.807,0,0,0-1.719-.21,6.839,6.839,0,0,0-1.456.151,1.037,1.037,0,0,0-.388.166.98.98,0,0,0-.309.537,16.959,16.959,0,0,0-.095,5.351A7.784,7.784,0,0,0,855.97,431a.687.687,0,0,0,.394.325c.372.073.592-.4.655-.777a30.281,30.281,0,0,0,.041-4.181,5.656,5.656,0,0,1,.634,1.3A11.545,11.545,0,0,0,859.559,430.625Z" transform="translate(-780.731 -330.255)" fill="#f4a49b"/><path d="M799.166,355q-1.865,2.529-3.7,5.075a2.9,2.9,0,0,1-.937.948c-.826.431-2.548-.846-3.326-1.2a.872.872,0,0,1-.357-.242c-.314-.427.628-1.966.821-2.394.409-.913.85-1.809,1.286-2.709a35.767,35.767,0,0,0,2.237-5.387c.256-.871.494-1.739,1.515-1.813a6.5,6.5,0,0,1,4.856,2.223c1.109,1.531-.674,3.179-1.53,4.335Z" transform="translate(-779.937 -329.341)" fill="#e6af3a"/><path d="M793.388,375.588a45.664,45.664,0,0,1,.579-4.817c.4-2.185.872-4.361,1.107-6.572a3.591,3.591,0,0,0-.126-1.813,1.879,1.879,0,0,0-1.829-1.093,2.478,2.478,0,0,0-1.783,1.2,7.33,7.33,0,0,0-.806,2.062q-1.612,5.785-3.222,11.571a25.27,25.27,0,0,0-1.207,6.472c-.035,3.635,5.359,2.409,7.541,1.946a91.494,91.494,0,0,0,20.1-6.337,5.841,5.841,0,0,0,2.483-1.694,5.22,5.22,0,0,0,.641-3.817,3.075,3.075,0,0,0-.7-1.5,2.725,2.725,0,0,0-2.5-.513,72.8,72.8,0,0,0-14.089,3.776c-2.062.74-4.16,1.7-6.279,2.238C793.334,376.321,793.361,375.955,793.388,375.588Z" transform="translate(-779.879 -329.515)" fill="#f4a49b"/><path d="M795.047,349.21a16.039,16.039,0,0,0-10.668.007c-.868.341-2,.723-2.607.017a1.966,1.966,0,0,1-.362-.876,17.194,17.194,0,0,1,6.165-17.007c1.224-.939,2.99-1.7,4.228-.779a4.038,4.038,0,0,1,1.047,1.422,53.933,53.933,0,0,0,4.206,7.049,27.326,27.326,0,0,0,6.034,5.912c1.756,1.254,5.155,2.32,5.637,4.756a2.975,2.975,0,0,1-.486,2.037,4.04,4.04,0,0,1-1.055,1.227c-1.9,1.4-4.228-.5-5.993-1.171C799.115,351.019,797.179,349.895,795.047,349.21Z" transform="translate(-779.816 -329.128)" fill="#febe52"/><path d="M791.44,337.176l-.043.131a28.409,28.409,0,0,1-3.662,7.307c-1.273,1.825-3.289,4.795-5.726,4.947-1.645.1-2.131-1.552-2.19-2.92a21.906,21.906,0,0,1,5.33-15.223c1.461-1.616,3.571-2.876,5.764-2.033C793.693,330.452,792.124,335.121,791.44,337.176Z" transform="translate(-779.8 -329.115)" fill="#e6af3a"/><path d="M793.037,352.716c-.039.015-.077.031-.116.049a2.426,2.426,0,0,0-.873.892q-.838,1.235-1.585,2.527a3.619,3.619,0,0,0-.5,1.179c-.265,1.549,1.829,3.5,1.068,5.689-.034.1,2.523-.2,3.512.149a.613.613,0,0,0,.952-.411,42.186,42.186,0,0,1,2.142-4.473,2.49,2.49,0,0,0,.389-1.884c-.221-.766-.95-1.118-1.471-1.65a14.539,14.539,0,0,0-1.684-1.633A2.042,2.042,0,0,0,793.037,352.716Z" transform="translate(-779.926 -329.407)" fill="#f4a49b"/></g></g><g transform="translate(-750.724 7425.509)"><g transform="translate(1281.724 41.491)"><path d="M1440.263,251h-142.5a1.539,1.539,0,0,0-.477-.205c-7.551-.409-15.615-7.806-15.564-17.956.183-36.768.076-73.538.071-110.308q0-31.8-.036-63.607a17.3,17.3,0,0,1,17.325-17.431q69.964,0,139.929,0a17.366,17.366,0,0,1,17.01,14.294c.1.561.226,1.118.34,1.677V234.895a4.245,4.245,0,0,0-.231.74,17.443,17.443,0,0,1-14.071,15C1441.461,250.748,1440.863,250.878,1440.263,251ZM1369,115.49h5.9c18.242,0,36.486-.059,54.728.037a9.084,9.084,0,0,0,9.143-9.094c-.221-11.311-.071-22.629-.072-33.944,0-5.661-3.539-9.248-9.176-9.249q-60.5-.009-120.992.009a11.387,11.387,0,0,0-2.786.3c-4.147,1.058-6.477,4.408-6.493,9.445-.034,11.047-.014,22.094-.007,33.141a9.031,9.031,0,0,0,1.236,5.135,8.937,8.937,0,0,0,8.02,4.231Q1338.749,115.465,1369,115.49Zm-52.268,39.145c2.951,0,5.9.008,8.854,0a8.507,8.507,0,0,0,8.456-8.437c.006-1.565.016-3.131,0-4.7a8.465,8.465,0,0,0-8.191-8.446q-8.986-.145-17.975,0a8.487,8.487,0,0,0-8.5,7.719,48.049,48.049,0,0,0-.031,5.758,8.521,8.521,0,0,0,8.533,8.1C1310.826,154.653,1313.777,154.635,1316.728,154.635Zm104.617,0c2.951,0,5.9.021,8.854,0a8.542,8.542,0,0,0,8.5-8.547q0-2.08,0-4.16a8.483,8.483,0,0,0-8.594-8.872c-5.946-.092-11.895-.079-17.841,0a8.457,8.457,0,0,0-8.257,8.1,54.785,54.785,0,0,0,0,5.625,8.519,8.519,0,0,0,8.35,7.855C1415.353,154.647,1418.349,154.635,1421.345,154.635Zm-104.619,34.9c2.951,0,5.9.008,8.854,0a8.505,8.505,0,0,0,8.458-8.435c.006-1.565.016-3.131,0-4.7a8.463,8.463,0,0,0-8.188-8.448q-8.986-.146-17.975,0a8.488,8.488,0,0,0-8.5,7.716,47.918,47.918,0,0,0-.031,5.758,8.522,8.522,0,0,0,8.53,8.1C1310.823,189.548,1313.775,189.531,1316.726,189.531Zm104.5,0c3.041,0,6.082.037,9.122-.009a8.547,8.547,0,0,0,8.347-8.427q.008-2.147,0-4.294a8.486,8.486,0,0,0-8.612-8.855q-8.919-.131-17.841,0a8.451,8.451,0,0,0-8.24,8.121,54.751,54.751,0,0,0,0,5.625,8.518,8.518,0,0,0,8.367,7.838C1415.326,189.541,1418.277,189.531,1421.229,189.53Zm-104.417,34.9c2.951,0,5.9.012,8.854,0a8.522,8.522,0,0,0,8.372-8.385c.007-1.61.021-3.221,0-4.831a8.457,8.457,0,0,0-8.138-8.358q-9.052-.16-18.109,0a8.456,8.456,0,0,0-8.409,7.661,45.95,45.95,0,0,0-.038,5.758,8.516,8.516,0,0,0,8.617,8.154C1310.909,224.439,1313.86,224.426,1316.811,224.426Zm104.382,0c3,0,5.992.02,8.988,0a8.542,8.542,0,0,0,8.517-8.531q0-2.08,0-4.16c-.009-5.038-3.433-8.77-8.443-8.877-6.034-.129-12.074-.107-18.109-.006a8.436,8.436,0,0,0-8.14,8.078,54.687,54.687,0,0,0,0,5.625,8.515,8.515,0,0,0,8.333,7.872C1415.291,224.439,1418.242,224.426,1421.193,224.426Zm-52.316-69.791c3.04,0,6.08.033,9.119-.008a8.538,8.538,0,0,0,8.359-8,50.229,50.229,0,0,0,0-5.221,8.391,8.391,0,0,0-8.423-8.345q-8.914-.187-17.834,0a8.448,8.448,0,0,0-8.393,7.673,46.556,46.556,0,0,0-.036,5.756,8.516,8.516,0,0,0,8.625,8.142C1363.156,154.647,1366.017,154.635,1368.878,154.635Zm.109,34.9c2.995,0,5.99.03,8.984-.007a8.539,8.539,0,0,0,8.384-7.974,50.128,50.128,0,0,0,0-5.221,8.386,8.386,0,0,0-8.4-8.368c-5.942-.131-11.891-.115-17.834-.006a8.459,8.459,0,0,0-8.415,7.651,45.387,45.387,0,0,0-.039,5.755,8.513,8.513,0,0,0,8.734,8.168C1363.265,189.538,1366.126,189.531,1368.987,189.53Zm-.057,34.9c2.995,0,5.99.025,8.985-.006a8.541,8.541,0,0,0,8.443-8.053,46.458,46.458,0,0,0,0-5.087c-.263-4.911-3.625-8.338-8.479-8.431q-8.847-.17-17.7,0c-4.858.086-8.255,3.516-8.511,8.4a46.7,46.7,0,0,0,0,5.087,8.53,8.53,0,0,0,8.545,8.088C1363.119,224.443,1366.025,224.426,1368.93,224.426Z" transform="translate(-1281.724 -41.491)" fill="#381f7a"/></g></g></g></svg>