<svg xmlns="http://www.w3.org/2000/svg" xmlns:xlink="http://www.w3.org/1999/xlink" width="868.23" height="814.08" viewBox="0 0 868.23 814.08">
  <defs>
    <style>
      .cls-1, .cls-12, .cls-2 {
        fill: none;
      }

      .cls-2 {
        stroke: #dff3fd;
        stroke-width: 10px;
      }

      .cls-12, .cls-2 {
        stroke-miterlimit: 10;
      }

      .cls-3 {
        fill: #dff3fd;
      }

      .cls-4 {
        fill: #0b2d4e;
      }

      .cls-5 {
        fill: #73b8d4;
      }

      .cls-6 {
        fill: #061f33;
      }

      .cls-7 {
        fill: #c7cb2d;
      }

      .cls-8 {
        fill: #d8dc40;
      }

      .cls-9 {
        clip-path: url(#clip-path);
      }

      .cls-10 {
        fill: #efb126;
      }

      .cls-11 {
        fill: #57b8e8;
      }

      .cls-12 {
        stroke: #0b2d4e;
        stroke-width: 15px;
      }

      .cls-13 {
        fill: #f8a17a;
      }

      .cls-14 {
        fill: #e5785c;
      }

      .cls-15 {
        fill: #2f95d2;
      }

      .cls-16, .cls-17 {
        fill: #fff;
      }

      .cls-17 {
        isolation: isolate;
        opacity: 0.2;
      }

      .cls-18 {
        fill: #0098d7;
      }

      .cls-19 {
        fill: #e1f4fd;
      }
    </style>
    <clipPath id="clip-path">
      <path class="cls-1" d="M579.26,592.54c6.06-25.67,9.2-51.93-4.53-69.41-6.2-7.9-17.26-13.39-26.3-17.3-17.65-7.62-35.68-17.87-54.57-21.2C474,481.13,451.81,479,432,484c-12.6,3.18-24.4,9.07-35.66,15.43-9.78,5.51-21.78,10.26-26.53,20.52a696,696,0,0,0-30.18,76.86c-7.09,21.8-14.87,44.64-3.7,66.73,3.61,7.16,8.87,13.29,13,20.13,4.61,7.61,6.33,14.77,6.93,23.56,1.38,20,.84,40.16.79,60.24,0,5.78.06,11.8,2.59,17,5,10.25,18.57,10.4,28.35,10.38l96.68-.17c13.41,0,23.66,1.62,36.25,4.21,10.59,2.18,19.69-3.17,24.77-13,4.81-9.33,5.18-20.23,5.69-30.72A663.16,663.16,0,0,1,568.22,634C570.9,622.73,575.6,608,579.26,592.54Z"/>
    </clipPath>
  </defs>
  <g id="Layer_2" data-name="Layer 2">
    <g id="Layer_1-2" data-name="Layer 1">
      <g id="woman_typing">
        <path class="cls-2" d="M300.05,737.69c-26.5-9.5-55.53-6.77-83.68-7.17s-72.06-5-82.66-36.23c-11.22-33.07,5-67.36,5.18-100.77,0-9.15-.93-18.4-4.08-27-14.75-40.2-64.16-49.93-81.47-90-12.93-29.92-6.25-65.65,10.75-93.47,14.76-24.16,36.4-43.16,59.3-59.4,20.84-14.77,36.78-38.67,45-62.95,15.27-45.36,5.9-94.95,23-139.19C206.67,81.89,236,48.33,272.67,30.6c64-30.95,139.55-3.41,185.15,49.52,24.46,28.4,59.61,44.88,95.39,47.81,69.5,5.69,141.89-32.09,206.27,10.56,32.82,21.73,56,60.25,63.24,100.91,4.07,22.9,3.6,48.37-5.24,70-8.7,21.27-23.7,38.63-36.59,57-21.42,30.54-33.14,71.37-13.11,105.77,8.76,15,21.41,27.34,33.41,39.94,30.72,32.28,42.09,79.79,31.52,122.81-12,48.84-50.06,80.9-99.63,87-36.68,4.55-77.28-1.39-110.53,18"/>
        <path class="cls-3" d="M87.26,353.22c-20.26,28.81-35.9,68-25,104.18s45.4,58.31,60.52,92.57c8.54,19.36,8.77,40.66,9.1,61.44.42,27.21-4.9,56.1,13.5,79.1,10.87,13.6,27.29,21.64,43.88,26.92C222.56,728,257.48,733,287.08,753c48.64,32.9,108.38,44.4,166.34,40.85A376.55,376.55,0,0,0,540.13,778c32.71-10,61.79-27.66,94.73-37.13C692,724.41,770,724.19,803.42,666.42c22.5-38.89,30.29-86.95,12.79-129.32C807.89,517,792,501.56,783,481.78c-12.5-27.32-15.87-58.48-7.52-87.51.35-1.2.71-2.39,1.09-3.57,8.72-27.14,26.28-50.48,33.54-78.11,15-57-18.14-117.35-61.69-154-18.1-15.24-38.31-27.92-60.33-35.15-60.74-19.94-128.22,3.14-189.14-16.15C452.18,92.49,413.81,54,366.19,42.91c-36.59-8.54-76.14.58-107.23,22.91s-53.64,57.3-63.92,95.79c-9.53,35.67-9.23,74.85-26.13,107.26-14.46,27.72-41.25,42.68-63,62.79A135.82,135.82,0,0,0,87.26,353.22Z"/>
        <path class="cls-3" d="M810.8,66.18c.54-3.26-3.78-9.85-8.5-9.74-1.88,0-3.71.53-5.58.43-5-.24-7.58-4.12-9.5-7.34s-5.75-6.88-10.62-6.07c-7,1.18-10.53,10.41-18.48,3.48-5.21-4.54-5.6-10.89-11.5-15.29-4-3-10.63-4.81-16.06-3.14-7.09,2.18-9.72,9.2-17.26,10.42-8.36,1.35-14.37-5-17-9.59-3.24-5.56-4.44-11.57-7.21-17.23-2.57-5.24-7.73-12.26-17-12.11-7.82.13-11.26,5.08-15.1,9-5,5.11-15.36,23.45-27,21.24-4.54-.86-6.8-4.46-10.9-6.08-6.57-2.59-15,1-18.92,5.46s-5.54,9.89-10,14.14a10.31,10.31,0,0,1-4.38,2.63c-6.26,1.71-12.08-3.56-18.78-3.95A15.63,15.63,0,0,0,555.43,47c-2.65,2.65-4.1,5.78-6.14,8.69a6.43,6.43,0,0,1-2.23,2.17c-2.94,1.58-7.07.25-10.67-.37-8.89-1.53-19,2.55-21.51,8.69Z"/>
        <path class="cls-3" d="M152.11,204.59c.28-1.68-1.94-5.06-4.36-5-1,0-1.91.28-2.87.23-2.57-.13-3.9-2.12-4.89-3.78s-3-3.54-5.45-3.12c-3.6.6-5.42,5.36-9.5,1.79-2.68-2.33-2.88-5.6-5.91-7.86a9.89,9.89,0,0,0-8.26-1.61c-3.64,1.12-5,4.73-8.87,5.35-4.3.7-7.39-2.57-8.76-4.92-1.66-2.86-2.28-5.95-3.7-8.86-1.32-2.7-4-6.3-8.73-6.23-4,.07-5.79,2.61-7.76,4.63-2.56,2.63-7.9,12.06-13.87,10.92-2.33-.44-3.5-2.3-5.6-3.12-3.39-1.33-7.7.5-9.73,2.8s-2.85,5.09-5.15,7.27a5.41,5.41,0,0,1-2.25,1.35c-3.22.88-6.21-1.83-9.66-2a8,8,0,0,0-5.94,2.34,29.09,29.09,0,0,0-3.16,4.47,3.3,3.3,0,0,1-1.15,1.11c-1.51.81-3.64.13-5.49-.19-4.57-.78-9.76,1.32-11,4.47Z"/>
        <g>
          <g>
            <g>
              <g>
                <rect class="cls-3" x="780.68" y="450.63" width="68.39" height="307.86"/>
                <rect class="cls-3" x="677.47" y="545.11" width="103.21" height="213.38"/>
                <rect class="cls-3" x="780.68" y="435.58" width="55.54" height="15.05"/>
                <rect class="cls-3" x="780.68" y="420.54" width="45.44" height="15.05"/>
                <rect class="cls-3" x="780.68" y="405.49" width="35.8" height="15.05"/>
              </g>
              <g>
                <rect class="cls-3" x="510.68" y="450.63" width="68.39" height="307.86"/>
                <rect class="cls-3" x="697.77" y="350.96" width="68.39" height="407.53"/>
                <rect class="cls-3" x="373.9" y="639.36" width="136.79" height="119.13"/>
                <rect class="cls-3" x="544.88" y="302.89" width="137.4" height="455.61"/>
                <rect class="cls-3" x="510.68" y="435.59" width="55.54" height="15.05"/>
                <rect class="cls-3" x="510.68" y="420.54" width="45.44" height="15.05"/>
                <rect class="cls-3" x="510.68" y="405.49" width="35.8" height="15.05"/>
              </g>
            </g>
            <g>
              <g>
                <rect class="cls-3" x="379.65" y="450.63" width="68.39" height="307.86"/>
                <rect class="cls-3" x="448.04" y="502.67" width="68.39" height="255.82"/>
                <rect class="cls-3" x="276.44" y="381.59" width="103.21" height="376.9"/>
                <rect class="cls-3" x="379.64" y="435.59" width="55.54" height="15.05"/>
                <rect class="cls-3" x="379.64" y="420.54" width="45.44" height="15.05"/>
                <rect class="cls-3" x="379.65" y="405.49" width="35.8" height="15.05"/>
              </g>
              <g>
                <rect class="cls-3" x="109.65" y="450.63" width="68.39" height="307.86"/>
                <rect class="cls-3" x="41.26" y="502.67" width="68.39" height="255.82"/>
                <rect class="cls-3" x="194.14" y="459.98" width="68.39" height="298.51"/>
                <rect class="cls-3" x="143.85" y="533.71" width="137.4" height="224.78"/>
                <rect class="cls-3" x="109.65" y="435.58" width="55.54" height="15.05"/>
                <rect class="cls-3" x="35.75" y="693.28" width="55.54" height="15.05"/>
                <rect class="cls-3" x="109.65" y="420.54" width="45.44" height="15.05"/>
                <rect class="cls-3" x="109.65" y="405.49" width="35.8" height="15.05"/>
              </g>
              <rect class="cls-3" x="404.93" y="531.52" width="89.92" height="15.05"/>
              <rect class="cls-3" x="404.93" y="585.44" width="89.92" height="15.05"/>
              <rect class="cls-3" x="404.93" y="639.36" width="89.92" height="15.05"/>
              <rect class="cls-3" x="60.31" y="639.36" width="89.92" height="15.05"/>
              <rect class="cls-3" x="60.31" y="693.28" width="89.92" height="15.05"/>
            </g>
          </g>
          <path class="cls-4" d="M617.74,624.68c-25.81,9.14-57,8.2-80.44-6.86-23.09-14.81-44.12-25.51-72.53-25-25.39.46-46.38,14.18-71,17.1-19.5,2.32-39.31-6.18-53.44-19.82-13.8-13.3-23-33.6-17-51.8,3.14-9.53,10-17.4,13.92-26.64,9-21.31-14.75-34.17-8.84-56.6,5-19.08,26-32.69,25.66-52.42-.23-14.44-11.41-25.63-15.35-39s-3.09-28.58,3.91-40.89a48.86,48.86,0,0,1,23-20.54c8.61-3.67,18.23-3.74,24.88-11.26,11.87-13.4,16.22-27.93,32.49-37.73,13.78-8.3,32-8.83,47.79-7.38,35.12,3.22,69.21,21.76,89,51.29,7,10.46,12.07,21.17,12.24,33.61.2,13.6.19,27.27,8.52,38.83,7,9.7,18.22,15.38,29.36,19.76s22.8,7.92,32.57,14.82,17.53,18.16,16.39,30.07c-1,10-7.85,18.62-8.77,28.6-1.67,18.13,15.8,31.3,26.56,46,15.08,20.55,17.58,49.62,6.23,72.44-13.06,26.28-36.8,32.21-61.66,42.1C620.13,623.82,618.94,624.26,617.74,624.68Z"/>
          <path class="cls-5" d="M430,285.73c8.54-5,18.46-7.27,28.32-7.67a105.63,105.63,0,0,1,29.41,3.29,90.55,90.55,0,0,1,49.05,32.08A81.18,81.18,0,0,1,550.32,340c2.79,9.65,3.36,19.75,3.25,29.62s-.81,19.74-.48,29.48a52.77,52.77,0,0,0,2.27,14.17A22.25,22.25,0,0,0,563,424.63c3.66,2.78,8.37,3.95,13.12,4.52s9.76.59,14.73,1.26c9.84,1.32,19.84,3.66,28.41,9.31a25,25,0,0,1,9.85,11.68c1.91,5,1.52,10.36.25,15.29-1.49,5-4.32,9.17-6.29,13.54a43.15,43.15,0,0,0-3.66,13.85c-.91,9.63,1.56,19.28,5,28.42s7.4,18.28,9.77,28A59.78,59.78,0,0,1,636,565.24a46.38,46.38,0,0,1-2.59,14.62,49.94,49.94,0,0,1-17.23,23.6,49.63,49.63,0,0,0,16.58-23.82c3.12-9.34,2.7-19.46.13-28.85s-6.57-18.44-10.09-27.67-6.3-19.1-5.48-29.23A45.49,45.49,0,0,1,621,479.25c2.06-4.61,4.8-8.73,6.1-13.25s1.45-9.4-.24-13.71a22.49,22.49,0,0,0-8.94-10.45c-8-5.23-17.74-7.53-27.31-8.76-4.8-.63-9.7-.63-14.72-1.2s-10.21-1.79-14.48-5a24.94,24.94,0,0,1-8.6-12.74,55.59,55.59,0,0,1-2.35-14.93c-.29-10,.47-19.81.6-29.61s-.37-19.59-3-28.93a81.76,81.76,0,0,0-12.89-25.94,89,89,0,0,0-47.67-32.06,104.49,104.49,0,0,0-29.05-3.93C448.6,278.91,438.7,280.94,430,285.73Z"/>
          <path class="cls-6" d="M554.31,504.24c.92,22.28-4.25,39-24.62,50-16.23,8.78-35.66,11.65-53.57,12.1-30,.74-63.5-7-86-28.1-4.08-3.83-8-8.52-8.29-14.11-.27-5.07,2.53-9.86,2.77-14.94.42-8.56-6.24-15.66-9.22-23.7-3.93-10.62-1.26-22.47,2.28-33.24s7.95-21.62,7.42-32.93c-.69-14.68-9.51-27.49-16.57-40.37s-12.61-28.56-6.58-42c4-8.83,13.45-15.62,23.14-16.69,10.24-1.13,19.43,10.56,26,17a160.36,160.36,0,0,0,29.22,22.73c14.63,8.87,30.68,15.42,44.44,25.59,8.32,6.15,17.25,14.6,21.22,24.4,4.48,11-3.36,21.74,6.12,31.9,6.12,6.55,15.51,8.78,22.91,13.85C550.84,466.65,553.59,486.65,554.31,504.24Z"/>
          <path class="cls-7" d="M388.45,628.9c21.09-32.5,34.21-72.38,15.88-109.07-1.85-3.72-4.09-7.78-8-9.09-8.48-2.82-20,.21-27.37,4.54-25.58,15-41.24,43.26-55.62,68.4-14.93,26.11-27.9,53.3-42.91,79.37-6.07,10.56-12.21,21.26-15.47,33-2.86,10.28-3.17,22.05.72,32.12,16.85,43.5,63.17-9.79,77.27-25.89A642.64,642.64,0,0,0,388.45,628.9Z"/>
          <g>
            <path class="cls-8" d="M579.26,592.54c6.06-25.67,9.2-51.93-4.53-69.41-6.2-7.9-17.26-13.39-26.3-17.3-17.65-7.62-35.68-17.87-54.57-21.2C474,481.13,451.81,479,432,484c-12.6,3.18-24.4,9.07-35.66,15.43-9.78,5.51-21.78,10.26-26.53,20.52a696,696,0,0,0-30.18,76.86c-7.09,21.8-14.87,44.64-3.7,66.73,3.61,7.16,8.87,13.29,13,20.13,4.61,7.61,6.33,14.77,6.93,23.56,1.38,20,.84,40.16.79,60.24,0,5.78.06,11.8,2.59,17,5,10.25,18.57,10.4,28.35,10.38l96.68-.17c13.41,0,23.66,1.62,36.25,4.21,10.59,2.18,19.69-3.17,24.77-13,4.81-9.33,5.18-20.23,5.69-30.72A663.16,663.16,0,0,1,568.22,634C570.9,622.73,575.6,608,579.26,592.54Z"/>
            <g class="cls-9">
              <g>
                <path class="cls-10" d="M504.61,517.88c7.59-12.76,9.31-28.71-.62-41-4.55-5.62-12.59-6.25-19.46-6.38a163.85,163.85,0,0,0-40.26,4.26c-12.55,2.94-25.36,7.92-30.8,20.59-4,9.42-2.63,20.32,2.7,28.94A35.67,35.67,0,0,0,438,540c14.45,3.44,31.37,3,45.16-2.81C491.77,533.6,499.51,526.46,504.61,517.88Z"/>
                <path class="cls-7" d="M590.67,710.21q-.13-29.52-.3-59c0-6.85,4.42-48.56-6.24-48.08A6,6,0,0,0,581,604.4c-5.3,3.79-8,10.15-10.5,16.17C562.72,639.48,556.2,669.74,540,683c-16.44,13.46-41.71,19.13-62.14,22.36-23.85,3.77-48.1,4-72.2,5.52-15.59.94-32.79,3.19-43,15-7.32,8.42-11,21-15,31.34-3.41,9-6.13,19.67.8,27.82,3,3.47,7.06,5.75,11.19,7.7,15,7.09,31.48,10.66,47.89,13.41,45.9,7.68,92.69,9.28,139.18,7.06,9.94-.47,20.72-1.46,28.05-8.19,5.46-5,8-12.37,9.86-19.55C590.89,761,590.8,735.44,590.67,710.21Z"/>
              </g>
            </g>
          </g>
          <path class="cls-11" d="M370.87,374.1c-17.59,18.1-1.64,62.31,26.41,55.91,30.13-6.88,25.6-53.84-1.65-61.55C385,365.45,376.53,368.28,370.87,374.1Z"/>
          <path class="cls-12" d="M610.93,621.71c17.62,2.25,36.19.7,51.93-7.53,20-10.49,30.08-29.73,30.49-51.85.3-16-2.8-32.74-12.48-45.52-10.52-13.9-28.15-22.44-34.7-38.6-4.23-10.46-3.22-24.71,5.16-32.8,5.34-5.16,9.51-11,8.82-18.69-1-11.37-9.32-22.29-18.61-28.43C627.92,389.29,611,386,595,384c-10.79-1.37-21.55-4.4-24.88-16-1.8-6.28-1.45-12.89-1.78-19.34-.72-13.74-1.73-27.48-3.78-41.1-2.37-15.7-12.56-30.88-23.93-41.7-1.63-1.55-3.33-3-5.08-4.45C506.28,237.61,452,229.2,419.7,251.21a50.08,50.08,0,0,0-21.2,32.11c-1.64,8.77-4,10.66-12.58,13.32-15.57,4.83-33.24,8.26-45.6,19.68-9.68,8.93-14.13,22.46-12.84,35.44,1.65,16.57,13.23,24.5,21.53,37.62,8.46,13.4,1.81,30.28-8,41.34-7.57,8.52-18.32,14.74-22.6,25.31-3.94,9.72-1.33,21,3.43,30.3,1.92,3.79,4.19,7.4,5.9,11.3a43.8,43.8,0,0,1-1.42,37.48"/>
          <path class="cls-7" d="M660.89,647.35q8.08,14.6,16,29.27c10.68,19.89,30.5,64.09-1.24,75-16,5.5-25.13.12-35.7-11.53a673.31,673.31,0,0,1-101.1-146.47c-10.06-19.73-36.76-71.14-4.33-82.89a39.38,39.38,0,0,1,31.64,2.31,63.43,63.43,0,0,1,12,8.86c23.41,20.87,40.08,47.8,54.9,75.12C642.23,613.91,651.61,630.61,660.89,647.35Z"/>
          <path class="cls-13" d="M477.13,524.39c9.66-3.1,17.61-9.1,20.59-18.65,2.71-8.66-1.56-18.4-2.31-27.14a166.8,166.8,0,0,1-.28-25.19c.51-7.75,1.25-15.83.06-23.56-.68-4.41-3.1-3.66-7.57-5.41s-9.48-1.77-14.34-1.76c-9.94,0-35.85-.7-42,8-2.82,4-3,9.05-3.17,13.82-.16,5.75-1.18,13.21-2.13,21.24-.42,3.57-.16,7.14-.7,10.69-.62,4-2.13,7.78-3.45,11.6-5,14.4-.32,28.1,15.26,34.7C448.26,527.48,464.22,528.53,477.13,524.39Z"/>
          <path class="cls-14" d="M495.14,429.85c-.68-4.41-3.1-3.66-7.57-5.41s-9.48-1.77-14.34-1.76c-9.94,0-35.85-.7-42,8-2.82,4-3,9.05-3.17,13.82-.16,5.75-1.18,13.21-2.13,21.24-.42,3.57-.16,7.14-.71,10.69a49.6,49.6,0,0,1-2.48,8.86,52.67,52.67,0,0,0,30.58,1.9c18.11-4.45,31.82-15.73,41.6-30.38.06-1.14.09-2.28.16-3.42C495.59,445.66,496.33,437.58,495.14,429.85Z"/>
          <path class="cls-13" d="M509.57,373.1c-.08-13.28-1.91-25.87-5.32-36.33-14.74-45.11-71-56.26-104.91-23.87C361.55,349,376,435.36,415.82,465.7a44.67,44.67,0,0,0,38,7.49C493,462.7,509.82,414.57,509.57,373.1Z"/>
          <path class="cls-13" d="M502.18,374.21c17.31-9.46,22.64,14.51,19.66,26.44a38,38,0,0,1-6.23,13.79c-4.12,5.46-15.9,14.52-22.69,8.54-3.08-2.71-3.4-7.31-3.49-11.42C489.17,400.57,490.44,380.63,502.18,374.21Z"/>
          <path class="cls-15" d="M445.78,453.18a87.1,87.1,0,0,1-12.8-.94l.76-5.19a78.93,78.93,0,0,0,44.82-6.26,57.27,57.27,0,0,0,9.7-5.58,45.66,45.66,0,0,0,12.56-13.84l4.53,2.65a51,51,0,0,1-14,15.45,63.37,63.37,0,0,1-10.57,6.08A83,83,0,0,1,445.78,453.18Z"/>
          <path class="cls-15" d="M417.8,442.91c6.33-5.43,20.41-5,25.06.67,3.44,4.19,2.39,9.49-1.4,13-4.48,4.18-10,3.93-15.62,2.67C418.85,457.7,410.17,449.46,417.8,442.91Z"/>
          <path class="cls-14" d="M509.66,338.63c-15.51-47.5-74.77-59.23-110.45-25.14-7.88,7.54-13.57,17.16-17.36,28a32.92,32.92,0,0,0,2.76,3.7c4.89,5.67,11.65,9.37,18.45,12.52,19.86,9.18,41.27,14.57,62.78,18.6l4.77.9c5.92,1.16,11.8,2.62,17,5.67,14.62,8.62,8.33,27.57,19,35.87a10.24,10.24,0,0,0,2.92,1.59,159.82,159.82,0,0,0,5.73-43.45C515.19,362.9,513.26,349.64,509.66,338.63Z"/>
          <path class="cls-4" d="M472.14,371.77c5.66,2.1,11.23,4.47,15.85,8.3,13.05,10.84,3.83,28.55,13.07,38.45,8.2,8.78,20.64-2.82,23.9-10.92,6-14.94,5.65-31.56,5.21-47.65-.25-9-.52-18.07-3.15-26.66-2.87-9.36-8.46-17.71-15.11-24.9-19.22-20.73-48.22-31.51-76.3-29.74-22,1.38-60.48,19.83-43.27,47.79,3.93,6.37,10,11.11,16.22,15.3,18.15,12.23,38.42,21,59,28.37C469.09,370.66,470.62,371.2,472.14,371.77Z"/>
          <path class="cls-11" d="M509.45,367.39c-24.44,6.27-33.89,52.31-6.62,61.48,29.3,9.85,49.92-32.59,30.69-53.38C526,367.39,517.32,365.38,509.45,367.39Z"/>
          <path class="cls-15" d="M517.46,373.3c-16.87,2.71-27.26,38.56-9.87,48.42,18.68,10.6,36.21-21.32,25.22-39.7C528.53,374.85,522.89,372.43,517.46,373.3Z"/>
          <path class="cls-11" d="M520.87,370.62l-6.52-.76c4.42-38.21,2.54-87-31.55-102.63-16.14-7.39-62.36-15.58-82.71,11.87-2.44,2.75-4.08,5.06-4.08,5.06,12.62-38.93,72.1-30.87,89.52-22.9C523.2,278.5,525.54,330.24,520.87,370.62Z"/>
          <g>
            <rect class="cls-15" x="264.35" y="730.27" width="133.41" height="26.12"/>
            <g>
              <path class="cls-15" d="M287.24,732.81,253.57,561.39a9.65,9.65,0,0,0-9.47-7.79H20.27a9.55,9.55,0,0,0-7.76,4l0,0L2.14,569.77l9.17-2L44.47,736.53a9.64,9.64,0,0,0,9.47,7.79H277.77a9.65,9.65,0,0,0,9.47-11.51Z"/>
              <path class="cls-4" d="M43.7,756.39H267.54A9.65,9.65,0,0,0,277,744.88L243.34,573.46a9.65,9.65,0,0,0-9.47-7.79H10A9.65,9.65,0,0,0,.56,577.18L34.23,748.6A9.65,9.65,0,0,0,43.7,756.39Z"/>
              <path class="cls-15" d="M114.11,656.79c2.07,11.56,13.11,20.93,24.68,20.93s19.13-9.37,16.9-20.93S142.41,635.85,131,635.85,112.05,645.22,114.11,656.79Z"/>
            </g>
          </g>
          <g>
            <path class="cls-16" d="M756.9,654.05c2.47-5.1,2-10.46.47-15.32s-4.16-9.25-7-13.93a63.36,63.36,0,0,1-7.73-15.7c-1.85-6.12-1.32-13,.38-18.8,3.68-11.84,11.21-20.57,16.39-29.51a42.26,42.26,0,0,0,5.57-14.18,24.45,24.45,0,0,0-1.85-15.44c4.28,3.74,6.36,9.82,6.64,15.71a40,40,0,0,1-3.51,17.28c-4.5,10.75-11.25,19.49-13.88,28.93a25.36,25.36,0,0,0-.8,13.73c.88,4.65,3.31,9.34,5.5,14.43s4.54,10.7,5,16.6S761.23,650.25,756.9,654.05Z"/>
            <g>
              <path class="cls-11" d="M725.94,660.57h66.52v62a33.26,33.26,0,0,1-33.26,33.26h0a33.26,33.26,0,0,1-33.26-33.26h0v-62Z"/>
              <path class="cls-11" d="M797.1,682.12A29.31,29.31,0,1,0,826,711.85v-.43A29.09,29.09,0,0,0,797.1,682.12Zm0,48.16a18.86,18.86,0,1,1,18.58-19.13,2.44,2.44,0,0,1,0,.27,18.73,18.73,0,0,1-18.59,18.86Z"/>
              <path class="cls-17" d="M735.89,719.68h0a3.6,3.6,0,0,1-3.6-3.6V669.71a3.6,3.6,0,0,1,3.6-3.6h0a3.6,3.6,0,0,1,3.6,3.6v46.37A3.6,3.6,0,0,1,735.89,719.68Z"/>
              <path class="cls-15" d="M777.1,660.57V739a16.85,16.85,0,0,1-16.85,16.85h15.36A16.84,16.84,0,0,0,792.46,739h0V660.57Z"/>
            </g>
          </g>
          <g>
            <rect class="cls-18" x="595.7" y="147.37" width="272.53" height="165.49" rx="82.74"/>
            <path class="cls-18" d="M631.58,356.42V280.37l59.56,32.49Z"/>
            <rect class="cls-19" x="637.21" y="223.13" width="134.91" height="14.44" rx="7.22"/>
            <path class="cls-19" d="M789.72,223.13H819.5a7.22,7.22,0,0,1,7.22,7.22h0a7.22,7.22,0,0,1-7.22,7.22H789.72a7.23,7.23,0,0,1-7.22-7.22h0A7.22,7.22,0,0,1,789.72,223.13Z"/>
            <path class="cls-19" d="M819.5,204.78H699a7.22,7.22,0,0,1-7.22-7.22h0a7.22,7.22,0,0,1,7.22-7.22H819.5a7.22,7.22,0,0,1,7.22,7.22h0A7.22,7.22,0,0,1,819.5,204.78Z"/>
            <path class="cls-19" d="M674.21,204.78H644.43a7.22,7.22,0,0,1-7.22-7.22h0a7.22,7.22,0,0,1,7.22-7.22h29.78a7.22,7.22,0,0,1,7.22,7.22h0A7.22,7.22,0,0,1,674.21,204.78Z"/>
            <path class="cls-19" d="M644.43,253.1h80.32a7.22,7.22,0,0,1,7.22,7.22h0a7.22,7.22,0,0,1-7.22,7.22H644.43a7.22,7.22,0,0,1-7.22-7.22h0A7.22,7.22,0,0,1,644.43,253.1Z"/>
          </g>
          <path class="cls-8" d="M504.78,716.81c2.73-.47,5.47-.92,8.2-1.35q20-3.13,39.77-7.43c26.12-5.68,52.39-10.56,79-13.08q4.21-.39,8.46-.72c11.92-.9,24.41-1.19,35.32,4.51s19.59,19.18,16.92,32.18c-1.87,9.13-8.85,16-16.61,19.47s-16.3,4.07-24.69,4.63L569.7,760.5q-20.16,1.35-40.32,2.76c-12.83.89-25.86,2.71-38.73,2.69-5.44,0-11.52-1-16.09-4.66-6.36-5-10.19-15.8-10.8-24.2-.32-4.36.53-9.65,3.87-12.35,1.79-1.45,4.06-1.89,6.25-2.29C484.2,720.55,494.46,718.57,504.78,716.81Z"/>
          <path class="cls-13" d="M474.33,758.17c-6.56,1.36-11.69,7.12-18.23,9.05-4.66,1.38-9.65.64-14.13-1-4.12-1.54-8.31-2.37-12.54-3.72-3.3-1.06-7.74-3.28-11.28-2.54-9.28,1.93-18.53,8.53-26.95,12.82-1.89,1-4,2-6,1.56s-3.83-2.92-2.64-4.68c-2.42,2.26-5.63,6.78-9.53,5a3.27,3.27,0,0,1-1.7-4.29l0-.05a13.12,13.12,0,0,1-4.6,3.73c-1.85.73-4.28.41-5.37-1.26a5.25,5.25,0,0,1-.71-2.68,20.25,20.25,0,0,1,2.15-9.33c6.63-14.46,21.61-25.19,34.35-33.8a27.57,27.57,0,0,1,7.16-3.87,25.56,25.56,0,0,1,7.23-.8,144.4,144.4,0,0,1,46.6,7.53c3.25,1.09,6.81.16,10.05-.44,2.39-.45,4.89-.89,7.23-.21,2.61.76,4.64,2.84,6.23,5.05,2.93,4.06,5.17,9.44,4.82,14.54-.27,3.88-.56,8.06-5.12,8.88-1.85.33-3.75.12-5.62.32Q475,758,474.33,758.17Z"/>
        </g>
      </g>
    </g>
  </g>
</svg>
