<svg xmlns="http://www.w3.org/2000/svg" xmlns:xlink="http://www.w3.org/1999/xlink" width="117.709" height="176" viewBox="0 0 117.709 176">
  <defs>
    <clipPath id="clip-path">
      <path id="Path_83" data-name="Path 83" d="M0,21.591H117.709v-176H0Z" transform="translate(0 154.409)" fill="none"/>
    </clipPath>
  </defs>
  <g id="Group_131" data-name="Group 131" transform="translate(0 154.409)">
    <g id="Group_75" data-name="Group 75" transform="translate(0 -154.409)" clip-path="url(#clip-path)">
      <g id="Group_71" data-name="Group 71" transform="translate(0 157.139)">
        <path id="Path_79" data-name="Path 79" d="M.1.554a1.808,1.808,0,0,0,.248.888,1.621,1.621,0,0,0,1.47.638,2.52,2.52,0,0,0,.861-.139A.987.987,0,0,0,3.43.969.848.848,0,0,0,3.112.221,3.157,3.157,0,0,0,2.1-.16l-.843-.2A3.734,3.734,0,0,1,.09-.781,1.358,1.358,0,0,1-.5-1.983,1.877,1.877,0,0,1,.08-3.406a2.3,2.3,0,0,1,1.652-.556A2.808,2.808,0,0,1,3.4-3.473,1.779,1.779,0,0,1,4.09-1.914H3.273A1.659,1.659,0,0,0,3-2.706a1.526,1.526,0,0,0-1.3-.5,1.454,1.454,0,0,0-1.061.324,1.031,1.031,0,0,0-.323.752A.739.739,0,0,0,.7-1.442a5.391,5.391,0,0,0,1.132.35l.873.206a2.631,2.631,0,0,1,.976.407A1.543,1.543,0,0,1,4.278.83a1.644,1.644,0,0,1-.757,1.526,3.334,3.334,0,0,1-1.76.459A2.592,2.592,0,0,1-.069,2.2,2.091,2.091,0,0,1-.718.554Z" transform="translate(0.718 3.962)" fill="#2b2e34"/>
      </g>
      <g id="Group_72" data-name="Group 72" transform="translate(6.054 158.929)">
        <path id="Path_80" data-name="Path 80" d="M0,.017H.771V.638A1.917,1.917,0,0,1,1.288.143a1.669,1.669,0,0,1,.938-.262A1.766,1.766,0,0,1,3.582.492a2.5,2.5,0,0,1,.556,1.743,2.671,2.671,0,0,1-.8,2.187,1.822,1.822,0,0,1-1.187.416,1.613,1.613,0,0,1-.891-.233,2.065,2.065,0,0,1-.47-.45V6.549H0ZM2.964,3.689a2.195,2.195,0,0,0,.366-1.38,2.567,2.567,0,0,0-.162-.962A1.121,1.121,0,0,0,2.044.573,1.119,1.119,0,0,0,.92,1.39,3.232,3.232,0,0,0,.757,2.5a2.344,2.344,0,0,0,.163.923,1.119,1.119,0,0,0,1.124.726,1.131,1.131,0,0,0,.92-.462" transform="translate(0 0.119)" fill="#2b2e34"/>
      </g>
      <g id="Group_73" data-name="Group 73" transform="translate(10.836 158.939)">
        <path id="Path_81" data-name="Path 81" d="M.388.029A1.776,1.776,0,0,1,1.1.634a2.1,2.1,0,0,1,.312.826A5.4,5.4,0,0,1,1.48,2.493H-1.928a2.018,2.018,0,0,0,.334,1.148,1.114,1.114,0,0,0,.968.432A1.241,1.241,0,0,0,.35,3.664a1.392,1.392,0,0,0,.29-.549h.774a1.624,1.624,0,0,1-.2.577,2.034,2.034,0,0,1-.385.517,1.807,1.807,0,0,1-.881.472A2.6,2.6,0,0,1-.7,4.751a1.956,1.956,0,0,1-1.474-.636,2.488,2.488,0,0,1-.6-1.783A2.707,2.707,0,0,1-2.164.5a2,2,0,0,1,1.591-.7A2.111,2.111,0,0,1,.388.029m.282,1.84A2.03,2.03,0,0,0,.448,1.05,1.13,1.13,0,0,0-.623.481a1.186,1.186,0,0,0-.9.391,1.488,1.488,0,0,0-.386,1Z" transform="translate(2.773 0.205)" fill="#2b2e34"/>
      </g>
      <g id="Group_74" data-name="Group 74" transform="translate(15.766 158.907)">
        <path id="Path_82" data-name="Path 82" d="M.419.047a1.843,1.843,0,0,1,.6,1.326H.25A1.414,1.414,0,0,0-.069.653a1.011,1.011,0,0,0-.8-.286A1.108,1.108,0,0,0-1.946,1.1a2.933,2.933,0,0,0-.21,1.175,2.208,2.208,0,0,0,.3,1.184,1.02,1.02,0,0,0,.937.481,1.025,1.025,0,0,0,.776-.3,1.63,1.63,0,0,0,.4-.817h.766A2.055,2.055,0,0,1,.36,4.188a2.048,2.048,0,0,1-1.343.431,1.8,1.8,0,0,1-1.466-.671A2.571,2.571,0,0,1-3,2.27,2.828,2.828,0,0,1-2.4.349,1.937,1.937,0,0,1-.869-.338,2.042,2.042,0,0,1,.419.047" transform="translate(2.996 0.338)" fill="#2b2e34"/>
      </g>
    </g>
    <path id="Path_84" data-name="Path 84" d="M18.043-15.512h.8V-16.4h-.8Zm0-.892,0,6.426h.8v-4.663h-.8Z" transform="translate(2.523 19.297)" fill="#2b2e34"/>
    <g id="Group_77" data-name="Group 77" transform="translate(0 -154.409)" clip-path="url(#clip-path)">
      <g id="Group_76" data-name="Group 76" transform="translate(22.338 158.929)">
        <path id="Path_85" data-name="Path 85" d="M.335.241A.429.429,0,0,0,.7.013a.707.707,0,0,0,.051-.3A.644.644,0,0,0,.465-.876a1.527,1.527,0,0,0-.82-.182,1.035,1.035,0,0,0-.873.335,1.109,1.109,0,0,0-.188.549H-2.15a1.362,1.362,0,0,1,.561-1.209,2.3,2.3,0,0,1,1.253-.34,2.549,2.549,0,0,1,1.342.315,1.071,1.071,0,0,1,.511.98v2.7a.351.351,0,0,0,.05.2.244.244,0,0,0,.213.074c.034,0,.074,0,.117-.006s.091-.011.14-.021V3.1a2.029,2.029,0,0,1-.28.066,1.958,1.958,0,0,1-.262.014A.649.649,0,0,1,.9,2.889a1.108,1.108,0,0,1-.136-.434A2,2,0,0,1,.076,3a2.13,2.13,0,0,1-.993.231,1.472,1.472,0,0,1-1.065-.4,1.309,1.309,0,0,1-.414-.989A1.275,1.275,0,0,1-1.988.839,1.945,1.945,0,0,1-.921.4ZM-1.324,2.368a.926.926,0,0,0,.59.2,1.808,1.808,0,0,0,.806-.191A1.081,1.081,0,0,0,.728,1.328V.695a1.342,1.342,0,0,1-.37.154A3.237,3.237,0,0,1-.088.936L-.564,1a1.84,1.84,0,0,0-.643.18.7.7,0,0,0-.366.654.647.647,0,0,0,.25.537" transform="translate(2.395 1.723)" fill="#2b2e34"/>
      </g>
    </g>
    <path id="Path_87" data-name="Path 87" d="M24.18-9.978h.788v-6.427H24.18Z" transform="translate(3.381 19.297)" fill="#2b2e34"/>
    <path id="Path_88" data-name="Path 88" d="M25.908-15.512h.8V-16.4h-.8Zm0-.892,0,6.426h.8v-4.663h-.8Z" transform="translate(3.623 19.297)" fill="#2b2e34"/>
    <g id="Group_81" data-name="Group 81" transform="translate(0 -154.409)" clip-path="url(#clip-path)">
      <g id="Group_78" data-name="Group 78" transform="translate(31.233 158.921)">
        <path id="Path_89" data-name="Path 89" d="M.093.409a1.137,1.137,0,0,0,.2.6,1.277,1.277,0,0,0,1.054.381,1.583,1.583,0,0,0,.785-.19.628.628,0,0,0,.34-.588A.5.5,0,0,0,2.2.156a3.191,3.191,0,0,0-.685-.223L.88-.225a3.078,3.078,0,0,1-.9-.332.991.991,0,0,1-.516-.885A1.34,1.34,0,0,1-.047-2.517a1.951,1.951,0,0,1,1.305-.411,1.826,1.826,0,0,1,1.548.62,1.339,1.339,0,0,1,.288.849H2.35a.884.884,0,0,0-.193-.482,1.247,1.247,0,0,0-.962-.31A1.166,1.166,0,0,0,.5-2.08a.526.526,0,0,0-.235.448.551.551,0,0,0,.309.489A1.915,1.915,0,0,0,1.1-.95l.53.127a4.127,4.127,0,0,1,1.159.4,1.052,1.052,0,0,1,.459.949A1.442,1.442,0,0,1,2.771,1.6a2.067,2.067,0,0,1-1.465.455,1.977,1.977,0,0,1-1.5-.474A1.784,1.784,0,0,1-.664.409Z" transform="translate(0.664 2.928)" fill="#2b2e34"/>
      </g>
      <g id="Group_79" data-name="Group 79" transform="translate(35.524 157.735)">
        <path id="Path_90" data-name="Path 90" d="M.078,0h.8V1.309h.748v.643H.875V5.008a.33.33,0,0,0,.165.328.69.69,0,0,0,.307.049c.038,0,.079,0,.122,0s.095-.007.154-.015v.626a1.749,1.749,0,0,1-.283.057,2.741,2.741,0,0,1-.317.017.854.854,0,0,1-.748-.282,1.251,1.251,0,0,1-.2-.733v-3.1H-.557V1.309H.078Z" transform="translate(0.557)" fill="#2b2e34"/>
      </g>
      <g id="Group_80" data-name="Group 80" transform="translate(38.202 158.921)">
        <path id="Path_91" data-name="Path 91" d="M.093.409a1.127,1.127,0,0,0,.2.6,1.277,1.277,0,0,0,1.054.381,1.583,1.583,0,0,0,.785-.19.63.63,0,0,0,.34-.588A.5.5,0,0,0,2.2.156a3.191,3.191,0,0,0-.685-.223L.88-.225a3.1,3.1,0,0,1-.9-.332.992.992,0,0,1-.515-.885A1.34,1.34,0,0,1-.047-2.517a1.949,1.949,0,0,1,1.305-.411,1.826,1.826,0,0,1,1.548.62,1.346,1.346,0,0,1,.288.849H2.35a.884.884,0,0,0-.193-.482,1.247,1.247,0,0,0-.962-.31A1.166,1.166,0,0,0,.5-2.08a.527.527,0,0,0-.236.448.552.552,0,0,0,.31.489A1.915,1.915,0,0,0,1.1-.95l.53.127a4.127,4.127,0,0,1,1.159.4,1.052,1.052,0,0,1,.459.949A1.442,1.442,0,0,1,2.771,1.6a2.067,2.067,0,0,1-1.465.455,1.977,1.977,0,0,1-1.5-.474A1.784,1.784,0,0,1-.664.409Z" transform="translate(0.664 2.928)" fill="#2b2e34"/>
      </g>
    </g>
    <path id="Path_93" data-name="Path 93" d="M39.883-15.512h.8V-16.4h-.8Zm0-.892,0,6.426h.8v-4.663h-.8Z" transform="translate(5.577 19.297)" fill="#2b2e34"/>
    <g id="Group_90" data-name="Group 90" transform="translate(0 -154.409)" clip-path="url(#clip-path)">
      <g id="Group_82" data-name="Group 82" transform="translate(47.45 158.938)">
        <path id="Path_94" data-name="Path 94" d="M0,.013H.748V.677a2.117,2.117,0,0,1,.7-.59A1.882,1.882,0,0,1,2.28-.092,1.363,1.363,0,0,1,3.627.6,2.459,2.459,0,0,1,3.82,1.692V4.7h-.8V1.745a1.607,1.607,0,0,0-.127-.692A.771.771,0,0,0,2.13.616a1.559,1.559,0,0,0-.459.057,1.194,1.194,0,0,0-.569.385,1.151,1.151,0,0,0-.255.479,3.192,3.192,0,0,0-.059.707V4.7H0Z" transform="translate(0 0.092)" fill="#2b2e34"/>
      </g>
      <g id="Group_83" data-name="Group 83" transform="translate(54.704 158.929)">
        <path id="Path_95" data-name="Path 95" d="M.335.241A.429.429,0,0,0,.7.013a.707.707,0,0,0,.051-.3A.644.644,0,0,0,.465-.876a1.527,1.527,0,0,0-.82-.182,1.035,1.035,0,0,0-.873.335,1.109,1.109,0,0,0-.188.549H-2.15a1.362,1.362,0,0,1,.561-1.209,2.3,2.3,0,0,1,1.253-.34,2.549,2.549,0,0,1,1.342.315,1.071,1.071,0,0,1,.511.98v2.7a.342.342,0,0,0,.051.2c.033.05.1.074.212.074.034,0,.074,0,.117-.006s.091-.011.14-.021V3.1a2.029,2.029,0,0,1-.28.066,1.958,1.958,0,0,1-.262.014A.649.649,0,0,1,.9,2.889a1.127,1.127,0,0,1-.136-.434A2,2,0,0,1,.076,3a2.13,2.13,0,0,1-.993.231,1.472,1.472,0,0,1-1.065-.4,1.309,1.309,0,0,1-.414-.989A1.275,1.275,0,0,1-1.988.839,1.941,1.941,0,0,1-.921.4ZM-1.324,2.368a.926.926,0,0,0,.59.2,1.8,1.8,0,0,0,.806-.191A1.081,1.081,0,0,0,.728,1.328V.695a1.342,1.342,0,0,1-.37.154A3.237,3.237,0,0,1-.088.936L-.564,1a1.84,1.84,0,0,0-.643.18.7.7,0,0,0-.366.654.647.647,0,0,0,.25.537" transform="translate(2.395 1.723)" fill="#2b2e34"/>
      </g>
      <g id="Group_84" data-name="Group 84" transform="translate(59.889 159.043)">
        <path id="Path_96" data-name="Path 96" d="M.1,0V3.111A1.34,1.34,0,0,0,.209,3.7a.771.771,0,0,0,.763.421,1.08,1.08,0,0,0,1.091-.735A3,3,0,0,0,2.22,2.3V0h.788V4.686H2.264l.008-.692a1.584,1.584,0,0,1-.373.45,1.626,1.626,0,0,1-1.074.368,1.376,1.376,0,0,1-1.339-.67,2.022,2.022,0,0,1-.193-.957V0Z" transform="translate(0.706)" fill="#2b2e34"/>
      </g>
      <g id="Group_85" data-name="Group 85" transform="translate(64.412 157.735)">
        <path id="Path_97" data-name="Path 97" d="M.078,0h.8V1.309h.748v.643H.875V5.008a.33.33,0,0,0,.165.328.694.694,0,0,0,.307.049c.038,0,.079,0,.122,0s.1-.007.154-.015v.626a1.749,1.749,0,0,1-.283.057,2.727,2.727,0,0,1-.317.017.854.854,0,0,1-.748-.282,1.251,1.251,0,0,1-.2-.733v-3.1H-.557V1.309H.078Z" transform="translate(0.557)" fill="#2b2e34"/>
      </g>
      <g id="Group_86" data-name="Group 86" transform="translate(67.06 158.908)">
        <path id="Path_98" data-name="Path 98" d="M.456.074a2.362,2.362,0,0,1,.621,1.775A3.058,3.058,0,0,1,.53,3.719a1.975,1.975,0,0,1-1.7.739A1.912,1.912,0,0,1-2.694,3.8a2.594,2.594,0,0,1-.564-1.755A2.807,2.807,0,0,1-2.663.17a1.994,1.994,0,0,1,1.6-.7,2.1,2.1,0,0,1,1.521.6M-.033,3.188A2.98,2.98,0,0,0,.255,1.87,2.355,2.355,0,0,0,.046.8,1.164,1.164,0,0,0-1.087.157,1.116,1.116,0,0,0-2.125.708a2.583,2.583,0,0,0-.324,1.329,2.241,2.241,0,0,0,.324,1.245,1.138,1.138,0,0,0,1.03.5A1.071,1.071,0,0,0-.033,3.188" transform="translate(3.258 0.529)" fill="#2b2e34"/>
      </g>
      <g id="Group_87" data-name="Group 87" transform="translate(72.361 158.938)">
        <path id="Path_99" data-name="Path 99" d="M0,.013H.78V.677a2.592,2.592,0,0,1,.507-.5A1.518,1.518,0,0,1,2.17-.092a1.383,1.383,0,0,1,.9.276,1.411,1.411,0,0,1,.35.463A1.7,1.7,0,0,1,4.038.089a1.721,1.721,0,0,1,.8-.181A1.3,1.3,0,0,1,6.121.591a2.231,2.231,0,0,1,.184.988V4.7H5.486V1.443A.76.76,0,0,0,5.252.8.929.929,0,0,0,4.681.625a1.141,1.141,0,0,0-.8.31,1.37,1.37,0,0,0-.334,1.037V4.7h-.8V1.641a1.6,1.6,0,0,0-.114-.7A.7.7,0,0,0,1.965.616a1.155,1.155,0,0,0-.812.347,1.691,1.691,0,0,0-.366,1.25V4.7H0Z" transform="translate(0 0.092)" fill="#2b2e34"/>
      </g>
      <g id="Group_88" data-name="Group 88" transform="translate(79.506 158.908)">
        <path id="Path_100" data-name="Path 100" d="M.456.074a2.362,2.362,0,0,1,.621,1.775A3.058,3.058,0,0,1,.53,3.719a1.976,1.976,0,0,1-1.7.739A1.911,1.911,0,0,1-2.694,3.8a2.588,2.588,0,0,1-.564-1.755A2.807,2.807,0,0,1-2.663.17a1.994,1.994,0,0,1,1.6-.7,2.1,2.1,0,0,1,1.521.6M-.033,3.188A2.964,2.964,0,0,0,.255,1.87,2.355,2.355,0,0,0,.046.8,1.165,1.165,0,0,0-1.087.157,1.116,1.116,0,0,0-2.125.708a2.583,2.583,0,0,0-.324,1.329,2.241,2.241,0,0,0,.324,1.245,1.138,1.138,0,0,0,1.03.5A1.071,1.071,0,0,0-.033,3.188" transform="translate(3.258 0.529)" fill="#2b2e34"/>
      </g>
      <g id="Group_89" data-name="Group 89" transform="translate(84.331 157.735)">
        <path id="Path_101" data-name="Path 101" d="M.078,0h.8V1.309h.748v.643H.875V5.008a.33.33,0,0,0,.165.328.7.7,0,0,0,.307.049q.056,0,.123,0c.043,0,.095-.007.153-.015v.626a1.76,1.76,0,0,1-.282.057,2.761,2.761,0,0,1-.318.017.854.854,0,0,1-.748-.282,1.251,1.251,0,0,1-.2-.733v-3.1H-.557V1.309H.078Z" transform="translate(0.557)" fill="#2b2e34"/>
      </g>
    </g>
    <path id="Path_103" data-name="Path 103" d="M76.588-15.512h.8V-16.4h-.8Zm0-.892,0,6.426h.8v-4.663h-.8Z" transform="translate(10.709 19.297)" fill="#2b2e34"/>
    <g id="Group_91" data-name="Group 91" transform="translate(88.761 4.634)">
      <path id="Path_104" data-name="Path 104" d="M.112,0,1.364,3.815,2.666,0h.863L1.765,4.686H.926L-.8,0Z" transform="translate(0.802)" fill="#2b2e34"/>
    </g>
    <g id="Group_94" data-name="Group 94" transform="translate(0 -154.409)" clip-path="url(#clip-path)">
      <g id="Group_92" data-name="Group 92" transform="translate(93.501 158.939)">
        <path id="Path_105" data-name="Path 105" d="M.388.029A1.769,1.769,0,0,1,1.1.634a2.1,2.1,0,0,1,.312.826A5.4,5.4,0,0,1,1.48,2.493H-1.928a2.026,2.026,0,0,0,.334,1.148,1.114,1.114,0,0,0,.968.432A1.241,1.241,0,0,0,.35,3.664a1.392,1.392,0,0,0,.29-.549h.774a1.619,1.619,0,0,1-.2.577,2.064,2.064,0,0,1-.386.517,1.807,1.807,0,0,1-.881.472,2.589,2.589,0,0,1-.637.071,1.958,1.958,0,0,1-1.475-.636,2.488,2.488,0,0,1-.6-1.783A2.707,2.707,0,0,1-2.164.5a2.006,2.006,0,0,1,1.591-.7A2.111,2.111,0,0,1,.388.029M.67,1.868A2.068,2.068,0,0,0,.449,1.05,1.132,1.132,0,0,0-.622.481a1.187,1.187,0,0,0-.9.391,1.488,1.488,0,0,0-.386,1Z" transform="translate(2.773 0.205)" fill="#2b2e34"/>
      </g>
      <g id="Group_93" data-name="Group 93" transform="translate(28.634 95.306)">
        <path id="Path_106" data-name="Path 106" d="M2.418.259h0a7.012,7.012,0,0,0-2.6-1.59,9.751,9.751,0,0,0-3.228-.522A9.855,9.855,0,0,0-8.271-.778,7.648,7.648,0,0,0-10.621,1.3V-1.232H-17.3V23.01h6.96V9.169c0-3.376,1.454-5.016,4.446-5.016a3.839,3.839,0,0,1,2.829.837c.533.562.8,1.712.8,3.417v14.6H4.752V6.354a9.256,9.256,0,0,0-.625-3.511A7.65,7.65,0,0,0,2.418.259" transform="translate(17.295 1.853)" fill="#ffac2d"/>
      </g>
    </g>
    <path id="Path_108" data-name="Path 108" d="M46.8-46.008h6.96V-70.25H46.8Z" transform="translate(6.545 11.768)" fill="#ffac2d"/>
    <g id="Group_96" data-name="Group 96" transform="translate(0 -154.409)" clip-path="url(#clip-path)">
      <g id="Group_95" data-name="Group 95" transform="translate(0 87.713)">
        <path id="Path_109" data-name="Path 109" d="M2.3,2.641C2.3,6.532.348,8.423-3.671,8.423A4.841,4.841,0,0,1-7.586,6.836,6.6,6.6,0,0,1-8.976,2.4V-10.9c0-3.757-2.353-7.991-7.485-7.991V3.023c0,3.92,1.179,6.877,3.5,8.789,2.3,1.894,5.459,2.855,9.382,2.855,4.241,0,7.57-1.02,9.89-3.029,2.334-2.024,3.52-5.051,3.52-9V-18.887H2.3V2.641Z" transform="translate(16.461 18.887)" fill="#ffac2d"/>
      </g>
    </g>
    <path id="Path_111" data-name="Path 111" d="M46.8-70.925h6.96v-6.53H46.8Z" transform="translate(6.545 10.76)" fill="#ffac2d"/>
    <g id="Group_103" data-name="Group 103" transform="translate(0 -154.409)" clip-path="url(#clip-path)">
      <g id="Group_97" data-name="Group 97" transform="translate(84.987 95.926)">
        <path id="Path_112" data-name="Path 112" d="M1.833,0V14.7a3.757,3.757,0,0,1-1.2,2.878,4.43,4.43,0,0,1-3.2,1.139c-2.447,0-3.586-1.277-3.586-4.017V0h-6.959V15.607a9.476,9.476,0,0,0,.672,3.653,8.353,8.353,0,0,0,1.874,2.8,8.188,8.188,0,0,0,2.852,1.8,10.043,10.043,0,0,0,3.57.621,9,9,0,0,0,4.109-.924A5.72,5.72,0,0,0,1.833,22.1v2.479A19.2,19.2,0,0,1,1.5,28.213a4.5,4.5,0,0,1-.878,1.476,4.042,4.042,0,0,1-1.246.918,3.53,3.53,0,0,1-1.5.319c-.031,0-.06-.006-.092-.006l-.382-.006v6.114l.381,0a12.731,12.731,0,0,0,4.195-.733,10.513,10.513,0,0,0,3.564-2.129,9.861,9.861,0,0,0,2.385-3.425,21.649,21.649,0,0,0,.865-6.25V0Z" transform="translate(13.109)" fill="#ffac2d"/>
      </g>
      <g id="Group_98" data-name="Group 98" transform="translate(62.891 87.714)">
        <path id="Path_113" data-name="Path 113" d="M.842,0H-6.022V22.624a12.749,12.749,0,0,0,.541,3.739A8.189,8.189,0,0,0-3.7,29.514,8.7,8.7,0,0,0-.587,31.66a11.7,11.7,0,0,0,4.538.8,11.25,11.25,0,0,0,4.42-.8,8.6,8.6,0,0,0,3.095-2.173,8.726,8.726,0,0,0,1.8-3.143,15.439,15.439,0,0,0,.568-4.2v-.373L7.3,21.719v.38a5.287,5.287,0,0,1-.809,3.165,2.814,2.814,0,0,1-2.444,1.042,2.714,2.714,0,0,1-2.434-1.054A5.748,5.748,0,0,1,.842,22V13.358H13.828V8.212H.842Z" transform="translate(6.022)" fill="#ffac2d"/>
      </g>
      <g id="Group_99" data-name="Group 99" transform="translate(0 123.831)">
        <path id="Path_114" data-name="Path 114" d="M1.46,1.489a4.476,4.476,0,0,1-1.3,2.439,3.623,3.623,0,0,1-2.5.835A3.373,3.373,0,0,1-5.375,3.228,8.057,8.057,0,0,1-6.409-1.2,8,8,0,0,1-5.362-5.6,3.538,3.538,0,0,1-2.149-7.164a3.573,3.573,0,0,1,2.255.789A3.942,3.942,0,0,1,1.461-4.148l.031.129H5.455L5.436-4.2a7.388,7.388,0,0,0-.711-2.521A6.629,6.629,0,0,0,3.165-8.782,7.23,7.23,0,0,0,.831-10.151a8.705,8.705,0,0,0-3.006-.5,8.568,8.568,0,0,0-3.435.67A7.2,7.2,0,0,0-8.226-8.058,8.644,8.644,0,0,0-9.871-5.012,13.287,13.287,0,0,0-10.442-.99a11.713,11.713,0,0,0,.626,4,8.457,8.457,0,0,0,1.726,2.9A7.021,7.021,0,0,0-5.473,7.684a8.9,8.9,0,0,0,3.246.589A8.054,8.054,0,0,0,.61,7.79,7.063,7.063,0,0,0,2.878,6.421,7.527,7.527,0,0,0,4.5,4.3a10.032,10.032,0,0,0,.934-2.746l.039-.2H1.49Z" transform="translate(10.442 10.647)" fill="#2b2e34"/>
      </g>
      <g id="Group_100" data-name="Group 100" transform="translate(17.383 128.483)">
        <path id="Path_115" data-name="Path 115" d="M.818,1.289C-1.128,1.289-2.075.082-2.075-2.4c0-2.465.947-3.663,2.893-3.663S3.711-4.865,3.711-2.4c0,2.481-.947,3.688-2.893,3.688M5.627-7.359A5.992,5.992,0,0,0,3.552-8.733,7.306,7.306,0,0,0,.818-9.22a7.473,7.473,0,0,0-2.772.487,5.993,5.993,0,0,0-2.1,1.387A6.051,6.051,0,0,0-5.389-5.18,8.089,8.089,0,0,0-5.849-2.4,8.221,8.221,0,0,0-5.4.353,5.994,5.994,0,0,0-4.094,2.52a5.957,5.957,0,0,0,2.1,1.4,7.5,7.5,0,0,0,2.812.5,7.326,7.326,0,0,0,2.721-.488A5.843,5.843,0,0,0,5.627,2.545,6.174,6.174,0,0,0,6.948.393,8.058,8.058,0,0,0,7.407-2.4a8.179,8.179,0,0,0-.459-2.806A6.046,6.046,0,0,0,5.627-7.359" transform="translate(5.849 9.22)" fill="#2b2e34"/>
      </g>
      <g id="Group_101" data-name="Group 101" transform="translate(31.965 128.119)">
        <path id="Path_116" data-name="Path 116" d="M.779.007A3.916,3.916,0,0,0-.282.276,4.092,4.092,0,0,0-1.3.882a3.858,3.858,0,0,0-.622.643V.3H-5.569V13.956h3.863v-7.1c0-2.048,1-3.043,3.044-3.043a5.742,5.742,0,0,1,.944.079l.2.033V-.048H1.851A10.33,10.33,0,0,0,.779.007" transform="translate(5.569 0.048)" fill="#2b2e34"/>
      </g>
      <g id="Group_102" data-name="Group 102" transform="translate(41.356 128.119)">
        <path id="Path_117" data-name="Path 117" d="M1.167.887c0,2.708-.954,4.025-2.919,4.025-1.907,0-2.835-1.389-2.835-4.246a4.2,4.2,0,0,1,.831-2.708A2.491,2.491,0,0,1-1.724-3.055,2.457,2.457,0,0,1,.345-1.98,4.7,4.7,0,0,1,1.167.887M3.474-4.342A5.378,5.378,0,0,0,1.543-5.829,5.838,5.838,0,0,0-.894-6.342,4.353,4.353,0,0,0-4.514-4.7l-.021-1.282h-3.81V14.879h3.9V6.549A4.848,4.848,0,0,0-.591,8.337a5.486,5.486,0,0,0,2.443-.529A5.162,5.162,0,0,0,3.671,6.3,6.921,6.921,0,0,0,4.793,4.02a10.351,10.351,0,0,0,.381-2.885,10.123,10.123,0,0,0-.451-3.124A7.188,7.188,0,0,0,3.474-4.342" transform="translate(8.345 6.342)" fill="#2b2e34"/>
      </g>
    </g>
    <path id="Path_119" data-name="Path 119" d="M49.373-29.232H53.4v-3.926H49.373Z" transform="translate(6.904 16.954)" fill="#2b2e34"/>
    <g id="Group_110" data-name="Group 110" transform="translate(0 -154.409)" clip-path="url(#clip-path)">
      <g id="Group_104" data-name="Group 104" transform="translate(13.328 16.159)">
        <path id="Path_120" data-name="Path 120" d="M6.83,2.535c-.464-4.657-2.878-9.2-7.173-13.49-4.636-4.637-9.032-6.777-13.84-7.134-4.91-.365-9.613,1.662-13.973,6.023L-38.2-2.022l-8.65,8.65a7.6,7.6,0,0,0-1.979,4.351,5.956,5.956,0,0,0,2.064,4.733c3.679,3.679,6.577,3.439,10.1-.081L-28.842,7.8l.006.006L-18.6-2.426c3.52-3.519,6.417-3.845,10.1-.166.042.042.076.084.116.127h0A5.88,5.88,0,0,1-6.443,2.14a7.615,7.615,0,0,1-2.01,4.392L-20.044,18.123c-2.349,2.34-4.706,4.695-6.645,6.644l-.214.214h0c-1.779,1.79-3.179,3.211-3.85,3.921-6.355,6.715.659,18.505.659,18.505l31.1-31.1C5.35,11.965,7.308,7.332,6.83,2.535" transform="translate(48.843 18.131)" fill="#2b2e34"/>
      </g>
      <g id="Group_105" data-name="Group 105" transform="translate(0 0)">
        <path id="Path_121" data-name="Path 121" d="M6.594,5A7.583,7.583,0,0,0,8.571.652,5.879,5.879,0,0,0,6.626-3.954h0L6.38-4.2l-.035-.035c-3.6-3.5-6.465-3.145-9.932.321L-13.823,6.32l-.006,0-7.827,7.827c-3.519,3.519-6.417,3.759-10.1.081a5.958,5.958,0,0,1-2.064-4.733c.014-.186.035-.37.066-.554.019-.117.049-.234.075-.351.015-.066.025-.132.042-.2.041-.155.091-.31.144-.464.009-.027.016-.055.025-.082.063-.173.134-.347.212-.52,0-.008.006-.015.009-.022a9.432,9.432,0,0,1,1.4-2.161h0L-31.8,5.1-20.213-6.492c2.349-2.34,4.706-4.695,6.644-6.644l.215-.214h0c1.778-1.788,3.178-3.21,3.85-3.921,6.355-6.715-.659-18.505-.659-18.505l-31.1,31.1C-45.607-.334-47.565,4.3-47.086,9.1c.464,4.657,2.878,9.2,7.172,13.491,4.637,4.636,9.033,6.777,13.84,7.133,4.912.365,9.613-1.662,13.974-6.023Z" transform="translate(47.157 35.778)" fill="#ffac2d"/>
      </g>
      <g id="Group_106" data-name="Group 106" transform="translate(0 169.228)">
        <path id="Path_122" data-name="Path 122" d="M0,.013H.748V.822A1.789,1.789,0,0,1,1.2.247a1.166,1.166,0,0,1,.826-.339c.015,0,.04,0,.074,0s.095.008.18.017V.761A1,1,0,0,0,2.15.743c-.039,0-.082,0-.129,0a1.123,1.123,0,0,0-.914.383A1.335,1.335,0,0,0,.788,2V4.7H0Z" transform="translate(0 0.092)" fill="#2b2e34"/>
      </g>
      <g id="Group_107" data-name="Group 107" transform="translate(2.695 169.228)">
        <path id="Path_123" data-name="Path 123" d="M.388.029A1.785,1.785,0,0,1,1.1.634a2.1,2.1,0,0,1,.312.828,5.4,5.4,0,0,1,.07,1.032H-1.928a2.015,2.015,0,0,0,.334,1.148,1.114,1.114,0,0,0,.968.432,1.241,1.241,0,0,0,.976-.408A1.407,1.407,0,0,0,.64,3.114h.774a1.647,1.647,0,0,1-.2.577,2.061,2.061,0,0,1-.385.517,1.818,1.818,0,0,1-.881.473,2.658,2.658,0,0,1-.638.07,1.956,1.956,0,0,1-1.474-.636,2.488,2.488,0,0,1-.6-1.783A2.7,2.7,0,0,1-2.164.5a2,2,0,0,1,1.591-.7A2.111,2.111,0,0,1,.388.029m.282,1.84A2.049,2.049,0,0,0,.448,1.05,1.13,1.13,0,0,0-.623.481a1.184,1.184,0,0,0-.9.391,1.482,1.482,0,0,0-.386,1Z" transform="translate(2.773 0.205)" fill="#2b2e34"/>
      </g>
      <g id="Group_108" data-name="Group 108" transform="translate(7.879 169.219)">
        <path id="Path_124" data-name="Path 124" d="M0,.017H.771V.638A1.917,1.917,0,0,1,1.288.143a1.672,1.672,0,0,1,.938-.262A1.768,1.768,0,0,1,3.582.492a2.5,2.5,0,0,1,.556,1.743,2.671,2.671,0,0,1-.8,2.187,1.821,1.821,0,0,1-1.185.416,1.615,1.615,0,0,1-.892-.233,2.065,2.065,0,0,1-.47-.45V6.549H0ZM2.964,3.689a2.195,2.195,0,0,0,.367-1.38,2.566,2.566,0,0,0-.163-.962A1.12,1.12,0,0,0,2.044.573,1.119,1.119,0,0,0,.92,1.39,3.232,3.232,0,0,0,.757,2.5a2.344,2.344,0,0,0,.163.923,1.119,1.119,0,0,0,1.124.726,1.129,1.129,0,0,0,.92-.462" transform="translate(0 0.119)" fill="#2b2e34"/>
      </g>
      <g id="Group_109" data-name="Group 109" transform="translate(12.709 169.219)">
        <path id="Path_125" data-name="Path 125" d="M.335.241A.429.429,0,0,0,.7.013a.707.707,0,0,0,.051-.3A.644.644,0,0,0,.465-.876a1.527,1.527,0,0,0-.82-.182,1.032,1.032,0,0,0-.872.335,1.087,1.087,0,0,0-.188.549H-2.15a1.362,1.362,0,0,1,.561-1.209,2.3,2.3,0,0,1,1.253-.34,2.549,2.549,0,0,1,1.342.315,1.07,1.07,0,0,1,.511.98v2.7a.342.342,0,0,0,.051.2.243.243,0,0,0,.212.074c.034,0,.074,0,.117-.006s.09-.011.14-.021V3.1a2.022,2.022,0,0,1-.279.066,1.989,1.989,0,0,1-.263.014A.65.65,0,0,1,.9,2.889a1.127,1.127,0,0,1-.136-.434A2.006,2.006,0,0,1,.077,3a2.135,2.135,0,0,1-.994.231,1.472,1.472,0,0,1-1.065-.4,1.309,1.309,0,0,1-.414-.989A1.275,1.275,0,0,1-1.988.839,1.936,1.936,0,0,1-.921.4ZM-1.324,2.368a.927.927,0,0,0,.592.2,1.8,1.8,0,0,0,.8-.191A1.081,1.081,0,0,0,.728,1.328V.695a1.342,1.342,0,0,1-.37.154A3.237,3.237,0,0,1-.088.936L-.563,1a1.84,1.84,0,0,0-.644.18.7.7,0,0,0-.366.654.65.65,0,0,0,.25.537" transform="translate(2.395 1.723)" fill="#2b2e34"/>
      </g>
    </g>
    <path id="Path_127" data-name="Path 127" d="M15.713-6.484h.8v-.892h-.8Zm0-.892,0,6.425h.8V-5.614h-.8Z" transform="translate(2.197 20.559)" fill="#2b2e34"/>
    <g id="Group_115" data-name="Group 115" transform="translate(0 -154.409)" clip-path="url(#clip-path)">
      <g id="Group_111" data-name="Group 111" transform="translate(19.924 169.228)">
        <path id="Path_128" data-name="Path 128" d="M0,.013H.748V.822A1.789,1.789,0,0,1,1.2.247a1.168,1.168,0,0,1,.826-.339c.015,0,.04,0,.074,0s.095.008.18.017V.761A1,1,0,0,0,2.15.743c-.039,0-.082,0-.129,0a1.123,1.123,0,0,0-.914.383A1.335,1.335,0,0,0,.788,2V4.7H0Z" transform="translate(0 0.092)" fill="#2b2e34"/>
      </g>
      <g id="Group_112" data-name="Group 112" transform="translate(22.597 169.211)">
        <path id="Path_129" data-name="Path 129" d="M.093.409a1.117,1.117,0,0,0,.2.6,1.276,1.276,0,0,0,1.053.381,1.585,1.585,0,0,0,.786-.19.63.63,0,0,0,.34-.588A.5.5,0,0,0,2.2.156a3.191,3.191,0,0,0-.685-.223L.88-.225a3.078,3.078,0,0,1-.9-.332.991.991,0,0,1-.516-.885A1.34,1.34,0,0,1-.047-2.517a1.947,1.947,0,0,1,1.305-.411,1.826,1.826,0,0,1,1.548.62,1.339,1.339,0,0,1,.288.849H2.35a.884.884,0,0,0-.193-.482,1.245,1.245,0,0,0-.962-.31A1.173,1.173,0,0,0,.5-2.08a.529.529,0,0,0-.235.448.552.552,0,0,0,.31.489A1.891,1.891,0,0,0,1.1-.95l.531.127a4.127,4.127,0,0,1,1.159.4,1.055,1.055,0,0,1,.459.949A1.442,1.442,0,0,1,2.771,1.6a2.065,2.065,0,0,1-1.465.455,1.975,1.975,0,0,1-1.5-.474A1.784,1.784,0,0,1-.664.409Z" transform="translate(0.664 2.928)" fill="#2b2e34"/>
      </g>
      <g id="Group_113" data-name="Group 113" transform="translate(29.666 167.6)">
        <path id="Path_130" data-name="Path 130" d="M.111.252A1.544,1.544,0,0,1-.026-.364a1.376,1.376,0,0,1,.418-1.03A1.53,1.53,0,0,1,1.513-1.8a1.4,1.4,0,0,1,1.043.38,1.254,1.254,0,0,1,.375.911A1.634,1.634,0,0,1,2.543.566a3.641,3.641,0,0,1-.758.626l1.167,1.4q.116-.349.162-.522c.03-.115.06-.277.092-.483h.748a4.777,4.777,0,0,1-.3,1.183c-.147.377-.221.53-.221.456L4.576,4.614H3.562l-.6-.735a3.129,3.129,0,0,1-.653.569,2.257,2.257,0,0,1-1.195.315,1.8,1.8,0,0,1-1.452-.54A1.846,1.846,0,0,1-.793,3a1.759,1.759,0,0,1,.441-1.22A4.786,4.786,0,0,1,.656,1.04,3.317,3.317,0,0,1,.111.252M2,3.848a1.818,1.818,0,0,0,.536-.5L1.091,1.578a4.379,4.379,0,0,0-.8.63,1.173,1.173,0,0,0-.287.8A.92.92,0,0,0,.376,3.8a1.312,1.312,0,0,0,.794.275A1.515,1.515,0,0,0,2,3.848M1.941.206A.991.991,0,0,0,2.2-.453a.7.7,0,0,0-.187-.489.645.645,0,0,0-.5-.205.706.706,0,0,0-.669.323.712.712,0,0,0-.1.362A.976.976,0,0,0,.886.048a4.719,4.719,0,0,0,.489.634A3.362,3.362,0,0,0,1.941.206" transform="translate(0.793 1.804)" fill="#2b2e34"/>
      </g>
      <g id="Group_114" data-name="Group 114" transform="translate(38.001 169.197)">
        <path id="Path_131" data-name="Path 131" d="M.419.047a1.847,1.847,0,0,1,.6,1.326H.25A1.414,1.414,0,0,0-.069.653a1.011,1.011,0,0,0-.8-.286A1.108,1.108,0,0,0-1.946,1.1a2.933,2.933,0,0,0-.21,1.175,2.208,2.208,0,0,0,.3,1.184,1.019,1.019,0,0,0,.936.481,1.026,1.026,0,0,0,.777-.3,1.63,1.63,0,0,0,.4-.817h.766A2.055,2.055,0,0,1,.36,4.188a2.048,2.048,0,0,1-1.343.431,1.8,1.8,0,0,1-1.466-.671A2.571,2.571,0,0,1-3,2.27,2.822,2.822,0,0,1-2.4.349,1.935,1.935,0,0,1-.869-.338,2.042,2.042,0,0,1,.419.047" transform="translate(2.996 0.338)" fill="#2b2e34"/>
      </g>
    </g>
    <path id="Path_133" data-name="Path 133" d="M37.569-.951h.788V-7.377h-.788Z" transform="translate(5.253 20.559)" fill="#2b2e34"/>
    <g id="Group_117" data-name="Group 117" transform="translate(0 -154.409)" clip-path="url(#clip-path)">
      <g id="Group_116" data-name="Group 116" transform="translate(44.572 169.219)">
        <path id="Path_134" data-name="Path 134" d="M.335.241A.429.429,0,0,0,.7.013a.707.707,0,0,0,.051-.3A.644.644,0,0,0,.465-.876a1.527,1.527,0,0,0-.82-.182,1.032,1.032,0,0,0-.872.335,1.087,1.087,0,0,0-.188.549h-.736a1.365,1.365,0,0,1,.562-1.209,2.3,2.3,0,0,1,1.253-.34,2.549,2.549,0,0,1,1.342.315,1.07,1.07,0,0,1,.511.98v2.7a.342.342,0,0,0,.051.2.243.243,0,0,0,.212.074c.034,0,.074,0,.117-.006s.09-.011.14-.021V3.1a2.022,2.022,0,0,1-.279.066,1.989,1.989,0,0,1-.263.014A.65.65,0,0,1,.9,2.889a1.127,1.127,0,0,1-.136-.434A2,2,0,0,1,.077,3a2.135,2.135,0,0,1-.994.231,1.472,1.472,0,0,1-1.065-.4,1.309,1.309,0,0,1-.414-.989A1.275,1.275,0,0,1-1.988.839,1.936,1.936,0,0,1-.921.4ZM-1.324,2.368a.927.927,0,0,0,.592.2,1.8,1.8,0,0,0,.8-.191A1.082,1.082,0,0,0,.729,1.328V.695A1.366,1.366,0,0,1,.358.848,3.237,3.237,0,0,1-.088.936L-.563,1a1.84,1.84,0,0,0-.644.18.7.7,0,0,0-.366.654.65.65,0,0,0,.25.537" transform="translate(2.395 1.723)" fill="#2b2e34"/>
      </g>
    </g>
    <path id="Path_136" data-name="Path 136" d="M43.668-6.484h.8v-.892h-.8Zm0-.892,0,6.425h.8V-5.614h-.8Z" transform="translate(6.106 20.559)" fill="#2b2e34"/>
    <g id="Group_130" data-name="Group 130" transform="translate(0 -154.409)" clip-path="url(#clip-path)">
      <g id="Group_118" data-name="Group 118" transform="translate(51.765 169.228)">
        <path id="Path_137" data-name="Path 137" d="M0,.013H.779V.677a2.623,2.623,0,0,1,.507-.5A1.52,1.52,0,0,1,2.17-.092a1.383,1.383,0,0,1,.9.276,1.427,1.427,0,0,1,.35.463A1.7,1.7,0,0,1,4.038.089a1.721,1.721,0,0,1,.8-.181A1.3,1.3,0,0,1,6.121.591a2.231,2.231,0,0,1,.184.988V4.7H5.486V1.443A.764.764,0,0,0,5.252.8.932.932,0,0,0,4.681.625a1.137,1.137,0,0,0-.8.31,1.367,1.367,0,0,0-.335,1.038V4.7h-.8V1.641a1.582,1.582,0,0,0-.115-.7A.694.694,0,0,0,1.964.616a1.155,1.155,0,0,0-.812.347,1.7,1.7,0,0,0-.365,1.25V4.7H0Z" transform="translate(0 0.092)" fill="#2b2e34"/>
      </g>
      <g id="Group_119" data-name="Group 119" transform="translate(58.94 169.211)">
        <path id="Path_138" data-name="Path 138" d="M.093.409a1.117,1.117,0,0,0,.2.6,1.276,1.276,0,0,0,1.053.381,1.585,1.585,0,0,0,.786-.19.63.63,0,0,0,.34-.588A.5.5,0,0,0,2.2.156a3.151,3.151,0,0,0-.684-.223L.88-.225a3.1,3.1,0,0,1-.9-.332.992.992,0,0,1-.515-.885A1.34,1.34,0,0,1-.047-2.517a1.947,1.947,0,0,1,1.305-.411,1.826,1.826,0,0,1,1.548.62,1.339,1.339,0,0,1,.288.849H2.35a.884.884,0,0,0-.193-.482,1.245,1.245,0,0,0-.962-.31A1.173,1.173,0,0,0,.5-2.08a.529.529,0,0,0-.235.448.552.552,0,0,0,.31.489A1.886,1.886,0,0,0,1.1-.95l.53.127a4.127,4.127,0,0,1,1.159.4,1.055,1.055,0,0,1,.459.949A1.442,1.442,0,0,1,2.771,1.6a2.067,2.067,0,0,1-1.465.455,1.975,1.975,0,0,1-1.5-.474A1.784,1.784,0,0,1-.664.409Z" transform="translate(0.664 2.928)" fill="#2b2e34"/>
      </g>
      <g id="Group_120" data-name="Group 120" transform="translate(66.197 169.228)">
        <path id="Path_139" data-name="Path 139" d="M0,.013H.78V.677a2.592,2.592,0,0,1,.507-.5A1.518,1.518,0,0,1,2.17-.092a1.383,1.383,0,0,1,.9.276,1.411,1.411,0,0,1,.35.463A1.7,1.7,0,0,1,4.038.089a1.725,1.725,0,0,1,.8-.181A1.3,1.3,0,0,1,6.121.591a2.231,2.231,0,0,1,.184.988V4.7H5.486V1.443A.76.76,0,0,0,5.252.8.929.929,0,0,0,4.681.625a1.141,1.141,0,0,0-.8.31,1.371,1.371,0,0,0-.334,1.038V4.7h-.8V1.641a1.6,1.6,0,0,0-.114-.7A.7.7,0,0,0,1.965.616a1.155,1.155,0,0,0-.812.347,1.691,1.691,0,0,0-.366,1.25V4.7H0Z" transform="translate(0 0.092)" fill="#2b2e34"/>
      </g>
      <g id="Group_121" data-name="Group 121" transform="translate(73.443 169.219)">
        <path id="Path_140" data-name="Path 140" d="M.335.241A.429.429,0,0,0,.7.013a.707.707,0,0,0,.051-.3A.644.644,0,0,0,.465-.876a1.527,1.527,0,0,0-.82-.182,1.032,1.032,0,0,0-.872.335,1.087,1.087,0,0,0-.188.549H-2.15a1.362,1.362,0,0,1,.561-1.209,2.3,2.3,0,0,1,1.253-.34,2.549,2.549,0,0,1,1.342.315,1.07,1.07,0,0,1,.511.98v2.7a.342.342,0,0,0,.051.2.243.243,0,0,0,.212.074c.034,0,.074,0,.117-.006s.09-.011.14-.021V3.1a2.022,2.022,0,0,1-.279.066,1.989,1.989,0,0,1-.263.014A.65.65,0,0,1,.9,2.889a1.127,1.127,0,0,1-.136-.434A1.989,1.989,0,0,1,.076,3a2.127,2.127,0,0,1-.993.231,1.472,1.472,0,0,1-1.065-.4,1.309,1.309,0,0,1-.414-.989A1.275,1.275,0,0,1-1.988.839,1.936,1.936,0,0,1-.921.4ZM-1.324,2.368a.927.927,0,0,0,.592.2,1.8,1.8,0,0,0,.8-.191A1.081,1.081,0,0,0,.728,1.328V.695a1.342,1.342,0,0,1-.37.154A3.237,3.237,0,0,1-.088.936L-.563,1a1.84,1.84,0,0,0-.644.18.7.7,0,0,0-.366.654.647.647,0,0,0,.25.537" transform="translate(2.395 1.723)" fill="#2b2e34"/>
      </g>
      <g id="Group_122" data-name="Group 122" transform="translate(78.645 169.228)">
        <path id="Path_141" data-name="Path 141" d="M0,.013H.748V.677a2.117,2.117,0,0,1,.7-.59A1.878,1.878,0,0,1,2.28-.092,1.363,1.363,0,0,1,3.627.6,2.459,2.459,0,0,1,3.82,1.692V4.7h-.8V1.745a1.607,1.607,0,0,0-.127-.692A.772.772,0,0,0,2.13.616a1.559,1.559,0,0,0-.459.057,1.194,1.194,0,0,0-.569.385,1.158,1.158,0,0,0-.255.479,3.192,3.192,0,0,0-.059.707V4.7H0Z" transform="translate(0 0.092)" fill="#2b2e34"/>
      </g>
      <g id="Group_123" data-name="Group 123" transform="translate(83.409 169.219)">
        <path id="Path_142" data-name="Path 142" d="M.335.241A.429.429,0,0,0,.7.013a.707.707,0,0,0,.051-.3A.644.644,0,0,0,.465-.876a1.527,1.527,0,0,0-.82-.182,1.032,1.032,0,0,0-.872.335,1.087,1.087,0,0,0-.188.549H-2.15a1.362,1.362,0,0,1,.561-1.209,2.3,2.3,0,0,1,1.253-.34,2.549,2.549,0,0,1,1.342.315,1.07,1.07,0,0,1,.511.98v2.7a.342.342,0,0,0,.051.2.243.243,0,0,0,.212.074c.034,0,.074,0,.117-.006s.09-.011.14-.021V3.1a2.022,2.022,0,0,1-.279.066,1.989,1.989,0,0,1-.263.014A.65.65,0,0,1,.9,2.889a1.127,1.127,0,0,1-.136-.434A1.989,1.989,0,0,1,.076,3a2.127,2.127,0,0,1-.993.231,1.472,1.472,0,0,1-1.065-.4,1.309,1.309,0,0,1-.414-.989A1.275,1.275,0,0,1-1.988.839,1.936,1.936,0,0,1-.921.4ZM-1.324,2.368a.927.927,0,0,0,.592.2,1.8,1.8,0,0,0,.8-.191A1.081,1.081,0,0,0,.728,1.328V.695a1.342,1.342,0,0,1-.37.154A3.237,3.237,0,0,1-.088.936L-.563,1a1.84,1.84,0,0,0-.644.18.7.7,0,0,0-.366.654.647.647,0,0,0,.25.537" transform="translate(2.395 1.723)" fill="#2b2e34"/>
      </g>
      <g id="Group_124" data-name="Group 124" transform="translate(88.3 169.25)">
        <path id="Path_143" data-name="Path 143" d="M.358.033A2.148,2.148,0,0,1,.811.479v-.59h.726V4.15a3.169,3.169,0,0,1-.261,1.409,1.88,1.88,0,0,1-1.845.953,2.259,2.259,0,0,1-1.269-.339,1.324,1.324,0,0,1-.576-1.061h.8a.876.876,0,0,0,.226.486,1.146,1.146,0,0,0,.835.263A1.146,1.146,0,0,0,.628,5.222,3.6,3.6,0,0,0,.781,3.879a1.545,1.545,0,0,1-.566.533,1.883,1.883,0,0,1-.875.176,1.868,1.868,0,0,1-1.328-.54,2.383,2.383,0,0,1-.569-1.787A2.712,2.712,0,0,1-1.985.423,1.768,1.768,0,0,1-.6-.238,1.694,1.694,0,0,1,.358.033m.1.845A1.142,1.142,0,0,0-.456.457a1.126,1.126,0,0,0-1.132.779,3.082,3.082,0,0,0-.16,1.09,1.945,1.945,0,0,0,.319,1.206,1.029,1.029,0,0,0,.859.413A1.207,1.207,0,0,0,.62,3.179,2.484,2.484,0,0,0,.811,2.168,1.964,1.964,0,0,0,.455.878" transform="translate(2.558 0.238)" fill="#2b2e34"/>
      </g>
      <g id="Group_125" data-name="Group 125" transform="translate(93.327 169.228)">
        <path id="Path_144" data-name="Path 144" d="M.388.029A1.785,1.785,0,0,1,1.1.634a2.1,2.1,0,0,1,.312.828A5.381,5.381,0,0,1,1.48,2.493H-1.928a2.015,2.015,0,0,0,.334,1.148,1.114,1.114,0,0,0,.968.432A1.245,1.245,0,0,0,.35,3.665a1.4,1.4,0,0,0,.29-.551h.774a1.642,1.642,0,0,1-.2.577,2.091,2.091,0,0,1-.386.517,1.818,1.818,0,0,1-.881.473,2.658,2.658,0,0,1-.638.07,1.956,1.956,0,0,1-1.474-.636,2.488,2.488,0,0,1-.6-1.783A2.707,2.707,0,0,1-2.164.5a2,2,0,0,1,1.591-.7A2.111,2.111,0,0,1,.388.029M.67,1.868A2.067,2.067,0,0,0,.448,1.05,1.13,1.13,0,0,0-.623.481a1.186,1.186,0,0,0-.9.391,1.482,1.482,0,0,0-.386,1Z" transform="translate(2.773 0.205)" fill="#2b2e34"/>
      </g>
      <g id="Group_126" data-name="Group 126" transform="translate(98.577 169.228)">
        <path id="Path_145" data-name="Path 145" d="M0,.013H.779V.677a2.623,2.623,0,0,1,.507-.5A1.52,1.52,0,0,1,2.17-.092a1.383,1.383,0,0,1,.9.276,1.427,1.427,0,0,1,.35.463A1.7,1.7,0,0,1,4.038.089a1.721,1.721,0,0,1,.8-.181A1.3,1.3,0,0,1,6.121.591a2.231,2.231,0,0,1,.184.988V4.7H5.486V1.443A.764.764,0,0,0,5.252.8.929.929,0,0,0,4.681.625a1.137,1.137,0,0,0-.8.31,1.371,1.371,0,0,0-.335,1.038V4.7h-.8V1.641a1.582,1.582,0,0,0-.115-.7A.694.694,0,0,0,1.964.616a1.155,1.155,0,0,0-.812.347,1.7,1.7,0,0,0-.365,1.25V4.7H0Z" transform="translate(0 0.092)" fill="#2b2e34"/>
      </g>
      <g id="Group_127" data-name="Group 127" transform="translate(105.773 169.228)">
        <path id="Path_146" data-name="Path 146" d="M.388.029A1.785,1.785,0,0,1,1.1.634a2.1,2.1,0,0,1,.312.828,5.4,5.4,0,0,1,.07,1.032H-1.928a2.015,2.015,0,0,0,.334,1.148,1.114,1.114,0,0,0,.968.432A1.245,1.245,0,0,0,.35,3.665a1.4,1.4,0,0,0,.29-.551h.774a1.647,1.647,0,0,1-.2.577,2.089,2.089,0,0,1-.385.517,1.818,1.818,0,0,1-.881.473,2.658,2.658,0,0,1-.638.07,1.954,1.954,0,0,1-1.474-.636,2.489,2.489,0,0,1-.605-1.783A2.7,2.7,0,0,1-2.164.5a2,2,0,0,1,1.59-.7A2.112,2.112,0,0,1,.388.029m.282,1.84A2.049,2.049,0,0,0,.448,1.05,1.13,1.13,0,0,0-.623.481a1.184,1.184,0,0,0-.9.391,1.482,1.482,0,0,0-.386,1Z" transform="translate(2.774 0.205)" fill="#2b2e34"/>
      </g>
      <g id="Group_128" data-name="Group 128" transform="translate(111.024 169.228)">
        <path id="Path_147" data-name="Path 147" d="M0,.013H.748V.677a2.117,2.117,0,0,1,.7-.59A1.882,1.882,0,0,1,2.28-.092,1.363,1.363,0,0,1,3.627.6,2.459,2.459,0,0,1,3.82,1.692V4.7h-.8V1.745a1.607,1.607,0,0,0-.127-.692A.772.772,0,0,0,2.13.616a1.559,1.559,0,0,0-.459.057,1.194,1.194,0,0,0-.569.385,1.158,1.158,0,0,0-.255.479,3.192,3.192,0,0,0-.059.707V4.7H0Z" transform="translate(0 0.092)" fill="#2b2e34"/>
      </g>
      <g id="Group_129" data-name="Group 129" transform="translate(115.529 168.025)">
        <path id="Path_148" data-name="Path 148" d="M.078,0h.8V1.309h.748v.643H.875V5.008a.332.332,0,0,0,.165.329.718.718,0,0,0,.307.048q.056,0,.123,0c.043,0,.095-.007.153-.015v.626a1.76,1.76,0,0,1-.282.057,2.761,2.761,0,0,1-.318.017.853.853,0,0,1-.748-.282,1.251,1.251,0,0,1-.2-.733v-3.1H-.557V1.309H.078Z" transform="translate(0.557)" fill="#2b2e34"/>
      </g>
    </g>
  </g>
</svg>
