<svg xmlns="http://www.w3.org/2000/svg" xmlns:xlink="http://www.w3.org/1999/xlink" width="226.203" height="98.453" viewBox="0 0 226.203 98.453">
  <defs>
    <clipPath id="clip-path">
      <path id="Path_185" data-name="Path 185" d="M0,36.856H226.2V-61.6H0Z" transform="translate(0 61.597)" fill="none"/>
    </clipPath>
  </defs>
  <g id="Group_252" data-name="Group 252" transform="translate(0 61.597)">
    <g id="Group_263" data-name="Group 263" transform="translate(0 -61.597)" clip-path="url(#clip-path)">
      <g id="Group_262" data-name="Group 262" transform="translate(131.902 22.821)">
        <path id="Path_184" data-name="Path 184" d="M8.893.953h0A8.439,8.439,0,0,0,5.762-.963a11.761,11.761,0,0,0-3.889-.63A11.874,11.874,0,0,0-3.988-.3,9.2,9.2,0,0,0-6.82,2.209V-.843h-8.043V28.369h8.388V11.691c0-4.068,1.752-6.046,5.356-6.046A4.632,4.632,0,0,1,2.292,6.653c.643.678.969,2.063.969,4.119v17.6h8.446V8.3a11.149,11.149,0,0,0-.754-4.231A9.2,9.2,0,0,0,8.893.953" transform="translate(14.863 1.593)" fill="#ffac2d"/>
      </g>
    </g>
    <path id="Path_186" data-name="Path 186" d="M101.158-17.637h8.386V-46.851h-8.386Z" transform="translate(60.526 8.823)" fill="#ffac2d"/>
    <g id="Group_265" data-name="Group 265" transform="translate(0 -61.597)" clip-path="url(#clip-path)">
      <g id="Group_264" data-name="Group 264" transform="translate(97.396 13.672)">
        <path id="Path_187" data-name="Path 187" d="M8.464,9.712c0,4.69-2.354,6.969-7.2,6.969a5.836,5.836,0,0,1-4.718-1.913A7.946,7.946,0,0,1-5.127,9.424V-6.6c0-4.528-2.834-9.63-9.019-9.63v26.4c0,4.723,1.421,8.287,4.221,10.592C-7.15,23.046-3.346,24.2,1.382,24.2c5.111,0,9.122-1.229,11.919-3.649,2.813-2.441,4.242-6.086,4.242-10.843V-16.231H8.464V9.712Z" transform="translate(14.146 16.231)" fill="#ffac2d"/>
      </g>
    </g>
    <path id="Path_189" data-name="Path 189" d="M101.158-45.173h8.388v-7.87h-8.388Z" transform="translate(60.526 5.118)" fill="#ffac2d"/>
    <g id="Group_271" data-name="Group 271" transform="translate(0 -61.597)" clip-path="url(#clip-path)">
      <g id="Group_266" data-name="Group 266" transform="translate(199.809 23.57)">
        <path id="Path_190" data-name="Path 190" d="M6.741,0V17.713A4.523,4.523,0,0,1,5.3,21.181a5.339,5.339,0,0,1-3.858,1.371c-2.947,0-4.32-1.538-4.32-4.84V0h-8.386V18.808a11.419,11.419,0,0,0,.81,4.4A10.09,10.09,0,0,0-8.2,26.58a9.911,9.911,0,0,0,3.436,2.174,12.148,12.148,0,0,0,4.3.746,10.85,10.85,0,0,0,4.952-1.112,6.89,6.89,0,0,0,2.247-1.753v2.987A23.082,23.082,0,0,1,6.338,34,5.388,5.388,0,0,1,5.28,35.777a4.891,4.891,0,0,1-1.5,1.106,4.291,4.291,0,0,1-1.806.385c-.037,0-.072-.006-.112-.008l-.46-.006v7.368l.46-.006a15.392,15.392,0,0,0,5.054-.882,12.668,12.668,0,0,0,4.295-2.567,11.89,11.89,0,0,0,2.874-4.127c.69-1.624,1.042-5.487,1.042-7.531V0Z" transform="translate(11.266)" fill="#ffac2d"/>
      </g>
      <g id="Group_267" data-name="Group 267" transform="translate(173.183 13.673)">
        <path id="Path_191" data-name="Path 191" d="M3.1,0H-5.176V27.264a15.4,15.4,0,0,0,.654,4.506,9.89,9.89,0,0,0,2.14,3.8,10.5,10.5,0,0,0,3.756,2.586,14.1,14.1,0,0,0,5.468.957,13.55,13.55,0,0,0,5.327-.957A10.359,10.359,0,0,0,15.9,35.534a10.525,10.525,0,0,0,2.164-3.786,18.645,18.645,0,0,0,.684-5.06v-.449l-7.87-.066v.459A6.366,6.366,0,0,1,9.9,30.445,3.39,3.39,0,0,1,6.957,31.7a3.271,3.271,0,0,1-2.933-1.269A6.929,6.929,0,0,1,3.1,26.516V16.1H18.746V9.9H3.1Z" transform="translate(5.176)" fill="#ffac2d"/>
      </g>
      <g id="Group_268" data-name="Group 268" transform="translate(16.061 19.472)">
        <path id="Path_192" data-name="Path 192" d="M25.115,9.323c-.559-5.612-3.468-11.081-8.644-16.257C10.885-12.52,5.586-15.1-.206-15.531c-5.919-.438-11.585,2-16.84,7.26l-12.1,12.1L-39.575,14.255A9.149,9.149,0,0,0-41.958,19.5a7.183,7.183,0,0,0,2.487,5.7c4.434,4.432,7.926,4.143,12.167-.1l9.432-9.432.006.006L-5.532,3.343C-1.291-.9,2.2-1.29,6.635,3.144c.05.051.091.1.141.152h0A7.1,7.1,0,0,1,9.122,8.846,9.171,9.171,0,0,1,6.7,14.139L-7.271,28.108c-2.831,2.819-5.671,5.658-8.006,8.006l-.259.259v0c-2.143,2.155-3.83,3.868-4.64,4.725-7.656,8.092.794,22.3.794,22.3L18.1,25.918c5.233-5.231,7.594-10.816,7.017-16.6" transform="translate(41.974 15.581)" fill="#fff"/>
      </g>
      <g id="Group_269" data-name="Group 269" transform="translate(0 -0.001)">
        <path id="Path_193" data-name="Path 193" d="M24.248,18.4a9.139,9.139,0,0,0,2.383-5.243A7.091,7.091,0,0,0,24.286,7.6h0l-.3-.3-.042-.043c-4.339-4.224-7.792-3.791-11.968.387L-.357,19.986l0-.006-9.433,9.432c-4.24,4.24-7.733,4.531-12.165.1a7.176,7.176,0,0,1-2.487-5.7c.016-.224.042-.446.078-.667.024-.142.059-.283.091-.424.018-.08.03-.158.051-.238.048-.187.109-.372.173-.559.011-.032.019-.066.03-.1.075-.209.161-.419.256-.628,0-.008.006-.016.011-.026a11.42,11.42,0,0,1,1.693-2.6h0c.013-.016.026-.032.038-.05L-8.056,4.546c2.831-2.821,5.671-5.66,8.008-8.008l.259-.259h0c2.143-2.156,3.83-3.87,4.64-4.725,7.658-8.092-.793-22.3-.793-22.3L-33.425,6.734c-5.233,5.233-7.592,10.816-7.017,16.6.561,5.613,3.468,11.081,8.644,16.257,5.588,5.588,10.885,8.167,16.679,8.6,5.919.44,11.585-2,16.838-7.258Z" transform="translate(40.526 30.747)" fill="#ffac2d"/>
      </g>
      <g id="Group_270" data-name="Group 270" transform="translate(97.585 59.53)">
        <path id="Path_194" data-name="Path 194" d="M2.146,2.165A2.219,2.219,0,0,1,1.5,3.383a1.809,1.809,0,0,1-1.256.424,1.713,1.713,0,0,1-1.534-.777A3.946,3.946,0,0,1-1.806.851a3.918,3.918,0,0,1,.518-2.166A1.8,1.8,0,0,1,.327-2.1a1.785,1.785,0,0,1,1.136.4A1.962,1.962,0,0,1,2.146-.588H3.9a3.462,3.462,0,0,0-.334-1.188,3.122,3.122,0,0,0-.732-.965,3.39,3.39,0,0,0-1.1-.644A4.083,4.083,0,0,0,.315-3.618,4.046,4.046,0,0,0-1.308-3.3a3.383,3.383,0,0,0-1.231.9A4.055,4.055,0,0,0-3.315-.96,6.293,6.293,0,0,0-3.587.953a5.537,5.537,0,0,0,.3,1.9,3.994,3.994,0,0,0,.814,1.37,3.291,3.291,0,0,0,1.232.833,4.18,4.18,0,0,0,1.534.278,3.778,3.778,0,0,0,1.338-.227A3.317,3.317,0,0,0,2.7,4.463a3.569,3.569,0,0,0,.764-1,4.762,4.762,0,0,0,.441-1.3ZM6.313-3.442H4.672V5.043H6.313Zm0,8.486M11.15,2.683a1.183,1.183,0,0,1-.12.524,1.444,1.444,0,0,1-.783.719,1.575,1.575,0,0,1-.587.107q-.8,0-.8-.694a.746.746,0,0,1,.265-.619,2.332,2.332,0,0,1,.972-.355,6.638,6.638,0,0,0,.7-.163.893.893,0,0,0,.366-.2ZM12.8,5.043V1.116A3.6,3.6,0,0,0,12.665.076a1.8,1.8,0,0,0-.449-.77,2.014,2.014,0,0,0-.82-.475,4.131,4.131,0,0,0-1.244-.163,4.425,4.425,0,0,0-1.263.157,2.2,2.2,0,0,0-.841.449,1.69,1.69,0,0,0-.467.694,2.791,2.791,0,0,0-.158.884H8.952a1.176,1.176,0,0,1,.31-.668,1.1,1.1,0,0,1,.814-.253A1.479,1.479,0,0,1,10.84.1a.527.527,0,0,1,.285.475.532.532,0,0,1-.214.473,2.237,2.237,0,0,1-.834.233q-.619.089-1.143.195a2.87,2.87,0,0,0-.9.336,1.606,1.606,0,0,0-.593.625A2.261,2.261,0,0,0,7.223,3.5a1.625,1.625,0,0,0,.5,1.232,2.225,2.225,0,0,0,1.571.473A2.954,2.954,0,0,0,10.4,5.013a2.05,2.05,0,0,0,.77-.524,2.438,2.438,0,0,0,.1.555Zm2.778-6.213H13.94V5.043h1.641Zm0,6.213,0-8.486H13.94v1.528h1.641Zm0,1.528M25.6,5.043V.737A2.095,2.095,0,0,0,25-.733a1.931,1.931,0,0,0-.668-.443,2.312,2.312,0,0,0-.86-.157,2.03,2.03,0,0,0-1.01.233,1.657,1.657,0,0,0-.668.751A3.532,3.532,0,0,0,21.44-.8a1.744,1.744,0,0,0-.372-.308,1.344,1.344,0,0,0-.441-.171,2.833,2.833,0,0,0-.563-.05A2.285,2.285,0,0,0,19-1.105a1.835,1.835,0,0,0-.758.846v-.909H16.705V5.043h1.641V1.268q0-1.213,1-1.212A1.63,1.63,0,0,1,19.8.113a.648.648,0,0,1,.31.2.85.85,0,0,1,.171.379,3.112,3.112,0,0,1,.05.619V5.043H21.97V1.332a1.489,1.489,0,0,1,.3-.948.915.915,0,0,1,.751-.379.84.84,0,0,1,.706.353,1.5,1.5,0,0,1,.265.922V5.043ZM31.922.712a2.028,2.028,0,0,0-.7-1.526,3.132,3.132,0,0,0-1.988-.518,4.546,4.546,0,0,0-1.207.139,2.334,2.334,0,0,0-.814.384,1.425,1.425,0,0,0-.456.588,1.918,1.918,0,0,0-.137.732,1.749,1.749,0,0,0,.169.77,1.592,1.592,0,0,0,.612.631,3.252,3.252,0,0,0,.809.366q.48.151,1.263.34a3.958,3.958,0,0,1,.7.241.478.478,0,0,1,.3.467.508.508,0,0,1-.328.5,1.882,1.882,0,0,1-.77.145,1.627,1.627,0,0,1-.948-.24.786.786,0,0,1-.34-.682H26.39a1.97,1.97,0,0,0,.79,1.554,3.477,3.477,0,0,0,2.2.606,3.219,3.219,0,0,0,2.027-.543A1.819,1.819,0,0,0,32.1,3.149a1.53,1.53,0,0,0-.265-.953,1.755,1.755,0,0,0-.758-.55,7.494,7.494,0,0,0-.846-.259q-.479-.12-1.01-.272a3.439,3.439,0,0,1-.758-.283A.464.464,0,0,1,28.209.41a.411.411,0,0,1,.253-.4,1.719,1.719,0,0,1,.719-.12,1.487,1.487,0,0,1,.834.184.874.874,0,0,1,.328.636ZM44.459,5.043V-3.341H41.934l-1.515,6.15L38.9-3.341H36.328V5.043h1.629V-.677l1.554,5.72h1.742L42.817-.7V5.043Zm4.824-2.361a1.183,1.183,0,0,1-.12.524,1.472,1.472,0,0,1-.315.428,1.451,1.451,0,0,1-.468.291,1.569,1.569,0,0,1-.587.107q-.8,0-.8-.694a.75.75,0,0,1,.265-.619,2.35,2.35,0,0,1,.973-.355,6.691,6.691,0,0,0,.694-.163A.883.883,0,0,0,49.3,2Zm1.654,2.361V1.116A3.6,3.6,0,0,0,50.8.076a1.8,1.8,0,0,0-.448-.77,2.01,2.01,0,0,0-.822-.475,4.123,4.123,0,0,0-1.243-.163,4.425,4.425,0,0,0-1.263.157,2.186,2.186,0,0,0-.839.449,1.69,1.69,0,0,0-.467.694,2.792,2.792,0,0,0-.158.884h1.528A1.185,1.185,0,0,1,47.4.183,1.1,1.1,0,0,1,48.21-.07,1.483,1.483,0,0,1,48.974.1a.53.53,0,0,1,.285.475.529.529,0,0,1-.216.473,2.216,2.216,0,0,1-.833.233c-.412.059-.794.125-1.143.195a2.855,2.855,0,0,0-.9.336,1.594,1.594,0,0,0-.593.625A2.241,2.241,0,0,0,45.356,3.5a1.625,1.625,0,0,0,.5,1.232,2.227,2.227,0,0,0,1.573.473,2.945,2.945,0,0,0,1.111-.195,2.037,2.037,0,0,0,.77-.524,2.627,2.627,0,0,0,.1.555Zm6.731,0V.737a2.335,2.335,0,0,0-.158-.89A1.93,1.93,0,0,0,57.081-.8a1.753,1.753,0,0,0-.651-.4,2.44,2.44,0,0,0-.822-.133,2.5,2.5,0,0,0-1.237.27,2.007,2.007,0,0,0-.77.8v-.909H52.037V5.043h1.641V1.482q0-1.427,1.275-1.426a1.1,1.1,0,0,1,.82.253,1.442,1.442,0,0,1,.24.972V5.043ZM62.53,2.683a1.183,1.183,0,0,1-.12.524,1.477,1.477,0,0,1-.316.428,1.461,1.461,0,0,1-.467.291,1.583,1.583,0,0,1-.588.107q-.794,0-.794-.694a.746.746,0,0,1,.265-.619,2.332,2.332,0,0,1,.972-.355,6.589,6.589,0,0,0,.694-.163.9.9,0,0,0,.368-.2Zm1.654,2.361V1.116A3.6,3.6,0,0,0,64.045.076a1.8,1.8,0,0,0-.449-.77,2.014,2.014,0,0,0-.82-.475,4.138,4.138,0,0,0-1.244-.163,4.436,4.436,0,0,0-1.264.157,2.186,2.186,0,0,0-.839.449,1.69,1.69,0,0,0-.467.694A2.791,2.791,0,0,0,58.8.851h1.528a1.176,1.176,0,0,1,.31-.668,1.1,1.1,0,0,1,.814-.253A1.479,1.479,0,0,1,62.22.1.527.527,0,0,1,62.5.574a.532.532,0,0,1-.214.473,2.237,2.237,0,0,1-.834.233q-.619.089-1.143.195a2.87,2.87,0,0,0-.9.336,1.594,1.594,0,0,0-.593.625A2.242,2.242,0,0,0,58.6,3.5a1.625,1.625,0,0,0,.5,1.232,2.225,2.225,0,0,0,1.571.473,2.954,2.954,0,0,0,1.112-.195,2.031,2.031,0,0,0,.769-.524,2.524,2.524,0,0,0,.1.555Zm3.074-1.729a2.048,2.048,0,0,1-.4-1.327q0-1.894,1.4-1.894t1.4,2a1.862,1.862,0,0,1-.4,1.256,1.27,1.27,0,0,1-1,.46,1.241,1.241,0,0,1-1-.492m2.356,1.92a1.18,1.18,0,0,1-.456.978,1.732,1.732,0,0,1-1.111.36,1.5,1.5,0,0,1-.991-.308,1.074,1.074,0,0,1-.372-.877H65.156a2.5,2.5,0,0,0,.227,1.085,2.4,2.4,0,0,0,.625.815,2.851,2.851,0,0,0,.954.516,4,4,0,0,0,2.412,0,2.887,2.887,0,0,0,.985-.55,2.541,2.541,0,0,0,.657-.9,3.023,3.023,0,0,0,.24-1.244V-1.169H69.613V-.4a1.921,1.921,0,0,0-1.744-.933,2.424,2.424,0,0,0-1.06.233,2.557,2.557,0,0,0-.858.657A3.169,3.169,0,0,0,65.37.581,3.907,3.907,0,0,0,65.156,1.9,4.843,4.843,0,0,0,65.3,3.087a2.924,2.924,0,0,0,.467,1.023,2.384,2.384,0,0,0,.846.713,2.8,2.8,0,0,0,1.295.272,2.344,2.344,0,0,0,1.068-.233,1.3,1.3,0,0,0,.638-.651Zm4.293-3.9a1.533,1.533,0,0,1,.409-1,1.164,1.164,0,0,1,.854-.361,1.375,1.375,0,0,1,.467.083,1.128,1.128,0,0,1,.4.253,1.248,1.248,0,0,1,.285.428,1.784,1.784,0,0,1,.12.6Zm4.229,1.034A4.39,4.39,0,0,0,77.4-.412a2.626,2.626,0,0,0-2.179-.921,3.441,3.441,0,0,0-1.275.221A2.529,2.529,0,0,0,73-.474a2.825,2.825,0,0,0-.588,1,3.949,3.949,0,0,0-.2,1.3q0,3.383,3.107,3.384a2.859,2.859,0,0,0,1.717-.518,2.726,2.726,0,0,0,1.01-1.477H76.355a.83.83,0,0,1-.4.511,1.385,1.385,0,0,1-.714.182,1.251,1.251,0,0,1-.978-.416,1.774,1.774,0,0,1-.411-1.125Zm9.838,2.677V.737a2.095,2.095,0,0,0-.595-1.47,1.931,1.931,0,0,0-.668-.443,2.312,2.312,0,0,0-.86-.157,2.03,2.03,0,0,0-1.01.233,1.657,1.657,0,0,0-.668.751A3.531,3.531,0,0,0,83.818-.8a1.744,1.744,0,0,0-.372-.308A1.344,1.344,0,0,0,83-1.283a2.833,2.833,0,0,0-.563-.05,2.285,2.285,0,0,0-1.06.227,1.835,1.835,0,0,0-.758.846v-.909H79.084V5.043h1.641V1.268q0-1.213,1-1.212a1.63,1.63,0,0,1,.454.056.648.648,0,0,1,.31.2.85.85,0,0,1,.171.379,3.111,3.111,0,0,1,.05.619V5.043h1.641V1.332a1.489,1.489,0,0,1,.3-.948A.915.915,0,0,1,85.4.005.84.84,0,0,1,86.1.359a1.5,1.5,0,0,1,.265.922V5.043Zm2.562-3.711a1.535,1.535,0,0,1,.411-1A1.161,1.161,0,0,1,91.8-.033a1.384,1.384,0,0,1,.468.083,1.142,1.142,0,0,1,.4.253,1.267,1.267,0,0,1,.283.428,1.709,1.709,0,0,1,.12.6Zm4.231,1.034a4.39,4.39,0,0,0-.738-2.778,2.628,2.628,0,0,0-2.179-.921,3.441,3.441,0,0,0-1.275.221,2.535,2.535,0,0,0-.941.638,2.821,2.821,0,0,0-.587,1,3.948,3.948,0,0,0-.2,1.3q0,3.383,3.106,3.384a2.868,2.868,0,0,0,1.718-.518,2.734,2.734,0,0,0,1.01-1.477H92.986a.833.833,0,0,1-.4.511,1.379,1.379,0,0,1-.713.182,1.251,1.251,0,0,1-.978-.416,1.774,1.774,0,0,1-.411-1.125Zm6.579,2.677V.737a2.335,2.335,0,0,0-.158-.89,1.93,1.93,0,0,0-.428-.651,1.753,1.753,0,0,0-.651-.4,2.447,2.447,0,0,0-.822-.133,2.5,2.5,0,0,0-1.237.27,2.007,2.007,0,0,0-.77.8v-.909H95.713V5.043h1.641V1.482q0-1.427,1.275-1.426a1.1,1.1,0,0,1,.822.253,1.443,1.443,0,0,1,.24.972V5.043Zm4.621-2.474a1.482,1.482,0,0,1-.233.9.845.845,0,0,1-.726.315.816.816,0,0,1-.726-.321,1.6,1.6,0,0,1-.222-.916V-.007h3.435V-1.169h-3.435V-2.848h-1.616V2.708a3.259,3.259,0,0,0,.139.959,2.045,2.045,0,0,0,.449.8,2.214,2.214,0,0,0,.788.543,3,3,0,0,0,1.162.2,2.874,2.874,0,0,0,1.13-.2,2.144,2.144,0,0,0,1.237-1.346,3.011,3.011,0,0,0,.145-.94V.953h-1.528Z" transform="translate(3.587 3.618)" fill="#fff"/>
      </g>
    </g>
  </g>
</svg>
