<svg xmlns="http://www.w3.org/2000/svg" xmlns:xlink="http://www.w3.org/1999/xlink" width="117.503" height="183.795" viewBox="0 0 117.503 183.795"><defs><clipPath id="a"><path d="M0,22.021H117.5V-161.774H0Z" transform="translate(0 161.774)" fill="none"/></clipPath></defs><g transform="translate(0 161.774)"><g transform="translate(0 -161.774)" clip-path="url(#a)"><g transform="translate(28.572 94.957)"><path d="M2.342.251h0A6.946,6.946,0,0,0-.234-1.326a9.647,9.647,0,0,0-3.2-.518A9.765,9.765,0,0,0-8.258-.777a7.558,7.558,0,0,0-2.33,2.062V-1.227h-6.619V22.812h6.9V9.087c0-3.347,1.442-4.975,4.408-4.975a3.814,3.814,0,0,1,2.806.831c.528.558.8,1.7.8,3.389V22.812H4.657V6.3a9.175,9.175,0,0,0-.619-3.481A7.58,7.58,0,0,0,2.342.251" transform="translate(17.207 1.844)" fill="#ffac2d"/></g></g><path d="M46.721-53.612h6.9v-24.04h-6.9Z" transform="translate(6.36 11.451)" fill="#ffac2d"/><g transform="translate(0 -161.774)" clip-path="url(#a)"><g transform="translate(0.177 87.429)"><path d="M2.229,2.558c0,3.859-1.938,5.734-5.923,5.734A4.8,4.8,0,0,1-7.577,6.717a6.54,6.54,0,0,1-1.378-4.4V-10.867c0-3.725-2.332-7.923-7.422-7.923V2.937c0,3.887,1.169,6.819,3.474,8.715,2.284,1.878,5.414,2.831,9.3,2.831,4.207,0,7.506-1.011,9.808-3S9.7,6.472,9.7,2.558V-18.79H2.229V2.558Z" transform="translate(16.377 18.79)" fill="#ffac2d"/></g></g><path d="M46.721-78.344h6.9V-84.82h-6.9Z" transform="translate(6.36 10.475)" fill="#ffac2d"/><g transform="translate(0 -161.774)" clip-path="url(#a)"><g transform="translate(84.455 95.573)"><path d="M1.775,0V14.576A3.721,3.721,0,0,1,.589,17.429a4.391,4.391,0,0,1-3.174,1.129c-2.427,0-3.557-1.266-3.557-3.982V0h-6.9V15.476a9.4,9.4,0,0,0,.667,3.623,8.283,8.283,0,0,0,1.858,2.774,8.12,8.12,0,0,0,2.829,1.787,9.959,9.959,0,0,0,3.54.616,8.93,8.93,0,0,0,4.075-.916,5.681,5.681,0,0,0,1.848-1.443v2.459a18.941,18.941,0,0,1-.332,3.6,4.449,4.449,0,0,1-.87,1.463,3.965,3.965,0,0,1-1.235.909,3.487,3.487,0,0,1-1.486.318c-.03,0-.059-.006-.091-.007l-.379,0v6.062l.378,0a12.665,12.665,0,0,0,4.16-.726,10.445,10.445,0,0,0,3.533-2.112,9.773,9.773,0,0,0,2.364-3.4,21.451,21.451,0,0,0,.859-6.2V0Z" transform="translate(13.042)" fill="#ffac2d"/></g><g transform="translate(62.543 87.429)"><path d="M.816,0H-5.992V22.436a12.658,12.658,0,0,0,.537,3.707,8.156,8.156,0,0,0,1.761,3.124A8.643,8.643,0,0,0-.6,31.4a11.6,11.6,0,0,0,4.5.788A11.153,11.153,0,0,0,8.282,31.4a8.5,8.5,0,0,0,3.068-2.154,8.672,8.672,0,0,0,1.781-3.116,15.362,15.362,0,0,0,.562-4.164v-.369l-6.476-.053v.376a5.238,5.238,0,0,1-.8,3.139,2.79,2.79,0,0,1-2.422,1.033,2.692,2.692,0,0,1-2.413-1.045A5.7,5.7,0,0,1,.816,21.82V13.247H13.694v-5.1H.816Z" transform="translate(5.992)" fill="#ffac2d"/></g><g transform="translate(13.285 16.107)"><path d="M6.649,2.468C6.186-2.174,3.78-6.7-.5-10.978c-4.621-4.622-9-6.755-13.795-7.111-4.894-.364-9.582,1.656-13.928,6L-38.235-2.074l-8.622,8.622a7.571,7.571,0,0,0-1.972,4.337A5.937,5.937,0,0,0-46.772,15.6c3.667,3.667,6.555,3.428,10.063-.081l7.8-7.8.006.006,10.2-10.2c3.508-3.507,6.4-3.832,10.064-.166.042.042.076.084.116.126h0A5.861,5.861,0,0,1-6.58,2.074a7.59,7.59,0,0,1-2,4.377L-20.138,18.006c-2.342,2.332-4.691,4.68-6.624,6.622l-.214.214h0c-1.773,1.784-3.169,3.2-3.838,3.908-6.334,6.693.657,18.445.657,18.445l31-31c4.329-4.327,6.28-8.946,5.8-13.727" transform="translate(48.843 18.131)" fill="#2b2e34"/></g><g transform="translate(0 0)"><path d="M6.419,4.87A7.558,7.558,0,0,0,8.39.534,5.86,5.86,0,0,0,6.451-4.057h0L6.206-4.3,6.17-4.338c-3.589-3.494-6.444-3.135-9.9.32l-10.2,10.2-.006,0-7.8,7.8c-3.507,3.507-6.4,3.747-10.063.081a5.938,5.938,0,0,1-2.058-4.717c.014-.185.035-.369.066-.552.019-.117.049-.233.075-.35.015-.066.025-.132.042-.2.041-.155.091-.309.143-.462.009-.027.016-.055.025-.082.062-.173.134-.345.211-.518,0-.008.006-.015.009-.022a9.4,9.4,0,0,1,1.4-2.154h0l.032-.041L-20.3-6.588c2.342-2.332,4.691-4.68,6.622-6.622l.215-.214h0c1.772-1.783,3.168-3.2,3.838-3.908,6.334-6.693-.657-18.445-.657-18.445l-31,31c-4.329,4.327-6.28,8.946-5.8,13.727.462,4.642,2.869,9.166,7.148,13.447,4.622,4.621,9,6.755,13.795,7.11,4.9.364,9.582-1.656,13.929-6Z" transform="translate(47.157 35.778)" fill="#ffac2d"/></g><g transform="translate(0.177 164.996)"><path d="M.1.539a1.8,1.8,0,0,0,.248.885,1.615,1.615,0,0,0,1.466.636,2.511,2.511,0,0,0,.858-.139A.984.984,0,0,0,3.416.953.845.845,0,0,0,3.1.208,3.147,3.147,0,0,0,2.094-.172l-.841-.2A3.722,3.722,0,0,1,.088-.791,1.354,1.354,0,0,1-.5-1.99,1.871,1.871,0,0,1,.077-3.408a2.292,2.292,0,0,1,1.646-.554,2.8,2.8,0,0,1,1.666.487A1.773,1.773,0,0,1,4.074-1.92H3.26a1.654,1.654,0,0,0-.268-.79,1.521,1.521,0,0,0-1.292-.5,1.45,1.45,0,0,0-1.058.323,1.028,1.028,0,0,0-.322.75A.736.736,0,0,0,.7-1.45,5.374,5.374,0,0,0,1.828-1.1L2.7-.9a2.622,2.622,0,0,1,.973.406,1.538,1.538,0,0,1,.591,1.3,1.639,1.639,0,0,1-.754,1.521,3.324,3.324,0,0,1-1.754.458,2.583,2.583,0,0,1-1.825-.61A2.084,2.084,0,0,1-.718.539Z" transform="translate(0.718 3.962)" fill="#2b2e34"/></g><g transform="translate(6.211 166.78)"><path d="M0,.016H.768V.635A1.911,1.911,0,0,1,1.284.142a1.664,1.664,0,0,1,.935-.261A1.76,1.76,0,0,1,3.571.49a2.49,2.49,0,0,1,.554,1.737,2.662,2.662,0,0,1-.8,2.18,1.816,1.816,0,0,1-1.183.415,1.608,1.608,0,0,1-.888-.232,2.059,2.059,0,0,1-.468-.449V6.527H0ZM2.954,3.677A2.188,2.188,0,0,0,3.319,2.3a2.559,2.559,0,0,0-.161-.959A1.118,1.118,0,0,0,2.037.571a1.116,1.116,0,0,0-1.12.815A3.222,3.222,0,0,0,.754,2.493a2.336,2.336,0,0,0,.162.92,1.115,1.115,0,0,0,1.12.724,1.127,1.127,0,0,0,.917-.46" transform="translate(0 0.119)" fill="#2b2e34"/></g><g transform="translate(10.978 166.789)"><path d="M.377.028a1.771,1.771,0,0,1,.707.6,2.1,2.1,0,0,1,.311.824,5.386,5.386,0,0,1,.07,1.029h-3.4A2.011,2.011,0,0,0-1.6,3.628a1.11,1.11,0,0,0,.965.431A1.237,1.237,0,0,0,.34,3.651,1.388,1.388,0,0,0,.629,3.1H1.4a1.619,1.619,0,0,1-.2.575,2.027,2.027,0,0,1-.384.516,1.8,1.8,0,0,1-.878.47,2.59,2.59,0,0,1-.636.07A1.95,1.95,0,0,1-2.171,4.1a2.48,2.48,0,0,1-.6-1.777A2.7,2.7,0,0,1-2.166.5,2,2,0,0,1-.58-.2,2.1,2.1,0,0,1,.377.028M.658,1.862a2.023,2.023,0,0,0-.22-.816A1.126,1.126,0,0,0-.63.479a1.182,1.182,0,0,0-.9.39,1.483,1.483,0,0,0-.385.993Z" transform="translate(2.773 0.205)" fill="#2b2e34"/></g><g transform="translate(15.892 166.758)"><path d="M.408.046A1.837,1.837,0,0,1,1,1.367H.24A1.409,1.409,0,0,0-.078.649a1.008,1.008,0,0,0-.8-.285A1.1,1.1,0,0,0-1.95,1.1a2.924,2.924,0,0,0-.209,1.171,2.2,2.2,0,0,0,.3,1.18,1.016,1.016,0,0,0,.934.479,1.022,1.022,0,0,0,.774-.3A1.624,1.624,0,0,0,.24,2.815H1A2.049,2.049,0,0,1,.349,4.174,2.041,2.041,0,0,1-.99,4.6a1.789,1.789,0,0,1-1.461-.669A2.563,2.563,0,0,1-3,2.261,2.818,2.818,0,0,1-2.4.347,1.931,1.931,0,0,1-.876-.338,2.036,2.036,0,0,1,.408.046" transform="translate(2.996 0.338)" fill="#2b2e34"/></g></g><path d="M18.2-15.514H19v-.89h-.8Zm0-.89M18.2-10H19v-4.648h-.8Z" transform="translate(2.477 19.788)" fill="#2b2e34"/><g transform="translate(0 -161.774)" clip-path="url(#a)"><g transform="translate(22.442 166.78)"><path d="M.326.235A.428.428,0,0,0,.688.007a.7.7,0,0,0,.051-.3A.642.642,0,0,0,.456-.879a1.522,1.522,0,0,0-.817-.182,1.032,1.032,0,0,0-.87.334,1.106,1.106,0,0,0-.187.548h-.732a1.357,1.357,0,0,1,.559-1.205A2.292,2.292,0,0,1-.343-1.723a2.541,2.541,0,0,1,1.337.314A1.068,1.068,0,0,1,1.5-.432v2.69a.35.35,0,0,0,.05.2.243.243,0,0,0,.212.074c.034,0,.074,0,.117-.006s.091-.011.14-.02v.579a2.023,2.023,0,0,1-.279.066,1.952,1.952,0,0,1-.261.014.646.646,0,0,1-.589-.287,1.1,1.1,0,0,1-.135-.433,1.993,1.993,0,0,1-.69.545,2.123,2.123,0,0,1-.99.231,1.467,1.467,0,0,1-1.061-.394,1.3,1.3,0,0,1-.412-.986A1.27,1.27,0,0,1-1.989.831,1.938,1.938,0,0,1-.926.391Zm-1.653,2.12a.923.923,0,0,0,.589.2,1.8,1.8,0,0,0,.8-.191A1.078,1.078,0,0,0,.718,1.318V.687A1.338,1.338,0,0,1,.349.84,3.227,3.227,0,0,1-.1.928L-.57.988a1.834,1.834,0,0,0-.641.18.693.693,0,0,0-.365.652.644.644,0,0,0,.249.535" transform="translate(2.395 1.723)" fill="#2b2e34"/></g></g><path d="M24.336-10h.785v-6.407h-.785Z" transform="translate(3.313 19.788)" fill="#2b2e34"/><path d="M26.063-15.514h.8v-.89h-.8Zm0-.89,0,6.405h.8v-4.648h-.8Z" transform="translate(3.548 19.788)" fill="#2b2e34"/><g transform="translate(0 -161.774)" clip-path="url(#a)"><g transform="translate(31.308 166.772)"><path d="M.09.4a1.133,1.133,0,0,0,.2.6,1.273,1.273,0,0,0,1.051.379,1.578,1.578,0,0,0,.783-.19A.626.626,0,0,0,2.463.6a.5.5,0,0,0-.27-.458,3.18,3.18,0,0,0-.683-.223L.875-.234A3.068,3.068,0,0,1-.019-.565a.988.988,0,0,1-.515-.882A1.336,1.336,0,0,1-.049-2.518a1.945,1.945,0,0,1,1.3-.41,1.82,1.82,0,0,1,1.543.618,1.335,1.335,0,0,1,.287.846H2.34a.881.881,0,0,0-.192-.481,1.243,1.243,0,0,0-.959-.309,1.163,1.163,0,0,0-.69.17.524.524,0,0,0-.234.446.549.549,0,0,0,.308.487A1.909,1.909,0,0,0,1.1-.957l.528.126a4.113,4.113,0,0,1,1.155.4,1.049,1.049,0,0,1,.458.946A1.437,1.437,0,0,1,2.76,1.589a2.06,2.06,0,0,1-1.46.453A1.971,1.971,0,0,1-.194,1.57,1.779,1.779,0,0,1-.664.4Z" transform="translate(0.664 2.928)" fill="#2b2e34"/></g><g transform="translate(35.585 165.59)"><path d="M.076,0H.87V1.3h.745v.641H.87V4.992a.329.329,0,0,0,.165.327.688.688,0,0,0,.306.049c.037,0,.078,0,.122,0s.094-.007.153-.015v.624a1.743,1.743,0,0,1-.282.057,2.732,2.732,0,0,1-.316.017.852.852,0,0,1-.745-.281,1.247,1.247,0,0,1-.2-.731V1.945H-.557V1.3H.076Z" transform="translate(0.557)" fill="#2b2e34"/></g><g transform="translate(38.254 166.772)"><path d="M.09.4a1.123,1.123,0,0,0,.2.6,1.273,1.273,0,0,0,1.051.379,1.578,1.578,0,0,0,.783-.19A.628.628,0,0,0,2.463.6a.5.5,0,0,0-.27-.458,3.18,3.18,0,0,0-.683-.223L.875-.234a3.09,3.09,0,0,1-.9-.331.989.989,0,0,1-.514-.882A1.336,1.336,0,0,1-.049-2.518a1.943,1.943,0,0,1,1.3-.41,1.82,1.82,0,0,1,1.543.618,1.342,1.342,0,0,1,.287.846H2.34a.881.881,0,0,0-.192-.481,1.243,1.243,0,0,0-.959-.309,1.163,1.163,0,0,0-.69.17.526.526,0,0,0-.235.446.55.55,0,0,0,.309.487A1.909,1.909,0,0,0,1.1-.957l.528.126a4.113,4.113,0,0,1,1.155.4,1.049,1.049,0,0,1,.458.946A1.437,1.437,0,0,1,2.76,1.589a2.06,2.06,0,0,1-1.46.453A1.971,1.971,0,0,1-.194,1.57,1.779,1.779,0,0,1-.664.4Z" transform="translate(0.664 2.928)" fill="#2b2e34"/></g></g><path d="M40.038-15.514h.8v-.89h-.8Zm0-.89,0,6.405h.8v-4.648h-.8Z" transform="translate(5.45 19.788)" fill="#2b2e34"/><g transform="translate(0 -161.774)" clip-path="url(#a)"><g transform="translate(47.473 166.789)"><path d="M0,.013H.745V.675a2.111,2.111,0,0,1,.7-.589,1.876,1.876,0,0,1,.825-.178A1.359,1.359,0,0,1,3.615.6a2.451,2.451,0,0,1,.192,1.085v3h-.8V1.739a1.6,1.6,0,0,0-.126-.69A.768.768,0,0,0,2.123.614,1.554,1.554,0,0,0,1.666.67a1.19,1.19,0,0,0-.567.384,1.147,1.147,0,0,0-.254.477,3.182,3.182,0,0,0-.059.7V4.683H0Z" transform="translate(0 0.092)" fill="#2b2e34"/></g><g transform="translate(54.703 166.78)"><path d="M.326.235A.428.428,0,0,0,.688.007a.7.7,0,0,0,.051-.3A.642.642,0,0,0,.456-.879a1.522,1.522,0,0,0-.817-.182,1.032,1.032,0,0,0-.87.334,1.106,1.106,0,0,0-.187.548h-.732a1.357,1.357,0,0,1,.559-1.205A2.292,2.292,0,0,1-.343-1.723a2.541,2.541,0,0,1,1.337.314A1.068,1.068,0,0,1,1.5-.432v2.69a.341.341,0,0,0,.051.2c.033.05.1.074.211.074.034,0,.074,0,.117-.006s.091-.011.14-.02v.579a2.023,2.023,0,0,1-.279.066,1.952,1.952,0,0,1-.261.014.646.646,0,0,1-.589-.287,1.124,1.124,0,0,1-.135-.433,1.993,1.993,0,0,1-.69.545,2.123,2.123,0,0,1-.99.231,1.467,1.467,0,0,1-1.061-.394,1.3,1.3,0,0,1-.412-.986A1.27,1.27,0,0,1-1.989.831,1.935,1.935,0,0,1-.926.391Zm-1.653,2.12a.923.923,0,0,0,.589.2,1.8,1.8,0,0,0,.8-.191A1.078,1.078,0,0,0,.718,1.318V.687A1.338,1.338,0,0,1,.349.84,3.227,3.227,0,0,1-.1.928L-.57.988a1.834,1.834,0,0,0-.641.18.693.693,0,0,0-.365.652.644.644,0,0,0,.249.535" transform="translate(2.395 1.723)" fill="#2b2e34"/></g><g transform="translate(59.871 166.894)"><path d="M.1,0V3.1a1.335,1.335,0,0,0,.11.584.769.769,0,0,0,.76.419,1.076,1.076,0,0,0,1.087-.733A2.985,2.985,0,0,0,2.21,2.294V0H3V4.671H2.255l.008-.69a1.579,1.579,0,0,1-.372.449A1.621,1.621,0,0,1,.821,4.8,1.372,1.372,0,0,1-.514,4.129a2.016,2.016,0,0,1-.192-.954V0Z" transform="translate(0.706)" fill="#2b2e34"/></g><g transform="translate(64.379 165.59)"><path d="M.076,0H.87V1.3h.745v.641H.87V4.992a.329.329,0,0,0,.165.327.691.691,0,0,0,.306.049c.037,0,.078,0,.122,0s.1-.007.153-.015v.624a1.743,1.743,0,0,1-.282.057,2.718,2.718,0,0,1-.316.017.852.852,0,0,1-.745-.281,1.247,1.247,0,0,1-.2-.731V1.945H-.557V1.3H.076Z" transform="translate(0.557)" fill="#2b2e34"/></g><g transform="translate(67.018 166.759)"><path d="M.443.072a2.354,2.354,0,0,1,.619,1.769A3.048,3.048,0,0,1,.517,3.705a1.968,1.968,0,0,1-1.693.736A1.906,1.906,0,0,1-2.7,3.791a2.586,2.586,0,0,1-.562-1.75A2.8,2.8,0,0,1-2.665.167a1.987,1.987,0,0,1,1.593-.7,2.09,2.09,0,0,1,1.516.6m-.487,3.1A2.97,2.97,0,0,0,.244,1.863,2.347,2.347,0,0,0,.036.8,1.16,1.16,0,0,0-1.094.155,1.112,1.112,0,0,0-2.129.7a2.575,2.575,0,0,0-.323,1.325,2.234,2.234,0,0,0,.323,1.241,1.135,1.135,0,0,0,1.027.5,1.067,1.067,0,0,0,1.058-.59" transform="translate(3.258 0.529)" fill="#2b2e34"/></g><g transform="translate(72.302 166.789)"><path d="M0,.013H.777V.675a2.583,2.583,0,0,1,.506-.5,1.514,1.514,0,0,1,.88-.266,1.379,1.379,0,0,1,.9.275A1.407,1.407,0,0,1,3.41.644,1.694,1.694,0,0,1,4.025.089a1.716,1.716,0,0,1,.793-.181A1.3,1.3,0,0,1,6.1.589a2.224,2.224,0,0,1,.183.985v3.11H5.468V1.438A.758.758,0,0,0,5.235.8.926.926,0,0,0,4.666.623a1.137,1.137,0,0,0-.8.309,1.366,1.366,0,0,0-.333,1.034V4.683h-.8V1.635A1.6,1.6,0,0,0,2.626.941.694.694,0,0,0,1.959.614,1.152,1.152,0,0,0,1.15.959,1.685,1.685,0,0,0,.785,2.205V4.683H0Z" transform="translate(0 0.092)" fill="#2b2e34"/></g><g transform="translate(79.424 166.759)"><path d="M.443.072a2.354,2.354,0,0,1,.619,1.769A3.048,3.048,0,0,1,.517,3.705a1.969,1.969,0,0,1-1.694.736A1.9,1.9,0,0,1-2.7,3.791a2.58,2.58,0,0,1-.562-1.75A2.8,2.8,0,0,1-2.665.167a1.987,1.987,0,0,1,1.593-.7,2.091,2.091,0,0,1,1.516.6m-.487,3.1A2.954,2.954,0,0,0,.244,1.863,2.347,2.347,0,0,0,.036.8,1.161,1.161,0,0,0-1.094.155,1.112,1.112,0,0,0-2.129.7a2.575,2.575,0,0,0-.323,1.325,2.234,2.234,0,0,0,.323,1.241,1.135,1.135,0,0,0,1.027.5,1.067,1.067,0,0,0,1.058-.59" transform="translate(3.258 0.529)" fill="#2b2e34"/></g><g transform="translate(84.233 165.59)"><path d="M.076,0H.87V1.3h.745v.641H.87V4.992a.329.329,0,0,0,.165.327.7.7,0,0,0,.306.049q.056,0,.123,0c.043,0,.094-.007.152-.015v.624a1.754,1.754,0,0,1-.281.057,2.752,2.752,0,0,1-.317.017.852.852,0,0,1-.745-.281,1.247,1.247,0,0,1-.2-.731V1.945H-.557V1.3H.076Z" transform="translate(0.557)" fill="#2b2e34"/></g></g><path d="M76.744-15.514h.8v-.89h-.8Zm0-.89,0,6.405h.8v-4.648h-.8Z" transform="translate(10.447 19.788)" fill="#2b2e34"/><g transform="translate(88.65 5.12)"><path d="M.109,0,1.357,3.8,2.655,0h.86L1.757,4.671H.92L-.8,0Z" transform="translate(0.802)" fill="#2b2e34"/></g><g transform="translate(0 -161.774)" clip-path="url(#a)"><g transform="translate(93.374 166.789)"><path d="M.377.028a1.763,1.763,0,0,1,.707.6,2.1,2.1,0,0,1,.311.824,5.386,5.386,0,0,1,.07,1.029h-3.4A2.02,2.02,0,0,0-1.6,3.628a1.11,1.11,0,0,0,.965.431A1.237,1.237,0,0,0,.34,3.651,1.388,1.388,0,0,0,.629,3.1H1.4a1.614,1.614,0,0,1-.2.575,2.057,2.057,0,0,1-.385.516,1.8,1.8,0,0,1-.878.47,2.58,2.58,0,0,1-.635.07A1.952,1.952,0,0,1-2.171,4.1a2.48,2.48,0,0,1-.6-1.777A2.7,2.7,0,0,1-2.166.5,2,2,0,0,1-.58-.2,2.1,2.1,0,0,1,.377.028M.659,1.862a2.061,2.061,0,0,0-.22-.816A1.129,1.129,0,0,0-.629.479a1.183,1.183,0,0,0-.9.39,1.483,1.483,0,0,0-.385.993Z" transform="translate(2.773 0.205)" fill="#2b2e34"/></g><g transform="translate(0.177 177.045)"><path d="M0,.013H.745V.819A1.783,1.783,0,0,1,1.2.245a1.162,1.162,0,0,1,.824-.337c.015,0,.04,0,.074,0s.094.008.18.017V.758a.993.993,0,0,0-.13-.017c-.039,0-.082,0-.128,0a1.12,1.12,0,0,0-.911.382A1.331,1.331,0,0,0,.785,2V4.682H0Z" transform="translate(0 0.092)" fill="#2b2e34"/></g><g transform="translate(2.863 177.046)"><path d="M.377.028a1.779,1.779,0,0,1,.707.6,2.093,2.093,0,0,1,.311.825,5.386,5.386,0,0,1,.069,1.028h-3.4A2.008,2.008,0,0,0-1.6,3.628a1.11,1.11,0,0,0,.965.431,1.237,1.237,0,0,0,.973-.407A1.4,1.4,0,0,0,.629,3.1H1.4a1.641,1.641,0,0,1-.2.575,2.054,2.054,0,0,1-.384.516,1.812,1.812,0,0,1-.878.471A2.649,2.649,0,0,1-.7,4.735,1.95,1.95,0,0,1-2.171,4.1a2.48,2.48,0,0,1-.6-1.777A2.692,2.692,0,0,1-2.166.5,2,2,0,0,1-.58-.2,2.1,2.1,0,0,1,.377.028M.658,1.862a2.042,2.042,0,0,0-.22-.816A1.126,1.126,0,0,0-.63.479a1.18,1.18,0,0,0-.9.39,1.478,1.478,0,0,0-.385.993Z" transform="translate(2.773 0.205)" fill="#2b2e34"/></g><g transform="translate(8.03 177.036)"><path d="M0,.016H.768V.635A1.911,1.911,0,0,1,1.284.142a1.667,1.667,0,0,1,.935-.261A1.762,1.762,0,0,1,3.571.49a2.49,2.49,0,0,1,.554,1.737,2.662,2.662,0,0,1-.8,2.18,1.816,1.816,0,0,1-1.182.415,1.609,1.609,0,0,1-.89-.232,2.059,2.059,0,0,1-.468-.449V6.527H0ZM2.954,3.677A2.188,2.188,0,0,0,3.32,2.3a2.558,2.558,0,0,0-.162-.959A1.117,1.117,0,0,0,2.037.571a1.116,1.116,0,0,0-1.12.815A3.222,3.222,0,0,0,.754,2.493a2.336,2.336,0,0,0,.162.92,1.115,1.115,0,0,0,1.12.724,1.125,1.125,0,0,0,.917-.46" transform="translate(0 0.119)" fill="#2b2e34"/></g><g transform="translate(12.845 177.036)"><path d="M.326.235A.428.428,0,0,0,.688.007a.7.7,0,0,0,.051-.3A.642.642,0,0,0,.456-.879a1.522,1.522,0,0,0-.817-.182,1.028,1.028,0,0,0-.869.334,1.084,1.084,0,0,0-.187.548h-.733a1.357,1.357,0,0,1,.559-1.205A2.292,2.292,0,0,1-.343-1.723a2.541,2.541,0,0,1,1.337.314A1.066,1.066,0,0,1,1.5-.432v2.69a.341.341,0,0,0,.051.2.242.242,0,0,0,.211.074c.034,0,.074,0,.117-.006s.09-.011.14-.02v.579a2.015,2.015,0,0,1-.278.066,1.982,1.982,0,0,1-.262.014.648.648,0,0,1-.589-.287,1.124,1.124,0,0,1-.135-.433,2,2,0,0,1-.688.545,2.128,2.128,0,0,1-.991.231,1.467,1.467,0,0,1-1.061-.394,1.3,1.3,0,0,1-.412-.986A1.27,1.27,0,0,1-1.989.831,1.93,1.93,0,0,1-.926.391Zm-1.653,2.12a.924.924,0,0,0,.59.2,1.8,1.8,0,0,0,.8-.191A1.078,1.078,0,0,0,.718,1.318V.687A1.338,1.338,0,0,1,.349.84,3.227,3.227,0,0,1-.1.928l-.474.06a1.834,1.834,0,0,0-.642.18.7.7,0,0,0-.365.652.648.648,0,0,0,.249.535" transform="translate(2.395 1.723)" fill="#2b2e34"/></g></g><path d="M15.869-6.486h.8v-.89h-.8Zm0-.89,0,6.4h.8V-5.62h-.8Z" transform="translate(2.16 21.017)" fill="#2b2e34"/><g transform="translate(0 -161.774)" clip-path="url(#a)"><g transform="translate(20.036 177.045)"><path d="M0,.013H.745V.819A1.783,1.783,0,0,1,1.2.245a1.164,1.164,0,0,1,.824-.337c.015,0,.04,0,.074,0s.094.008.18.017V.758a.993.993,0,0,0-.13-.017c-.039,0-.082,0-.128,0a1.12,1.12,0,0,0-.911.382A1.331,1.331,0,0,0,.785,2V4.682H0Z" transform="translate(0 0.092)" fill="#2b2e34"/></g><g transform="translate(22.7 177.028)"><path d="M.09.4a1.114,1.114,0,0,0,.2.6,1.272,1.272,0,0,0,1.05.379,1.58,1.58,0,0,0,.784-.19A.628.628,0,0,0,2.463.6a.5.5,0,0,0-.27-.458,3.18,3.18,0,0,0-.683-.223L.875-.234A3.068,3.068,0,0,1-.019-.565a.988.988,0,0,1-.515-.882A1.336,1.336,0,0,1-.049-2.518a1.941,1.941,0,0,1,1.3-.41,1.82,1.82,0,0,1,1.543.618,1.335,1.335,0,0,1,.287.846H2.34a.881.881,0,0,0-.192-.481,1.241,1.241,0,0,0-.959-.309,1.169,1.169,0,0,0-.691.17.527.527,0,0,0-.234.446.55.55,0,0,0,.309.487A1.885,1.885,0,0,0,1.1-.957l.529.126a4.113,4.113,0,0,1,1.155.4,1.051,1.051,0,0,1,.458.946A1.437,1.437,0,0,1,2.76,1.589a2.058,2.058,0,0,1-1.46.453A1.969,1.969,0,0,1-.194,1.57,1.779,1.779,0,0,1-.664.4Z" transform="translate(0.664 2.928)" fill="#2b2e34"/></g><g transform="translate(29.746 175.423)"><path d="M.108.246A1.539,1.539,0,0,1-.028-.369,1.371,1.371,0,0,1,.389-1.4,1.525,1.525,0,0,1,1.505-1.8a1.394,1.394,0,0,1,1.04.378,1.25,1.25,0,0,1,.374.908A1.629,1.629,0,0,1,2.532.558a3.629,3.629,0,0,1-.756.624l1.163,1.4c.077-.232.131-.406.161-.52s.06-.276.092-.482h.745a4.762,4.762,0,0,1-.3,1.179c-.147.376-.22.528-.22.454L4.558,4.594H3.548l-.6-.733a3.119,3.119,0,0,1-.651.567,2.25,2.25,0,0,1-1.191.314A1.789,1.789,0,0,1-.341,4.2,1.84,1.84,0,0,1-.793,2.988a1.753,1.753,0,0,1,.44-1.216,4.77,4.77,0,0,1,1-.742A3.306,3.306,0,0,1,.108.246M1.994,3.83a1.812,1.812,0,0,0,.534-.5L1.085,1.567a4.365,4.365,0,0,0-.8.628,1.169,1.169,0,0,0-.286.8.917.917,0,0,0,.372.785,1.308,1.308,0,0,0,.792.274,1.51,1.51,0,0,0,.829-.222M1.933.2a.988.988,0,0,0,.253-.657A.7.7,0,0,0,2-.945a.643.643,0,0,0-.5-.2.7.7,0,0,0-.667.322.71.71,0,0,0-.1.361A.973.973,0,0,0,.881.042a4.7,4.7,0,0,0,.487.632A3.352,3.352,0,0,0,1.933.2" transform="translate(0.793 1.804)" fill="#2b2e34"/></g><g transform="translate(38.054 177.014)"><path d="M.408.046A1.841,1.841,0,0,1,1,1.367H.24A1.409,1.409,0,0,0-.078.649a1.008,1.008,0,0,0-.8-.285A1.1,1.1,0,0,0-1.95,1.1a2.924,2.924,0,0,0-.209,1.171,2.2,2.2,0,0,0,.3,1.18,1.016,1.016,0,0,0,.933.479,1.023,1.023,0,0,0,.775-.3A1.624,1.624,0,0,0,.24,2.815H1A2.049,2.049,0,0,1,.349,4.174,2.041,2.041,0,0,1-.99,4.6a1.789,1.789,0,0,1-1.461-.669A2.563,2.563,0,0,1-3,2.261,2.813,2.813,0,0,1-2.4.347,1.929,1.929,0,0,1-.876-.338,2.036,2.036,0,0,1,.408.046" transform="translate(2.996 0.338)" fill="#2b2e34"/></g></g><path d="M37.724-.972h.785V-7.377h-.785Z" transform="translate(5.135 21.017)" fill="#2b2e34"/><g transform="translate(0 -161.774)" clip-path="url(#a)"><g transform="translate(44.604 177.036)"><path d="M.326.235A.428.428,0,0,0,.688.007a.7.7,0,0,0,.051-.3A.642.642,0,0,0,.456-.879a1.522,1.522,0,0,0-.817-.182,1.028,1.028,0,0,0-.869.334,1.084,1.084,0,0,0-.187.548h-.734a1.361,1.361,0,0,1,.56-1.205A2.292,2.292,0,0,1-.343-1.723a2.541,2.541,0,0,1,1.337.314A1.066,1.066,0,0,1,1.5-.432v2.69a.341.341,0,0,0,.051.2.242.242,0,0,0,.211.074c.034,0,.074,0,.117-.006s.09-.011.14-.02v.579a2.015,2.015,0,0,1-.278.066,1.982,1.982,0,0,1-.262.014.648.648,0,0,1-.589-.287,1.124,1.124,0,0,1-.135-.433,1.988,1.988,0,0,1-.688.545,2.128,2.128,0,0,1-.991.231,1.467,1.467,0,0,1-1.061-.394,1.3,1.3,0,0,1-.412-.986A1.27,1.27,0,0,1-1.989.831,1.93,1.93,0,0,1-.926.391Zm-1.653,2.12a.924.924,0,0,0,.59.2,1.8,1.8,0,0,0,.8-.191A1.079,1.079,0,0,0,.719,1.318V.687A1.361,1.361,0,0,1,.349.84,3.227,3.227,0,0,1-.1.928l-.474.06a1.834,1.834,0,0,0-.642.18.7.7,0,0,0-.365.652.648.648,0,0,0,.249.535" transform="translate(2.395 1.723)" fill="#2b2e34"/></g></g><path d="M43.824-6.486h.8v-.89h-.8Zm0-.89,0,6.4h.8V-5.62h-.8Z" transform="translate(5.965 21.017)" fill="#2b2e34"/><g transform="translate(0 -161.774)" clip-path="url(#a)"><g transform="translate(51.773 177.045)"><path d="M0,.013H.776V.675a2.615,2.615,0,0,1,.506-.5,1.515,1.515,0,0,1,.882-.266,1.379,1.379,0,0,1,.9.275A1.422,1.422,0,0,1,3.41.644,1.694,1.694,0,0,1,4.025.089a1.716,1.716,0,0,1,.793-.181A1.3,1.3,0,0,1,6.1.589a2.224,2.224,0,0,1,.183.985V4.682H5.468V1.438A.761.761,0,0,0,5.235.8.929.929,0,0,0,4.666.623a1.133,1.133,0,0,0-.8.309,1.363,1.363,0,0,0-.334,1.035V4.682h-.8V1.635A1.577,1.577,0,0,0,2.624.941.691.691,0,0,0,1.958.614a1.152,1.152,0,0,0-.809.345A1.69,1.69,0,0,0,.785,2.205V4.682H0Z" transform="translate(0 0.092)" fill="#2b2e34"/></g><g transform="translate(58.925 177.028)"><path d="M.09.4a1.114,1.114,0,0,0,.2.6,1.272,1.272,0,0,0,1.05.379,1.58,1.58,0,0,0,.784-.19A.628.628,0,0,0,2.463.6.5.5,0,0,0,2.191.146a3.141,3.141,0,0,0-.682-.223L.875-.234a3.09,3.09,0,0,1-.9-.331.989.989,0,0,1-.514-.882A1.336,1.336,0,0,1-.049-2.518a1.941,1.941,0,0,1,1.3-.41,1.82,1.82,0,0,1,1.543.618,1.335,1.335,0,0,1,.287.846H2.34a.881.881,0,0,0-.192-.481,1.241,1.241,0,0,0-.959-.309,1.169,1.169,0,0,0-.691.17.527.527,0,0,0-.234.446.55.55,0,0,0,.309.487A1.88,1.88,0,0,0,1.1-.957l.528.126a4.113,4.113,0,0,1,1.155.4,1.051,1.051,0,0,1,.458.946A1.437,1.437,0,0,1,2.76,1.589a2.06,2.06,0,0,1-1.46.453A1.969,1.969,0,0,1-.194,1.57,1.779,1.779,0,0,1-.664.4Z" transform="translate(0.664 2.928)" fill="#2b2e34"/></g><g transform="translate(66.159 177.045)"><path d="M0,.013H.777V.675a2.583,2.583,0,0,1,.506-.5,1.514,1.514,0,0,1,.88-.266,1.379,1.379,0,0,1,.9.275A1.407,1.407,0,0,1,3.41.644,1.694,1.694,0,0,1,4.025.089a1.719,1.719,0,0,1,.793-.181A1.3,1.3,0,0,1,6.1.589a2.224,2.224,0,0,1,.183.985V4.682H5.468V1.438A.758.758,0,0,0,5.235.8.926.926,0,0,0,4.666.623a1.137,1.137,0,0,0-.8.309,1.367,1.367,0,0,0-.333,1.035V4.682h-.8V1.635A1.6,1.6,0,0,0,2.626.941.694.694,0,0,0,1.959.614,1.152,1.152,0,0,0,1.15.959,1.685,1.685,0,0,0,.785,2.205V4.682H0Z" transform="translate(0 0.092)" fill="#2b2e34"/></g><g transform="translate(73.381 177.036)"><path d="M.326.235A.428.428,0,0,0,.688.007a.7.7,0,0,0,.051-.3A.642.642,0,0,0,.456-.879a1.522,1.522,0,0,0-.817-.182,1.028,1.028,0,0,0-.869.334,1.084,1.084,0,0,0-.187.548h-.733a1.357,1.357,0,0,1,.559-1.205A2.292,2.292,0,0,1-.343-1.723a2.541,2.541,0,0,1,1.337.314A1.066,1.066,0,0,1,1.5-.432v2.69a.341.341,0,0,0,.051.2.242.242,0,0,0,.211.074c.034,0,.074,0,.117-.006s.09-.011.14-.02v.579a2.015,2.015,0,0,1-.278.066,1.982,1.982,0,0,1-.262.014.648.648,0,0,1-.589-.287,1.124,1.124,0,0,1-.135-.433,1.983,1.983,0,0,1-.69.545,2.12,2.12,0,0,1-.99.231,1.467,1.467,0,0,1-1.061-.394,1.3,1.3,0,0,1-.412-.986A1.27,1.27,0,0,1-1.989.831,1.93,1.93,0,0,1-.926.391Zm-1.653,2.12a.924.924,0,0,0,.59.2,1.8,1.8,0,0,0,.8-.191A1.078,1.078,0,0,0,.718,1.318V.687A1.338,1.338,0,0,1,.349.84,3.227,3.227,0,0,1-.1.928l-.474.06a1.834,1.834,0,0,0-.642.18.7.7,0,0,0-.365.652.644.644,0,0,0,.249.535" transform="translate(2.395 1.723)" fill="#2b2e34"/></g><g transform="translate(78.566 177.045)"><path d="M0,.013H.745V.675a2.111,2.111,0,0,1,.7-.589,1.872,1.872,0,0,1,.825-.178A1.359,1.359,0,0,1,3.615.6a2.451,2.451,0,0,1,.192,1.085v3h-.8V1.739a1.6,1.6,0,0,0-.126-.69A.769.769,0,0,0,2.123.614,1.554,1.554,0,0,0,1.666.67a1.19,1.19,0,0,0-.567.384,1.154,1.154,0,0,0-.254.477,3.182,3.182,0,0,0-.059.7V4.682H0Z" transform="translate(0 0.092)" fill="#2b2e34"/></g><g transform="translate(83.315 177.036)"><path d="M.326.235A.428.428,0,0,0,.688.007a.7.7,0,0,0,.051-.3A.642.642,0,0,0,.456-.879a1.522,1.522,0,0,0-.817-.182,1.028,1.028,0,0,0-.869.334,1.084,1.084,0,0,0-.187.548h-.733a1.357,1.357,0,0,1,.559-1.205A2.292,2.292,0,0,1-.343-1.723a2.541,2.541,0,0,1,1.337.314A1.066,1.066,0,0,1,1.5-.432v2.69a.341.341,0,0,0,.051.2.242.242,0,0,0,.211.074c.034,0,.074,0,.117-.006s.09-.011.14-.02v.579a2.015,2.015,0,0,1-.278.066,1.982,1.982,0,0,1-.262.014.648.648,0,0,1-.589-.287,1.124,1.124,0,0,1-.135-.433,1.983,1.983,0,0,1-.69.545,2.12,2.12,0,0,1-.99.231,1.467,1.467,0,0,1-1.061-.394,1.3,1.3,0,0,1-.412-.986A1.27,1.27,0,0,1-1.989.831,1.93,1.93,0,0,1-.926.391Zm-1.653,2.12a.924.924,0,0,0,.59.2,1.8,1.8,0,0,0,.8-.191A1.078,1.078,0,0,0,.718,1.318V.687A1.338,1.338,0,0,1,.349.84,3.227,3.227,0,0,1-.1.928l-.474.06a1.834,1.834,0,0,0-.642.18.7.7,0,0,0-.365.652.644.644,0,0,0,.249.535" transform="translate(2.395 1.723)" fill="#2b2e34"/></g><g transform="translate(88.189 177.067)"><path d="M.348.032A2.141,2.141,0,0,1,.8.477V-.112h.724V4.136a3.159,3.159,0,0,1-.26,1.4,1.874,1.874,0,0,1-1.839.95A2.252,2.252,0,0,1-1.84,6.153a1.32,1.32,0,0,1-.574-1.058h.8a.873.873,0,0,0,.225.484,1.142,1.142,0,0,0,.833.262A1.142,1.142,0,0,0,.617,5.2,3.585,3.585,0,0,0,.77,3.866,1.54,1.54,0,0,1,.205,4.4a1.877,1.877,0,0,1-.873.175,1.862,1.862,0,0,1-1.324-.539,2.375,2.375,0,0,1-.567-1.781A2.7,2.7,0,0,1-1.987.421,1.762,1.762,0,0,1-.607-.238a1.689,1.689,0,0,1,.955.27m.1.842A1.138,1.138,0,0,0-.463.455a1.122,1.122,0,0,0-1.128.776A3.072,3.072,0,0,0-1.75,2.317a1.939,1.939,0,0,0,.318,1.2,1.025,1.025,0,0,0,.857.411A1.2,1.2,0,0,0,.61,3.168,2.476,2.476,0,0,0,.8,2.16,1.957,1.957,0,0,0,.445.874" transform="translate(2.558 0.238)" fill="#2b2e34"/></g><g transform="translate(93.201 177.046)"><path d="M.377.028a1.779,1.779,0,0,1,.707.6,2.093,2.093,0,0,1,.311.825,5.364,5.364,0,0,1,.07,1.028h-3.4A2.008,2.008,0,0,0-1.6,3.628a1.11,1.11,0,0,0,.965.431A1.241,1.241,0,0,0,.34,3.652,1.4,1.4,0,0,0,.629,3.1H1.4a1.637,1.637,0,0,1-.2.575,2.084,2.084,0,0,1-.385.516,1.812,1.812,0,0,1-.878.471A2.649,2.649,0,0,1-.7,4.735,1.95,1.95,0,0,1-2.171,4.1a2.48,2.48,0,0,1-.6-1.777A2.7,2.7,0,0,1-2.166.5,2,2,0,0,1-.58-.2,2.1,2.1,0,0,1,.377.028M.659,1.862a2.06,2.06,0,0,0-.222-.816A1.126,1.126,0,0,0-.63.479a1.182,1.182,0,0,0-.9.39,1.478,1.478,0,0,0-.385.993Z" transform="translate(2.773 0.205)" fill="#2b2e34"/></g><g transform="translate(98.433 177.045)"><path d="M0,.013H.776V.675a2.615,2.615,0,0,1,.506-.5,1.515,1.515,0,0,1,.882-.266,1.379,1.379,0,0,1,.9.275A1.422,1.422,0,0,1,3.41.644,1.694,1.694,0,0,1,4.025.089a1.716,1.716,0,0,1,.793-.181A1.3,1.3,0,0,1,6.1.589a2.224,2.224,0,0,1,.183.985V4.682H5.468V1.438A.761.761,0,0,0,5.235.8.926.926,0,0,0,4.666.623a1.133,1.133,0,0,0-.8.309,1.367,1.367,0,0,0-.334,1.035V4.682h-.8V1.635A1.577,1.577,0,0,0,2.624.941.691.691,0,0,0,1.958.614a1.152,1.152,0,0,0-.809.345A1.69,1.69,0,0,0,.785,2.205V4.682H0Z" transform="translate(0 0.092)" fill="#2b2e34"/></g><g transform="translate(105.606 177.046)"><path d="M.378.028a1.779,1.779,0,0,1,.707.6,2.093,2.093,0,0,1,.311.825,5.386,5.386,0,0,1,.069,1.028h-3.4A2.008,2.008,0,0,0-1.6,3.628a1.11,1.11,0,0,0,.965.431A1.241,1.241,0,0,0,.34,3.652,1.4,1.4,0,0,0,.629,3.1H1.4a1.641,1.641,0,0,1-.2.575,2.082,2.082,0,0,1-.384.516,1.812,1.812,0,0,1-.878.471A2.649,2.649,0,0,1-.7,4.735,1.948,1.948,0,0,1-2.171,4.1a2.481,2.481,0,0,1-.6-1.777A2.693,2.693,0,0,1-2.166.5,2,2,0,0,1-.581-.2,2.1,2.1,0,0,1,.378.028M.658,1.862a2.042,2.042,0,0,0-.22-.816A1.126,1.126,0,0,0-.63.479a1.18,1.18,0,0,0-.9.39,1.478,1.478,0,0,0-.385.993Z" transform="translate(2.774 0.205)" fill="#2b2e34"/></g><g transform="translate(110.839 177.045)"><path d="M0,.013H.745V.675a2.111,2.111,0,0,1,.7-.589,1.876,1.876,0,0,1,.825-.178A1.359,1.359,0,0,1,3.615.6a2.451,2.451,0,0,1,.192,1.085v3h-.8V1.739a1.6,1.6,0,0,0-.126-.69A.769.769,0,0,0,2.123.614,1.554,1.554,0,0,0,1.666.67a1.19,1.19,0,0,0-.567.384,1.154,1.154,0,0,0-.254.477,3.182,3.182,0,0,0-.059.7V4.682H0Z" transform="translate(0 0.092)" fill="#2b2e34"/></g><g transform="translate(115.33 175.846)"><path d="M.076,0H.87V1.3h.745v.641H.87V4.992a.331.331,0,0,0,.165.328.715.715,0,0,0,.306.048q.056,0,.123,0c.043,0,.094-.007.152-.015v.624a1.754,1.754,0,0,1-.281.057,2.752,2.752,0,0,1-.317.017.85.85,0,0,1-.745-.281,1.247,1.247,0,0,1-.2-.731V1.945H-.557V1.3H.076Z" transform="translate(0.557)" fill="#2b2e34"/></g><g transform="translate(0.568 142.082)"><path d="M1.311,1.352V-9.931h-3.4L-4.126-1.655-6.166-9.931H-9.632V1.352H-7.44v-7.7l2.09,7.7h2.345L-.9-6.379V1.352ZM7.462-1.826A1.586,1.586,0,0,1,7.3-1.12a1.95,1.95,0,0,1-.425.577,1.953,1.953,0,0,1-.628.391,2.131,2.131,0,0,1-.791.144q-1.07,0-1.07-.934a1.011,1.011,0,0,1,.357-.833,3.174,3.174,0,0,1,1.309-.476,8.728,8.728,0,0,0,.934-.22,1.193,1.193,0,0,0,.493-.273ZM9.688,1.352V-3.933a4.84,4.84,0,0,0-.186-1.4,2.441,2.441,0,0,0-.6-1.037,2.7,2.7,0,0,0-1.1-.637,5.548,5.548,0,0,0-1.674-.22,5.874,5.874,0,0,0-1.7.212,2.958,2.958,0,0,0-1.13.6,2.269,2.269,0,0,0-.628.934A3.794,3.794,0,0,0,2.45-4.29H4.506a1.585,1.585,0,0,1,.416-.9,1.484,1.484,0,0,1,1.1-.34A2,2,0,0,1,7.046-5.3a.711.711,0,0,1,.382.637.713.713,0,0,1-.289.637,2.967,2.967,0,0,1-1.121.315q-.833.119-1.538.264A3.86,3.86,0,0,0,3.265-3a2.155,2.155,0,0,0-.8.841A3.031,3.031,0,0,0,2.178-.722,2.18,2.18,0,0,0,2.848.936a3,3,0,0,0,2.117.636,3.952,3.952,0,0,0,1.5-.262A2.737,2.737,0,0,0,7.5.6a3.38,3.38,0,0,0,.136.748Zm8.717,0V-4.442a3.139,3.139,0,0,0-.212-1.2,2.571,2.571,0,0,0-.577-.875,2.351,2.351,0,0,0-.876-.535,3.311,3.311,0,0,0-1.1-.178,3.365,3.365,0,0,0-1.666.365,2.684,2.684,0,0,0-1.036,1.079V-7.009H10.826V1.352h2.21V-3.44q0-1.919,1.716-1.92a1.486,1.486,0,0,1,1.105.34,1.949,1.949,0,0,1,.323,1.309V1.352Zm6.2-3.178a1.586,1.586,0,0,1-.161.706,1.95,1.95,0,0,1-.425.577,1.953,1.953,0,0,1-.628.391,2.131,2.131,0,0,1-.791.144q-1.07,0-1.07-.934a1.011,1.011,0,0,1,.357-.833A3.174,3.174,0,0,1,23.2-2.251a8.728,8.728,0,0,0,.934-.22,1.193,1.193,0,0,0,.493-.273Zm2.226,3.178V-3.933a4.84,4.84,0,0,0-.186-1.4,2.441,2.441,0,0,0-.6-1.037,2.7,2.7,0,0,0-1.1-.637,5.548,5.548,0,0,0-1.674-.22,5.874,5.874,0,0,0-1.7.212,2.958,2.958,0,0,0-1.13.6,2.269,2.269,0,0,0-.628.934,3.794,3.794,0,0,0-.212,1.19h2.056a1.585,1.585,0,0,1,.416-.9,1.484,1.484,0,0,1,1.1-.34,2,2,0,0,1,1.028.228.711.711,0,0,1,.382.637.713.713,0,0,1-.289.637,2.967,2.967,0,0,1-1.121.315q-.833.119-1.538.264A3.86,3.86,0,0,0,20.41-3a2.155,2.155,0,0,0-.8.841,3.031,3.031,0,0,0-.289,1.436,2.18,2.18,0,0,0,.67,1.658,3,3,0,0,0,2.117.636,3.952,3.952,0,0,0,1.5-.262A2.737,2.737,0,0,0,24.641.6a3.38,3.38,0,0,0,.136.748Zm3.8-2.328A2.758,2.758,0,0,1,30.1-2.761q0-2.548,1.886-2.548t1.886,2.685a2.5,2.5,0,0,1-.535,1.691,1.707,1.707,0,0,1-1.351.62,1.665,1.665,0,0,1-1.351-.662M33.8,1.606a1.589,1.589,0,0,1-.612,1.317,2.33,2.33,0,0,1-1.5.485,2.016,2.016,0,0,1-1.334-.417,1.447,1.447,0,0,1-.5-1.18H27.8a3.382,3.382,0,0,0,.306,1.461,3.225,3.225,0,0,0,.841,1.1,3.854,3.854,0,0,0,1.284.7,5.142,5.142,0,0,0,1.614.247,5.137,5.137,0,0,0,1.63-.254,3.889,3.889,0,0,0,1.326-.74,3.409,3.409,0,0,0,.884-1.207,4.076,4.076,0,0,0,.323-1.674V-7.009H33.8v1.037a2.581,2.581,0,0,0-2.345-1.258,3.282,3.282,0,0,0-1.428.315,3.486,3.486,0,0,0-1.155.883,4.306,4.306,0,0,0-.782,1.377A5.222,5.222,0,0,0,27.8-2.879a6.549,6.549,0,0,0,.2,1.6A3.923,3.923,0,0,0,28.626.094a3.206,3.206,0,0,0,1.138.96,3.749,3.749,0,0,0,1.742.366,3.127,3.127,0,0,0,1.436-.315A1.74,1.74,0,0,0,33.8.23Zm5.437-5.25a2.061,2.061,0,0,1,.552-1.351,1.567,1.567,0,0,1,1.146-.485,1.837,1.837,0,0,1,.629.111,1.511,1.511,0,0,1,.543.34,1.681,1.681,0,0,1,.383.577,2.352,2.352,0,0,1,.161.808ZM44.93-2.251a5.9,5.9,0,0,0-.994-3.738A3.531,3.531,0,0,0,41-7.229a4.6,4.6,0,0,0-1.716.3,3.408,3.408,0,0,0-1.267.858,3.769,3.769,0,0,0-.79,1.343,5.285,5.285,0,0,0-.273,1.75q0,4.554,4.181,4.554a3.851,3.851,0,0,0,2.311-.7,3.666,3.666,0,0,0,1.359-1.988H42.534A1.114,1.114,0,0,1,42-.424a1.844,1.844,0,0,1-.96.247,1.681,1.681,0,0,1-1.317-.561,2.386,2.386,0,0,1-.552-1.512Zm12.9,3.6V-4.442a2.79,2.79,0,0,0-.212-1.087,2.821,2.821,0,0,0-.586-.893,2.613,2.613,0,0,0-.9-.594,3.053,3.053,0,0,0-1.155-.212,2.734,2.734,0,0,0-1.359.315,2.228,2.228,0,0,0-.9,1.011,4.788,4.788,0,0,0-.476-.612,2.412,2.412,0,0,0-.5-.416,1.834,1.834,0,0,0-.594-.229,3.787,3.787,0,0,0-.757-.068,3.091,3.091,0,0,0-1.427.306,2.489,2.489,0,0,0-1.02,1.138V-7.009H45.865V1.352h2.209V-3.729q0-1.631,1.343-1.631a2.184,2.184,0,0,1,.611.076.864.864,0,0,1,.416.264,1.123,1.123,0,0,1,.229.51,4.156,4.156,0,0,1,.068.833v5.03H52.95v-5a2.006,2.006,0,0,1,.4-1.275,1.233,1.233,0,0,1,1.011-.51,1.129,1.129,0,0,1,.951.476,2.009,2.009,0,0,1,.358,1.241V1.352Zm3.11-5a2.067,2.067,0,0,1,.552-1.351,1.57,1.57,0,0,1,1.147-.485,1.831,1.831,0,0,1,.628.111,1.516,1.516,0,0,1,.544.34,1.7,1.7,0,0,1,.382.577,2.325,2.325,0,0,1,.161.808ZM66.63-2.251a5.9,5.9,0,0,0-.994-3.738A3.534,3.534,0,0,0,62.7-7.229a4.607,4.607,0,0,0-1.717.3,3.4,3.4,0,0,0-1.266.858,3.772,3.772,0,0,0-.791,1.343,5.315,5.315,0,0,0-.272,1.75q0,4.554,4.18,4.554a3.849,3.849,0,0,0,2.311-.7,3.668,3.668,0,0,0,1.36-1.988H64.234a1.114,1.114,0,0,1-.535.688,1.851,1.851,0,0,1-.961.247,1.683,1.683,0,0,1-1.317-.561,2.386,2.386,0,0,1-.552-1.512Zm8.513,3.6V-4.442a3.161,3.161,0,0,0-.212-1.2,2.557,2.557,0,0,0-.578-.875,2.346,2.346,0,0,0-.875-.535,3.311,3.311,0,0,0-1.1-.178,3.362,3.362,0,0,0-1.666.365,2.684,2.684,0,0,0-1.036,1.079V-7.009H67.564V1.352h2.209V-3.44q0-1.919,1.717-1.92a1.481,1.481,0,0,1,1.1.34,1.949,1.949,0,0,1,.323,1.309V1.352Zm5.879-3.331a2,2,0,0,1-.315,1.207,1.134,1.134,0,0,1-.977.425,1.1,1.1,0,0,1-.977-.433,2.158,2.158,0,0,1-.3-1.232V-5.446h4.622V-7.009H78.456v-2.26H76.282v7.477A4.385,4.385,0,0,0,76.468-.5a2.786,2.786,0,0,0,.6,1.07,2.95,2.95,0,0,0,1.062.731,4.013,4.013,0,0,0,1.563.272A3.857,3.857,0,0,0,81.218,1.3,2.93,2.93,0,0,0,82.271.562a2.968,2.968,0,0,0,.611-1.071,4.068,4.068,0,0,0,.2-1.266V-4.154H81.023Z" transform="translate(9.632 9.931)" fill="#2b2e34"/></g><g transform="translate(0.432 126.825)"><path d="M.924.932A3,3,0,0,1,.049,2.572a2.438,2.438,0,0,1-1.691.569A2.308,2.308,0,0,1-3.707,2.1,5.307,5.307,0,0,1-4.394-.834,5.272,5.272,0,0,1-3.7-3.75,2.415,2.415,0,0,1-1.523-4.811a2.408,2.408,0,0,1,1.529.535,2.647,2.647,0,0,1,.918,1.5H3.286a4.671,4.671,0,0,0-.45-1.6,4.207,4.207,0,0,0-.986-1.3A4.544,4.544,0,0,0,.372-6.535,5.515,5.515,0,0,0-1.54-6.85a5.429,5.429,0,0,0-2.184.425A4.552,4.552,0,0,0-5.38-5.211,5.491,5.491,0,0,0-6.425-3.273,8.479,8.479,0,0,0-6.79-.7a7.468,7.468,0,0,0,.4,2.557A5.35,5.35,0,0,0-5.295,3.7,4.429,4.429,0,0,0-3.638,4.824,5.646,5.646,0,0,0-1.574,5.2a5.108,5.108,0,0,0,1.8-.306,4.466,4.466,0,0,0,1.436-.867A4.773,4.773,0,0,0,2.691,2.683a6.372,6.372,0,0,0,.6-1.751ZM6.191-6.613H3.983V4.807H6.191Zm0,11.419M12.36,1.629a1.6,1.6,0,0,1-.161.706,1.97,1.97,0,0,1-.425.577,1.946,1.946,0,0,1-.629.391,2.121,2.121,0,0,1-.79.145q-1.07,0-1.071-.935a1.009,1.009,0,0,1,.358-.833A3.175,3.175,0,0,1,10.949,1.2a8.831,8.831,0,0,0,.935-.22,1.213,1.213,0,0,0,.493-.272Zm2.226,3.178V-.477a4.841,4.841,0,0,0-.187-1.4,2.418,2.418,0,0,0-.6-1.037,2.7,2.7,0,0,0-1.1-.637,5.548,5.548,0,0,0-1.674-.22,5.88,5.88,0,0,0-1.7.212,2.944,2.944,0,0,0-1.129.6,2.287,2.287,0,0,0-.629.935,3.814,3.814,0,0,0-.212,1.19H9.4a1.586,1.586,0,0,1,.417-.9,1.481,1.481,0,0,1,1.1-.34,1.984,1.984,0,0,1,1.028.229.707.707,0,0,1,.383.636.711.711,0,0,1-.29.637,2.953,2.953,0,0,1-1.121.315c-.554.08-1.068.167-1.537.264a3.867,3.867,0,0,0-1.216.45,2.158,2.158,0,0,0-.8.842,3.037,3.037,0,0,0-.289,1.435,2.181,2.181,0,0,0,.671,1.658,2.989,2.989,0,0,0,2.115.637,3.951,3.951,0,0,0,1.5-.264,2.75,2.75,0,0,0,1.037-.706,3.318,3.318,0,0,0,.135.748Zm3.4-8.361H15.776V4.807h2.209Zm0,8.361,0-11.419H15.776v2.056h2.209Zm0,2.056M31.119,4.807V-.988a2.79,2.79,0,0,0-.212-1.087,2.8,2.8,0,0,0-.586-.893,2.608,2.608,0,0,0-.9-.594,3.057,3.057,0,0,0-1.155-.212,2.736,2.736,0,0,0-1.36.315A2.234,2.234,0,0,0,26-2.449a4.787,4.787,0,0,0-.475-.612,2.447,2.447,0,0,0-.5-.416,1.824,1.824,0,0,0-.594-.229,3.771,3.771,0,0,0-.757-.068,3.094,3.094,0,0,0-1.427.306A2.487,2.487,0,0,0,21.23-2.331V-3.554H19.157V4.807h2.209V-.274q0-1.631,1.343-1.631a2.134,2.134,0,0,1,.611.077.862.862,0,0,1,.417.262,1.135,1.135,0,0,1,.229.51,4.25,4.25,0,0,1,.068.833v5.03h2.209v-5a2.005,2.005,0,0,1,.4-1.275,1.234,1.234,0,0,1,1.011-.51A1.133,1.133,0,0,1,28.6-1.5a2.016,2.016,0,0,1,.357,1.241V4.807Zm8.174-5.828a2.73,2.73,0,0,0-.944-2.056,4.218,4.218,0,0,0-2.676-.7,6.1,6.1,0,0,0-1.624.187,3.1,3.1,0,0,0-1.1.518,1.9,1.9,0,0,0-.612.79,2.582,2.582,0,0,0-.186.986,2.347,2.347,0,0,0,.229,1.036,2.125,2.125,0,0,0,.824.85,4.4,4.4,0,0,0,1.087.493q.646.2,1.7.458a5.2,5.2,0,0,1,.943.324.644.644,0,0,1,.4.628.683.683,0,0,1-.441.671,2.545,2.545,0,0,1-1.037.2,2.188,2.188,0,0,1-1.274-.323,1.055,1.055,0,0,1-.459-.918H31.851a2.646,2.646,0,0,0,1.061,2.09,4.686,4.686,0,0,0,2.965.816A4.338,4.338,0,0,0,38.6,4.3a2.449,2.449,0,0,0,.926-2.038A2.074,2.074,0,0,0,39.174.974a2.385,2.385,0,0,0-1.02-.738,10.191,10.191,0,0,0-1.138-.349c-.431-.107-.883-.229-1.359-.365a4.59,4.59,0,0,1-1.02-.383.621.621,0,0,1-.34-.569.553.553,0,0,1,.34-.535,2.318,2.318,0,0,1,.969-.161,2,2,0,0,1,1.121.247,1.179,1.179,0,0,1,.442.858Z" transform="translate(6.79 6.85)" fill="#2b2e34"/></g></g></g></svg>