<svg xmlns="http://www.w3.org/2000/svg" xmlns:xlink="http://www.w3.org/1999/xlink" width="278" height="121.017" viewBox="0 0 278 121.017">
  <defs>
    <clipPath id="clip-path">
      <path id="Path_963" data-name="Path 963" d="M0,49.706H278V-71.311H0Z" transform="translate(0 71.311)" fill="none"/>
    </clipPath>
  </defs>
  <g id="Group_1371" data-name="Group 1371" transform="translate(0 71.311)">
    <g id="Group_1362" data-name="Group 1362" transform="translate(0 -71.311)" clip-path="url(#clip-path)">
      <g id="Group_1361" data-name="Group 1361" transform="translate(162.085 28.052)">
        <path id="Path_962" data-name="Path 962" d="M11.994,1.285h0A10.376,10.376,0,0,0,8.145-1.07a14.409,14.409,0,0,0-4.781-.774A14.587,14.587,0,0,0-3.839-.25,11.29,11.29,0,0,0-7.32,2.83V-.923h-9.887V34.985H-6.9v-20.5c0-5,2.154-7.431,6.585-7.431,2,0,3.408.417,4.192,1.241s1.191,2.535,1.191,5.062v21.63H15.451V10.314a13.705,13.705,0,0,0-.925-5.2,11.323,11.323,0,0,0-2.532-3.829" transform="translate(17.207 1.844)" fill="#ffac2d"/>
      </g>
    </g>
    <path id="Path_964" data-name="Path 964" d="M117.083-18.33h10.309V-54.239H117.083Z" transform="translate(81.611 11.9)" fill="#ffac2d"/>
    <g id="Group_1364" data-name="Group 1364" transform="translate(0 -71.311)" clip-path="url(#clip-path)">
      <g id="Group_1363" data-name="Group 1363" transform="translate(119.671 16.807)">
        <path id="Path_965" data-name="Path 965" d="M11.415,13.1c0,5.765-2.9,8.565-8.847,8.565a7.175,7.175,0,0,1-5.8-2.352A9.769,9.769,0,0,1-5.29,12.744v-19.7c0-5.565-3.484-11.835-11.087-11.835V13.664c0,5.806,1.746,10.186,5.19,13.018,3.411,2.805,8.086,4.229,13.9,4.229,6.284,0,11.212-1.51,14.651-4.487,3.459-3,5.213-7.481,5.213-13.327V-18.79H11.415V13.1Z" transform="translate(16.377 18.79)" fill="#ffac2d"/>
      </g>
    </g>
    <path id="Path_967" data-name="Path 967" d="M117.083-51.734h10.309v-9.673H117.083Z" transform="translate(81.611 6.903)" fill="#ffac2d"/>
    <g id="Group_1369" data-name="Group 1369" transform="translate(0 -71.311)" clip-path="url(#clip-path)">
      <g id="Group_1365" data-name="Group 1365" transform="translate(245.558 28.972)">
        <path id="Path_968" data-name="Path 968" d="M9.091,0V21.773a5.558,5.558,0,0,1-1.772,4.261,6.558,6.558,0,0,1-4.742,1.687c-3.625,0-5.313-1.89-5.313-5.948V0H-13.042V23.117a14.045,14.045,0,0,0,1,5.412,12.372,12.372,0,0,0,2.775,4.144,12.13,12.13,0,0,0,4.226,2.669,14.876,14.876,0,0,0,5.288.92A13.339,13.339,0,0,0,6.33,34.894a8.486,8.486,0,0,0,2.761-2.155v3.672a28.293,28.293,0,0,1-.5,5.38,6.645,6.645,0,0,1-1.3,2.186,5.923,5.923,0,0,1-1.845,1.358,5.209,5.209,0,0,1-2.22.475c-.044-.005-.088-.008-.136-.01l-.567-.007v9.055l.565-.007a18.918,18.918,0,0,0,6.215-1.084A15.6,15.6,0,0,0,14.586,50.6a14.6,14.6,0,0,0,3.532-5.072c.85-2,1.283-6.746,1.283-9.259V0Z" transform="translate(13.042)" fill="#ffac2d"/>
      </g>
      <g id="Group_1366" data-name="Group 1366" transform="translate(212.828 16.807)">
        <path id="Path_969" data-name="Path 969" d="M4.177,0H-5.992V33.513a18.907,18.907,0,0,0,.8,5.537,12.183,12.183,0,0,0,2.63,4.667A12.91,12.91,0,0,0,2.059,46.9a17.33,17.33,0,0,0,6.722,1.178A16.66,16.66,0,0,0,15.33,46.9a12.7,12.7,0,0,0,4.582-3.218,12.954,12.954,0,0,0,2.661-4.655,22.947,22.947,0,0,0,.84-6.22v-.552l-9.673-.08v.562a7.825,7.825,0,0,1-1.2,4.689,4.167,4.167,0,0,1-3.618,1.543,4.021,4.021,0,0,1-3.6-1.561,8.509,8.509,0,0,1-1.14-4.811V19.787H23.413V12.164H4.177Z" transform="translate(5.992)" fill="#ffac2d"/>
      </g>
      <g id="Group_1367" data-name="Group 1367" transform="translate(19.743 23.936)">
        <path id="Path_970" data-name="Path 970" d="M33.871,12.573c-.687-6.9-4.263-13.62-10.623-19.983-6.868-6.868-13.381-10.04-20.5-10.567-7.274-.54-14.24,2.462-20.7,8.923L-32.829,5.823-45.643,18.637a11.218,11.218,0,0,0-2.929,6.445c-.18,2.481.82,4.774,3.056,7.009,5.449,5.451,9.741,5.093,14.954-.12l11.594-11.592.007.007L-3.8,5.224C1.414.012,5.705-.472,11.155,4.977c.063.063.114.126.175.187v0c2.108,2.177,3.056,4.409,2.883,6.822a11.28,11.28,0,0,1-2.978,6.5L-5.936,35.663c-3.479,3.467-6.971,6.956-9.843,9.843l-.317.317,0,0c-2.635,2.649-4.709,4.755-5.7,5.807-9.412,9.946.976,27.411.976,27.411L25.247,32.973c6.432-6.432,9.334-13.295,8.624-20.4" transform="translate(48.593 18.038)" fill="#2b2e34"/>
      </g>
      <g id="Group_1368" data-name="Group 1368" transform="translate(0 0.001)">
        <path id="Path_971" data-name="Path 971" d="M32.7,24.811a11.232,11.232,0,0,0,2.931-6.445c.173-2.411-.777-4.645-2.885-6.822h0v0l-.363-.363-.053-.051C27,5.935,22.756,6.468,17.621,11.6L2.46,26.764l-.007-.008L-9.141,38.35c-5.213,5.213-9.505,5.57-14.954.12-2.237-2.237-3.236-4.529-3.058-7.01.02-.275.053-.548.1-.821.029-.173.071-.346.11-.519.022-.1.037-.2.063-.292.061-.231.134-.458.214-.687.014-.041.022-.081.037-.12.092-.258.2-.514.314-.772a.227.227,0,0,1,.012-.031,14.022,14.022,0,0,1,2.081-3.2h0l.048-.059L-7,7.785C-3.526,4.318-.035.828,2.838-2.058l.317-.317v0c2.634-2.649,4.708-4.755,5.7-5.807C18.269-18.131,7.882-35.6,7.882-35.6L-38.188,10.474c-6.432,6.432-9.334,13.3-8.624,20.4.687,6.9,4.263,13.62,10.625,19.983,6.866,6.868,13.379,10.04,20.5,10.567,7.273.54,14.24-2.462,20.7-8.921Z" transform="translate(46.917 35.595)" fill="#ffac2d"/>
      </g>
    </g>
    <text id="Claims" transform="translate(119.671 19.299)" fill="#2b2e34" font-size="24" font-family="CoolveticaRg-Regular, Coolvetica" letter-spacing="0.01em"><tspan x="0" y="0">Claims</tspan></text>
    <g id="Group_1370" data-name="Group 1370" transform="translate(0 -71.311)" clip-path="url(#clip-path)">
      <text id="Management" transform="translate(119.671 112.841)" fill="#2b2e34" font-size="24" font-family="CoolveticaRg-Regular, Coolvetica" letter-spacing="0.01em"><tspan x="0" y="0">Management</tspan></text>
    </g>
  </g>
</svg>
