<svg xmlns="http://www.w3.org/2000/svg" xmlns:xlink="http://www.w3.org/1999/xlink" width="266.867" height="72.726" viewBox="0 0 266.867 72.726"><defs><clipPath id="a"><path d="M0-46.735H266.867v-72.726H0Z" transform="translate(0 119.461)" fill="none"/></clipPath></defs><g transform="translate(0 119.461)"><g transform="translate(0 -119.461)" clip-path="url(#a)"><g transform="translate(71.945 55.724)"><path d="M-.468-2.583a1.607,1.607,0,0,0,.221.79,1.445,1.445,0,0,0,1.309.569,2.247,2.247,0,0,0,.765-.124A.878.878,0,0,0,2.5-2.214a.755.755,0,0,0-.283-.665,2.79,2.79,0,0,0-.9-.339L.563-3.393A3.316,3.316,0,0,1-.478-3.771a1.209,1.209,0,0,1-.528-1.071A1.671,1.671,0,0,1-.487-6.108,2.045,2.045,0,0,1,.984-6.6a2.507,2.507,0,0,1,1.488.435A1.583,1.583,0,0,1,3.083-4.78H2.355a1.476,1.476,0,0,0-.239-.7A1.36,1.36,0,0,0,.962-5.933a1.3,1.3,0,0,0-.945.288.92.92,0,0,0-.287.67.658.658,0,0,0,.34.615,4.855,4.855,0,0,0,1.008.312l.777.183a2.346,2.346,0,0,1,.868.362,1.374,1.374,0,0,1,.528,1.165A1.464,1.464,0,0,1,2.577-.979,2.963,2.963,0,0,1,1.01-.571,2.3,2.3,0,0,1-.619-1.115,1.863,1.863,0,0,1-1.2-2.583Z" transform="translate(1.197 6.603)" fill="#fff"/></g><g transform="translate(77.334 57.317)"><path d="M0-.077H.685V.476A1.721,1.721,0,0,1,1.146.035,1.489,1.489,0,0,1,1.982-.2,1.573,1.573,0,0,1,3.189.345a2.226,2.226,0,0,1,.5,1.552,2.38,2.38,0,0,1-.715,1.947,1.622,1.622,0,0,1-1.056.37,1.437,1.437,0,0,1-.793-.206,1.823,1.823,0,0,1-.418-.4V5.737H0ZM2.638,3.192a1.952,1.952,0,0,0,.326-1.229,2.29,2.29,0,0,0-.145-.857,1,1,0,0,0-1-.689,1,1,0,0,0-1,.727,2.872,2.872,0,0,0-.145.99,2.078,2.078,0,0,0,.145.821,1,1,0,0,0,1,.647,1.006,1.006,0,0,0,.819-.411" transform="translate(0 0.198)" fill="#fff"/></g><g transform="translate(81.591 57.325)"><path d="M-1.808-.134a1.579,1.579,0,0,1,.631.539A1.878,1.878,0,0,1-.9,1.141a4.835,4.835,0,0,1,.062.919H-3.87a1.8,1.8,0,0,0,.3,1.022.991.991,0,0,0,.861.384A1.107,1.107,0,0,0-1.842,3.1a1.239,1.239,0,0,0,.258-.489H-.9a1.456,1.456,0,0,1-.181.513,1.847,1.847,0,0,1-.343.461,1.617,1.617,0,0,1-.785.421,2.342,2.342,0,0,1-.568.062A1.741,1.741,0,0,1-4.084,3.5a2.214,2.214,0,0,1-.538-1.587A2.4,2.4,0,0,1-4.08.284,1.783,1.783,0,0,1-2.664-.342a1.876,1.876,0,0,1,.855.208M-1.557,1.5a1.828,1.828,0,0,0-.2-.728A1.008,1.008,0,0,0-2.708.269a1.054,1.054,0,0,0-.8.348,1.321,1.321,0,0,0-.344.886Z" transform="translate(4.622 0.342)" fill="#fff"/></g><g transform="translate(85.98 57.297)"><path d="M-1.953-.22A1.641,1.641,0,0,1-1.422.96H-2.1a1.262,1.262,0,0,0-.284-.64A.9.9,0,0,0-3.1.064a.986.986,0,0,0-.958.653,2.6,2.6,0,0,0-.186,1.046A1.959,1.959,0,0,0-3.98,2.818a.906.906,0,0,0,.833.428.911.911,0,0,0,.691-.266A1.457,1.457,0,0,0-2.1,2.253h.681a1.826,1.826,0,0,1-.584,1.213,1.824,1.824,0,0,1-1.2.384,1.6,1.6,0,0,1-1.3-.6,2.289,2.289,0,0,1-.487-1.494A2.511,2.511,0,0,1-4.459.049,1.721,1.721,0,0,1-3.1-.563,1.82,1.82,0,0,1-1.953-.22" transform="translate(4.993 0.563)" fill="#fff"/></g></g><path d="M148.251-27.691h.713v.794h-.713Zm0,1.569h.713v4.151h-.713Z" transform="translate(-57.998 -35.902)" fill="#fff"/><g transform="translate(0 -119.461)" clip-path="url(#a)"><g transform="translate(91.83 57.317)"><path d="M-1.562-1.124a.382.382,0,0,0,.323-.2.623.623,0,0,0,.046-.27.572.572,0,0,0-.254-.522,1.357,1.357,0,0,0-.729-.162.924.924,0,0,0-.777.3.991.991,0,0,0-.167.489h-.654a1.211,1.211,0,0,1,.5-1.076,2.05,2.05,0,0,1,1.115-.3,2.264,2.264,0,0,1,1.194.281A.951.951,0,0,1-.51-1.72v2.4A.309.309,0,0,0-.465.859.216.216,0,0,0-.277.925c.031,0,.066,0,.105-.005S-.091.91-.046.9v.517a1.933,1.933,0,0,1-.25.059A1.923,1.923,0,0,1-.53,1.49a.578.578,0,0,1-.526-.257A1,1,0,0,1-1.176.847a1.773,1.773,0,0,1-.615.487,1.907,1.907,0,0,1-.885.206,1.314,1.314,0,0,1-.948-.352A1.164,1.164,0,0,1-3.992.307a1.133,1.133,0,0,1,.362-.9,1.725,1.725,0,0,1,.95-.393ZM-3.038.77a.826.826,0,0,0,.526.175A1.6,1.6,0,0,0-1.8.773a.962.962,0,0,0,.584-.929V-.719a1.171,1.171,0,0,1-.33.136,2.742,2.742,0,0,1-.4.078l-.424.055a1.621,1.621,0,0,0-.573.16A.62.62,0,0,0-3.26.292.575.575,0,0,0-3.038.77" transform="translate(3.992 2.872)" fill="#fff"/></g></g><path d="M158.48-27.691h.7v5.721h-.7Z" transform="translate(-62 -35.902)" fill="#fff"/><path d="M161.358-27.691h.712v.794h-.712Zm0,1.569h.712v4.151h-.712Z" transform="translate(-63.126 -35.902)" fill="#fff"/><g transform="translate(0 -119.461)" clip-path="url(#a)"><g transform="translate(99.747 57.31)"><path d="M-.433-1.909a1.009,1.009,0,0,0,.178.538,1.138,1.138,0,0,0,.939.339,1.408,1.408,0,0,0,.7-.17.56.56,0,0,0,.3-.524.446.446,0,0,0-.242-.408,2.832,2.832,0,0,0-.609-.2L.268-2.474a2.781,2.781,0,0,1-.8-.3A.884.884,0,0,1-.99-3.557a1.193,1.193,0,0,1,.432-.958A1.734,1.734,0,0,1,.6-4.88a1.625,1.625,0,0,1,1.378.552,1.192,1.192,0,0,1,.256.756H1.577A.791.791,0,0,0,1.4-4a1.112,1.112,0,0,0-.857-.275,1.043,1.043,0,0,0-.615.152.468.468,0,0,0-.209.4A.492.492,0,0,0,0-3.291a1.669,1.669,0,0,0,.468.171l.472.113a3.724,3.724,0,0,1,1.032.354.938.938,0,0,1,.408.846,1.281,1.281,0,0,1-.427.962,1.838,1.838,0,0,1-1.3.4A1.761,1.761,0,0,1-.687-.863a1.586,1.586,0,0,1-.42-1.046Z" transform="translate(1.107 4.88)" fill="#fff"/></g><g transform="translate(103.567 56.254)"><path d="M-.363,0H.346V1.165h.666v.572H.346V4.459a.3.3,0,0,0,.148.292.63.63,0,0,0,.273.043l.109,0c.039,0,.085-.007.136-.013v.556a1.526,1.526,0,0,1-.251.051A2.4,2.4,0,0,1,.478,5.4.762.762,0,0,1-.188,5.15,1.118,1.118,0,0,1-.363,4.5V1.737H-.928V1.165h.565Z" transform="translate(0.928)" fill="#fff"/></g><g transform="translate(105.951 57.31)"><path d="M-.433-1.909a1,1,0,0,0,.178.538,1.138,1.138,0,0,0,.939.339,1.408,1.408,0,0,0,.7-.17.56.56,0,0,0,.3-.524.446.446,0,0,0-.242-.408,2.832,2.832,0,0,0-.609-.2L.268-2.474a2.781,2.781,0,0,1-.8-.3A.884.884,0,0,1-.99-3.557a1.193,1.193,0,0,1,.432-.958A1.734,1.734,0,0,1,.6-4.88a1.625,1.625,0,0,1,1.378.552,1.192,1.192,0,0,1,.256.756H1.577A.791.791,0,0,0,1.4-4a1.112,1.112,0,0,0-.857-.275,1.043,1.043,0,0,0-.615.152.468.468,0,0,0-.209.4A.491.491,0,0,0,0-3.291a1.669,1.669,0,0,0,.468.171l.472.113a3.724,3.724,0,0,1,1.032.354.938.938,0,0,1,.408.846,1.281,1.281,0,0,1-.427.962,1.838,1.838,0,0,1-1.3.4A1.761,1.761,0,0,1-.687-.863a1.586,1.586,0,0,1-.42-1.046Z" transform="translate(1.107 4.88)" fill="#fff"/></g></g><path d="M184.65-27.691h.712v.794h-.712Zm0,1.569h.712v4.151h-.712Z" transform="translate(-72.238 -35.902)" fill="#fff"/><g transform="translate(0 -119.461)" clip-path="url(#a)"><g transform="translate(114.184 57.325)"><path d="M0-.06H.666V.531A1.861,1.861,0,0,1,1.293.006a1.661,1.661,0,0,1,.736-.16,1.213,1.213,0,0,1,1.2.619,2.2,2.2,0,0,1,.172.97V4.111H2.687V1.482A1.431,1.431,0,0,0,2.575.866.686.686,0,0,0,1.9.477a1.383,1.383,0,0,0-.408.051A1.06,1.06,0,0,0,.981.87,1.036,1.036,0,0,0,.754,1.3,2.865,2.865,0,0,0,.7,1.926V4.111H0Z" transform="translate(0 0.154)" fill="#fff"/></g><g transform="translate(120.641 57.317)"><path d="M-1.562-1.124a.382.382,0,0,0,.323-.2.623.623,0,0,0,.046-.27.572.572,0,0,0-.254-.522,1.357,1.357,0,0,0-.729-.162.924.924,0,0,0-.777.3.991.991,0,0,0-.167.489h-.654a1.211,1.211,0,0,1,.5-1.076,2.05,2.05,0,0,1,1.115-.3,2.264,2.264,0,0,1,1.194.281A.951.951,0,0,1-.51-1.72v2.4A.309.309,0,0,0-.465.859.216.216,0,0,0-.277.925c.031,0,.066,0,.105-.005S-.091.91-.046.9v.517a1.933,1.933,0,0,1-.25.059A1.923,1.923,0,0,1-.53,1.49a.578.578,0,0,1-.526-.257A1,1,0,0,1-1.176.847a1.773,1.773,0,0,1-.615.487,1.907,1.907,0,0,1-.885.206,1.314,1.314,0,0,1-.948-.352A1.164,1.164,0,0,1-3.992.307a1.133,1.133,0,0,1,.362-.9,1.725,1.725,0,0,1,.95-.393ZM-3.038.77a.826.826,0,0,0,.526.175A1.6,1.6,0,0,0-1.8.773a.962.962,0,0,0,.584-.929V-.719a1.171,1.171,0,0,1-.33.136,2.742,2.742,0,0,1-.4.078l-.424.055a1.621,1.621,0,0,0-.573.16A.62.62,0,0,0-3.26.292.575.575,0,0,0-3.038.77" transform="translate(3.992 2.872)" fill="#fff"/></g><g transform="translate(125.256 57.418)"><path d="M-.46,0V2.769a1.194,1.194,0,0,0,.1.522.685.685,0,0,0,.679.374.96.96,0,0,0,.971-.655,2.65,2.65,0,0,0,.14-.962V0h.7V4.171H1.467l.008-.615a1.417,1.417,0,0,1-.332.4,1.447,1.447,0,0,1-.956.327,1.224,1.224,0,0,1-1.192-.6,1.8,1.8,0,0,1-.172-.853V0Z" transform="translate(1.177)" fill="#fff"/></g><g transform="translate(129.283 56.254)"><path d="M-.363,0H.346V1.165h.666v.572H.346V4.459a.3.3,0,0,0,.148.292.63.63,0,0,0,.273.043l.109,0c.039,0,.085-.007.136-.013v.556a1.533,1.533,0,0,1-.251.051A2.39,2.39,0,0,1,.478,5.4.762.762,0,0,1-.188,5.15,1.118,1.118,0,0,1-.363,4.5V1.737H-.928V1.165h.565Z" transform="translate(0.928)" fill="#fff"/></g><g transform="translate(131.639 57.298)"><path d="M-2.125-.345a2.1,2.1,0,0,1,.553,1.58A2.724,2.724,0,0,1-2.059,2.9a1.758,1.758,0,0,1-1.512.658,1.7,1.7,0,0,1-1.358-.582,2.309,2.309,0,0,1-.5-1.562A2.5,2.5,0,0,1-4.9-.26,1.774,1.774,0,0,1-3.478-.882a1.868,1.868,0,0,1,1.353.537m-.435,2.772A2.654,2.654,0,0,0-2.3,1.254,2.109,2.109,0,0,0-2.489.305,1.037,1.037,0,0,0-3.5-.271a.994.994,0,0,0-.925.49A2.291,2.291,0,0,0-4.71,1.4,1.991,1.991,0,0,0-4.422,2.51a1.014,1.014,0,0,0,.917.443.954.954,0,0,0,.945-.526" transform="translate(5.431 0.882)" fill="#fff"/></g><g transform="translate(136.358 57.325)"><path d="M0-.06H.694V.531A2.347,2.347,0,0,1,1.145.083a1.361,1.361,0,0,1,.787-.237,1.241,1.241,0,0,1,.8.245A1.281,1.281,0,0,1,3.045.5a1.519,1.519,0,0,1,.55-.5A1.539,1.539,0,0,1,4.3-.154,1.16,1.16,0,0,1,5.449.454a1.989,1.989,0,0,1,.163.88V4.111H4.884v-2.9A.673.673,0,0,0,4.675.64.819.819,0,0,0,4.167.485a1.011,1.011,0,0,0-.711.276,1.219,1.219,0,0,0-.3.924V4.111H2.446V1.389a1.425,1.425,0,0,0-.1-.62.62.62,0,0,0-.6-.292,1.031,1.031,0,0,0-.723.307A1.508,1.508,0,0,0,.7,1.9V4.111H0Z" transform="translate(0 0.154)" fill="#fff"/></g><g transform="translate(142.719 57.298)"><path d="M-2.125-.345a2.1,2.1,0,0,1,.553,1.58A2.724,2.724,0,0,1-2.059,2.9a1.759,1.759,0,0,1-1.512.658,1.7,1.7,0,0,1-1.358-.582,2.309,2.309,0,0,1-.5-1.562A2.5,2.5,0,0,1-4.9-.26,1.775,1.775,0,0,1-3.479-.882a1.869,1.869,0,0,1,1.354.537M-2.56,2.427A2.646,2.646,0,0,0-2.3,1.254,2.109,2.109,0,0,0-2.489.305,1.037,1.037,0,0,0-3.5-.271a.993.993,0,0,0-.924.49A2.292,2.292,0,0,0-4.711,1.4,1.991,1.991,0,0,0-4.422,2.51a1.013,1.013,0,0,0,.917.443.953.953,0,0,0,.945-.526" transform="translate(5.431 0.882)" fill="#fff"/></g><g transform="translate(147.014 56.254)"><path d="M-.363,0H.346V1.165h.666v.572H.346V4.459a.294.294,0,0,0,.147.292.633.633,0,0,0,.273.043l.109,0c.039,0,.084-.007.136-.013v.556a1.533,1.533,0,0,1-.251.051A2.4,2.4,0,0,1,.478,5.4.762.762,0,0,1-.188,5.15,1.118,1.118,0,0,1-.363,4.5V1.737H-.928V1.165h.565Z" transform="translate(0.928)" fill="#fff"/></g></g><path d="M245.826-27.691h.712v.794h-.712Zm0,1.569h.712v4.151h-.712Z" transform="translate(-96.171 -35.902)" fill="#fff"/><g transform="translate(150.958 -62.043)"><path d="M-.523,0,.59,3.4,1.751,0h.767L.948,4.171H.2L-1.337,0Z" transform="translate(1.337)" fill="#fff"/></g><g transform="translate(0 -119.461)" clip-path="url(#a)"><g transform="translate(155.177 57.325)"><path d="M-1.808-.134a1.575,1.575,0,0,1,.631.539A1.878,1.878,0,0,1-.9,1.141a4.823,4.823,0,0,1,.063.919H-3.87a1.8,1.8,0,0,0,.3,1.022.991.991,0,0,0,.861.384,1.108,1.108,0,0,0,.87-.363,1.238,1.238,0,0,0,.257-.489h.689a1.442,1.442,0,0,1-.181.513,1.848,1.848,0,0,1-.343.461,1.617,1.617,0,0,1-.785.421,2.337,2.337,0,0,1-.567.062A1.742,1.742,0,0,1-4.083,3.5a2.213,2.213,0,0,1-.538-1.587A2.408,2.408,0,0,1-4.08.284,1.784,1.784,0,0,1-2.663-.342a1.875,1.875,0,0,1,.855.208M-1.557,1.5a1.808,1.808,0,0,0-.2-.728A1.007,1.007,0,0,0-2.707.269a1.055,1.055,0,0,0-.8.348,1.324,1.324,0,0,0-.344.886Z" transform="translate(4.621 0.342)" fill="#fff"/></g><g transform="translate(162.086 57.325)"><path d="M0-.06H.666V.66a1.581,1.581,0,0,1,.4-.512,1.038,1.038,0,0,1,.736-.3l.066,0,.16.016v.74A.891.891,0,0,0,1.914.59c-.035,0-.074,0-.115,0A1,1,0,0,0,.986.927,1.189,1.189,0,0,0,.7,1.712v2.4H0Z" transform="translate(0 0.154)" fill="#fff"/></g><g transform="translate(164.485 57.325)"><path d="M-1.808-.134a1.579,1.579,0,0,1,.631.539A1.868,1.868,0,0,1-.9,1.141a4.835,4.835,0,0,1,.062.919H-3.87a1.8,1.8,0,0,0,.3,1.022.991.991,0,0,0,.861.384A1.1,1.1,0,0,0-1.842,3.1a1.24,1.24,0,0,0,.258-.489H-.9a1.466,1.466,0,0,1-.181.513,1.863,1.863,0,0,1-.343.461,1.617,1.617,0,0,1-.785.421,2.342,2.342,0,0,1-.568.062A1.74,1.74,0,0,1-4.084,3.5a2.214,2.214,0,0,1-.538-1.587A2.4,2.4,0,0,1-4.08.284,1.783,1.783,0,0,1-2.664-.342a1.876,1.876,0,0,1,.856.208M-1.557,1.5a1.837,1.837,0,0,0-.2-.728A1.006,1.006,0,0,0-2.708.269a1.054,1.054,0,0,0-.8.348,1.321,1.321,0,0,0-.344.886Z" transform="translate(4.622 0.342)" fill="#fff"/></g><g transform="translate(169.099 57.317)"><path d="M0-.077H.685V.476A1.714,1.714,0,0,1,1.147.035,1.485,1.485,0,0,1,1.982-.2,1.573,1.573,0,0,1,3.189.345a2.226,2.226,0,0,1,.5,1.552,2.378,2.378,0,0,1-.715,1.947,1.621,1.621,0,0,1-1.056.37,1.438,1.438,0,0,1-.794-.206,1.823,1.823,0,0,1-.418-.4V5.737H0ZM2.638,3.192a1.952,1.952,0,0,0,.326-1.229,2.29,2.29,0,0,0-.145-.857,1,1,0,0,0-1-.689,1,1,0,0,0-1,.727,2.886,2.886,0,0,0-.145.99,2.089,2.089,0,0,0,.145.821,1,1,0,0,0,1,.647,1,1,0,0,0,.819-.411" transform="translate(0 0.198)" fill="#fff"/></g><g transform="translate(173.399 57.317)"><path d="M-1.562-1.124a.381.381,0,0,0,.323-.2.623.623,0,0,0,.046-.27.573.573,0,0,0-.254-.522,1.361,1.361,0,0,0-.729-.162.922.922,0,0,0-.777.3.991.991,0,0,0-.167.489h-.654a1.211,1.211,0,0,1,.5-1.076,2.05,2.05,0,0,1,1.115-.3,2.267,2.267,0,0,1,1.194.281A.952.952,0,0,1-.51-1.72v2.4A.309.309,0,0,0-.465.859.217.217,0,0,0-.277.925c.031,0,.066,0,.105-.005S-.091.91-.046.9v.517A1.929,1.929,0,0,1-.3,1.478,1.941,1.941,0,0,1-.53,1.49a.578.578,0,0,1-.526-.257,1,1,0,0,1-.12-.386,1.782,1.782,0,0,1-.615.487,1.9,1.9,0,0,1-.884.206,1.314,1.314,0,0,1-.948-.352A1.167,1.167,0,0,1-3.992.307a1.133,1.133,0,0,1,.362-.9,1.727,1.727,0,0,1,.95-.393ZM-3.037.77a.826.826,0,0,0,.526.175A1.6,1.6,0,0,0-1.795.773a.962.962,0,0,0,.584-.929V-.719a1.175,1.175,0,0,1-.331.136,2.742,2.742,0,0,1-.4.078l-.424.055a1.625,1.625,0,0,0-.573.16A.62.62,0,0,0-3.26.292.576.576,0,0,0-3.037.77" transform="translate(3.992 2.872)" fill="#fff"/></g></g><path d="M292.434-27.691h.713v.794h-.713Zm0,1.569h.713v4.151h-.713Z" transform="translate(-114.405 -35.902)" fill="#fff"/><g transform="translate(0 -119.461)" clip-path="url(#a)"><g transform="translate(179.821 57.325)"><path d="M0-.06H.666V.66a1.581,1.581,0,0,1,.4-.512,1.039,1.039,0,0,1,.735-.3l.066,0,.16.016v.74A.891.891,0,0,0,1.914.59c-.035,0-.074,0-.114,0A1,1,0,0,0,.986.927,1.189,1.189,0,0,0,.7,1.712v2.4H0Z" transform="translate(0 0.154)" fill="#fff"/></g><g transform="translate(182.201 57.31)"><path d="M-.433-1.909a1,1,0,0,0,.178.538,1.137,1.137,0,0,0,.938.339,1.408,1.408,0,0,0,.7-.17.56.56,0,0,0,.3-.524.445.445,0,0,0-.242-.408,2.811,2.811,0,0,0-.609-.2L.268-2.474a2.781,2.781,0,0,1-.8-.3.883.883,0,0,1-.46-.787,1.194,1.194,0,0,1,.432-.958A1.736,1.736,0,0,1,.6-4.88a1.626,1.626,0,0,1,1.378.552,1.2,1.2,0,0,1,.256.756H1.576A.791.791,0,0,0,1.4-4a1.111,1.111,0,0,0-.857-.275,1.045,1.045,0,0,0-.616.152.469.469,0,0,0-.209.4A.491.491,0,0,0,0-3.291a1.664,1.664,0,0,0,.468.171l.472.113a3.709,3.709,0,0,1,1.032.354.938.938,0,0,1,.409.846,1.281,1.281,0,0,1-.427.962,1.838,1.838,0,0,1-1.3.4A1.76,1.76,0,0,1-.687-.863a1.586,1.586,0,0,1-.42-1.046Z" transform="translate(1.107 4.88)" fill="#fff"/></g><g transform="translate(188.494 55.876)"><path d="M-.517-1.176a1.385,1.385,0,0,1-.122-.549,1.229,1.229,0,0,1,.373-.917,1.366,1.366,0,0,1,1-.363,1.246,1.246,0,0,1,.928.338,1.114,1.114,0,0,1,.334.81A1.455,1.455,0,0,1,1.649-.9,3.277,3.277,0,0,1,.974-.34L2.013.907C2.081.7,2.13.544,2.156.442S2.211.2,2.239.012H2.9a4.234,4.234,0,0,1-.264,1.053q-.2.5-.2.407L3.457,2.707h-.9l-.535-.654a2.81,2.81,0,0,1-.582.507A2.011,2.011,0,0,1,.375,2.84,1.6,1.6,0,0,1-.917,2.359a1.645,1.645,0,0,1-.4-1.085A1.564,1.564,0,0,1-.928.187a4.292,4.292,0,0,1,.9-.662,2.931,2.931,0,0,1-.485-.7m1.685,3.2a1.612,1.612,0,0,0,.476-.444L.356,0A3.888,3.888,0,0,0-.356.565a1.04,1.04,0,0,0-.256.712.818.818,0,0,0,.331.7,1.166,1.166,0,0,0,.707.245,1.353,1.353,0,0,0,.741-.2M1.112-1.217A.881.881,0,0,0,1.339-1.8a.622.622,0,0,0-.167-.435.576.576,0,0,0-.449-.183.629.629,0,0,0-.6.287.638.638,0,0,0-.085.323.871.871,0,0,0,.131.455,4.165,4.165,0,0,0,.436.564,3.008,3.008,0,0,0,.5-.424" transform="translate(1.321 3.006)" fill="#fff"/></g><g transform="translate(195.913 57.297)"><path d="M-1.953-.22A1.641,1.641,0,0,1-1.422.96H-2.1a1.256,1.256,0,0,0-.284-.64A.9.9,0,0,0-3.1.064a.985.985,0,0,0-.958.653,2.6,2.6,0,0,0-.187,1.046A1.96,1.96,0,0,0-3.98,2.818a.905.905,0,0,0,.833.428.912.912,0,0,0,.692-.266A1.452,1.452,0,0,0-2.1,2.253h.682a1.828,1.828,0,0,1-.584,1.213,1.824,1.824,0,0,1-1.2.384,1.6,1.6,0,0,1-1.3-.6,2.286,2.286,0,0,1-.487-1.494A2.514,2.514,0,0,1-4.46.049,1.722,1.722,0,0,1-3.1-.563,1.82,1.82,0,0,1-1.953-.22" transform="translate(4.993 0.563)" fill="#fff"/></g></g><path d="M328.86-27.691h.7v5.721h-.7Z" transform="translate(-128.655 -35.902)" fill="#fff"/><g transform="translate(0 -119.461)" clip-path="url(#a)"><g transform="translate(201.763 57.317)"><path d="M-1.562-1.124a.382.382,0,0,0,.323-.2.623.623,0,0,0,.046-.27.573.573,0,0,0-.254-.522,1.362,1.362,0,0,0-.729-.162.922.922,0,0,0-.777.3.991.991,0,0,0-.167.489h-.654a1.211,1.211,0,0,1,.5-1.076,2.048,2.048,0,0,1,1.115-.3,2.267,2.267,0,0,1,1.194.281A.952.952,0,0,1-.51-1.72v2.4A.309.309,0,0,0-.465.859.217.217,0,0,0-.277.925c.031,0,.066,0,.105-.005S-.091.91-.047.9v.517A1.925,1.925,0,0,1-.3,1.478,1.941,1.941,0,0,1-.53,1.49a.578.578,0,0,1-.526-.257.988.988,0,0,1-.12-.386,1.779,1.779,0,0,1-.616.487,1.9,1.9,0,0,1-.883.206,1.312,1.312,0,0,1-.948-.352A1.167,1.167,0,0,1-3.992.307a1.133,1.133,0,0,1,.362-.9,1.727,1.727,0,0,1,.95-.393ZM-3.037.77a.825.825,0,0,0,.525.175A1.593,1.593,0,0,0-1.8.773a.962.962,0,0,0,.584-.929V-.719a1.183,1.183,0,0,1-.331.136,2.742,2.742,0,0,1-.4.078l-.424.055a1.621,1.621,0,0,0-.573.16A.62.62,0,0,0-3.26.292.574.574,0,0,0-3.037.77" transform="translate(3.992 2.872)" fill="#fff"/></g></g><path d="M339.026-27.691h.712v.794h-.712Zm0,1.569h.712v4.151h-.712Z" transform="translate(-132.632 -35.902)" fill="#fff"/><g transform="translate(0 -119.461)" clip-path="url(#a)"><g transform="translate(208.165 57.325)"><path d="M0-.06H.693V.531A2.383,2.383,0,0,1,1.145.083a1.36,1.36,0,0,1,.787-.237,1.241,1.241,0,0,1,.8.245A1.289,1.289,0,0,1,3.045.5a1.514,1.514,0,0,1,.55-.5A1.537,1.537,0,0,1,4.3-.154,1.16,1.16,0,0,1,5.449.454a1.989,1.989,0,0,1,.163.88V4.111H4.884v-2.9A.677.677,0,0,0,4.675.64.825.825,0,0,0,4.167.485a1.009,1.009,0,0,0-.711.276,1.216,1.216,0,0,0-.3.924V4.111H2.446V1.389a1.414,1.414,0,0,0-.1-.62.618.618,0,0,0-.6-.292,1.031,1.031,0,0,0-.723.307A1.513,1.513,0,0,0,.7,1.9V4.111H0Z" transform="translate(0 0.154)" fill="#fff"/></g><g transform="translate(214.552 57.31)"><path d="M-.433-1.909a1,1,0,0,0,.178.538,1.137,1.137,0,0,0,.938.339,1.408,1.408,0,0,0,.7-.17.56.56,0,0,0,.3-.524.445.445,0,0,0-.241-.408,2.832,2.832,0,0,0-.609-.2L.268-2.474a2.781,2.781,0,0,1-.8-.3.883.883,0,0,1-.46-.787,1.194,1.194,0,0,1,.432-.958A1.736,1.736,0,0,1,.6-4.88a1.626,1.626,0,0,1,1.378.552,1.2,1.2,0,0,1,.256.756H1.576A.787.787,0,0,0,1.4-4a1.11,1.11,0,0,0-.857-.275,1.045,1.045,0,0,0-.616.152.469.469,0,0,0-.209.4A.491.491,0,0,0,0-3.291a1.664,1.664,0,0,0,.468.171l.472.113a3.709,3.709,0,0,1,1.032.354.938.938,0,0,1,.409.846,1.281,1.281,0,0,1-.427.962,1.838,1.838,0,0,1-1.3.4A1.76,1.76,0,0,1-.687-.863a1.586,1.586,0,0,1-.42-1.046Z" transform="translate(1.107 4.88)" fill="#fff"/></g><g transform="translate(221.013 57.325)"><path d="M0-.06H.694V.531A2.347,2.347,0,0,1,1.145.083a1.361,1.361,0,0,1,.787-.237,1.241,1.241,0,0,1,.8.245A1.281,1.281,0,0,1,3.045.5a1.519,1.519,0,0,1,.55-.5A1.539,1.539,0,0,1,4.3-.154,1.16,1.16,0,0,1,5.449.454a1.989,1.989,0,0,1,.163.88V4.111H4.884v-2.9A.675.675,0,0,0,4.675.64.822.822,0,0,0,4.167.485a1.011,1.011,0,0,0-.711.276,1.219,1.219,0,0,0-.3.924V4.111H2.446V1.389a1.425,1.425,0,0,0-.1-.62.62.62,0,0,0-.6-.292,1.031,1.031,0,0,0-.723.307A1.511,1.511,0,0,0,.7,1.9V4.111H0Z" transform="translate(0 0.154)" fill="#fff"/></g><g transform="translate(227.462 57.317)"><path d="M-1.562-1.124a.381.381,0,0,0,.323-.2.623.623,0,0,0,.046-.27.573.573,0,0,0-.254-.522,1.362,1.362,0,0,0-.729-.162.922.922,0,0,0-.777.3.991.991,0,0,0-.167.489h-.654a1.211,1.211,0,0,1,.5-1.076,2.05,2.05,0,0,1,1.115-.3,2.267,2.267,0,0,1,1.194.281A.952.952,0,0,1-.51-1.72v2.4A.309.309,0,0,0-.465.859.217.217,0,0,0-.277.925c.031,0,.066,0,.105-.005S-.091.91-.047.9v.517A1.9,1.9,0,0,1-.3,1.478,1.941,1.941,0,0,1-.53,1.49a.578.578,0,0,1-.526-.257.988.988,0,0,1-.12-.386,1.782,1.782,0,0,1-.615.487,1.906,1.906,0,0,1-.884.206,1.312,1.312,0,0,1-.948-.352A1.167,1.167,0,0,1-3.992.307a1.133,1.133,0,0,1,.362-.9,1.727,1.727,0,0,1,.95-.393ZM-3.037.77a.825.825,0,0,0,.525.175A1.593,1.593,0,0,0-1.8.773a.962.962,0,0,0,.584-.929V-.719a1.183,1.183,0,0,1-.331.136,2.742,2.742,0,0,1-.4.078l-.424.055a1.621,1.621,0,0,0-.573.16A.62.62,0,0,0-3.26.292.574.574,0,0,0-3.037.77" transform="translate(3.992 2.872)" fill="#fff"/></g><g transform="translate(232.093 57.325)"><path d="M0-.06H.666V.531A1.865,1.865,0,0,1,1.292.006a1.665,1.665,0,0,1,.737-.16,1.213,1.213,0,0,1,1.2.619,2.187,2.187,0,0,1,.172.97V4.111H2.687V1.482A1.422,1.422,0,0,0,2.574.866.685.685,0,0,0,1.9.477a1.383,1.383,0,0,0-.408.051A1.065,1.065,0,0,0,.981.87,1.042,1.042,0,0,0,.754,1.3,2.865,2.865,0,0,0,.7,1.926V4.111H0Z" transform="translate(0 0.154)" fill="#fff"/></g><g transform="translate(236.334 57.317)"><path d="M-1.562-1.124a.381.381,0,0,0,.323-.2.623.623,0,0,0,.046-.27.573.573,0,0,0-.254-.522,1.362,1.362,0,0,0-.729-.162.922.922,0,0,0-.777.3.991.991,0,0,0-.167.489h-.654a1.211,1.211,0,0,1,.5-1.076,2.05,2.05,0,0,1,1.115-.3,2.267,2.267,0,0,1,1.194.281A.952.952,0,0,1-.51-1.72v2.4A.309.309,0,0,0-.465.859.217.217,0,0,0-.277.925c.031,0,.066,0,.105-.005S-.091.91-.046.9v.517A1.929,1.929,0,0,1-.3,1.478,1.941,1.941,0,0,1-.53,1.49a.578.578,0,0,1-.526-.257.988.988,0,0,1-.12-.386,1.782,1.782,0,0,1-.615.487,1.9,1.9,0,0,1-.884.206,1.314,1.314,0,0,1-.948-.352A1.167,1.167,0,0,1-3.992.307a1.133,1.133,0,0,1,.362-.9,1.727,1.727,0,0,1,.95-.393ZM-3.037.77a.825.825,0,0,0,.525.175A1.6,1.6,0,0,0-1.795.773a.963.963,0,0,0,.584-.929V-.719a1.175,1.175,0,0,1-.331.136,2.742,2.742,0,0,1-.4.078l-.424.055a1.625,1.625,0,0,0-.573.16A.62.62,0,0,0-3.26.292.576.576,0,0,0-3.037.77" transform="translate(3.992 2.872)" fill="#fff"/></g><g transform="translate(240.688 57.344)"><path d="M-1.668-.155a1.918,1.918,0,0,1,.4.4V-.284h.647V3.51A2.816,2.816,0,0,1-.85,4.764a1.673,1.673,0,0,1-1.642.849,2.009,2.009,0,0,1-1.129-.3,1.18,1.18,0,0,1-.513-.945h.713a.787.787,0,0,0,.2.432,1.023,1.023,0,0,0,.744.234,1.022,1.022,0,0,0,1.05-.569,3.216,3.216,0,0,0,.135-1.2,1.375,1.375,0,0,1-.5.475,1.667,1.667,0,0,1-.779.156,1.663,1.663,0,0,1-1.182-.481,2.121,2.121,0,0,1-.507-1.591A2.412,2.412,0,0,1-3.753.192,1.574,1.574,0,0,1-2.521-.4a1.506,1.506,0,0,1,.854.242M-1.581.6a1.017,1.017,0,0,0-.81-.374A1,1,0,0,0-3.4.916a2.731,2.731,0,0,0-.143.97,1.728,1.728,0,0,0,.284,1.073.918.918,0,0,0,.765.368,1.074,1.074,0,0,0,1.058-.682,2.2,2.2,0,0,0,.17-.9A1.747,1.747,0,0,0-1.581.6" transform="translate(4.263 0.397)" fill="#fff"/></g><g transform="translate(245.163 57.325)"><path d="M-1.808-.134a1.579,1.579,0,0,1,.631.539A1.878,1.878,0,0,1-.9,1.141a4.835,4.835,0,0,1,.062.919H-3.87a1.8,1.8,0,0,0,.3,1.022.993.993,0,0,0,.862.384A1.1,1.1,0,0,0-1.842,3.1a1.24,1.24,0,0,0,.258-.489H-.9a1.466,1.466,0,0,1-.181.513,1.863,1.863,0,0,1-.343.461,1.617,1.617,0,0,1-.785.421,2.347,2.347,0,0,1-.569.062A1.739,1.739,0,0,1-4.084,3.5a2.214,2.214,0,0,1-.538-1.587A2.4,2.4,0,0,1-4.08.284,1.783,1.783,0,0,1-2.664-.342a1.876,1.876,0,0,1,.856.208M-1.557,1.5a1.837,1.837,0,0,0-.2-.728A1.006,1.006,0,0,0-2.708.269a1.054,1.054,0,0,0-.8.348,1.321,1.321,0,0,0-.344.886Z" transform="translate(4.622 0.342)" fill="#fff"/></g><g transform="translate(249.836 57.325)"><path d="M0-.06H.693V.531A2.383,2.383,0,0,1,1.145.083a1.36,1.36,0,0,1,.787-.237,1.241,1.241,0,0,1,.8.245A1.289,1.289,0,0,1,3.045.5a1.514,1.514,0,0,1,.55-.5A1.537,1.537,0,0,1,4.3-.154,1.16,1.16,0,0,1,5.449.454a1.989,1.989,0,0,1,.163.88V4.111H4.884v-2.9A.677.677,0,0,0,4.675.64.825.825,0,0,0,4.167.485a1.009,1.009,0,0,0-.711.276,1.216,1.216,0,0,0-.3.924V4.111H2.446V1.389a1.414,1.414,0,0,0-.1-.62.619.619,0,0,0-.6-.292,1.03,1.03,0,0,0-.723.307A1.511,1.511,0,0,0,.7,1.9V4.111H0Z" transform="translate(0 0.154)" fill="#fff"/></g><g transform="translate(256.243 57.325)"><path d="M-1.808-.134a1.583,1.583,0,0,1,.631.539A1.878,1.878,0,0,1-.9,1.141a4.835,4.835,0,0,1,.062.919H-3.87a1.8,1.8,0,0,0,.3,1.022.993.993,0,0,0,.862.384A1.1,1.1,0,0,0-1.842,3.1a1.24,1.24,0,0,0,.258-.489H-.9a1.466,1.466,0,0,1-.181.513,1.863,1.863,0,0,1-.343.461,1.617,1.617,0,0,1-.785.421,2.347,2.347,0,0,1-.569.062A1.739,1.739,0,0,1-4.084,3.5a2.214,2.214,0,0,1-.538-1.587A2.4,2.4,0,0,1-4.08.284,1.783,1.783,0,0,1-2.664-.342a1.876,1.876,0,0,1,.856.208M-1.557,1.5a1.837,1.837,0,0,0-.2-.728A1.006,1.006,0,0,0-2.708.269a1.053,1.053,0,0,0-.8.348,1.321,1.321,0,0,0-.344.886Z" transform="translate(4.622 0.342)" fill="#fff"/></g><g transform="translate(260.916 57.325)"><path d="M0-.06H.666V.531A1.865,1.865,0,0,1,1.292.006a1.665,1.665,0,0,1,.737-.16,1.212,1.212,0,0,1,1.2.619,2.187,2.187,0,0,1,.172.97V4.111H2.687V1.482A1.422,1.422,0,0,0,2.574.866.685.685,0,0,0,1.9.477a1.383,1.383,0,0,0-.408.051A1.065,1.065,0,0,0,.981.87,1.042,1.042,0,0,0,.754,1.3,2.865,2.865,0,0,0,.7,1.926V4.111H0Z" transform="translate(0 0.154)" fill="#fff"/></g><g transform="translate(264.927 56.254)"><path d="M-.363,0H.346V1.165h.666v.572H.346V4.459a.294.294,0,0,0,.147.292.635.635,0,0,0,.273.043l.109,0c.039,0,.084-.007.136-.013v.556a1.546,1.546,0,0,1-.251.051A2.408,2.408,0,0,1,.478,5.4.762.762,0,0,1-.188,5.15,1.118,1.118,0,0,1-.363,4.5V1.737H-.928V1.165h.565Z" transform="translate(0.928)" fill="#fff"/></g><g transform="translate(97.435 16.858)"><path d="M-11.277-1.208h0A6.233,6.233,0,0,0-13.59-2.624a8.674,8.674,0,0,0-2.873-.465,8.763,8.763,0,0,0-4.329.958A6.791,6.791,0,0,0-22.884-.281V-2.536h-5.941V19.043h6.2V6.723c0-3.006,1.294-4.466,3.957-4.466A3.422,3.422,0,0,1-16.153,3a4.617,4.617,0,0,1,.716,3.043v13H-9.2V4.216a8.241,8.241,0,0,0-.556-3.124,6.8,6.8,0,0,0-1.521-2.3" transform="translate(28.825 3.089)" fill="#ffac2d"/></g></g><path d="M196.186-69.281h6.195v-21.58h-6.195Z" transform="translate(-76.751 -11.189)" fill="#ffac2d"/><g transform="translate(0 -119.461)" clip-path="url(#a)"><g transform="translate(71.945 10.1)"><path d="M-10.733-12.315c0,3.464-1.74,5.147-5.316,5.147A4.313,4.313,0,0,1-19.535-8.58a5.875,5.875,0,0,1-1.236-3.947V-24.365c0-3.344-2.094-7.113-6.663-7.113v19.5c0,3.489,1.05,6.121,3.119,7.823a12.806,12.806,0,0,0,8.351,2.542c3.776,0,6.739-.908,8.8-2.7s3.133-4.5,3.133-8.009V-31.478h-6.706v19.163Z" transform="translate(27.435 31.478)" fill="#ffac2d"/></g></g><path d="M196.186-97.057h6.2v-5.813h-6.2Z" transform="translate(-76.751 -6.491)" fill="#ffac2d"/><g transform="translate(0 -119.461)" clip-path="url(#a)"><g transform="translate(147.597 17.411)"><path d="M-8.548,0V13.084a3.342,3.342,0,0,1-1.065,2.562,3.941,3.941,0,0,1-2.85,1.014c-2.178,0-3.192-1.136-3.192-3.575V0h-6.194V13.892a8.43,8.43,0,0,0,.6,3.252,7.431,7.431,0,0,0,1.668,2.491,7.3,7.3,0,0,0,2.539,1.6,8.956,8.956,0,0,0,3.178.552,8.009,8.009,0,0,0,3.658-.822,5.094,5.094,0,0,0,1.66-1.294v2.207a17.055,17.055,0,0,1-.3,3.233,3.981,3.981,0,0,1-.782,1.313,3.583,3.583,0,0,1-1.107.817,3.151,3.151,0,0,1-1.334.284c-.026,0-.053,0-.082-.005l-.34,0v5.443l.339,0a11.349,11.349,0,0,0,3.734-.652,9.354,9.354,0,0,0,3.172-1.9,8.771,8.771,0,0,0,2.122-3.048,19.258,19.258,0,0,0,.77-5.564V0Z" transform="translate(21.849)" fill="#ffac2d"/></g><g transform="translate(127.928 10.1)"><path d="M-3.927,0h-6.111V20.14a11.36,11.36,0,0,0,.483,3.328,7.307,7.307,0,0,0,1.58,2.8A7.745,7.745,0,0,0-5.2,28.182a10.413,10.413,0,0,0,4.039.708,10.011,10.011,0,0,0,3.935-.708,7.64,7.64,0,0,0,2.754-1.934,7.79,7.79,0,0,0,1.6-2.8,13.778,13.778,0,0,0,.505-3.738v-.332L1.82,19.334v.338A4.707,4.707,0,0,1,1.1,22.49a2.5,2.5,0,0,1-2.175.927,2.417,2.417,0,0,1-2.167-.938,5.122,5.122,0,0,1-.685-2.891v-7.7H7.633V7.311H-3.927Z" transform="translate(10.038)" fill="#ffac2d"/></g><g transform="translate(171.69 10.111)"><path d="M-12.071-12.307a7.072,7.072,0,0,1-2.047,3.85A5.714,5.714,0,0,1-18.056-7.14a5.323,5.323,0,0,1-4.8-2.423,12.723,12.723,0,0,1-1.631-6.988A12.623,12.623,0,0,1-22.837-23.5a5.585,5.585,0,0,1,5.071-2.464,5.63,5.63,0,0,1,3.558,1.246A6.213,6.213,0,0,1-12.069-21.2l.05.2h6.253l-.03-.294a11.685,11.685,0,0,0-1.121-3.978A10.5,10.5,0,0,0-9.38-28.517a11.39,11.39,0,0,0-3.683-2.16,13.756,13.756,0,0,0-4.744-.782A13.513,13.513,0,0,0-23.228-30.4a11.362,11.362,0,0,0-4.129,3.028,13.639,13.639,0,0,0-2.6,4.808,20.953,20.953,0,0,0-.9,6.347A18.513,18.513,0,0,0-29.867-9.9a13.335,13.335,0,0,0,2.724,4.578,11.073,11.073,0,0,0,4.13,2.8A14.051,14.051,0,0,0-17.89-1.6a12.719,12.719,0,0,0,4.478-.762,11.146,11.146,0,0,0,3.58-2.161A11.9,11.9,0,0,0-7.273-7.867,15.838,15.838,0,0,0-5.8-12.2l.061-.318h-6.286Z" transform="translate(30.854 31.459)" fill="#fff"/></g><g transform="translate(199.123 17.451)"><path d="M-6.761-10.658c-3.071,0-4.565-1.9-4.565-5.821,0-3.89,1.493-5.781,4.565-5.781S-2.2-20.37-2.2-16.479c0,3.917-1.493,5.821-4.565,5.821M.827-24.306a9.432,9.432,0,0,0-3.273-2.169,11.539,11.539,0,0,0-4.315-.769,11.809,11.809,0,0,0-4.375.769,9.452,9.452,0,0,0-3.315,2.19,9.54,9.54,0,0,0-2.105,3.418,12.741,12.741,0,0,0-.726,4.388,12.992,12.992,0,0,0,.7,4.345,9.473,9.473,0,0,0,2.065,3.418A9.4,9.4,0,0,0-11.2-6.505a11.822,11.822,0,0,0,4.437.789,11.587,11.587,0,0,0,4.293-.768,9.23,9.23,0,0,0,3.3-2.192,9.75,9.75,0,0,0,2.084-3.4,12.738,12.738,0,0,0,.726-4.408,12.918,12.918,0,0,0-.726-4.429,9.511,9.511,0,0,0-2.085-3.4" transform="translate(17.282 27.244)" fill="#fff"/></g><g transform="translate(222.134 16.877)"><path d="M-6.438-.056A6.213,6.213,0,0,0-8.113.368a6.452,6.452,0,0,0-1.6.958A6.152,6.152,0,0,0-10.7,2.339V.413h-5.756V21.958h6.1v-11.2c0-3.232,1.571-4.8,4.8-4.8a9.118,9.118,0,0,1,1.49.125l.321.053V-.142h-1a16.246,16.246,0,0,0-1.693.086" transform="translate(16.456 0.142)" fill="#fff"/></g><g transform="translate(236.956 16.877)"><path d="M-9.646-7.331c0,4.274-1.506,6.351-4.606,6.351-3.01,0-4.475-2.192-4.475-6.7a6.625,6.625,0,0,1,1.312-4.274,3.936,3.936,0,0,1,3.207-1.6,3.876,3.876,0,0,1,3.266,1.7,7.406,7.406,0,0,1,1.3,4.523m3.641-8.251a8.475,8.475,0,0,0-3.046-2.346A9.211,9.211,0,0,0-12.9-18.74a6.867,6.867,0,0,0-5.712,2.592l-.033-2.024h-6.012V14.752h6.147V1.6a7.651,7.651,0,0,0,6.09,2.821A8.651,8.651,0,0,0-8.564,3.59a8.1,8.1,0,0,0,2.87-2.372A10.9,10.9,0,0,0-3.924-2.387a16.342,16.342,0,0,0,.6-4.552,15.931,15.931,0,0,0-.713-4.931,11.342,11.342,0,0,0-1.969-3.712" transform="translate(24.657 18.74)" fill="#fff"/></g></g><path d="M427.909-59.4h6.363v-6.195h-6.363Z" transform="translate(-167.405 -21.075)" fill="#fff"/><g transform="translate(0 -119.461)" clip-path="url(#a)"><g transform="translate(11.865 14.384)"><path d="M-31.847-11.822c-.413-4.146-2.562-8.186-6.385-12.009-4.127-4.127-8.04-6.033-12.32-6.35-4.372-.324-8.557,1.479-12.439,5.362l-8.941,8.941-7.7,7.7a6.749,6.749,0,0,0-1.761,3.873A5.3,5.3,0,0,0-79.555-.092c3.275,3.275,5.855,3.06,8.987-.072L-63.6-7.132l0,0,9.111-9.111c3.133-3.133,5.712-3.423,8.987-.148.038.038.068.075.1.113h0a5.237,5.237,0,0,1,1.733,4.1A6.779,6.779,0,0,1-45.45-8.265L-55.769,2.054c-2.091,2.084-4.188,4.18-5.914,5.915l-.191.191h0c-1.583,1.593-2.829,2.858-3.427,3.49-5.656,5.977.586,16.472.586,16.472L-37.029.437c3.865-3.865,5.609-7.99,5.183-12.259" transform="translate(81.404 30.218)" fill="#fff"/></g><g transform="translate(0 0)"><path d="M-30.748-23.328A6.753,6.753,0,0,0-28.987-27.2a5.237,5.237,0,0,0-1.733-4.1h0l-.219-.218-.031-.032c-3.205-3.12-5.755-2.8-8.841.286l-9.111,9.111,0,0-6.968,6.967c-3.133,3.133-5.712,3.348-8.987.072a5.3,5.3,0,0,1-1.837-4.213q.017-.247.058-.493c.018-.1.043-.208.067-.312.013-.058.023-.117.038-.176.036-.138.08-.275.128-.413.009-.024.014-.048.023-.072.055-.155.119-.309.189-.463a.175.175,0,0,1,.008-.019,8.376,8.376,0,0,1,1.25-1.924h0c.01-.012.019-.024.029-.035L-54.61-33.561c2.091-2.083,4.189-4.179,5.915-5.914l.191-.191h0c1.583-1.593,2.829-2.858,3.427-3.49,5.656-5.978-.586-16.473-.586-16.473L-73.35-31.944c-3.865,3.865-5.609,7.99-5.183,12.26.413,4.145,2.562,8.185,6.385,12.008,4.127,4.127,8.04,6.033,12.32,6.35C-55.456-1-51.27-2.8-47.389-6.687Z" transform="translate(78.595 59.63)" fill="#ffac2d"/></g></g></g></svg>